<?xml version="1.0" encoding="utf-8"?>
<!-- Generator: Adobe Illustrator 28.4.1, SVG Export Plug-In . SVG Version: 6.00 Build 0)  -->
<svg version="1.1" id="a" xmlns="http://www.w3.org/2000/svg" xmlns:xlink="http://www.w3.org/1999/xlink" x="0px" y="0px"
	 viewBox="0 0 200 200" style="enable-background:new 0 0 200 200;" xml:space="preserve">
<style type="text/css">
	.st0{fill:#1854C9;}
	.st1{fill:#0033AD;}
	.st2{fill:#FFFFFF;}
</style>
<circle class="st0" cx="100" cy="100" r="100"/>
<circle class="st1" cx="100" cy="100" r="90"/>
<g id="Layer_2_1_">
	<g id="Layer_1-2">
		<path class="st2" d="M65.8,99.5c-0.3,5.6,4,10.4,9.6,10.7c0.2,0,0.4,0,0.6,0c5.7,0,10.2-4.6,10.2-10.2c0-5.7-4.6-10.2-10.2-10.2
			C70.5,89.8,66.1,94.1,65.8,99.5z"/>
		<path class="st2" d="M27.7,96.9c-1.8-0.1-3.4,1.3-3.5,3.1c-0.1,1.8,1.3,3.4,3.1,3.5c1.8,0.1,3.4-1.3,3.5-3.1
			C31,98.5,29.5,97,27.7,96.9L27.7,96.9z"/>
		<path class="st2" d="M65.1,40.3c1.6-0.8,2.3-2.8,1.5-4.4s-2.8-2.3-4.4-1.5c-1.6,0.8-2.3,2.8-1.5,4.4
			C61.5,40.4,63.5,41.1,65.1,40.3C65.1,40.3,65.1,40.3,65.1,40.3z"/>
		<path class="st2" d="M75.5,58.3c2.5-1.3,3.5-4.3,2.3-6.8c-1.3-2.5-4.3-3.5-6.8-2.3s-3.5,4.3-2.3,6.8C69.9,58.6,73,59.6,75.5,58.3z
			"/>
		<path class="st2" d="M40.7,70.7c1.9,1.3,4.5,0.7,5.8-1.2c1.3-1.9,0.7-4.5-1.2-5.8c-1.9-1.3-4.5-0.7-5.8,1.2l0,0
			C38.1,66.9,38.7,69.5,40.7,70.7z"/>
		<path class="st2" d="M46.8,95.1c-2.8-0.2-5.2,2-5.4,4.8s2,5.2,4.8,5.4s5.2-2,5.4-4.8l0,0C51.8,97.6,49.7,95.2,46.8,95.1z"/>
		<path class="st2" d="M41.2,129.3c-2.1,1.1-2.9,3.6-1.9,5.7c1.1,2.1,3.6,2.9,5.7,1.9c2.1-1.1,2.9-3.6,1.9-5.7l0,0
			C45.8,129.1,43.3,128.2,41.2,129.3L41.2,129.3z"/>
		<path class="st2" d="M61,84.5c2.8,1.8,6.5,1.1,8.3-1.7c1.8-2.8,1.1-6.5-1.7-8.3c-2.8-1.8-6.5-1.1-8.3,1.7
			C57.5,79,58.2,82.7,61,84.5L61,84.5z"/>
		<path class="st2" d="M123.8,57.9c2.3,1.5,5.5,0.9,7.1-1.5c1.5-2.3,0.9-5.5-1.5-7.1c-2.3-1.5-5.5-0.9-7.1,1.5l0,0
			C120.8,53.2,121.5,56.4,123.8,57.9L123.8,57.9z"/>
		<path class="st2" d="M134.3,39.9c1.5,1,3.6,0.6,4.6-1c1-1.5,0.6-3.6-1-4.6c-1.5-1-3.6-0.6-4.6,0.9
			C132.3,36.9,132.8,38.9,134.3,39.9L134.3,39.9z"/>
		<path class="st2" d="M124.6,89.8c-5.6-0.3-10.5,4-10.7,9.6c-0.3,5.6,4,10.5,9.6,10.7c0.2,0,0.4,0,0.6,0c5.6,0,10.2-4.6,10.2-10.2
			C134.3,94.5,130,90,124.6,89.8L124.6,89.8z"/>
		<path class="st2" d="M78.8,83.8c1.7,3.4,5.3,5.6,9.1,5.6c5.6,0,10.2-4.6,10.2-10.2c0-1.6-0.4-3.2-1.1-4.6
			c-2.5-5.1-8.7-7.1-13.7-4.5C78.3,72.6,76.3,78.8,78.8,83.8L78.8,83.8z"/>
		<path class="st2" d="M158.8,70.7c2.1-1.1,2.9-3.6,1.8-5.7c-1.1-2.1-3.6-2.9-5.7-1.8c-2.1,1.1-2.9,3.6-1.9,5.6
			C154.2,70.9,156.7,71.8,158.8,70.7L158.8,70.7z"/>
		<path class="st2" d="M132.9,74c-2.9,1.5-4.2,5.1-2.7,8c1.5,2.9,5.1,4.2,8,2.7s4.2-5.1,2.7-8S135.9,72.5,132.9,74z"/>
		<path class="st2" d="M99.6,38.4c2.3,0.1,4.3-1.7,4.4-4c0.2-2.3-1.7-4.3-4-4.4c-2.3-0.1-4.3,1.6-4.4,3.9
			C95.5,36.3,97.3,38.2,99.6,38.4L99.6,38.4z"/>
		<path class="st2" d="M99.6,64.8c3.3,0.2,6.1-2.3,6.3-5.7c0.2-3.3-2.3-6.1-5.7-6.3c-3.3-0.2-6.1,2.3-6.3,5.7
			C93.7,61.8,96.2,64.6,99.6,64.8L99.6,64.8z"/>
		<path class="st2" d="M67.1,126c2.9-1.5,4.2-5.1,2.7-8c-1.5-2.9-5.1-4.2-8-2.7s-4.2,5.1-2.7,8S64.1,127.5,67.1,126z"/>
		<path class="st2" d="M103.4,73.6c-3.1,4.7-1.8,11,2.9,14.1s11,1.8,14.1-2.9c3.1-4.7,1.8-11-2.9-14.1c-1.7-1.1-3.6-1.7-5.6-1.7
			C108.5,69,105.3,70.7,103.4,73.6z"/>
		<path class="st2" d="M121.2,116.2c-2.5-5.1-8.7-7.1-13.7-4.5c-5.1,2.5-7.1,8.7-4.5,13.7c2.5,5.1,8.7,7.1,13.7,4.5l0,0
			C121.7,127.4,123.7,121.4,121.2,116.2C121.2,116.3,121.2,116.3,121.2,116.2z"/>
		<path class="st2" d="M139,115.5c-2.8-1.8-6.5-1.1-8.3,1.7c-1.8,2.8-1.1,6.5,1.7,8.3c2.8,1.8,6.5,1.1,8.3-1.7
			C142.5,121,141.8,117.3,139,115.5L139,115.5z"/>
		<path class="st2" d="M158.5,100.2c0.2-2.8-2-5.2-4.8-5.4c-2.8-0.2-5.2,2-5.4,4.8s2,5.2,4.8,5.4l0,0
			C156,105.2,158.4,103,158.5,100.2z"/>
		<path class="st2" d="M172.6,96.5c-1.8-0.1-3.4,1.3-3.5,3.1c-0.1,1.8,1.3,3.4,3.1,3.5c1.8,0.1,3.4-1.3,3.5-3.1
			C175.8,98.2,174.5,96.7,172.6,96.5z"/>
		<path class="st2" d="M159.3,129.3c-1.9-1.3-4.5-0.7-5.8,1.2c-1.3,1.9-0.7,4.5,1.2,5.8c1.9,1.3,4.5,0.7,5.8-1.2
			C161.9,133.1,161.3,130.5,159.3,129.3L159.3,129.3z"/>
		<path class="st2" d="M65.7,160.1c-1.5-1-3.6-0.6-4.6,0.9c-1,1.5-0.6,3.6,0.9,4.6c1.5,1,3.6,0.6,4.6-0.9l0,0
			C67.7,163.1,67.2,161.1,65.7,160.1z"/>
		<path class="st2" d="M134.9,159.7c-1.6,0.8-2.3,2.8-1.5,4.4s2.8,2.3,4.4,1.5s2.3-2.8,1.5-4.4C138.5,159.6,136.5,158.9,134.9,159.7
			C134.9,159.7,134.9,159.7,134.9,159.7z"/>
		<path class="st2" d="M96.6,126.4c3.1-4.7,1.8-11-2.9-14.1c-4.7-3.1-11-1.8-14.1,2.9c-3.1,4.7-1.8,11,2.9,14.1
			c1.7,1.1,3.6,1.7,5.6,1.7C91.5,131.1,94.7,129.4,96.6,126.4z"/>
		<path class="st2" d="M76.2,142.1c-2.3-1.5-5.5-0.9-7.1,1.5c-1.5,2.3-0.9,5.5,1.5,7.1s5.5,0.9,7.1-1.5l0,0
			C79.2,146.8,78.5,143.6,76.2,142.1z"/>
		<path class="st2" d="M100,161.6c-2.3-0.1-4.3,1.7-4.4,4s1.7,4.3,4,4.4c2.3,0.1,4.3-1.6,4.4-3.9C104,163.7,102.3,161.8,100,161.6
			L100,161.6z"/>
		<path class="st2" d="M100,135.2c-3.3-0.2-6.1,2.3-6.3,5.7c-0.2,3.3,2.3,6.1,5.7,6.3c3.3,0.2,6.1-2.3,6.3-5.7
			C105.9,138.2,103.3,135.4,100,135.2L100,135.2z"/>
		<path class="st2" d="M124.5,141.7c-2.5,1.3-3.5,4.4-2.2,6.9c1.3,2.5,4.4,3.5,6.9,2.2c2.5-1.3,3.5-4.3,2.3-6.8
			C130.1,141.4,127.1,140.4,124.5,141.7L124.5,141.7z"/>
	</g>
</g>
</svg>
