<?xml version="1.0" encoding="utf-8"?>
<!-- Generator: Adobe Illustrator 28.4.1, SVG Export Plug-In . SVG Version: 6.00 Build 0)  -->
<svg version="1.1" id="a" xmlns="http://www.w3.org/2000/svg" xmlns:xlink="http://www.w3.org/1999/xlink" x="0px" y="0px"
	 viewBox="0 0 1395.5 1184" style="enable-background:new 0 0 1395.5 1184;" xml:space="preserve">
<style type="text/css">
	.st0{fill:#FFBB83;stroke:#000000;stroke-width:8;stroke-miterlimit:10;}
	.st1{fill:#7384FF;stroke:#000000;stroke-width:8;stroke-miterlimit:10;}
	.st2{fill:#020202;}
	.st3{fill:#FFFFFF;stroke:#000000;stroke-width:5;stroke-miterlimit:10;}
	.st4{fill:#E04B4B;stroke:#000000;stroke-width:5;stroke-miterlimit:10;}
</style>
<path class="st0" d="M308.9,319.6C555,395.1,652,416.3,685.4,416.7c2.7,0,11.2,0,22.5,2.1c36,6.7,60.5,28.3,89.1,54.7
	c65.1,60.2,55.2,56.4,65.7,62.5c64.9,37.5,140.8,3.7,154.6,33.9c6.1,13.3-6.5,24.4,2.1,38.1c11.7,18.7,40.3,6.6,59.3,18
	c35,21.1,13.2,107.4-10.8,289.2c-14,106.5-12.8,124.4-11.8,135.3c5.1,52.7,20.1,85.5,16.2,151.5c-2,33.1-3.5,53.6-17.7,72.1
	c-30.2,39.4-93.6,37.4-119.1,36.8c-259.3-6.2-461.8,43.6-473.5-7.3c-6-25.9,47-35.6,102.9-113.2c62.7-87.1,71.8-180.1,76.5-227.9
	c13.3-136-29-242.7-52.9-292.6c-8.8-4.7-17.6-9.6-26.5-14.7c-42.8-24.5-82-50.3-117.6-76.5"/>
<path class="st0" d="M219.6,590.7c-6.8,9.8-14.1,23.9-10.3,37.4c4.8,17.4,22.4,28.1,116.5,45.5c109.8,20.4,129.4,12.6,139.1,7.8
	c4.1-2,41.6-21.3,57.3-63.2c8.2-22,7.9-43.3-13.2-123.5c-19.4-73.4-29.1-110.2-38.2-122.1c-43.6-57.1-121.8-61.8-194.1-69.1
	c-65.5-6.6-129.3-13-170.6,27.9c-36.6,36.3-38.4,88.9-39.7,138.2c-1.2,45.6,7.6,101.7,28.3,105.9c9,1.8,13.5-7.9,27.5-6.3
	c18.8,2,21.2,20.4,38.8,23.3c17.9,2.9,23-14.9,41.2-13c20,2,20.5,24.1,45.2,31.4c19.4,5.7,25.2-6.1,44.7,0.1
	c21,6.7,22.1,23,38.9,27.9c22,6.4,46-13.9,57.4-23.5c43.7-37,52.2-93.2,54.4-116.2"/>
<path class="st1" d="M689.8,415.2c-10.7,45.6-25.4,96.2-45.6,150c-14.5,38.6-30,74-45.6,105.9c-32.3,181-64.7,362-97.1,542.9
	c343,118.8,534.2,145.6,573.5,80.6c4.6-7.6-2.6-20.7-4.4-80.6c0,0-0.8-27.6,0-63.5c3-127.9,59-478.4,10.3-494.1
	c-16.8-5.4-28,34.9-92.7,79.4c-35.4,24.4-104.8,72.2-164.7,54.4c-108-32-117.2-256.7-117.7-270.6c-1.3-41.8,3.4-77,8.3-102.2
	L689.8,415.2L689.8,415.2z"/>
<path d="M127.7,563.6c-0.6-2.5-1.1-5-1.5-7.5c-0.2-1.5-0.5-2.9-0.7-4.3c-0.1-0.6-0.1-1.2,0-0.2c0-0.3-0.1-0.7-0.1-1
	c-0.1-0.8-0.2-1.7-0.3-2.5c-0.8-7.5-1-15-0.6-22.4c0.1-2.1,0.3-4.2,0.5-6.3c0.1-1,0.2-2.1,0.3-3.1c0.1-0.5,0.1-1,0.2-1.5
	c0.1-0.8-0.1,0.7,0-0.1c0.1-0.3,0.1-0.7,0.1-1c0.6-4.1,1.4-8.1,2.3-12.1c1.6-7,3.8-14,6.5-20.7c0.1-0.4,0.3-0.8,0.5-1.1
	c0.1-0.2,0.1-0.3,0.2-0.5c0.4-1.1-0.3,0.7,0,0.1c0.3-0.8,0.7-1.5,1-2.3c0.6-1.5,1.3-2.9,2-4.3c1.2-2.6,2.6-5.1,4-7.5
	c1.3-2.3,0.6-5.6-1.8-6.8s-5.5-0.6-6.8,1.8c-6.3,11.3-11.3,23.5-14.5,36.1c-4.1,16.1-5.5,33-4.1,49.5c0.6,7,1.7,13.9,3.2,20.7
	c0.6,2.5,3.7,4.3,6.2,3.5C126.8,568.9,128.3,566.3,127.7,563.6L127.7,563.6L127.7,563.6z"/>
<path d="M207.1,578.4c-0.5-7.7-0.6-15.4-0.3-23.1c0.1-4.4,0.4-8.8,0.8-13.1c0.2-2.3,0.4-4.6,0.7-6.9c0.1-0.6,0.1-1.2,0.2-1.8
	c0-0.3,0.2-1.7,0.1-0.8c0.2-1.2,0.4-2.5,0.5-3.7c2.8-18.2,7.6-36,14.4-53.1c0.4-1,0.8-2,1.2-2.9c0.1-0.2,0.2-0.5,0.3-0.7
	c0.1-0.1,0.5-1.1,0.2-0.4c-0.3,0.6,0-0.1,0.1-0.2c0.1-0.3,0.2-0.5,0.4-0.8c0.8-1.9,1.6-3.7,2.5-5.5c1.6-3.4,3.2-6.8,4.9-10.1
	c1.2-2.3,0.7-5.5-1.8-6.8c-2.3-1.2-5.6-0.7-6.8,1.8c-7.3,14-13.3,28.8-17.8,44c-5.6,18.8-8.8,38.2-9.8,57.8
	c-0.4,8.8-0.4,17.7,0.1,26.6c0.1,2.6,2.2,5.1,5,5C204.7,583.3,207.3,581.2,207.1,578.4L207.1,578.4L207.1,578.4z"/>
<path d="M300,606.6c-2.1-20.6-2.4-41.3-0.9-61.9c0.5-6.1,1.1-12.3,1.8-18.4c0-0.4,0.1-0.8,0.1-1.2c0-0.2,0.2-1.3,0-0.3
	c0.1-0.7,0.2-1.4,0.3-2.1c0.2-1.5,0.4-3,0.7-4.5c0.5-2.9,0.9-5.8,1.5-8.7c1.9-10.7,4.4-21.2,7.3-31.7s6-19.8,9.6-29.5
	c0.9-2.5-1-5.6-3.5-6.1c-2.8-0.6-5.2,0.9-6.1,3.5c-7,18.6-12.4,37.7-16.1,57.2c-4.5,23.4-6.7,47.4-6.5,71.2
	c0.1,10.9,0.7,21.7,1.8,32.6c0.3,2.6,2.1,5.1,5,5C297.5,611.4,300.3,609.3,300,606.6L300,606.6L300,606.6z"/>
<path class="st0" d="M1202.9,281.6c6.9,17.6,43.1,115.5-6.8,210.2c-7,13.3-22.8,42.4-53.7,66.2c-32.2,24.7-65.3,29.6-87.3,33
	c-23.2,3.6-131.4,20.4-223.4-54.1c-58.8-47.7-80.7-108.3-88.5-135l0,0c-0.2-0.3-18.7-31-30.3-82c-4.4-19.3-2.5-33.4,0-43
	c0.2-0.6,0.3-1.2,0.5-1.7c12.1-41.4,57.2-61.8,66-65.5c-4.2-6.9-9.7-17.8-12.8-32.7c-1.9-9.2-6.2-30.3,1.8-52.8
	c13.3-37.2,51.4-52.9,56.5-54.9c10.7-19,27.5-30,41-27.7c2.9,0.5,8.2,2,13.4,7.8c6.4-6.6,37.1-36.9,79.5-37.9
	c42.1-1.1,78.9,27.2,93.1,71.8c11.2-5.6,30.9-13.6,54.2-12.3c49.2,2.7,74.8,44.7,82.9,58c25.6,41.9,22.2,88.5,20.6,111.1
	C1208.3,257.2,1205.4,271.6,1202.9,281.6L1202.9,281.6z"/>
<path class="st2" d="M1153.2,212.1c-14.5-22-32.8-41.7-54.3-57.1c-5.3-3.8-10.8-7.4-16.6-10.5c-10-5.6-20-11.1-30.4-16
	c-7.4-3.5-15.1-6.8-22.7-10.1l0.2-0.7c13.4,1.6,26.4,5.7,38.8,11.1c12.4,5.5,23.6,13.4,34.1,21.8c21,16.7,38.6,37.7,51.5,61.1
	L1153.2,212.1L1153.2,212.1z"/>
<path class="st2" d="M887,54.8c18.9,3.1,37.3,10,53.6,20.2c4.1,2.6,8.2,5.2,12.1,8.1c11.6,8.7,21.2,20.4,27.2,33.6l-0.6,0.4
	c-7-6.5-13.5-13.1-20.6-19.3c-6.2-5.5-14.5-13.4-21.2-18.1c-7.6-5.4-15.7-10.2-24.2-14.2c-8.5-4.1-17.4-7.3-26.5-9.9L887,54.8
	L887,54.8L887,54.8z"/>
<path class="st2" d="M976.3,344.9c-14.7-5.4-27.8-15.3-37.1-27.9c-2.3-3.2-4.6-6.5-6.6-9.9c-4-6.9-6.2-14.8-7-22.7
	c-0.4-4-0.4-7.9,0.2-11.9l0.7-0.1c2.8,7.4,5.2,14.5,8,21.3c2.9,6.8,5.5,13.8,9.4,20.1c8,12.8,19.3,23.4,32.8,30.5L976.3,344.9
	L976.3,344.9L976.3,344.9z"/>
<path class="st2" d="M876.3,245.6c-12.7,9.7-34.9,16.2-50.8,15l-0.3-0.6c8-3.8,16.4-6.9,24.9-9.5c8.6-2.4,17.3-4.4,26.1-5.5
	L876.3,245.6L876.3,245.6L876.3,245.6z"/>
<path class="st2" d="M794.2,217.8c8.8,6.7,18.3,12.2,28.4,16.6c2.5,1.1,5.1,1.9,7.7,2.7c5.2,1.6,10.1,3.8,15.1,6.1
	c2.5,1.2,5,2.4,7.6,3.9l-0.1,0.7c-8.6,1.1-17.5-0.4-25.2-4.2c-5-2.7-10-5.5-14.8-8.6c-7-4.8-13.5-10.3-19.1-16.6L794.2,217.8
	L794.2,217.8L794.2,217.8z"/>
<path class="st2" d="M906.5,222.4c5.6,11.2,9.7,21.8,15.4,32.4c5.5,10.8,11.8,20,18.5,30.6l-0.4,0.6c-15.3-10.8-26.2-27.2-31-45.2
	c-1.7-6-2.7-12.1-3.1-18.3L906.5,222.4L906.5,222.4L906.5,222.4z"/>
<path class="st2" d="M1058.8,480.1c3.6,23-20.6,46.8-43.5,41.2l-0.1-0.7c5.1-1,10-2.8,14.6-5.2c11.4-6.1,20.6-16.3,25.7-28.2
	c1.1-2.4,2-4.8,2.7-7.3L1058.8,480.1L1058.8,480.1L1058.8,480.1z"/>
<path class="st2" d="M1010.7,554.3c-52.1,7.3-106.8-6.5-150.6-35.2c-14.7-9.6-28.2-21-39.5-34.2l0.5-0.5
	c6.5,5.6,13.3,10.9,20.3,15.9c41.9,30.2,92.2,48.1,143.6,52.3c8.6,0.8,17.2,1.1,25.8,1.1L1010.7,554.3L1010.7,554.3L1010.7,554.3z"
	/>
<path class="st2" d="M1070.1,308.6c-13.3,1.7-27.2,2.4-40.4,3.4l-6.6,0.5c-21.5,1.8-42.9-6-59.4-19.3l0.3-0.6
	c16.4,7.1,33.9,13.1,52,13.2c13.6-0.4,27.2-0.9,40.7,0.4c4.5,0.4,9,1,13.5,1.7L1070.1,308.6L1070.1,308.6L1070.1,308.6z"/>
<path d="M1069.2,76.4c-17,10.5-34.7,20.5-48.4,35.2l-3.2,3.5c-3.4,4.2-9.2,7.1-14.7,6.6c-4.7-0.1-9.9-3.2-13.8-3.9
	c-10.8-1-22.9,10.2-30.5,17.2c-4.4,4.3-8.9,9-13,13.6l-0.5-0.4c3.8-5,7.7-10,12-14.7c8.2-8.6,19.6-20.8,32.5-20.2
	c3.2,0.3,6.4,1.8,9.5,2.5c5.5,1.6,10.6-0.2,13.8-4.7l2.9-3.7c8.9-11.7,21.7-19.8,35.1-25.4c5.8-2.5,11.8-4.9,18.1-6.2L1069.2,76.4
	L1069.2,76.4L1069.2,76.4z"/>
<path d="M1205.1,269.3c8.2,19.6-3,46.9-22.2,55.7l-0.5-0.5c1.6-2,3.1-4,4.6-6c7.3-10.3,12.5-22,15.3-34.3c1.1-4.9,1.8-9.9,2.1-15
	L1205.1,269.3L1205.1,269.3L1205.1,269.3z"/>
<path class="st3" d="M849.5,73.6c-10.6-2.6-18.9-4.5-30.5-3.2c-9.1,1-21,2.4-32,11.8c-11.9,10.3-21.1,28.7-17.7,43.7
	c1.7,7.4,7.9,12.8,20.3,23.3c6.4,5.5,14.8,11.9,34.3,24c13.8,8.6,21.7,13.5,33.5,19.4c29,14.6,39.1,14.1,43.1,13.7
	c13.9-1.3,23.9-8,26.1-9.5c4.5-3.1,16.1-11.2,21-26.3c4.5-14,0.4-25.4-1.1-29.5c-2.7-7.2-6.7-11.9-15.2-19.7
	c-14.3-13.3-23.1-21.4-38.1-30.1C874.1,80.3,857.5,75.6,849.5,73.6L849.5,73.6z"/>
<path d="M806.7,117.3c-4.5,12.3,0,22.3,1.2,24.8c1.1,2.3,5.8,11,15.8,13.5c14.7,3.6,31.8-8.3,38.5-22.8c1-2.2,5.8-12.5,2.2-22.9
	c-4.3-12.5-17.2-15-19.2-15.4c-9.1-1.6-16.7,1.4-19.5,2.7C823.3,98.4,811.6,103.9,806.7,117.3L806.7,117.3z"/>
<path class="st3" d="M973.8,140.1c14.7-1,24.6,3.4,43.8,12.5c13.7,6.4,28.6,13.5,45.3,28c16.1,13.9,25.4,27.1,33,38.1
	c7.9,11.4,32.9,47.5,24.7,57.1c-3.3,3.8-10.5,1.8-17.4,0.2c-42.8-9.6-49.5,5.1-99.4-3.5c-22.5-3.9-36-6.2-51.5-16.3
	c-12.3-8.1-35.7-23.4-36.1-52.3c-0.3-18.7,9.1-40.4,25.8-52.8C954.6,141.4,967.5,140.5,973.8,140.1L973.8,140.1z"/>
<path d="M955.1,191.8c-6.5,11.8-3.7,22.9-2.9,25.6c0.7,2.5,3.9,12.4,13.4,16.8c13.8,6.4,32.7-2.7,41.7-16.3c1.4-2.1,7.8-11.7,6-23.1
	c-2.2-13.6-14.4-18.6-16.4-19.3c-8.7-3.3-16.7-1.6-19.6-0.8C974.5,175.5,962.1,179,955.1,191.8z"/>
<path class="st4" d="M703,334c-0.6,5.5-1.9,29.8,50.5,60.4c33.3,19.4,51.9,20.1,87,32.2c88.4,30.4,112.9,75,156,57.6
	c4.3-1.7,23.4-9.4,28.9-25.5c5.9-17.1-6.7-34.2-12.1-41.3c-18.7-24.5-42.6-29.5-108.1-46.8c-45.5-12-91.4-24.7-117.2-42.9
	c-23-16.3-31.4-25.2-31.4-25.2c-21.8-22.7-41.5-34-49.2-27.8c-8.9,7.2,0.2,36.5,1.9,42C706.8,320.9,703.8,326.8,703,334L703,334z"/>
<path d="M986.9,457.1c-15.6-10.9-31.3-19.9-48.8-26.4c-17.5-6.3-35.8-10.5-53.3-17c-35.8-13.2-73.4-22.9-106.5-42.6
	c-16.4-10-31.8-21.7-45.5-35.1c-4.5-4.5-8.9-9.1-13.1-13.9l1.2-1.1c9.1,8.6,18.9,16.6,29.2,23.9c10.2,7.1,21,13.6,32.1,19.2
	c22.3,11.2,46.4,18.1,70.5,24.9c48.4,13,105.6,22.2,135.4,66.9L986.9,457.1L986.9,457.1L986.9,457.1z"/>
<path class="st0" d="M1013.6,670.8c-0.1,19.6,2.2,33.5,5.7,43.1c9.2,25.6,15.3,60.9,2.1,128.1c-32.2,163.7-37.2,178-30.7,209.7
	c2.3,11.4,19.4,89.5,65.6,98.5c37.6,7.3,73.6-35.1,81.5-44.5c41-48.3,41.7-104.2,46.6-169.4c6.1-82.4,16.6-164.8,33.9-245.7
	c7.4-34.6,19.9-86.2-6.3-118.6c-7.7-9.5-23.4-23.1-31.8-19.1c-8.7,4.1-5.1,24.9-11.7,26.5c-6.9,1.6-13.6-20.7-23.3-20.1
	c-10.6,0.7-11.6,29.7-24.3,31.8c-9.4,1.5-13.4-13.5-24.7-13.4c-15.9,0.2-22.6,30.2-35.3,28.9c-9.4-0.9-10.1-17.8-17.7-18.3
	C1031.4,587.4,1013.8,627.7,1013.6,670.8L1013.6,670.8z"/>
</svg>
