<?xml version="1.0" encoding="utf-8"?>
<!-- Generator: Adobe Illustrator 28.4.1, SVG Export Plug-In . SVG Version: 6.00 Build 0)  -->
<svg version="1.1" id="Layer_1" xmlns="http://www.w3.org/2000/svg" xmlns:xlink="http://www.w3.org/1999/xlink" x="0px" y="0px"
	 viewBox="0 0 1280 1066.5" style="enable-background:new 0 0 1280 1066.5;" xml:space="preserve">
<style type="text/css">
	.st0{fill:#FFBB83;stroke:#000000;stroke-width:5;stroke-miterlimit:10;}
	.st1{fill:#FFC45C;stroke:#000000;stroke-width:5;stroke-miterlimit:10;}
	.st2{fill:#020202;stroke:#000000;stroke-miterlimit:10;}
	.st3{stroke:#000000;stroke-miterlimit:10;}
	.st4{fill:#FFFFFF;stroke:#000000;stroke-miterlimit:10;}
	.st5{fill:#E04B4B;stroke:#000000;stroke-miterlimit:10;}
	.st6{fill:#8B5E3C;stroke:#000000;stroke-width:5;stroke-miterlimit:10;}
	.st7{fill:#754829;stroke:#000000;stroke-width:5;stroke-miterlimit:10;}
	.st8{fill:#A8724E;}
	.st9{fill:#FFFFFF;stroke:#000000;stroke-width:5;stroke-miterlimit:10;}
	.st10{fill:#FFBB83;}
	.st11{fill:#231F20;}
</style>
<path class="st0" d="M769,328.5c-7.1,8.2-16.9,12.1-23,15.2c-24.9,12.7-37.2,36.6-52.9,67.1c-8,15.5-22.8,44.2-22.6,69.2
	c0,4.8,0.7,11.7-2.8,19.8c-4.7,10.7-11.8,12.5-15.5,24c-2.9,9.1-0.2,13.3-2.8,14.8c-7,4-28.7-24.4-43.1-43.1
	c0,0-14.7-19.1-17.7-40.2c-0.1-1-0.5-3.8,0.5-7.1c1.3-4,4-6.3,4.8-7c5.9-5.5,8-18.4,10.6-34.6c0.4-2.3,2.2-14,2.1-29.6
	c-0.1-14.1-1.7-19.2-5.3-21.5c-3.6-2.3-6,0.2-10.6-2.5c-6.3-3.6-5.8-10.6-10.2-11.3c-3-0.5-6.3,2.5-7.8,4.9
	c-3.2,5.3-0.1,11.2-1.8,12c-2.2,1-6.4-9.8-13.4-9.9c-3.8,0-7.8,3-9.9,5.6c-2.5,3.1-2.3,5.6-4.6,6.4c-2.4,0.8-3.5-1.7-7.8-2.5
	c-3.3-0.6-8.4-0.1-10.9,2.8c-2.9,3.3-0.9,7.8-3.2,8.8c-1.9,0.9-3.3-2.4-7.8-3.2c-4.1-0.8-9.7,0.7-12,4.2c-1.2,1.8-1,3.6-2.8,4.6
	c-1.6,0.9-2.1-0.2-4.1,0.6c-2,0.9-3,2.5-5.4,2.5l0,0c-3,0-5.5,6.8-6,8.1c-4.2,11.4,10.9,43.3,15.2,52.2c6.8,14.2,10.6,20,16.6,25.4
	c4,3.6,6.2,4.5,9.9,8.5c8.5,9.3,10.8,19.9,11.7,23.3c5.5,22.3,35.8,86.9,67.4,131.3c20.2,28.3,38,44.3,57.5,61.8
	c5.1,4.6,12.1,10.7,22.6,16.6c7,4,39.9,22.6,58.2,12c16-9.3,15.5-37.9,15.5-46.9c0.1-38.2,11.8-101.1,62.8-209.6l40.2-26.8
	C835.5,394.9,801.8,362.1,769,328.5L769,328.5z"/>
<path class="st1" d="M467.6,394.6c-3.5,8.8-1.9,16.9-1.2,20.2c2.1,10,9.3,25.2,20.5,26.8c1.1,0.2,5.1,0.7,8.7-1.6
	c5.3-3.4,5.8-10,5.9-11.1c1.9-1.8,4.4-3.9,7.5-5.9c6.6-4.2,12.5-5.6,13.4-5.9c9-2.5,237.8-82.2,558.1-194.1
	c1.1-3.3,4.2-14.5-0.7-27.5c-4.7-12.4-13.9-18.6-16.9-20.5c-75.7,26.4-153.2,55-232.5,86.1C721.9,303.8,618.6,347.6,520.8,392
	c-2.5-0.9-5.4-1.7-8.7-2.2c-10.4-1.7-19.2,0.4-24.6,2.1c-0.7-0.8-4-4.4-9.5-4.7c-3.7-0.2-6.4,1.2-7.5,1.9
	C469.6,390.4,468.6,392.2,467.6,394.6L467.6,394.6z"/>
<path class="st0" d="M1198.9,450.7c-2.7,10.5-8.9,16.7-19,26.9c-7.4,7.5-20.5,20.5-40.7,28.9c-36.4,15.2-50.7-3.4-76.2,13.6
	c-9.9,6.6-12.4,12.5-31.1,24.7c-6.1,4-12.7,7.1-26.1,13.4c-12.3,5.8-18.3,7.9-23,5.2c-3.3-1.9-4.8-5.3-5.7-8
	c-6-0.9-10.6-4.8-11.5-9.5c-0.6-3.1,0.5-5.7,1.2-6.9c-1-0.2-3.8-0.9-5.9-3.5c-2.3-2.9-2.7-6.9-1.2-10.6c-1.4-0.6-3.4-1.6-5.2-3.5
	c-6.1-6.5-4-16.8-3.3-20.7c1-5.1,1.9-4.3,7.5-17.4c5.2-12,5.4-15,9.4-17.6c3.2-2.2,4.1-0.8,12-3.8c7.1-2.7,8.1-4.4,12.7-5.9
	c4.5-1.5,7.5-1.1,17.9-0.2c15.3,1.3,22.9,2,27.3,1.9c2,0,3.8-0.1,5.6-0.3c8.6-0.6,14.2-2.1,15.8-2.6c11.3-3.1,17-7.5,19.1-9.2
	c1.8-1.5,3.3-3,4.2-4c-4-0.6-8.7-1.6-13.7-3.5c-13.7-5.3-22.3-14.3-26.8-19.8c1.2,2.6,4,9.3,1.4,13.1c-1-0.5-2.1-1.1-3.3-1.8
	c-18.4-10.6-29.2-23.7-33.4-28.7C984.1,374,977.5,377.2,950,344c-4.1-4.9-19.8-24.1-30.6-50.4c-3.9-9.5-7.1-19.8-3.8-30.6
	c2.7-8.8,8.3-14.5,9.4-15.5c10-9.8,23-10.6,22.6-12.4l0,0c13.8-5.6,14-8.2,23.1-11c22.1-6.8,43.5,1.9,62.5,9.5
	c11.4,4.6,24,9.7,37.1,21.2c21.1,18.6,29.4,41.5,32.8,54c7.9,6.3,19.6,16.6,30.7,31.8c10.8,14.8,10.4,19.4,21.2,32.8
	c15.3,19,23.6,18.8,32.8,32.8C1192,412.5,1203.9,430.9,1198.9,450.7L1198.9,450.7z"/>
<path class="st0" d="M1043.6,431.5c-0.1,0.1-0.1,0.2-0.2,0.3c-2.9,3.7-10,2.6-13.7,1.9c-24.2-4.4-118.8-28.5-123.5-29.6l-37.5,25
	c-55,36.9-116.9,18-131.9-14.7c-10.7-23.1-0.4-58.7,27.5-85.6c3.2-3.1,6.5-6,10.2-8.8c2.1-4.6,2.8-9.2,3.3-18.6
	c1.4-27.5-2.6-36-1.4-45.9c4-33.2,78.7-72.9,85.4-48.4c1.3,4.9,6.2,20.2,21.2,29.6c10.4,6.6,20.8,7.2,26.5,7.4
	c2.1,0.1,4.1,0.1,6.1-0.1c9.4-0.6,17.4-3.5,27.8-7.4c1.6-0.6,3.1-1.2,4.4-1.7l0,0c0.4,1.9-12.6,2.7-22.6,12.4
	c-1.1,1.1-6.7,6.8-9.4,15.5c-3.4,10.8-0.2,21.1,3.8,30.6c10.8,26.3,26.5,45.4,30.6,50.4c27.5,33.2,34.1,30,56.9,56.9
	c4.3,5,15,18.1,33.4,28.7C1041.5,430.3,1042.6,430.9,1043.6,431.5L1043.6,431.5z"/>
<g>
	<path class="st0" d="M836.3,80.6c7,4.1,45,27.1,52.9,72.8c1.1,6.4,3.4,20.6-0.9,37.1c-7.6,29.2-30,43.6-46.8,54.4
		c-29.4,18.8-56.7,20.1-64.7,20.2c-16.8,0.2-33-5.6-65.4-17.4c0,0-14.4-5.2-31.8-19.3c-6.6-5.3-9.6-10.6-11.3-14.5
		c-0.1-0.3-0.2-0.5-0.3-0.7c-6.8-17.3,3.3-36.6,5.2-40.3c-3.2-1.2-8-3.3-12.9-7.5c-3-2.6-10.1-8.5-13.2-18.3
		c-5.2-16.2,3.6-32,4.8-34.1c-1.4-9.4,1.5-17.7,6.7-20.6c1.1-0.6,3.3-1.6,6.6-1.1c0.5-4,3-22.7,17.1-34.7c14.1-12,34-12.5,50.5-1.4
		c2.3-5,6.9-13.1,15.2-19c17.5-12.6,37.2-5.5,43.4-3.3c19.7,7.1,30.8,23.7,36.2,31.8C831.8,70.9,834.6,76.5,836.3,80.6L836.3,80.6z"
		/>
	<g>
		<path class="st2" d="M801.2,70.6c-10.8-4.4-22.3-6.7-33.7-6.5c-5.8,0.1-11.5,0.4-17.2,2c-5.6,1.5-11.1,3.8-16.1,7l0.1,0.3
			c9.6-2.7,19.2-4.9,29-6.3c9.8-1.2,19.8-0.5,29.5,1.6c2.8,0.6,5.5,1.4,8.3,2.2L801.2,70.6C801.2,70.6,801.2,70.6,801.2,70.6z"/>
		<path class="st2" d="M669.4,91.3c7.6-3.3,15.5-5.2,23.6-5.7c2-0.1,4-0.1,6,0c3.5,0.2,8.5,0.4,12,0.6c2,0.1,4,0.3,6.1,0.4l0.1-0.3
			c-5.7-2.9-12-4.2-18.1-3.9c-4.1,0.3-8.2,0.8-12.3,1.7c-6,1.4-11.9,3.7-17.4,6.9L669.4,91.3L669.4,91.3L669.4,91.3z"/>
		<path class="st2" d="M775.8,164c-6.5,1.2-13.2,0.8-19.4-1.4c-0.8-0.3-2-0.8-2.8-1.2c-3.2-1.7-6.4-3.3-9.5-5.2
			c-1.4-0.9-2.8-1.8-4.3-2.6l-0.2,0.2c1,1.6,2.1,3,3.3,4.3c2.8,2.9,6.2,5.1,9.8,6.2c0.6,0.2,1.8,0.6,2.4,0.7c3.6,1,7.4,1.4,11,1.2
			c3.3-0.2,6.5-0.8,9.6-1.9L775.8,164L775.8,164L775.8,164z"/>
		<path class="st2" d="M715.5,158.1c-6.8,2.1-13,11.1-13.4,19.1l0.2,0.2c0.5-0.9,1-1.7,1.5-2.6c2.5-4.2,5.2-8.2,8.2-12
			c1.2-1.5,2.4-3,3.7-4.4L715.5,158.1L715.5,158.1L715.5,158.1z"/>
		<path class="st2" d="M680.5,171.9c4.8,0.8,9.7,0.7,14.4-0.1c2.4-0.4,4.9-0.7,7.1-1.8c2.3-1.1,4.4-2.5,6.3-4.4l-0.1-0.3
			c-1.2,0.2-2.4,0.4-3.6,0.7c-2.3,0.6-4.5,1.2-6.8,2.1c-1.1,0.4-2.2,0.9-3.3,1.2c-2.3,0.6-4.6,1.2-6.9,1.6c-2.3,0.4-4.7,0.6-7.1,0.7
			L680.5,171.9L680.5,171.9L680.5,171.9z"/>
		<path class="st2" d="M719.7,142.4c4.6,10.4,16.8,15.9,26.4,12.8c0.7-0.2,1.3-0.5,1.9-0.8v-0.3c-1.3,0-2.6,0-3.8-0.1
			c-6.4-0.5-12.6-2.8-18.1-6.6c-2.2-1.5-4.2-3.3-6.2-5.3L719.7,142.4L719.7,142.4L719.7,142.4z"/>
		<path class="st2" d="M839.2,187.4c0,2.8,0,5.4-0.2,8.1c-0.2,3.8-0.8,7.3-1.8,10.9c-0.6,2.2-1.3,4.2-2,6.5l0.2,0.2
			c0.8-0.8,1.4-1.7,2.1-2.6c3.8-5.6,5-13.3,3.1-20.1c-0.3-1.1-0.7-2.2-1.2-3.2L839.2,187.4L839.2,187.4L839.2,187.4z"/>
		<path class="st2" d="M842.4,225.2c-13.6,8.4-27.8,15.6-42.6,20.5c-9.6,3.1-19.3,5.4-29.2,6.9c-3.6,0.6-7.3,1-10.9,1.5v0.3
			c3.7,0.1,7.3,0.1,11-0.1c11-0.6,22-2.8,32.5-6.4c14.1-4.9,27.5-12.5,39.4-22.4L842.4,225.2L842.4,225.2L842.4,225.2z"/>
		<path class="st2" d="M798.1,126c-5.7,1.5-11,4.7-15.9,8.4c-1.6,1.2-3,2.6-4.5,3.8c-6.1,4.8-13,7.9-19.8,11.9l0.1,0.3
			c8.3-2.1,16.8-5.3,23.6-11.5c0.8-0.7,1.5-1.4,2.3-2c3-2.6,6.2-5.1,9.5-7.3c1.6-1.1,3.3-2.2,5-3.3L798.1,126L798.1,126L798.1,126z"
			/>
		<path class="st3" d="M736.7,48c-1.3,1.6-2.4,3.3-3.4,5.1c-1.7,3-3.3,6.1-4.5,9.5c-0.7,2-1.2,4.2-1.5,6.4c-0.3,2.1-0.3,4.4-0.3,6.5
			c0,1.2-0.3,2.2-1,3.1c-1.1,1.6-3.1,2.2-4.7,2.8c-2,0.7-3.6,2.4-4.6,4.4c-1.8,3.6-2.4,8-2.8,12c-0.2,2.1-0.3,4.3-0.3,6.4v2.1h0.3
			c0.2-2.8,0.5-5.7,0.9-8.4c0.5-3.4,1.2-6.8,2.6-9.9c0.2-0.4,0.4-0.9,0.7-1.3c0.7-1.2,1.6-2.3,2.7-2.8c1-0.6,2.3-0.8,3.4-1.2
			c1.3-0.5,2.6-1.3,3.6-2.5c0.8-0.9,1.3-2.1,1.6-3.4c0.3-1.8,0.3-3.6,0.5-5.4c0.3-2.7,0.9-5.3,1.6-7.9c1-3.8,2.7-8,4-11.7
			c0.5-1.3,1-2.6,1.5-3.9L736.7,48L736.7,48L736.7,48z"/>
		<path class="st3" d="M833.6,76c0.7,3.8,2.3,8.7,3.3,12.4c1.1,3.7,2.4,8.7,3.7,12.3l0.3,0c0.3-4.5-0.2-9-1.4-13.3
			c-1.2-4.3-3.2-8.2-5.7-11.6L833.6,76L833.6,76z"/>
	</g>
	<g>
		<g>
			<g>
				<path class="st4" d="M661.4,107.7c-4.3,2-7.6,3.7-11.2,7.3c-2.8,2.8-6.5,6.6-7.8,12.8c-1.4,6.8,0.4,15.5,5.5,19.6
					c2.5,2,6,2.1,13,2.3c3.6,0.1,8.2-0.1,18-1.3c7-0.9,10.9-1.4,16.5-2.7c13.7-3.1,17-6,18.3-7.2c4.4-4.3,6-9.3,6.4-10.4
					c0.7-2.3,2.5-8.2,0.2-14.6c-2.1-6-6.5-8.7-8.1-9.6c-2.8-1.7-5.4-2.1-10.3-2.5c-8.4-0.6-13.5-0.9-20.9,0.3
					C671.6,103.2,664.7,106.2,661.4,107.7L661.4,107.7z"/>
				<path class="st3" d="M695.9,147c14.2-3.2,17.4-6.3,18.6-7.5c4.3-4.2,6.1-9.1,6.7-11c0.7-2.4,2.7-8.7,0.2-15.6
					c-1.6-4.3-4.5-7.8-8.7-10.3c-3.1-1.8-5.8-2.3-10.8-2.6c-8.5-0.6-13.6-0.9-21.1,0.3c-6.9,1.1-13.7,3.2-19.8,6.2l0,0
					c-4.1,2-7.7,3.7-11.5,7.6c-2.9,2.9-6.8,6.9-8.2,13.5c-0.7,3.7-0.6,7.8,0.3,11.5c1,4.1,3,7.4,5.6,9.6c2.9,2.3,6.7,2.4,13.7,2.5
					c4.1,0.1,8.7-0.1,18.2-1.4c7.1-0.9,11-1.4,16.6-2.7C695.8,147,695.8,147,695.9,147L695.9,147z M676.9,103.8
					c1.4-0.3,2.8-0.6,4.3-0.8c7.3-1.2,12.3-0.9,20.7-0.3c4.6,0.3,7.2,0.7,9.9,2.3c1.4,0.8,5.5,3.3,7.6,8.9
					c2.1,5.9,0.4,11.5-0.3,13.7c-0.5,1.7-2.2,6.1-6,9.8c-1,0.9-3.9,3.8-17.5,6.9c-0.1,0-0.1,0-0.2,0c-5.5,1.2-9.4,1.7-16.4,2.7
					c-9.3,1.2-13.9,1.4-17.8,1.3c-7-0.1-10.2-0.3-12.3-2c-4.8-3.9-6.2-12.3-5-18.2c1.2-5.8,4.6-9.3,7.4-12.1
					c3.5-3.6,6.9-5.2,10.9-7.1l0,0C666.5,106.7,671.7,105,676.9,103.8L676.9,103.8z"/>
			</g>
			<path class="st3" d="M658.3,134.2c1.7,5.4,5.8,7.5,6.9,8c1,0.5,4.9,2.1,8.9,0.2c5.9-2.8,8.6-11.6,7.1-18.3
				c-0.2-1-1.3-5.8-5.3-8.3c-4.8-3-9.8-0.3-10.6,0.1c-3.5,2-5.3,5.1-5.9,6.3C659,123.3,656.5,128.3,658.3,134.2L658.3,134.2z"/>
		</g>
		<g>
			<g>
				<path class="st4" d="M721.2,95.9c4.7-4.4,9.3-5.6,18.2-7.8c6.3-1.6,13.3-3.3,22.8-3c9.1,0.2,15.8,2.2,21.2,3.8
					c5.7,1.7,23.7,7,23.4,12.4c-0.1,2.2-3.1,3.5-5.9,4.9c-17.1,8.6-15.5,15.3-34.8,26.2c-8.7,4.9-13.9,7.8-21.8,8.7
					c-6.3,0.7-18.3,1.9-26-7.7c-5-6.2-7.5-16.1-5.1-24.9C715,101.6,719.1,97.8,721.2,95.9L721.2,95.9z"/>
				<path class="st3" d="M748.7,141.6c6-1.3,10.8-4.1,18-8.1c9.7-5.5,14.3-10.1,18.4-14.1s7.9-7.8,16.3-12.1
					c0.2-0.1,0.4-0.2,0.7-0.3c2.8-1.4,5.8-2.9,5.9-5.7c0.2-4.6-7-8.8-24.3-13.9c-5.1-1.5-12-3.6-21.5-3.8c-9.8-0.3-17.2,1.6-23,3.1
					c-8.8,2.2-13.6,3.4-18.7,8.1l0,0c-2.1,1.9-6.4,6-8.4,13.1c-2.4,8.7-0.2,19.3,5.4,26.3c8.1,10.1,20.4,8.8,27,8.1
					C745.9,142.2,747.3,141.9,748.7,141.6L748.7,141.6z M744.4,88.3c4.9-1.1,10.6-2,17.7-1.8c9.2,0.2,16,2.3,20.9,3.7
					c2.8,0.8,8.7,2.6,13.8,4.8c8.4,3.6,8.7,5.8,8.7,6.3c-0.1,1.2-2.6,2.4-4.5,3.3c-0.2,0.1-0.4,0.2-0.7,0.3
					c-8.7,4.4-12.7,8.3-16.9,12.5c-4.2,4.1-8.4,8.4-17.9,13.7c-8.5,4.8-13.7,7.7-21.4,8.5c-6.2,0.7-17.7,1.9-25-7.2
					c-5-6.3-7-15.8-4.8-23.5c1.7-6.3,5.7-10,7.6-11.8l-0.8-1.1l0.8,1.1c4.4-4.1,8.6-5.3,17.7-7.6C741.1,89.1,742.7,88.7,744.4,88.3
					L744.4,88.3z"/>
			</g>
			<path class="st3" d="M728.4,118.5c0.9,5.8,4.8,8.7,5.7,9.4c0.9,0.7,4.6,3.1,9,2c6.4-1.6,10.4-9.9,9.9-17c-0.1-1.1-0.4-6.1-4-9.4
				c-4.3-4-9.8-2.3-10.7-2c-3.8,1.3-6.1,4-6.9,5.1C730.7,107.7,727.4,112.2,728.4,118.5z"/>
		</g>
	</g>
	<g>
		<g>
			<path class="st5" d="M680,235.9c1.2,2,7.2,10.6,33,6.5c16.4-2.6,23-7.5,38-13.1c38.1-14.1,58.1-5.8,68.2-23.5
				c1-1.8,5.5-9.6,3.2-16.6c-2.5-7.4-11.3-9.7-15-10.6c-12.8-3.1-22.2,1.8-49.1,14c-18.6,8.5-37.6,16.8-51.2,17.8
				c-12.1,0.9-17.3,0.1-17.3,0.1c-13.4-1.7-23-0.1-24,4.2c-1.1,4.9,9.6,12.2,11.7,13.6C677.8,230.4,678.4,233.2,680,235.9L680,235.9
				z"/>
			<path class="st3" d="M719.2,242.5c8-1.8,13.7-4.2,20-7c3.7-1.6,7.5-3.2,12.2-5c15.7-5.8,28.3-7.8,38.5-9.4
				c14.6-2.3,24.2-3.8,30.4-14.7c3.8-6.7,4.9-12.8,3.3-17.8c-2.8-8.3-12.3-10.6-15.8-11.4c-12.4-3-21.9,1.3-45,11.9
				c-1.5,0.7-3.1,1.4-4.8,2.2c-19.3,8.8-37.7,16.8-50.8,17.7c-11.8,0.8-17,0.2-17.1,0.1c-5.5-0.7-23.6-2.3-25.3,5.2
				c-0.6,2.7,1,5.8,5,9.6c2.4,2.2,5,4.1,6.7,5.3c0.3,2.9,1.2,5.4,2.5,7.6l0,0c2.6,4.2,10.5,10.8,34.2,7
				C715.4,243.3,717.4,242.9,719.2,242.5L719.2,242.5z M771.8,221.7c-6.3,1.4-13.3,3.4-21.1,6.2c-4.8,1.8-8.6,3.4-12.3,5
				c-7.7,3.3-14.4,6.2-25.5,8c-23.3,3.7-30-2.9-31.9-5.9l0,0c-1.2-1.9-1.9-4.3-2.2-6.9l-0.1-0.7l-0.5-0.4
				c-7.2-4.8-11.7-9.7-11.1-12.1c0.7-2.8,8.8-4.9,22.7-3.1c0.2,0,5.4,0.7,17.5-0.1c2.6-0.2,5.4-0.6,8.4-1.3
				c12.1-2.7,26.8-9.2,43.1-16.6c1.7-0.8,3.2-1.5,4.8-2.2c23.3-10.6,32-14.6,43.6-11.7c3.2,0.8,11.8,2.9,14.1,9.7
				c1.4,4.1,0.3,9.4-3,15.3c-5.6,9.8-14.3,11.2-28.7,13.5C784.3,219.3,778.4,220.2,771.8,221.7L771.8,221.7z"/>
		</g>
		<path class="st3" d="M809,198.7c-8.1-1.7-16.5-1.4-24.5,0.5c-8,2-15.7,5.4-23.4,8.6c-17.7,7.6-35.3,16.4-54.2,18.6
			c-2.7,0.3-5.4,0.6-8.1,0.7c-5.4,0.3-10.8,0.1-16.2-0.4l0,0.4c2.7,0.4,5.4,0.7,8.1,0.9c8.2,0.6,16.3,0.1,24.4-1.1
			c10.8-1.8,21.2-5.6,31.5-9.6c9-3.5,21.9-8.4,30.7-12.1c5-2.1,10.2-3.7,15.4-4.7c5.3-1,10.7-1.4,16.1-1.4L809,198.7L809,198.7
			L809,198.7z"/>
	</g>
</g>
<g>
	<path class="st6" d="M726,624.9c-7.7,23-16.2,40.5-22.6,52.2c-6,11.2-8.5,14-16.9,29.7c-5.1,9.4-13.7,25.4-20.7,42.3
		c-8.5,20.8-8.5,28.2-16,54.1c-9.6,32.9-13.6,34.4-22.6,62.6c-6.1,19.2-10.1,42.5-17.9,88.5c-8.1,47.7-12.1,71.6-13.2,86.1
		c-3,40.3,1.3,46.4-1.9,100.2c-2.2,36.6-4.4,37.9-1.4,45.2c21.3,51.6,165.4,66.3,204.2,10.8c8.1-11.5,9.4-22.9,10.8-36.7
		c11.9-116.2,10.2-228.2,10.8-228.2c0.8-0.1,2.3,26.8,2.3,26.8c3,53.9,11.2,107.5,11.8,161.4c0.1,11.9,0,26.2,9.9,36.2
		c11.1,11.3,28.6,10.6,41.4,9.9c86.4-4.6,129.9-7.3,143.1-25.9c6.7-9.5,9.4-21.6,14.6-45.7c4.9-22.5,0.5-29.3,6.1-53.7
		c3-12.9,6.8-23.3,11.8-36.7c7.9-21.5,9.6-21.3,14.6-35.8c5.9-17.3,11.7-34,10.3-56c-0.8-12.5-1.6-26.2-10.3-40
		c-6.8-10.8-13.6-13.8-17.4-25.9c-3-9.5-1.6-16.4-0.9-25.4c2.3-29.2-9.5-35-4.2-50.3c3-8.7,5.6-6.3,12.2-20.2
		c6.2-13,8.3-24.2,9.9-32.9c1.6-8.8,3.2-17.7,2.3-29.7c-0.2-3.1-0.8-11.8-3.8-21.2c-2.1-6.9-5.6-14.5-31.5-44.7
		c-17.4-20.3-22.6-24.7-28.7-28.7c-8.6-5.6-16.5-8.9-22.1-10.8"/>
	<path d="M794.4,640.5c1.6,26.5-2.2,52.8-4.9,79.1c-2.6,25-4.1,50.5,0.7,75.3c1.2,6.3,2.7,12.8,5.2,18.8c2.2,5.3,5.4,10.4,10.7,12.9
		c1.2,0.6,2.7,0.3,3.4-0.9c0.6-1.1,0.3-2.8-0.9-3.4c-4.2-2-6.8-5.9-8.5-10.1c-2.2-5.1-3.5-10.7-4.6-16.2c-2.5-12-3.5-24.2-3.5-36.5
		c0-25.3,3.9-50.3,6.2-75.4c1.3-14.5,2.1-29.2,1.2-43.7C799.2,637.3,794.2,637.3,794.4,640.5L794.4,640.5L794.4,640.5z"/>
	<path d="M821.4,930.8c0.8-8.5,1.5-17,2.2-25.4c0.1-1.3-1.2-2.5-2.5-2.5c-1.5,0-2.4,1.2-2.5,2.5c-0.8,8.5-1.5,17-2.2,25.4
		c-0.1,1.3,1.2,2.5,2.5,2.5C820.3,933.3,821.2,932.2,821.4,930.8L821.4,930.8z"/>
	<path d="M780.3,854.1c-1.4,22.9-2.5,45.8-3.4,68.8s-1.6,45.7-2,68.6c-0.2,12.9-0.4,25.8-0.5,38.7c0,3.2,5,3.2,5,0
		c0.2-23,0.6-45.9,1.2-68.8s1.5-45.7,2.6-68.5c0.6-12.9,1.3-25.8,2.1-38.6C785.5,850.9,780.5,850.9,780.3,854.1L780.3,854.1
		L780.3,854.1z"/>
	<path d="M739,841.9c-0.6,21.5-1,43.1-1.3,64.6c-0.2,21.5-0.3,43.1-0.2,64.6c0.1,12.1,0.2,24.3,0.4,36.4c0,3.2,5,3.2,5,0
		c-0.3-21.5-0.5-43.1-0.4-64.6c0-21.5,0.3-43.1,0.7-64.6c0.2-12.1,0.5-24.3,0.8-36.4C744,838.7,739,838.7,739,841.9L739,841.9
		L739,841.9z"/>
	<path d="M869,745.7c-7.7,23.5-15.1,47-22,70.7c-2,6.7-3.9,13.4-5.8,20.1c-0.9,3.1,3.9,4.4,4.8,1.3c6.8-23.8,13.9-47.4,21.4-70.9
		c2.1-6.6,4.3-13.3,6.5-19.9C874.9,744,870,742.7,869,745.7L869,745.7L869,745.7z"/>
	<path d="M863.9,889.6c-4.9,19.5-9.6,39-13.9,58.6c-1.2,5.6-2.5,11.2-3.7,16.9c-0.7,3.1,4.2,4.5,4.8,1.3
		c4.2-19.6,8.6-39.2,13.4-58.7c1.4-5.6,2.8-11.2,4.2-16.8C869.5,887.8,864.7,886.5,863.9,889.6L863.9,889.6z"/>
	<path d="M1001.2,1037.2c0.9,24.1,2.5,48.1,4.7,72.1c0.6,6.7,1.3,13.5,2.1,20.2c0.2,1.3,1,2.5,2.5,2.5c1.2,0,2.7-1.2,2.5-2.5
		c-2.6-23.9-4.6-47.9-5.9-72c-0.4-6.8-0.7-13.5-0.9-20.3C1006.1,1034,1001.1,1034,1001.2,1037.2L1001.2,1037.2z"/>
	<path d="M1052,1014.8c-0.5,0.3-1.2,0.5-1.9,0.2c-2.7-0.9-5.4-1.8-8.1-2.8c-22.3-7.9-44-17.4-65.1-28.2
		c-21-10.8-41.2-23.1-60.6-36.6c-4.6-3.2-9.5-6.4-13.5-10.3c-4.1-4-6.5-9.1-7.8-14.7c-2.7-12.3-3-25.2-2.8-37.8
		c0.2-12.9,1.2-25.8,2.2-38.7c1.1-12.8,2.4-25.6,4-38.3c3.2-25.6,7.5-51.1,12.8-76.4c0.3-1.4,1.4-1.9,2.5-1.8
		c1.3,0.2,2.6,1.4,2.3,3.1c-0.2,0.8-0.3,1.5-0.5,2.3l0,0c-0.5,2.3-0.9,4.6-1.4,6.9c-2.3,11.3-4.3,22.7-6.2,34.1h0
		c-0.2,1.2-0.4,2.4-0.6,3.6c-2,12.4-3.7,24.8-5.1,37.2c-1.5,12.6-2.7,25.2-3.6,37.8c-1,12.6-1.8,25.3-1.6,37.9
		c0.1,6.3,0.4,12.6,1.2,18.9c0.6,5.5,1.2,11.5,3.7,16.5c2.4,4.8,6.6,8.1,10.8,11.1c4.7,3.4,9.4,6.7,14.2,9.9
		c19.2,13,39.3,24.6,60.1,34.9c20.4,10.1,41.5,18.9,63.1,26.2c0.3,0.1,0.7,0.2,1,0.3C1053.6,1011,1053.5,1013.8,1052,1014.8z"/>
	<path d="M1053.4,775c-0.3,1.2-1.8,2.2-3.1,1.8c0,0-0.1,0-0.1,0c-1.9-0.7-3.8-1.4-5.7-2.1c-7.9-3-15.9-5.9-24-8.7
		c-17.5-6.1-35.2-11.8-53.1-17.1c-17.2-5.1-34.5-9.8-52-14.1l0,0c-0.7-0.2-1.4-0.4-2.1-0.5c-2.8-0.7-2-4.5,0.3-4.9c0.3,0,0.6,0,1,0
		c10.2,2.5,20.5,5.2,30.6,7.9c17.9,4.9,35.8,10.2,53.4,16c17.8,5.8,35.4,12,52.8,18.6C1052.9,772.4,1053.8,773.6,1053.4,775
		L1053.4,775z"/>
	<path d="M1053.7,824.9c-0.5,0.3-1.2,0.5-1.9,0.3c-1-0.2-2-0.4-3-0.7c-9.8-2.2-19.5-4.5-29.1-7.1c-18.9-4.9-37.5-10.5-56-16.7
		c-18.5-6.2-36.9-13.1-54.9-20.6c-0.5-0.2-0.9-0.5-1.2-0.9c-0.5-0.6-0.7-1.3-0.5-2.2c0.2-0.5,0.6-1.1,1.1-1.4h0
		c0.6-0.4,1.3-0.6,2-0.3c10.2,4.2,20.4,8.2,30.7,12.1c18.3,6.8,36.8,12.9,55.5,18.4c17.3,5.1,34.8,9.6,52.4,13.6
		c1.5,0.3,2.9,0.7,4.4,1c0.2,0,0.3,0.1,0.5,0.2C1055.4,821.4,1055.1,824,1053.7,824.9L1053.7,824.9z"/>
	<path class="st7" d="M1055.4,645.2c-17,22.7-19,39.7-17.4,51.3c1.2,8.9,4.4,13.3,8,24.9c5.8,18.9,6.5,36.1,5.7,49.4
		c9.5-16,14.3-30.5,16.9-40.5c4.1-15.8,9.2-35.8,1.9-58.3C1066.4,659.6,1060,650.6,1055.4,645.2L1055.4,645.2z"/>
	<g>
		<path class="st8" d="M1048.6,819.5c-17.6-4-35.1-8.5-52.4-13.6c-18.7-5.5-37.2-11.6-55.5-18.4c-10.3-3.8-20.6-7.8-30.7-12.1
			c-0.7-0.3-1.4-0.1-2,0.3c1.8-11.4,3.9-22.8,6.2-34.1c0.5-2.3,0.9-4.6,1.4-6.9c17.4,4.3,34.8,9,52,14.1c17.8,5.3,35.5,11,53.1,17.1
			c8,2.8,16,5.7,24,8.7C1048.5,789.2,1048.3,804.3,1048.6,819.5L1048.6,819.5z"/>
		<path d="M1065.1,872.4c0,0.2,0,0.4-0.1,0.6c-0.2,0.9-1,1.5-1.9,1.8c-1,0.3-2.1,0-2.8-1.1c-0.2-0.3-0.4-0.6-0.6-0.9
			c-3.5-5.8-5.9-12.2-7.6-18.7c-2.4-9.7-3.2-19.5-3.5-29.4c-0.1-1.7-0.1-3.4-0.1-5.2c-0.3-15.1-0.1-30.3-4.1-44.9
			c-0.1-0.2-0.1-0.4-0.2-0.6c-0.9-3.1,4-4.4,4.8-1.3c0.4,1.3,0.7,2.7,1,4.1c1.4,6.3,2.2,12.7,2.6,19.2c0.5,8.1,0.5,16.4,0.7,24.8
			c0,1.4,0.1,2.9,0.1,4.3c0.3,9.3,1,18.6,3.3,27.5c0.6,2.2,1.2,4.4,1.9,6.5l0,0c0.7,2.1,1.6,4.1,2.5,6.1c0.9,1.9,1.9,3.8,3,5.6
			c0,0,0,0,0,0c0.1,0.2,0.2,0.3,0.3,0.5C1065,871.6,1065.1,872,1065.1,872.4L1065.1,872.4z"/>
	</g>
	<path d="M1080.2,923.3c0,5.9-0.4,11.8-0.8,17.7c-0.2,2.8-0.4,5.5-0.7,8.3c-0.3,2.6-0.7,5.2-1.4,7.8c-1.4,5.3-4.2,9.8-6.8,14.6
		c-2.4,4.3-4.2,8.9-5.7,13.6c-3.2,9.6-5.7,19.6-10.8,28.4c-0.5,0.8-1.2,1.2-2,1.2c-1.7,0-3.4-1.8-2.3-3.7c0.2-0.4,0.5-0.8,0.7-1.2
		c5.1-9.3,7.3-19.7,10.9-29.6c1.7-4.7,3.8-9.2,6.3-13.6c1.3-2.2,2.6-4.5,3.6-6.9s1.6-5,2.1-7.5c0.9-5.1,1.1-10.3,1.4-15.5
		c0.4-5.7,0.6-11.5,0.5-17.2c-0.1-6-0.7-12-1.7-17.9c-0.5-3.1-1.2-6.1-1.9-9.1c-1.6-6.6-3.8-13.1-6.5-19.4c-0.2-0.4-0.4-0.8-0.5-1.3
		c-0.4-0.8-0.8-1.7-1.1-2.5c-0.7-1.4-1.3-2.8-2-4.2c-0.7-1.4-1.5-2.8-2.2-4.2c-0.4-0.7-0.4-1.4-0.2-2l0,0c0.5-1.3,2-2.1,3.3-1.6
		c0.5,0.2,0.9,0.5,1.2,1.1c1.5,2.6,2.9,5.3,4.2,8.1c0.9,1.8,0.9,1.8,0,0c3.7,7.8,6.6,16,8.7,24.4c0.1,0.2,0.1,0.5,0.2,0.7
		c0.3,1.2,0.6,2.4,0.8,3.6c0.4,1.7,0.7,3.4,1,5.1c0.7,4,1.2,8,1.5,12.1C1080.1,916,1080.2,919.7,1080.2,923.3L1080.2,923.3z"/>
	<path d="M1056.3,854.8c1.8,11.4,12.3,18.7,16.4,29c2.4,5.8,3.5,12.1,4.2,18.3c0.8,6.9,1.1,13.8,0.9,20.7
		c-0.2,7.8-0.9,15.6-2.3,23.3c-0.2,1.3,0.4,2.7,1.8,3.1c1.2,0.3,2.8-0.4,3.1-1.8c2.5-14,3.2-28.3,1.8-42.5
		c-0.6-6.6-1.5-13.3-3.6-19.6c-1.9-5.9-5-10.9-8.8-15.8c-3.7-4.9-7.8-9.8-8.8-16.1c-0.2-1.3-1.9-2.1-3.1-1.8
		C1056.7,852.1,1056.1,853.4,1056.3,854.8L1056.3,854.8L1056.3,854.8z"/>
	<path d="M1079.8,912.4c-0.6,0.2-1.4,0.3-2,0c-0.6-0.2-1.2-0.8-1.4-1.6c-0.9-3.1-1.9-6.2-2.9-9.2c-2.2-6.7-4.7-13.4-7.4-20
		c-0.9-2.3-1.9-4.6-2.9-6.8c-0.6-1.3-1.2-2.7-1.8-4c-0.3-0.8-0.7-1.5-1-2.3c-0.5-1-0.4-2.3,0.4-3c0.1-0.1,0.3-0.3,0.5-0.4
		c0,0,0.1,0,0.1,0l0.1,0c1.1-0.5,2.7-0.2,3.3,1c2,4.3,3.9,8.7,5.8,13.1c1.2,2.9,1.2,2.9,0,0c-1.8-4.4,0,0,0,0
		c1.7,4,3.3,8.1,4.8,12.3c0,0,0,0,0,0c0.6,1.5,1.1,3,1.6,4.6c0.5,1.4,1,2.8,1.4,4.2c1,3,2,6.1,2.9,9.2
		C1081.6,910.9,1080.9,911.9,1079.8,912.4L1079.8,912.4z"/>
	<g>
		<path class="st8" d="M1074.7,936.7c-0.3,5.2-0.5,10.4-1.4,15.5c-0.5,2.6-1.1,5.1-2.1,7.5s-2.3,4.7-3.6,6.9
			c-2.5,4.4-4.6,8.8-6.3,13.6c-3.6,9.9-5.8,20.3-10.9,29.6c-21.6-7.3-42.7-16.1-63.1-26.2c-20.8-10.3-40.9-21.9-60.1-34.9
			c-4.8-3.2-9.6-6.5-14.2-9.9c-4.2-3-8.5-6.3-10.8-11.1c-2.5-5-3.1-11-3.7-16.5c-0.7-6.3-1.1-12.6-1.2-18.9
			c-0.2-12.7,0.6-25.3,1.6-37.9c0.9-12.6,2.1-25.3,3.6-37.8c1.4-12.4,3.1-24.8,5.1-37.2c0.3,0.4,0.8,0.7,1.2,0.9
			c18.1,7.5,36.4,14.4,54.9,20.6c18.5,6.2,37.2,11.8,56,16.7c9.7,2.5,19.4,4.9,29.1,7.1c0.3,9.9,1,19.8,3.5,29.4
			c1.7,6.5,4.1,12.9,7.6,18.7c-0.1,0.7,0.1,1.4,0.7,2.1c2.1,2.1,3.9,4.3,5.5,6.8c2.7,6.6,5.2,13.2,7.4,20c1,5.9,1.6,11.9,1.7,17.9
			C1075.3,925.2,1075,931,1074.7,936.7L1074.7,936.7z"/>
		<path d="M1077.3,895.2c-0.1,0.3-0.2,0.6-0.5,0.9c-0.2,0.2-0.4,0.4-0.6,0.5c-1.3,0.8-3.2,0.5-3.8-1.4c-0.3-0.9-0.6-1.8-0.9-2.8
			c-1.4-3.8-3.2-7.5-5.5-10.8c-1.6-2.4-3.5-4.7-5.5-6.8c-0.6-0.7-0.8-1.4-0.7-2.1c0.2-0.8,0.8-1.6,1.5-2c0.8-0.4,1.8-0.3,2.7,0.5
			c0.1,0.2,0.3,0.3,0.4,0.5c0.2,0.2,0.4,0.4,0.6,0.7c1.9,2.1,3.7,4.4,5.3,6.8c0,0,0.1,0.1,0.1,0.2c0,0,0,0,0,0
			c2.4,3.6,4.3,7.5,5.8,11.5c0.3,1,0.7,2,1,3C1077.4,894.4,1077.4,894.8,1077.3,895.2L1077.3,895.2z"/>
	</g>
</g>
<path class="st9" d="M1086,684.7c-1.4,1.2-14.8-13.4-25.4-24c-15.6-15.5-36.5-36.2-58.3-47c-15.9-7.9-43.4-7.5-98.4-6.6
	c-53.2,0.9-66.2,5-72,7.1c-21.9,7.7-24.1,15.1-54.6,27.8c-6.8,2.8-59.1,24.4-65.9,13.7c-4.8-7.7,18.2-24.3,12.2-43.8
	c-1.5-4.9-4-7.4-5.7-15.5c-1.9-9.6,0.7-10.8-0.5-20.7c-1.7-13.8-7.3-16.2-5.7-25.9c0.8-4.7,2.2-4.3,4.7-12.7
	c0.7-2.2,2.6-9.1,3.3-17.9c0.5-6.2,0.5-16.2-2.8-28.2c-3.9-4-9.2-10.2-13.7-18.8c-6.6-12.9-7.6-24.1-8.5-35.3
	c-1.3-16.7-2.3-29.2,4.2-42.4c2.7-5.4,7.9-11,18.3-22.1c0.4-0.4,0.9-1,1.6-1.7c9-9.4,15.8-15.6,20.5-19.9
	c15.3-14.1,21.8-21.7,24.7-21.8c0.3,0,0.5,0,0.8,0.2c2,1.3-1.4,7,1.4,9.9c2.9,3.1,10.4,0.8,16.9-1.9c23.8-9.8,33.9-16.9,33.9-16.9
	c13-9.2,25.8-18.4,41-33.9c12.2-12.5,17.2-20.3,30.1-26.8c4.4-2.2,7.8-3.4,15.1-7.5c5.2-3,8.1-5.1,12.1-7.6c2.2-1.4,4.7-2.9,8.1-4.6
	c4.8-2.5,9-4.5,14.6-5.2c4-0.5,9.2-0.4,9.4,0.8l0,0c0.4,1.9-12.6,2.7-22.6,12.4c-1.1,1.1-6.7,6.8-9.4,15.5
	c-3.4,10.8-0.2,21.1,3.8,30.6c10.8,26.3,26.5,45.4,30.6,50.4c27.5,33.2,34.1,30,56.9,56.9c4.3,5,15,18.1,33.4,28.7
	c1.2,0.7,2.3,1.3,3.3,1.8c1.1,0.6,2.1,1.1,2.8,1.5c-1.3,8.6-2.3,16.8-2.9,24.5c-1.7,0.1-3.6,0.2-5.6,0.3c-4.3,0.1-12-0.6-27.3-1.9
	c-10.4-0.9-13.4-1.2-17.9,0.2c-4.6,1.5-5.6,3.2-12.7,5.9c-7.9,3-8.8,1.6-12,3.8c-4,2.6-4.2,5.6-9.4,17.6
	c-5.7,13.2-6.5,12.4-7.5,17.4c-0.8,3.9-2.8,14.2,3.3,20.7c1.8,1.9,3.8,3,5.2,3.5c-1.5,3.7-1.1,7.7,1.2,10.6c2.1,2.6,4.9,3.3,5.9,3.5
	c-0.7,1.3-1.8,3.9-1.2,6.9c0.9,4.8,5.5,8.7,11.5,9.5c0.8,2.5,2.4,6,5.7,8c3.8,2.3,10.1,2.8,31.5-8.7c7.7-4.1,18.3-10.3,30.4-19.2
	c5.4,32.3,6.5,45.9,6.4,52.2c0,1.9-0.1,9.2,1.6,18.8c0.3,1.8,0.7,3.6,1.4,6c9.6,34.9,26.3,61.2,26.3,61.2
	C1082.4,677.2,1086.9,684,1086,684.7z"/>
<path d="M649.7,541.3c2.6,4.3,5.3,8.6,8.1,12.8c2.6,4,5.1,8.2,8.4,11.7c2.8,3,6.4,5,9.5,7.6c1.5,1.2,2.8,2.5,3.8,4.1
	c1.2,1.8,2.4,3.7,4.1,5.1c1,0.9,2.5,1,3.5,0c0.9-0.9,1-2.7,0-3.5c-1.5-1.2-2.4-2.9-3.5-4.4c-1.2-1.7-2.5-3.2-4.1-4.5
	c-3.1-2.6-6.6-4.6-9.5-7.5c-3.2-3.2-5.6-7.4-8-11.2c-2.7-4.2-5.3-8.4-7.9-12.6C652.3,536,648,538.6,649.7,541.3L649.7,541.3
	L649.7,541.3z"/>
<path d="M716.3,491c-0.2,0.1-0.3,0.3-0.5,0.5c0.1-0.1,0.5-0.3,0.1-0.1c-0.1,0.1-0.2,0.1-0.3,0.2c-0.4,0.2-0.7,0.4-1.1,0.6
	c-0.2,0.1-0.5,0.2,0.2-0.1c-0.1,0-0.2,0.1-0.2,0.1c-0.2,0.1-0.4,0.1-0.7,0.2c-0.4,0.1-0.9,0.2-1.3,0.3l0.7-0.1
	c-0.8,0.1-1.6,0.1-2.4,0l0.7,0.1c-0.5-0.1-1.1-0.2-1.6-0.4c-1.2-0.4-2.8,0.5-3.1,1.8c-0.3,1.4,0.4,2.6,1.8,3.1
	c3.9,1.3,8.4,0.2,11.4-2.6c1-0.9,1-2.6,0-3.5C718.8,490.1,717.3,490.1,716.3,491L716.3,491L716.3,491z"/>
<path d="M582.9,553.1c5.2,14.5,12.8,27.9,22.5,39.8c2.8,3.4,5.7,6.6,8.8,9.7c2.3,2.3,5.8-1.2,3.5-3.5
	c-10.4-10.4-18.9-22.6-25.2-35.9c-1.8-3.7-3.3-7.6-4.8-11.5c-0.5-1.3-1.7-2.1-3.1-1.8C583.4,550.4,582.4,551.9,582.9,553.1
	L582.9,553.1L582.9,553.1z"/>
<path d="M499.2,378.7c1.9,0.7,4.1,0.7,6,0.1c1-0.4,1.9-0.9,2.9-1.5c0.1-0.1,0.7-0.3,0.2-0.1c0.2-0.1,0.4-0.1,0.6-0.2
	c0.5-0.2-0.4,0,0.2,0c0.2,0,0.4,0,0.6,0c0.6,0-0.4-0.1,0.2,0c0.1,0,0.7,0.3,0.2,0c0.2,0.1,0.4,0.2,0.5,0.3c-0.2-0.1-0.2-0.2-0.1,0
	c0.1,0.1,0.1,0.1-0.1-0.1c0.3,0.5-0.1-0.5,0.1,0.1c0,0.1,0,0.2,0.1,0.3c0,0.2,0,0.1,0-0.2c0.1,0.2,0,1,0,1.2c0.1-0.6,0,0,0,0.1
	c0,0.2-0.1,0.5-0.1,0.7c-0.1,0.5-0.2,1-0.4,1.4c-0.3,1-0.6,2-1,3c-0.5,1.2,0.5,2.8,1.8,3.1c1.4,0.3,2.6-0.4,3.1-1.8
	c0.8-2.2,1.5-4.5,1.7-6.8c0.2-2.7-1.1-5.1-3.7-6c-2.4-0.9-4.9-0.3-7,1c-0.3,0.2-0.5,0.3-0.8,0.5c-0.4,0.3,0.4-0.1-0.2,0.1
	c-0.2,0.1-0.5,0.1-0.7,0.2c-0.1,0-0.9,0.1-0.3,0.1c-0.5,0-1,0-1.5,0c0.5,0,0,0-0.2,0c-0.3-0.1-0.5-0.1-0.8-0.2
	c-1.2-0.4-2.8,0.5-3.1,1.8C497.1,377,497.8,378.2,499.2,378.7L499.2,378.7L499.2,378.7z"/>
<path d="M518.7,371.2c2.5,2.9,5.8,4.7,8.6,7.2s5,5.3,6.8,8.4s3.4,6.5,4.9,9.9c1.3,3,3.2,7,1.7,10.2c-0.6,1.2-0.3,2.7,0.9,3.4
	c1.1,0.6,2.8,0.3,3.4-0.9c2-4.3,1-8.7-0.7-12.9c-1.6-3.8-3.3-7.6-5.3-11.2s-4.3-6.9-7.3-9.7s-6.8-4.8-9.6-8c-0.9-1-2.6-0.9-3.5,0
	C517.7,368.7,517.9,370.2,518.7,371.2L518.7,371.2L518.7,371.2z"/>
<path d="M538.3,362.9c10.8,10.1,22.3,20.8,26.5,35.4c1.2,4,1.6,8,1.4,12.1c-0.2,3.2,4.8,3.2,5,0c1-16.2-8.7-30.5-19.5-41.6
	c-3.2-3.3-6.5-6.4-9.8-9.5C539.5,357.1,536,360.6,538.3,362.9L538.3,362.9L538.3,362.9z"/>
<path d="M562.2,355.1c2.5,2.5,4.2,5.8,5.8,8.8s3.4,6.5,4.7,9.9c2.6,7,3.9,14.5,2.2,21.9c-0.7,3.1,4.1,4.5,4.8,1.3
	c1.9-8.2,0.8-16.7-2.2-24.5c-1.4-3.8-3.1-7.4-5-10.9s-3.9-7.2-6.8-10C563.4,349.3,559.9,352.8,562.2,355.1L562.2,355.1L562.2,355.1z
	"/>
<path d="M572,355.8c0.3,5.5,2.1,11.2,5.4,15.7c1.8,2.4,4,4,6.9,4.5s6.3,0.3,9.4,0.4s3.2-4.9,0-5c-2.6-0.1-5.3,0-7.9-0.2
	c-2-0.2-3.4-1.1-4.5-2.7c-2.6-3.7-4.1-8.2-4.3-12.7c-0.1-1.4-1.1-2.5-2.5-2.5C573.2,353.3,572,354.4,572,355.8L572,355.8z"/>
<path d="M568.8,351.6c-0.3,2.3-0.3,4.5,0.2,6.7c0.5,2,1.3,4,2.4,5.7c0.7,1.1,2.2,1.7,3.4,0.9c1.1-0.7,1.7-2.3,0.9-3.4
	c-0.3-0.4-0.5-0.8-0.7-1.2c-0.2-0.3-0.5-0.8-0.5-1.1c0.1,0.3,0.2,0.4,0,0.1c0-0.1-0.1-0.2-0.1-0.3c-0.1-0.2-0.2-0.4-0.2-0.7
	c-0.1-0.4-0.2-0.8-0.3-1.2s-0.1-0.8-0.2-1.2c0,0.4,0,0.4,0,0.1c0-0.1,0-0.2,0-0.4c0-0.2,0-0.5,0-0.7c0-0.4,0-0.8,0-1.2
	c0-0.2,0-0.5,0-0.7c0-0.1,0.1-1,0-0.2c0.1-0.7,0.1-1.3-0.2-1.9c-0.3-0.5-0.9-1-1.5-1.1C570.7,349.6,569,350.2,568.8,351.6
	L568.8,351.6L568.8,351.6z"/>
<path d="M576.7,355.3v-6.8c0-1.3-1.2-2.6-2.5-2.5s-2.5,1.1-2.5,2.5v6.8c0,1.3,1.2,2.6,2.5,2.5S576.7,356.7,576.7,355.3L576.7,355.3z
	"/>
<path d="M572.4,344.5c-0.9,6.2-1.2,12.4-0.7,18.6c0.1,1.4,1.1,2.5,2.5,2.5c1.3,0,2.6-1.1,2.5-2.5c-0.5-5.7-0.3-11.5,0.5-17.2
	c0.2-1.3-0.3-2.7-1.8-3.1C574.3,342.4,572.6,343.1,572.4,344.5L572.4,344.5L572.4,344.5z"/>
<g>
	<path class="st10" d="M605.5,401.6c5.3-28.1,0.6-39.5-5.2-44.5c-4-3.5-9.5-4.8-16.7-12.7c-3.7-4.1-6.8-8.8-9.9-8.1
		c-0.4,0.1-2.1,0.5-3.5,3.9c-5.1,11.9,6.1,29.7,5.4,30c-0.3,0.1-2-2.2-8.5-13.6c-2.4-5.5-8.1-8.7-13.9-7.8
		c-6.1,1-10.7,6.4-10.8,12.7c-0.5-0.4-6.7-5-14.1-2.6c-6.2,2-8.8,7.3-9.2,8.2c-4.5-3.1-10.2-3.3-14.6-0.7c-4.8,2.9-5.8,8.1-6,8.9
		c-0.6-0.1-6.9-1.4-11.6,3.1c-3.3,3.1-3.8,7.2-3.9,8.2c6.6,5.5,10.5,5.7,12.9,4.9c2.3-0.8,9.8-5,11.5-6.1c0.3-0.2,0.6-0.4,1-0.4
		c0.5,0.1,0.8,0.6,1.1,1c4,7.2,12.7,10.2,18.9,15.8c2.5,2.2,4.6,4.9,7.5,6.3c3,1.4,7.2,1.1,8.8-1.8c0.7-1.2,0.8-2.7,0.7-4.1
		c-0.3-5.1-2.5-10.1-6-13.7c2.9,4.6,5.7,9.1,8.6,13.7c1.6,2.6,3.3,5.2,5.5,7.3c2.3,2.1,5.2,3.5,8.3,3.3c3-0.2,6-2.5,6.5-5.5
		c0.2-1.2-0.1-2.5-0.3-3.8c-0.8-4.3-1.7-8.5-2.5-12.8c0.1,1.7,0.7,3.3,1.7,4.7c0.6,0.9,1.5,2.6,3.4,4c1.2,0.9,3.3,2.4,5.2,1.8
		c1.4-0.5,2.1-1.9,2.6-3.1c1.5-3.3,1.1-6.6,0.9-7.5c-1.4-9.9-3.9-22.4-4-23.1c1.6,2.5,5.3,9.2,5,18.4c-0.3,7.3-2.9,12.7-4.5,15.3"/>
	<path d="M607.9,402.3c1.9-10.2,3.4-21,1.7-31.4c-0.8-5.4-2.8-11-6.8-14.9c-2.6-2.5-5.8-4.1-8.8-6c-4.8-3.1-8.4-7.2-12.2-11.5
		c-1.7-1.9-3.6-4-6.2-4.7c-2-0.5-3.8,0.1-5.3,1.5c-3.5,3.3-4.3,9-4,13.6c0.3,4.9,1.7,9.7,3.6,14.3c0.8,1.9,1.6,3.7,2.4,5.5
		c0.3,0.5,0.5,1.1,0.8,1.7c0.1,0.2,0,0.3-0.1-0.3c0,0.1,0.1,0.2,0.1,0.3c0,0,0,0.1,0,0.1c0,0,0,0.1,0,0.1c-0.2-0.8,0-1.6,0.6-2.3
		l1.1-0.6c0.8-0.3,1.5,0.1,2,0.4c0.3,0.2,0.3,0.2,0.1,0.1c-0.5-0.5,0.2,0.3,0,0c-0.5-0.7-0.9-1.4-1.4-2c-2.1-3.3-4-6.6-6-10
		c-1.2-2.1-2.2-4.1-4-5.8s-3.7-2.8-5.9-3.5c-4.3-1.4-9.2-0.8-12.9,1.8c-4.3,2.9-6.9,7.7-7,12.9l3.8-2.2c-4.2-3.3-10.3-4.4-15.4-3
		s-9.2,5-11.3,9.6l3.4-0.9c-5.2-3.4-12.3-4-17.6-0.4c-3.4,2.3-5.9,6-6.7,10.1l3.1-1.8c-3.4-0.7-7-0.3-10.1,1
		c-4.4,1.9-7.6,6.2-8.4,10.9c-0.1,0.9-0.4,1.9,0,2.7c0.6,1.4,2.5,2.4,3.7,3.2c1.8,1.2,3.8,2.4,5.9,3c3.1,0.9,5.8,0.4,8.6-0.9
		c2-0.9,3.9-2,5.8-3c1.5-0.8,3-2,4.6-2.7l-1.3,0.3c-0.9,0.1-1.1-1-0.6-0.1c0.1,0.2,0.2,0.4,0.4,0.6c0.3,0.5,0.6,0.9,0.9,1.3
		c0.7,0.9,1.5,1.8,2.3,2.6c1.6,1.6,3.5,3,5.4,4.4c3.6,2.5,7.4,4.6,10.6,7.6c3.6,3.3,7,7.3,12.3,7.5c2.2,0.1,4.5-0.6,6.1-2.1
		c2-1.8,2.5-4.5,2.4-7c-0.3-5.8-2.7-11.3-6.8-15.5c-2-2-5.5,0.6-3.9,3c2.5,4,5,8,7.5,12c2.3,3.6,4.5,7.5,7.9,10.2
		c3.2,2.5,7.5,4.1,11.5,2.8s6.8-4.8,6.6-9c-0.1-2.6-0.9-5.2-1.4-7.8c-0.5-2.7-1-5.4-1.6-8.1s-5.1-2.1-4.9,0.7
		c0.3,4.3,3.1,8.5,6.5,11c1.8,1.3,4,2.4,6.3,2c2.2-0.4,3.6-2.1,4.5-4.1c1-2.2,1.6-4.6,1.5-7c0-1.8-0.4-3.6-0.6-5.4
		c-0.6-4.3-1.4-8.5-2.2-12.7c-0.5-2.5-0.9-5.1-1.5-7.6L573,369c5.8,9.4,6.1,21.5,0.5,31.1c-1.6,2.8,2.7,5.3,4.3,2.5
		c6.5-11.1,6.3-25.2-0.5-36.2c-1.5-2.5-5.1-0.8-4.6,1.9c1,4.8,1.8,9.6,2.7,14.5c0.3,1.9,0.6,3.8,0.9,5.6c0.1,0.9,0.3,1.8,0.4,2.8
		c0.1,0.5,0-0.5,0,0.2c0,0.4,0.1,0.7,0.1,1.1c0,1.7-0.2,3.4-0.9,5c-0.5,1.1-0.9,1.9-2.1,1.3c-1.4-0.6-2.8-1.8-3.7-3.1
		c-1-1.4-2.1-3-2.2-4.8l-4.9,0.7c0.5,2.5,1,5.1,1.5,7.6c0.2,1.3,0.5,2.5,0.7,3.8c0.2,1.2,0.6,2.4,0.5,3.6c0,3.7-4.6,4.5-7.3,3.4
		c-4.1-1.6-6.4-5.8-8.6-9.3c-2.8-4.4-5.5-8.9-8.3-13.3l-3.9,3c2.4,2.5,4,5.5,4.8,8.8c0.4,1.5,0.7,3.3,0.4,4.9
		c-0.2,1.3-0.8,1.9-1.9,2.2c-2.8,0.8-5.3-1.1-7.3-2.9c-2.5-2.4-5-4.7-7.8-6.7c-5.2-3.6-10.8-6.5-14.1-12c-1.2-1.9-3.2-2.7-5.2-1.5
		c-0.8,0.5-1.5,1-2.3,1.4c-2.3,1.3-4.6,2.6-6.9,3.7c-0.5,0.2-1,0.5-1.5,0.7c-0.3,0.1,0.4-0.1,0.1,0c-0.1,0-0.2,0.1-0.3,0.1
		c-0.2,0-0.3,0.1-0.5,0.1c-0.2,0-0.4,0.1-0.6,0.1c0.5-0.1,0.2,0-0.1,0c-0.2,0-0.4,0-0.6,0c-0.2,0-0.9-0.1-0.4,0
		c-3.1-0.5-5.8-2.4-8.3-4.5l0.7,1.8c0-0.1,0.1-0.7,0-0.4c0,0.3,0.1-0.5,0.1-0.7c0.2-0.7,0.4-1.5,0.7-2.2c0.9-2,2.4-3.6,4.3-4.6
		c1.5-0.8,3.2-1.1,4.7-1.2c0.7,0,1.3,0,2,0.1c0.6,0-0.5-0.1,0.1,0c0.1,0,0.2,0,0.4,0.1c1.2,0.3,2.8-0.4,3.1-1.8
		c0.5-2.7,1.7-5.1,4-6.9c3.9-2.9,9-2.4,12.9,0.2c1,0.7,2.9,0.3,3.4-0.9c0.2-0.5,0.4-0.9,0.7-1.3c0.5-0.9,0.8-1.3,1.3-1.9
		c1.7-2,3.8-3.4,6.3-4.1c4.1-1.1,8.4,0.1,11.6,2.5c1.6,1.2,3.7-0.5,3.8-2.2c0.2-6.1,5.7-11.3,11.9-10.2c3.1,0.5,5.8,2.4,7.4,5.1
		c1.9,3.2,3.6,6.5,5.5,9.6c0.9,1.5,1.8,3.1,2.9,4.5c0.8,1,1.5,2.2,3,2.2c1.8,0,2.8-1.7,2.4-3.4c-0.2-0.6-0.5-1.2-0.7-1.8
		c-0.3-0.8-0.7-1.5-1.1-2.3c-0.2-0.4-0.4-0.9-0.6-1.3c-0.1-0.3-0.2-0.5-0.3-0.8c-0.1-0.1-0.1-0.3-0.2-0.5c-0.2-0.4,0.1,0.3,0-0.1
		c-2.2-5.4-4.1-11.1-3.7-16.9c0.1-1.3,0.4-2.7,0.9-4c0.2-0.7,0.6-1.3,0.9-1.9c0.2-0.3,0.3-0.4,0.5-0.6c0.1-0.1,0.2-0.2,0.3-0.3
		c-0.2,0.1-0.2,0.2,0,0c0.1-0.1,0.7-0.3,0.2-0.2c-0.5,0.2,0,0,0.1,0c-0.1,0,0.1,0,0.1,0c0,0,0.4,0.2,0.5,0.2
		c1.5,0.8,2.6,2.2,3.7,3.5c2.8,3.2,5.5,6.4,8.8,9c2.4,1.9,5,3.5,7.6,5.1c1.9,1.1,3.1,1.9,4.6,3.4c0.2,0.2,0.5,0.5,0.7,0.7
		c0.1,0.1,0.2,0.3,0.3,0.4c0.2,0.2-0.3-0.4,0.1,0.1c0.5,0.6,0.9,1.3,1.3,2c0.2,0.3,0.4,0.7,0.5,1c0.1,0.2,0.2,0.4,0.3,0.7
		c0,0.1,0.1,0.2,0.1,0.2c0.2,0.3-0.2-0.6,0,0c0.3,0.9,0.7,1.8,0.9,2.7c0.3,1.1,0.6,2.1,0.8,3.2c0.3,1.4,0.3,2,0.5,3.3
		c0.7,6.6,0.1,13.4-0.8,20c-0.3,2.2-0.7,4.5-1.1,6.7c-0.2,1.3,0.4,2.7,1.8,3.1C606,404.4,607.6,403.6,607.9,402.3L607.9,402.3
		L607.9,402.3z"/>
</g>
<path d="M1024.7,364.2c-2.1,19.4,6.6,38,16.1,54.4c1.6,2.8,5.9,0.3,4.3-2.5c-9.1-15.7-17.4-33.2-15.4-51.9c0.1-1.3-1.2-2.5-2.5-2.5
	C1025.8,361.7,1024.9,362.9,1024.7,364.2L1024.7,364.2L1024.7,364.2z"/>
<path d="M500.6,382.2c0.3,0,0.6,0,0.9,0.1l-0.7-0.1c0.6,0.1,1.2,0.3,1.8,0.5l-0.6-0.2c0.6,0.2,1.1,0.6,1.6,1l-0.5-0.4
	c0.4,0.3,0.8,0.7,1.1,1.1c0.4,0.5,1.2,0.7,1.8,0.7s1.4-0.3,1.8-0.7s0.8-1.1,0.7-1.8l-0.1-0.7c-0.1-0.4-0.3-0.8-0.6-1.1
	c-0.4-0.5-0.9-0.9-1.4-1.3s-1-0.8-1.6-1c-1.4-0.6-2.8-1-4.2-1c-0.6,0-1.3,0.3-1.8,0.7s-0.8,1.1-0.7,1.8
	C498.1,381.1,499.2,382.2,500.6,382.2L500.6,382.2L500.6,382.2z"/>
<path d="M497.4,379.6l1.9,1.4c0.3,0.2,0.6,0.3,0.9,0.3c0.3,0.1,0.7,0.1,1,0c0.3-0.1,0.6-0.2,0.9-0.5c0.3-0.2,0.5-0.4,0.6-0.7
	l0.2-0.6c0.1-0.4,0.1-0.9,0-1.3l-0.2-0.6c-0.2-0.4-0.5-0.7-0.9-0.9l-1.9-1.4c-0.3-0.2-0.6-0.3-0.9-0.3c-0.3-0.1-0.7-0.1-1,0
	c-0.3,0.1-0.6,0.2-0.9,0.5c-0.3,0.2-0.5,0.4-0.6,0.7l-0.2,0.6c-0.1,0.4-0.1,0.9,0,1.3l0.2,0.6C496.7,379.1,497,379.4,497.4,379.6
	L497.4,379.6z"/>
<path d="M500.9,376.1l-1.2-0.9c-0.2-0.2-0.5-0.4-0.8-0.5c-0.3-0.2-0.6-0.2-1-0.2c-0.3,0-0.7,0.1-1,0.2c-0.3,0.1-0.6,0.3-0.8,0.5
	l-0.4,0.5c-0.2,0.4-0.3,0.8-0.3,1.3l0.1,0.7c0.1,0.4,0.3,0.8,0.6,1.1l1.2,0.9c0.2,0.2,0.5,0.4,0.8,0.5c0.3,0.2,0.6,0.2,1,0.2
	c0.3,0,0.7-0.1,1-0.2c0.3-0.1,0.6-0.3,0.8-0.5l0.4-0.5c0.2-0.4,0.3-0.8,0.3-1.3l-0.1-0.7C501.5,376.8,501.2,376.4,500.9,376.1
	L500.9,376.1z"/>
<path d="M501.4,383.6C501.4,383.6,501.4,383.7,501.4,383.6l-0.4-0.5c0.1,0.1,0.2,0.3,0.2,0.4L501,383c0.1,0.2,0.1,0.3,0.1,0.5
	l-0.1-0.7c0,0.2,0,0.4,0,0.5l0.1-0.7c0,0.2-0.1,0.4-0.1,0.5l0.2-0.6c-0.1,0.1-0.1,0.3-0.2,0.4l0.4-0.5c0,0-0.1,0.1-0.1,0.1
	c-0.2,0.2-0.4,0.5-0.5,0.8c-0.2,0.3-0.2,0.6-0.2,1c0,0.3,0.1,0.7,0.2,1c0.1,0.3,0.3,0.6,0.5,0.8c0.5,0.4,1.1,0.8,1.8,0.7l0.7-0.1
	c0.4-0.1,0.8-0.3,1.1-0.6c0.2-0.2,0.4-0.5,0.6-0.8s0.3-0.6,0.4-0.9c0-0.1,0.1-0.2,0.1-0.4c0.1-0.3,0.1-0.7,0.1-1s-0.1-0.7-0.1-1
	c0-0.1,0-0.2-0.1-0.4c-0.1-0.3-0.2-0.6-0.4-0.9s-0.4-0.5-0.6-0.8c-0.2-0.2-0.5-0.4-0.8-0.5c-0.3-0.2-0.6-0.2-1-0.2
	c-0.3,0-0.7,0.1-1,0.2c-0.3,0.1-0.6,0.3-0.8,0.5c-0.4,0.5-0.8,1.1-0.7,1.8l0.1,0.7C500.9,382.9,501.1,383.3,501.4,383.6L501.4,383.6
	L501.4,383.6z"/>
<path d="M496.1,378C495.9,377.8,496,377.9,496.1,378c0.1,0.1,0.2,0.2,0.4,0.3c0.2,0.2,0.5,0.4,0.7,0.6c0.5,0.4,0.9,0.8,1.3,1.2
	c0.2,0.2,0.4,0.4,0.6,0.6c0.1,0.1,0.2,0.2,0.3,0.3c0.1,0.1,0.1,0.1,0.2,0.2l-0.1-0.2c0.2,0.1,0.4,0.6,0.5,0.7
	c0.1,0.2,0.3,0.5,0.4,0.8c0.2,0.3-0.1,0,0-0.1c0,0.1,0.1,0.3,0.1,0.3c0.1,0.2,0.2,0.5,0.2,0.8c0,0.1,0.1,0.4,0.1,0.4
	c0-0.1,0-0.5,0-0.1c0,0.3,0,0.5,0,0.8c0,0,0,0.4,0,0.4c0,0,0.1-0.5,0-0.1c-0.1,0.2-0.1,0.5-0.2,0.8c0,0,0,0.1-0.1,0.2
	c-0.1,0.2,0,0.1,0.1-0.2c-0.1,0-0.1,0.2-0.2,0.3c-0.1,0.1-0.1,0.2-0.2,0.3c-0.3,0.5,0.4-0.4,0,0c-0.9,1-1,2.6,0,3.5
	c1,0.9,2.6,1,3.5,0c2.1-2.4,2.5-5.9,1.3-8.8c-1.3-3.1-3.8-5.2-6.4-7.2c-1-0.8-2.8-0.2-3.4,0.9C494.6,375.9,495,377.2,496.1,378
	L496.1,378L496.1,378z"/>
<path d="M517.9,371.1c8,5.5,14.8,12.6,20.1,20.7c1.8,2.7,6.1,0.2,4.3-2.5c-5.8-8.9-13.2-16.5-21.9-22.5c-1.1-0.8-2.8-0.2-3.4,0.9
	C516.2,369,516.8,370.4,517.9,371.1L517.9,371.1L517.9,371.1z"/>
<path d="M541.5,364.9c8.9,8.6,16.5,18.5,22.4,29.4c1.5,2.8,5.9,0.3,4.3-2.5c-6.1-11.2-14-21.5-23.2-30.5
	C542.7,359.2,539.2,362.7,541.5,364.9L541.5,364.9L541.5,364.9z"/>
<path d="M1001.1,341.7c0,10.8,2.3,21.4,6.8,31.2c4.7,10.2,12.1,18.5,19.5,26.9c4.6,5.1,9.1,10.3,13.7,15.4c2.1,2.4,5.7-1.1,3.5-3.5
	c-3.9-4.4-7.8-8.8-11.7-13.2s-7.5-8.4-11-12.7c-6.5-8-11.2-17.2-13.7-27.2c-1.4-5.5-2-11.2-2-16.9
	C1006.1,338.4,1001.1,338.4,1001.1,341.7L1001.1,341.7L1001.1,341.7z"/>
<path d="M961.9,526c8-3,15.6-7,22.6-12c1.1-0.8,1.6-2.2,0.9-3.4c-0.6-1.1-2.3-1.7-3.4-0.9c-6.6,4.7-13.8,8.6-21.4,11.5
	c-1.3,0.5-2.1,1.7-1.8,3.1C959.1,525.5,960.6,526.5,961.9,526L961.9,526L961.9,526z"/>
<path d="M954.9,502.6c10,1,20.3-4.9,24.5-14c0.6-1.2,0.3-2.7-0.9-3.4c-1.1-0.6-2.8-0.3-3.4,0.9c-3.6,7.7-11.8,12.4-20.2,11.6
	c-1.3-0.1-2.5,1.2-2.5,2.5C952.4,501.5,953.5,502.4,954.9,502.6L954.9,502.6L954.9,502.6z"/>
<path d="M953.8,521.3c2.1,2.5,5.6,3.9,8.8,3.5c0.7-0.1,1.3-0.2,1.8-0.7c0.4-0.4,0.8-1.2,0.7-1.8s-0.2-1.3-0.7-1.8
	c-0.5-0.4-1.1-0.8-1.8-0.7c-0.7,0.1-1.3,0.1-2,0l0.7,0.1c-0.7-0.1-1.4-0.3-2.1-0.6l0.6,0.2c-0.6-0.3-1.2-0.6-1.8-1l0.5,0.4
	c-0.5-0.3-0.9-0.8-1.2-1.2c-0.4-0.5-1.2-0.7-1.8-0.7c-0.6,0-1.3,0.3-1.8,0.7s-0.8,1.1-0.7,1.8S953.4,520.8,953.8,521.3L953.8,521.3
	L953.8,521.3z"/>
<path d="M968.3,540.9c7.6-1.4,14.8-5.7,19.6-11.7c0.8-1,1-2.5,0-3.5c-0.9-0.9-2.7-1.1-3.5,0c-4.4,5.6-10.5,9.2-17.4,10.5
	c-1.3,0.2-2.1,1.8-1.8,3.1C965.6,540.6,966.9,541.2,968.3,540.9L968.3,540.9L968.3,540.9z"/>
<path d="M978.1,557c6.9-2.7,12.8-7.8,16.3-14.4c0.6-1.2,0.3-2.8-0.9-3.4c-1.2-0.6-2.8-0.3-3.4,0.9c-0.4,0.8-0.8,1.5-1.3,2.2
	c-0.2,0.3-0.4,0.6-0.7,1c-0.1,0.2-0.2,0.3-0.3,0.5c-0.1,0.1-0.3,0.4-0.1,0.1c-1,1.3-2.2,2.5-3.4,3.6c-0.3,0.3-0.6,0.5-0.9,0.8
	c-0.2,0.1-0.3,0.2-0.5,0.4c-0.6,0.5,0.4-0.3-0.2,0.2c-0.7,0.5-1.3,0.9-2,1.4s-1.4,0.8-2.1,1.2c-0.3,0.2-0.7,0.3-1,0.5
	c-0.2,0.1-0.4,0.2-0.6,0.3c0.4-0.2-0.2,0-0.3,0.1c-1.2,0.5-2.2,1.7-1.8,3.1C975.4,556.4,976.8,557.5,978.1,557L978.1,557L978.1,557z
	"/>
<path class="st11" d="M942.2,856.3c-2,14.7-3.7,31,4,44.5s21.3,19.8,34.7,24.6c8.7,3.1,17.7,5.6,26.2,9.5c1.2,0.6,2.7,0.3,3.4-0.9
	c0.6-1.1,0.3-2.9-0.9-3.4c-14-6.4-29.4-9.1-42.8-16.9c-5.7-3.3-11-7.5-14.8-12.9c-4-5.8-5.9-12.6-6.4-19.6
	c-0.6-8.3,0.4-16.6,1.5-24.8c0.2-1.3-1.3-2.5-2.5-2.5C943.2,853.8,942.3,854.9,942.2,856.3L942.2,856.3L942.2,856.3z"/>
</svg>
