<?xml version="1.0" encoding="UTF-8"?><svg id="a" xmlns="http://www.w3.org/2000/svg" viewBox="0 0 1137.37 1238.24"><defs><style>.b{fill:#e04b4b;}.b,.c,.d,.e,.f,.g,.h,.i,.j{stroke:#000;stroke-miterlimit:10;stroke-width:5px;}.c{fill:none;}.d{fill:#5c5c63;}.k{fill:#020202;}.k,.l{stroke-width:0px;}.e{fill:#ffbb83;}.l{fill:#000;}.f{fill:#2c2e33;}.g{fill:#3c3d42;}.h{fill:#37363d;}.i{fill:#fff;}.j{fill:#202021;}</style></defs><path class="e" d="M361.56,146.46c-9.19,10.42-58.94,68.84-48.07,146.28,1.53,10.92,5.14,34.83,20.67,58.83,15.71,24.27,32.33,18.05,52.36,44.33,20.47,26.84,28.73,54.6,28.73,54.6,2.13,7.17,3.19,12.69,4.73,17.1,0,0,3.02,5.81,7.7,10.51,10.58,10.61,29.48,9.84,57.29,12.66,33.48,3.4,36.26,7.58,44.19,2.88,14.52-8.63,19.44-31.17,21.73-41.44,5.22-23.4.73-33.18,2.81-44.45,3.19-17.25,22.25-40.7,96.99-64.84,0,0,20.68-16.56,41.63-48.91,7.9-12.21,10.1-22.34,10.82-29.58.05-.49.08-.91.1-1.27,2-31.49-24.25-56.66-29.37-61.41,4.62-3.69,11.22-9.85,17.07-19.32,3.61-5.85,11.92-19.31,11.99-36.75.12-28.85-22.38-49.12-25.42-51.78-2.64-15.73-11.55-27.4-21.51-29.17-2.12-.38-6.18-.64-11.24,2.05-2.79-6.09-16.53-34.56-45.69-45.78-29-11.16-61.64-.79-82.68,26.38-6.35-6.62-18.05-16.99-34.55-21.86-34.87-10.29-63.21,12.24-72.16,19.36-28.28,22.49-37.68,55.4-42.23,71.33-3.47,12.14-5.07,22.74-5.88,30.26Z"/><path class="k" d="M413.27,110.57c24.77-21.63,61.89-38.18,95.22-35.99,4.96.29,9.91.92,14.75,2.02,0,0-.04.5-.04.5-4.94.32-9.82.59-14.66,1-14.42,1.39-28.88,3.2-42.9,6.98-9.34,2.59-18.41,6.18-27.11,10.54-8.76,4.32-17.07,9.52-24.94,15.33,0,0-.31-.39-.31-.39h0Z"/><path class="k" d="M637.91,69.07c-13.89-1.01-27.83.33-41.22,4.04-5.78,1.58-13.65,4.97-19.28,7.19-6.48,2.56-12.7,5.48-19.15,8.27,0,0-.28-.41-.28-.41,2.48-2.58,5.25-4.85,8.17-6.91,8.72-6.37,19.06-10,29.59-12.03,6.96-1.47,14.06-2.29,21.16-2.39,7.09-.06,14.16.48,21.07,1.74l-.06.5h0Z"/><path class="k" d="M503.02,245.52c11.07-1.57,21.6-6.01,30.39-12.79,4.33-3.38,7.88-7.53,11.63-11.5,3.83-4.08,7.24-8.39,10.91-12.72,0,0,.45.22.45.22-.62,2.86-1.66,5.6-2.94,8.22-2.57,5.25-6.1,10.11-10.63,13.86-2.26,1.89-4.68,3.56-7.09,5.19-4.87,3.19-10.17,5.71-15.72,7.41-5.54,1.64-11.25,2.59-16.95,2.63,0,0-.04-.5-.04-.5h0Z"/><path class="k" d="M597.74,202.05c13.1.27,27.24,10.63,31.65,22.94,0,0-.34.36-.34.36-1.21-1.09-2.44-2.15-3.69-3.2-6.15-5.32-12.7-10.16-19.52-14.6-2.75-1.75-5.53-3.44-8.35-5.07,0,0,.24-.44.24-.44h0Z"/><path class="k" d="M661.72,204.15c-7.36,3.86-15.4,6.54-23.62,7.91-8.3,1.8-17.1,1.71-24.81-2.29,0,0,.08-.49.08-.49,2.13-.39,4.19-.58,6.23-.74,8.03-.94,16.05.19,24.05-1.01,6.07-.71,12.01-2.02,17.88-3.84,0,0,.19.46.19.46h0Z"/><path class="k" d="M582.82,179.24c-1.67,19.01-20.39,36.31-39.67,35.27,0,0-.14-.48-.14-.48,12.96-4.07,24.33-12.5,32.35-23.42,2.67-3.64,5.01-7.53,7.01-11.58,0,0,.45.21.45.21h0Z"/><path class="k" d="M412.34,318.74c2.62,7.31,4.68,13.69,8.01,20.31,3.25,6.65,7.02,12.04,11.62,18.29,0,0-.24.44-.24.44-12.15-6.35-19.62-19.77-20.11-33.29-.05-1.93,0-3.87.22-5.79l.5.04h0Z"/><path class="k" d="M426.76,381.13c52.63,11.89,96.69,12.29,149.18-.73,0,0,.18.47.18.47-46.97,18.53-103.43,19.3-149.36.27h0Z"/><path class="k" d="M447.16,197.37c13.67-.74,26.97,3.2,39.49,8.19,12.21,4.22,25.12,5.26,38.13,7.51,0,0,.04.5.04.5-13.3,1.24-27,.97-39.79-3.29-9.31-3.73-18.54-7.49-28.27-10.01-3.21-.9-6.44-1.71-9.7-2.42,0,0,.1-.49.1-.49h0Z"/><path class="l" d="M506.36,38.01c3.96,2.49,7.55,5.61,10.92,8.77,6.9,6.37,13.23,13.9,16.73,22.79,1.26,2.84,1.98,6.7,3.49,9.35,3.25,5.2,9.27,3.52,14.42,4.56,5.03,1.43,8.36,5.42,11.13,9.45,5.1,7.91,8.24,16.7,11.08,25.56,0,0-.47.17-.47.17-1.76-4.26-3.58-8.5-5.61-12.61-3.65-6.85-8.95-17.31-16.88-19.4-1.79-.38-4.17,0-6.66-.13-2.47-.09-5.27-.71-7.53-2.34-3.34-2.09-4.8-6.15-6.14-9.6-3.97-9.28-9.85-17.57-16.16-25.43,0,0-4.28-5.41-4.28-5.41-1.42-1.8-2.91-3.56-4.39-5.36,0,0,.33-.38.33-.38h0Z"/><path class="l" d="M363.61,137.58c.91,6.81.94,15.03,1.24,21.71.14,6.72.68,14.91.14,21.79,0,0-.47.18-.47.18-2.84-6.91-4.34-14.34-4.67-21.79-.19-7.46.79-14.99,3.28-22.04,0,0,.48.15.48.15h0Z"/><path class="i" d="M659.33,90.8c7.98.84,14.25,1.57,21.99,5.35,6.06,2.96,13.99,6.85,19.23,16.06,5.7,10.02,7.42,24.97,1.29,34.45-3.02,4.67-8.7,6.85-19.94,11.01-5.84,2.16-13.27,4.52-29.9,8.04-11.77,2.49-18.44,3.9-28.18,5.07-23.82,2.86-30.7.02-33.39-1.24-9.33-4.36-14.56-11.41-15.72-13.02-2.32-3.23-8.38-11.67-7.98-23.28.38-10.76,6.08-17.57,8.18-20,3.72-4.31,7.66-6.49,15.5-9.8,13.3-5.61,21.4-9.03,34.04-11.3,16.06-2.88,28.79-2,34.86-1.36Z"/><path class="l" d="M678.07,131.43c.05,9.59-5.58,15.37-7.04,16.75-1.35,1.29-6.81,6.14-14.39,5.37-11.1-1.12-20-13.6-21.05-25.22-.16-1.77-.91-10.03,4.21-16.32,6.14-7.54,15.7-6.07,17.22-5.81,6.71,1.17,11.27,5.1,12.86,6.69,1.42,1.41,8.13,8.11,8.19,18.53Z"/><path class="i" d="M556.31,105.77c-9.92-4.34-17.93-3.7-33.54-2.26-11.09,1.03-23.24,2.24-38.51,8.02-14.66,5.55-24.44,12.37-32.45,18.03-8.33,5.89-34.77,24.58-31.5,33.15,1.31,3.43,6.82,3.81,12.02,4.46,32.14,4.01,33.1,15.74,69.94,22.17,16.62,2.9,26.6,4.65,39.89,1.5,10.6-2.51,30.69-7.26,38.23-27.02,4.87-12.77,3.84-30.05-4.63-42.71-6.48-9.68-15.2-13.49-19.44-15.35Z"/><path class="l" d="M556.29,146c1.53,9.72-3.17,16.67-4.41,18.36-1.15,1.57-5.83,7.54-13.49,8.23-11.22,1-22-9.94-24.85-21.52-.43-1.76-2.45-10,1.66-17.37,4.94-8.84,14.68-9.19,16.23-9.22,6.86-.11,12,3,13.83,4.3,1.63,1.16,9.35,6.65,11.01,17.22Z"/><path class="b" d="M695.68,306.24c-.96,3.94-6.15,21-50.24,29.02-28,5.09-41.14.99-68.49.61-69.07-.96-97.26,23.66-122.86,1.06-2.54-2.25-13.87-12.24-13.71-24.68.16-13.25,13.27-21.89,18.78-25.41,19.18-12.25,37-9.77,86.86-5.44,34.62,3.01,69.7,5.6,92.18-.54,20.09-5.49,28.14-9.56,28.14-9.56,20.82-10.21,37.35-13.15,41.13-6.95,4.38,7.18-9.28,25.04-11.89,28.4.77,3.47,1.36,8.33.1,13.48Z"/><path class="l" d="M466.92,319.36c22.69-18.75,54.79-20.27,83.1-17,18.48,2.11,37.03,4.07,55.53,4.68,22.99,1.05,45.94-2.28,67.75-9.56,4.41-1.45,8.77-3.06,13.07-4.84,0,0,.7,1.44.7,1.44-16.43,9.49-34.38,16.12-52.93,20.1-18.69,3.87-37.91,4.06-56.83,3.9-9.39-.09-18.75.03-28.08.11-11.54.18-23.02-.73-34.46-1.55-16-.91-31.15.89-47.17,4.18,0,0-.68-1.45-.68-1.45h0Z"/><path class="j" d="M750.78,1072.79c-8.19-12.74-21.82-33.42-47.51-48.39-57.39-33.44-126.55-10.16-141.88-5-162.92,54.84-163.74,268.83-304.38,293.26-26.44,4.59-62.8,3.34-80.42,29.33-19,28.03-6.2,73.04,7.52,97,73.26,127.95,413.1,75.77,592.98,21.05,86.81-26.41,142.48-55.26,140.54-61.66-1.46-4.82-34.2,7.49-65.39-8.27-23.26-11.75-35.43-33.95-44.34-54.89-45.93-107.98-5.12-181.6-57.12-262.43Z"/><path class="i" d="M560.26,421.6c5.41,3.82,2.24,16.19.88,24.06-3.79,21.97,1.4,38.69,18.66,87.98,63.48,181.21,95.24,271.81,98.83,280.48,56.2,135.62,92.72,203.25,66.14,229.34-8.62,8.46-21.15,9.95-30.81,9.78-13.43-11.27-34.77-26.34-63.88-35.34-34.65-10.71-48.67-3.03-63.88-11.28-37.54-20.35-11.92-99.5-18.79-193.25-2.27-30.92-14.64-212.22-129.27-297.02-35.41-26.19-113.83-67.79-106.35-97,2.3-8.99,16.09-29.85,9.39-51.51-1.07-3.48-2.49-6.36-1.13-7.9,4.92-5.56,39.19,14.41,62.76,33.09,57.03,45.18,69.6,97.15,88.31,92.87,12.02-2.75,8.13-24.48,34.2-47.75,10.35-9.24,27.92-21.51,34.95-16.54Z"/><path class="f" d="M154.96,1375.53c7.79-6.35,19.91-15.3,36.01-23.5,45.79-23.31,87.54-22.09,125.26-21.93,112.77.48,170.03.55,205.11-20.37,9.89-5.89,51.55-32.12,70.46-81.46,9.68-25.25,8.46-43.67,7.83-81.46-1.78-107.1,6.09-73.96,3.13-194.25-1.81-73.6-2.72-110.4-6.26-134.72-3.86-26.5-20.53-128.43-87.68-239.68-43.6-72.23-89.33-116.65-101.77-128.46-25.5-24.18-49.22-42.23-67.33-54.83-7.7,13.24-20.88,30.83-42.28,39.16-20.71,8.07-36.89,2.71-64.2,1.57-33.23-1.39-5.69,1.56-64.18,5.77-10.19.73-19.34,1.3-20.37,5.2-1.5,5.7,16.17,11.68,31.32,26.63,10.36,10.23,16.23,21.39,25.05,45.43,15.1,41.17,22.94,62.53,28.18,100.26,6.57,47.3,2.91,87.53-4.7,166.06-8.73,90.12-13.09,135.18-21.92,161.36-5.48,16.26-14.77,39.32-12.53,70.5.85,11.82,2.55,13.59,7.83,53.26,3.79,28.51,4.22,37.42,1.57,48.56-3.51,14.74-8.62,17.46-15.66,34.46-5.76,13.92-8.02,25.83-10.96,51.7-5.7,50.03-4.2,66.74-7.83,98.69-1.92,16.9-5.72,41.82-14.09,72.06Z"/><path class="g" d="M427.4,850.91c-22.73,25-45.45,50-68.18,75-2.06,18.43-7.27,39.36-21.54,45.12-6.96,2.81-9.78-.53-17.04,1.5-22.59,6.34-16.15,44.57-39.08,58.65-23.98,14.72-62.66-7.64-67.64-10.53-1.19-.69-10.98-9.15-30.56-26.07-9.57-8.27-16.86-14.75-18.04-24.56-.29-2.45-1.07-8.95,3.01-12.03,3.31-2.5,7.9-1.32,9.09-.98,28.62-22.34,58.61-47.8,89.11-76.72,19.49-18.48,37.5-36.78,54.11-54.64"/><path class="l" d="M377.83,859.84c-10.01,10.89-20.02,21.77-30.03,32.66l-7.42,8.07c-2.32,2.52-4.68,5.01-6.72,7.77-4.15,5.61-5.62,12.8-7.63,19.37-2.41,7.87-4.83,15.75-7.24,23.62-.95,3.08,3.88,4.4,4.82,1.33,2.12-6.93,4.25-13.86,6.37-20.79,1.06-3.46,2.12-6.93,3.19-10.39.94-3.07,1.86-6.1,3.59-8.84,1.63-2.59,3.75-4.82,5.81-7.06,2.47-2.69,4.95-5.38,7.42-8.07,4.95-5.38,9.9-10.76,14.84-16.15,5.51-5.99,11.02-11.99,16.53-17.98,2.17-2.37-1.35-5.91-3.54-3.54h0Z"/><path class="l" d="M319.94,949.59c1.35,6.99,3.54,13.75,6.44,20.24.55,1.23,2.35,1.53,3.42.9,1.27-.74,1.45-2.18.9-3.42-2.72-6.09-4.67-12.5-5.93-19.05-.26-1.33-1.85-2.08-3.08-1.75-1.39.38-2,1.74-1.75,3.08h0Z"/><path class="l" d="M320.27,946.64c-4.35-1.65-8.7-3.3-13.05-4.95-1.23-.46-2.79.51-3.08,1.75-.32,1.42.43,2.58,1.75,3.08,4.35,1.65,8.7,3.3,13.05,4.95,1.23.46,2.79-.51,3.08-1.75.32-1.42-.43-2.58-1.75-3.08h0Z"/><path class="l" d="M315.69,893.66c-6.91,15.61-11.04,32.27-12.15,49.32-.09,1.35,1.21,2.5,2.5,2.5,1.43,0,2.41-1.15,2.5-2.5,1.05-16.1,4.93-32.04,11.47-46.79.55-1.23.36-2.69-.9-3.42-1.06-.62-2.87-.34-3.42.9h0Z"/><path class="l" d="M303.39,942.43c-9.49,17.88-18.86,35.82-28.13,53.81-2.64,5.12-5.26,10.25-7.88,15.38-1.46,2.86,2.85,5.39,4.32,2.52,9.2-18.03,18.52-36,27.94-53.91,2.68-5.1,5.37-10.19,8.07-15.28,1.51-2.84-2.81-5.37-4.32-2.52h0Z"/><path class="l" d="M169.83,958.93c16.8,1.43,31.07,12.35,44.48,21.57,15.04,10.34,30.05,20.79,44.2,32.34,3.91,3.2,7.93,6.39,11.55,9.93,2.15,2.1,5,6.16,1.83,8.66-1.06.84-.87,2.66,0,3.54,1.05,1.05,2.47.84,3.54,0,3.28-2.58,3.43-7.43,1.78-10.95-1.93-4.09-6.02-7.01-9.37-9.87-7.45-6.36-15.19-12.39-23.06-18.22s-15.7-11.3-23.66-16.8c-7.53-5.2-15-10.58-22.91-15.21-8.75-5.12-18.19-9.11-28.37-9.98-1.35-.11-2.5,1.23-2.5,2.5,0,1.45,1.15,2.38,2.5,2.5h0Z"/><path class="l" d="M280.01,901.06c-15.81,20.58-34.56,39.02-55.4,54.47-5.88,4.36-11.93,8.48-18.13,12.38-2.72,1.71-.21,6.04,2.52,4.32,22.54-14.16,43.12-31.45,60.91-51.25,5.04-5.61,9.83-11.42,14.42-17.39.82-1.07.17-2.8-.9-3.42-1.29-.75-2.6-.18-3.42.9h0Z"/><path class="l" d="M283.98,894.62c-.84,1.33-1.68,2.67-2.52,4-.34.54-.42,1.32-.25,1.93s.61,1.21,1.15,1.49c.58.31,1.28.46,1.93.25s1.14-.58,1.49-1.15c.84-1.33,1.68-2.67,2.52-4,.34-.54.42-1.32.25-1.93s-.61-1.21-1.15-1.49c-.58-.31-1.28-.46-1.93-.25s-1.14.58-1.49,1.15h0Z"/><path class="f" d="M248.08,436.61c-25.9-1.88-47.49-.9-63.22.53-35.42,3.23-48.58,9.45-53.61,12.03-5.1,2.62-18.96,9.77-30.56,23.94-24.38,29.76-21.33,66.39-20.29,75.57-3.65,2.41-8.28,6.38-10.15,12.41-1.81,5.88.25,9.67,0,15.79-.5,12.09-9.26,20.53-10.15,21.43-7.36,7.51-12.5,9.64-15.78,12.41-5.77,4.86-6.83,12.32-8.27,22.43-1.04,7.31.35,6.51.38,21.56.04,18.27-1.99,29.58-2.88,34.09-.87,4.38-1.72,7.62-1.96,8.55-4.69,17.67-11.28,26.58-14.32,34.06-3.72,9.14-1.2,15,5.64,47.37,8,37.89,12.03,56.89,13.53,59.78,12.49,24.15,36.66,41.93,59.75,48.5,39.55,11.25,75.66-10.47,99.21-21.43,43.74-20.36,113.58-35.95,225.47-9.02-4.18-15.57-8.18-38.91-4.51-66.55,7.9-59.5,45.74-96.67,58.62-108.28-17.93,6.14-44.72,12.72-76.66,10.15-25.78-2.07-37.9-8.73-64.26-13.54-21.45-3.91-52.57-6.63-92.44,0"/><path class="f" d="M556.13,465.22c-6.72,1.19-10.68,17.62-10.15,31.58.94,24.4,15.67,42.19,18.04,45.12,11,13.6,32.51,80.88,75.53,215.43,36.29,113.49,55.62,173.95,77.79,261.68,40.68,160.99,61.02,241.48,63.13,284.24,1.38,28.04,2.93,91.61,20.29,94.75,8.07,1.46,17.12-10.6,23.67-21.43-2.61-24.99-7.05-65.36-13.53-115.05-17.38-133.23-27.15-162.07-37.2-261.68-1.45-14.35.27,1.31-11.27-153.4-9.45-126.58-9.99-128.83-7.89-142.12,7.81-49.5,27.11-93.11,4.51-116.18-1.69-1.72-1.97-1.66-16.91-10.15-67.26-38.23-60.84-39.13-77.79-45.12-22.69-8.02-36.8-7.35-48.48-21.43-3.86-4.65-5.19-8.19-11.27-13.54-11.28-9.91-18.01-7.67-30.44-16.92-12-8.93-13.27-16.63-18.04-15.79Z"/><path class="f" d="M730.49,574.25c6.37,1.84,17.37,5.68,28.56,13.91,45.78,33.65,27.68,91.18,75.53,155.65,12.93,17.41,22.92,30.82,41.71,40.61,28.95,15.08,52.2,7.66,69.9,25.94,6.5,6.71,9.13,16.97,14.66,37.22,8.99,32.92,16.36,59.9,2.25,80.08-5.97,8.55-11.09,5.07-24.8,18.05-12.1,11.45-12.01,16.91-21.42,27.07-13.35,14.42-28.97,20.09-45.09,25.94-15.92,5.78-13.42,1.9-47.35,11.28-8.31,2.3-12.66,3.69-19.16,3.38-16.7-.79-28.52-11.9-32.69-15.79-21.13-19.72-21.81-48.2-21.8-54.89"/><path class="d" d="M338.17,394.53c-5.37,5.23-12.72,12.4-21.54,21.05-6.54,6.41-6.31,6.84-10.77,11.28-14.42,14.34-20.62,17.09-19.79,19.8,1.94,6.31,38.07-.05,38.58,2.76.41,2.26-23.28,4.61-24.8,12.78-1.84,9.87,29.85,21.98,58.62,36.85,28.24,14.58,61.43,32.69,88.68,60.91,40.12,41.53,44.57,82.49,66.14,81.21,10.61-.63,20.71-11.21,22.55-21.05,2.18-11.72-7.93-19.17-26.3-45.12-15.06-21.27-10.92-20.01-26.3-42.11-15.38-22.08-29.16-37.19-40.58-49.63-23.49-25.56-43.92-43.11-52.61-50.38-14.56-12.18-31.81-25.3-51.86-38.35Z"/><path class="d" d="M613.25,505.07c-.33,2.68-4.27,6.3-23.3,9.02-.45,15.22,1.78,34.22,13.53,50.38,10.3,14.16,23.29,19.78,21.8,27.07-.99,4.85-8.35,10.17-35.32,12.78-11.03-29.37-22.19-51.87-30.81-67.68-9.88-18.1-17.79-29.6-16.53-46.62,1.41-19.13,13.66-36.01,17.47-34.93,2.09.59.36,6.26,4.08,13.12,3.74,6.91,10.56,8.55,17.04,13.03,24.88,17.25,32.57,19.76,32.07,23.81Z"/><path class="g" d="M967.98,705.34c-32.23-12.94-70.83-31.83-111.23-59.65-26.63-18.34-49.06-37.14-67.64-54.64-22.71,16.38-45.43,32.75-68.14,49.13,25.72,19.35,53.6,39.04,83.67,58.65,38.04,24.8,74.85,46.38,109.73,65.17,17.87-19.55,35.74-39.1,53.61-58.65Z"/><path class="g" d="M912.19,788.27c.14-6.51.29-13.01.43-19.52-35.74-21.72-71.48-43.45-107.22-65.17-28.89-19.8-57.79-39.6-86.68-59.4.08,6.1.17,12.2.25,18.3,18.83,19.24,42.36,40.38,71.15,60.91,44.78,31.93,87.78,52.04,122.07,64.89Z"/><path class="g" d="M969.49,710.6c.25,5.93.5,11.86.75,17.8-17.56,19.13-35.12,38.27-52.67,57.4-.06-5.77-.12-11.53-.19-17.3,17.37-19.3,34.74-38.6,52.11-57.9Z"/><path class="e" d="M928.9,872.21c.19-1.95.55-4.83,1.32-8.27.94-4.19,1.9-6.62,2.63-9.02,1.9-6.24,1-8.19,2.07-15.23,1.51-9.9,5.18-17.23,7.89-22.56,3.55-6.99,4.8-7.08,8.14-13.03,8.09-14.42,4.13-19.84,11.02-35.59,5.19-11.87,12.47-20.29,14.03-22.06,10.16-11.54,17.06-12.54,18.04-20.05,1.43-10.97-10.19-19.93-11.02-20.55-8.57-6.43-18.07-5.76-20.54-5.51-4.18-1.84-8.35-3.68-12.53-5.51,3.3-7.48,4.23-13.94,4.51-18.05.35-5.12.63-10.11-2-15.54-.98-2.02-3.7-7.63-9.02-9.02-2.42-.63-4.11-.06-8.52,1-3.58.86-8.68,1.98-15.03,3.01-1.23-3.28-3.11-7.48-6.01-12.03-2.81-4.41-4.28-6.65-7.01-8.02-5.39-2.7-11.36-.35-13.53.5-6.51,2.56-7.98,8.72-10.02,8.02-1.92-.65-.18-5.58-3.01-12.53-1.73-4.25-4.28-7.09-6.01-9.02-3.43-3.82-5.44-6.06-8.52-7.02-8.03-2.5-17.18,5.67-22.05,10.03-2.12,1.9-5.14,4.63-8.02,9.02-8.39,12.81-9.03,29.7-3.01,41.61,3.34,6.6,6.77,7.79,7.52,8.02,6.03,1.88,12.57-4.71,13.53-3.51.58.72-1.78,3.01-5.07,8.58-2.46,4.16-3.69,6.29-3.76,8.65-.14,4.71,3.09,8.4,4.13,9.59.77.88,2.24,2.52,4.7,3.76,6.41,3.22,13.05.4,13.53.19,3.49-1.55,6.91-4.71,7.7-5.45,1.94-1.83,3.05-3.32,3.76-3.01,1.03.45-.63,3.84.38,7.52,1.07,3.92,4.76,6.76,7.89,7.9,5.93,2.15,11.66-1.18,15.78-3.57,6.48-3.76,10.43-9.09,12.03-11.28,3.56-4.89,3.35-6.72,6.95-9.78,2.47-2.1,4.84-3.09,9.58-5.08,6.26-2.62,7.57-2,8.08-1.5.85.84.1,2.04.94,3.57,1.17,2.14,4.14,2.59,5.45,2.82,6.25,1.08,16.65,4.3,16.66,6.14,0,1.73-9.18,4.1-17.22,4.76-4,.33-5.8.08-8.27,1.5-3.25,1.87-6.3,5.86-6.2,10.53.09,4.17,2.66,7.01,4.13,8.65,2.39,2.65,4.95,3.86,6.76,4.7,5.43,2.51,8.38,1.09,16.53,3.01,2.52.59,4.53,1.25,5.76,1.69-8.17,8.09-16.56,16.85-25.05,26.32-8.83,9.84-16.91,19.5-24.3,28.82-14.66-6.41-29.31-12.82-43.97-19.24-12.71-6.45-25.43-12.91-38.14-19.36.3-2.05.52-5.13-.06-8.77-.24-1.49-.65-3.94-2-6.83-.72-1.53-2.29-4.69-5.64-7.52-1.3-1.1-5.36-4.54-10.9-4.32-2.5.1-4.3.9-6.01,1.69-2.65,1.22-4.74,2.81-12.02,10.53-3.22,3.41-4.82,5.11-5.26,5.83-3.12,5.12-3.29,11.11-2.63,14.85,1.63,9.26,9.15,9.13,18.16,20.87,9.92,12.92,6.58,20.59,16.03,26.07,4.33,2.51,6.19,1.57,14.47,5.89,7.45,3.88,11.09,5.85,12.4,9.59,1.37,3.9-1.15,8.99-6.2,19.17-1.6,3.24-3.07,5.87-4.13,7.71"/><path class="l" d="M915.99,656.86c-7.68,5.45-13.08,13.29-18.98,20.49-6.36,7.76-12.96,15.32-19.78,22.67-2.19,2.36,1.34,5.9,3.54,3.54,6.71-7.24,13.21-14.67,19.48-22.3,5.67-6.91,10.89-14.84,18.27-20.08,1.1-.78,1.62-2.18.9-3.42-.64-1.09-2.31-1.68-3.42-.9h0Z"/><path class="l" d="M879.6,643.73c-1.28,1.63-2.68,3.14-4.25,4.49s-3.14,2.34-4.72,3.51c-2.97,2.19-5.38,4.78-7.31,7.94-3.6,5.88-5.45,12.69-9.6,18.26-.81,1.08-.18,2.79.9,3.42,1.27.75,2.61.19,3.42-.9,4.07-5.47,5.93-12.14,9.41-17.95,1.76-2.94,3.97-5.24,6.76-7.22,3.32-2.35,6.4-4.8,8.93-8.03.83-1.06,1.04-2.5,0-3.54-.87-.87-2.7-1.07-3.54,0h0Z"/><path class="l" d="M863.93,651.05c-.26,1.5-.52,3.01-.77,4.51-.1.33-.12.66-.04,1,.02.33.11.64.3.93.3.52.9,1.01,1.49,1.15.64.15,1.36.11,1.93-.25.52-.33,1.04-.86,1.15-1.49.26-1.5.52-3.01.77-4.51.1-.33.12-.66.04-1-.02-.33-.11-.64-.3-.93-.3-.52-.9-1.01-1.49-1.15-.64-.15-1.36-.11-1.93.25-.52.33-1.04.86-1.15,1.49h0Z"/><path class="l" d="M867.93,654.59l3.02-.43c.33-.08.61-.23.85-.45.27-.18.49-.41.64-.7.18-.29.28-.6.3-.93.07-.33.06-.66-.04-1-.2-.6-.57-1.19-1.15-1.49l-.6-.25c-.44-.12-.89-.12-1.33,0l-3.02.43c-.33.08-.61.23-.85.45-.27.18-.49.41-.64.7-.18.29-.28.6-.3.93-.07.33-.06.66.04,1,.2.6.57,1.19,1.15,1.49l.6.25c.44.12.89.12,1.33,0h0Z"/><path class="l" d="M864.61,654.95c-1.41,2.07-2.52,4.31-3.42,6.65-.22.57-.04,1.42.25,1.93s.9,1.01,1.49,1.15c.64.15,1.36.11,1.93-.25l.51-.39c.31-.31.52-.68.64-1.1.12-.31.24-.62.37-.92l-.25.6c.77-1.8,1.7-3.51,2.8-5.13.35-.52.41-1.34.25-1.93s-.61-1.21-1.15-1.49c-.58-.31-1.28-.46-1.93-.25s-1.11.59-1.49,1.15h0Z"/><path class="l" d="M862.52,650.51c-1.26,3.05-2.43,6.1-2.83,9.39-.2,1.59-.05,3.22-.28,4.8-.19,1.33-.69,2.78-1.18,4.08s.53,2.74,1.75,3.08c1.41.39,2.59-.48,3.08-1.75.55-1.43,1-2.89,1.23-4.42.26-1.7.17-3.41.34-5.12.3-3.03,1.58-5.95,2.73-8.74.51-1.25-.56-2.75-1.75-3.08-1.44-.39-2.56.49-3.08,1.75h0Z"/><path class="l" d="M866.41,652.55c4.71-1.74,9.49-3.27,14.33-4.6,1.26-.35,2.16-1.79,1.75-3.08s-1.72-2.12-3.08-1.75c-4.84,1.33-9.62,2.87-14.33,4.6-1.22.45-2.19,1.72-1.75,3.08.39,1.2,1.76,2.23,3.08,1.75h0Z"/><path class="l" d="M895.13,688.58c1.81.47,3.56,1.08,5.22,1.93,1.12.57,2.96,1.32,3.48,2.58.45,1.09-.25,2.38-.8,3.29-.83,1.39-1.95,2.6-3.05,3.78s-2.37,2.42-3.64,3.54c-.69.61-1.39,1.2-2.11,1.77-.61.48-1.55.93-2.04,1.51l-.29.2c.28,0,.34,0,.18,0-.4,0-.9-.24-1.27-.34-.91-.25-1.81-.5-2.72-.74-1.96-.54-3.93-1.07-5.89-1.61-3.11-.85-4.43,3.97-1.33,4.82,2.42.66,4.83,1.32,7.25,1.98s4.41,1.46,6.6.02c3.68-2.42,7.04-5.55,9.93-8.86s5.81-7.61,3.49-11.88c-1.05-1.93-2.99-3.16-4.88-4.17-2.15-1.15-4.45-2.03-6.81-2.64-3.12-.81-4.45,4.02-1.33,4.82h0Z"/><path class="l" d="M856.04,686.55c3.89-.43,7.99,1.34,9.84,4.98.41.8.66,1.72.39,2.59-.34,1.08-1.14,2.08-1.73,3.04-1.57,2.54-3.13,5.08-4.7,7.62l3.42-.9c-4.62-2.33-9.53-3.97-14.64-4.78-1.33-.21-2.69.34-3.08,1.75-.33,1.19.4,2.86,1.75,3.08,4.68.74,9.22,2.14,13.45,4.28,1.23.62,2.68.31,3.42-.9,1.83-2.98,3.67-5.95,5.5-8.93.88-1.45,1.62-2.94,1.71-4.66s-.43-3.27-1.18-4.71c-2.58-5.02-8.6-8.08-14.16-7.45-1.34.15-2.5,1.04-2.5,2.5,0,1.24,1.15,2.65,2.5,2.5h0Z"/><path class="l" d="M838.5,661.85c1.51-.13,3.03-.26,4.54-.17.76.05.96.07,1.74.28.29.08.58.18.86.28-.48-.18.34.17.44.22.27.14.52.31.77.47-.42-.28.28.24.35.32s.61.76.33.34c.17.25.33.5.45.77-.12-.28.15.54.18.64.04.17.07.34.1.52-.03-.23-.03-.19,0,.12.04.71.05,1.42.04,2.14-.01.77-.03,1.54-.05,2.31,0,.39-.02.78-.03,1.17,0,.27-.14.91-.03,1.14,0-.4.21-.71.62-.95-.25.14-.25.14,0,.02-.32.11-.66.18-.99.25-.75.17-1.51.31-2.28.44-.32.04-.38.06-.2.03-.19.02-.38.05-.58.07-.38.04-.77.08-1.16.11-.77.06-1.54.09-2.32.09-1.55,0-3.09-.1-4.63-.3-1.3-.17-2.55,1.27-2.5,2.5.07,1.5,1.1,2.32,2.5,2.5,2.83.37,5.7.4,8.53.05,1.55-.19,3.11-.42,4.62-.83,1.87-.5,3.13-1.76,3.34-3.72.15-1.42.09-2.9.12-4.33s.03-2.95-.26-4.41c-.54-2.67-2.48-4.93-4.94-6.05-3.06-1.4-6.31-1.33-9.59-1.04-1.3.11-2.56,1.07-2.5,2.5.06,1.26,1.1,2.62,2.5,2.5h0Z"/><path class="l" d="M834.7,659.61c-1.62,4.32-2.61,8.8-3.11,13.38-.14,1.3,1.25,2.56,2.5,2.5,1.48-.07,2.35-1.1,2.5-2.5.03-.32.07-.63.11-.95.07-.55-.05.32.04-.28.08-.55.17-1.1.27-1.65.18-1.02.39-2.03.63-3.03.5-2.09,1.14-4.14,1.89-6.15.46-1.23-.51-2.79-1.75-3.08-1.42-.32-2.58.43-3.08,1.75h0Z"/><path class="l" d="M828.37,755.32c-.13.54-.3,1.06-.51,1.57l.25-.6c-.36.85-.83,1.64-1.39,2.38l.39-.51c-.57.73-1.23,1.38-1.96,1.94l.51-.39c-.71.54-1.47.98-2.29,1.33l.6-.25c-.31.13-.62.24-.94.34-1.25.39-2.17,1.76-1.75,3.08s1.74,2.16,3.08,1.75c4.29-1.32,7.78-4.92,8.83-9.3.3-1.27-.4-2.77-1.75-3.08s-2.75.39-3.08,1.75h0Z"/><path class="l" d="M952.7,708.55c-.53-.2-.03.02.09.09-.48-.28.07.21-.24-.25.11.16.2.32.28.48-.15-.28-.11-.26-.02.03.16.53.05-.06.04.11s.02.34.01.5c0,.27-.1.56,0,.15-.05.2-.11.4-.15.6-.13.53.23-.3-.07.15-.07.11-.41.61-.06.17-.13.16-.27.3-.42.44-.1.09-.2.18-.3.27.12-.09.11-.09-.03,0-.87.59-1.4.77-2.51,1.06-1.93.5-4.33,1.06-6.23.76s-3.29-1.73-4.77-3.15c-.97-.93-2.57-.97-3.54,0s-.98,2.6,0,3.54c2.37,2.27,4.89,4.31,8.28,4.62,1.72.16,3.45-.16,5.14-.45,1.36-.23,2.71-.49,4-1,2.96-1.16,5.2-3.28,5.58-6.54.33-2.83-1.11-5.4-3.79-6.4-1.27-.47-2.74.52-3.08,1.75-.38,1.4.48,2.6,1.75,3.08h0Z"/><path class="i" d="M946.19,817.88c-4.39-1.21-7.4,26.03-30.81,37.6-12.6,6.22-30.88,7.47-44.34-.75-20.16-12.32-21.11-40.75-27.81-39.85-4.46.6-6.09,13.47-6.76,18.8-.54,4.24-2.85,25.41,9.77,49.63,2.92,5.6,7.46,14.13,16.53,22.56,7.43,6.9,20.98,20.38,36.07,18.05,7.21-1.12,12.74-5.49,18.04-11.28,30.1-32.88,35.8-92.96,29.31-94.75Z"/><path class="h" d="M897.34,349.04c5.26,16.42,10.52,32.83,15.78,49.25,2.13-5.76,4.26-11.53,6.39-17.29-1.1-3.66-2.2-7.33-3.3-10.99-.18-.95-.33-1.92-.46-2.92-.98-7.6-.24-14.5,1.13-20.3"/><path class="h" d="M913.49,306.18c-8.03-.28-34.63-1.17-60.88-1.13-2.81,0-7.76.08-10.52,3.38-6.29,7.52,4.17,25.28,6.39,28.95,3.76-1.88,7.52-3.76,11.27-5.64-1.24-4.19-2.49-8.38-3.73-12.57,3.25-2.2,6.5-4.4,9.75-6.61,14.28.5,28.56,1,42.84,1.5"/><path class="g" d="M1090.49,131.35c-58.59,53.67-117.18,107.35-175.77,161.02-.72,1.4-1.82,3.99-1.97,7.42-.15,3.18.59,5.7,1.13,7.14-9.65,10.4-19.29,20.8-28.94,31.21-3.64-1.7-8.87-3.66-15.41-4.51-9.47-1.24-17.23.4-21.8,1.75-50.77,43.78-101.54,87.56-152.32,131.34-1.28,3.9-3.77,9.54-9.02,14.04-4.63,3.96-7.91,4.05-11.02,7.52-2.69,3-5.31,8.6-3.51,20.05-3.84-.33-7.68-.67-11.52-1-25.72,22.22-51.44,44.45-77.16,66.67-1.25-4.19-5.44-16.25-17.54-24.56-6.29-4.32-12.47-6.09-16.55-6.87-8.68,6.64-17.36,13.27-26.04,19.91-3.01-1-6.01-2.01-9.02-3.01-8.52,7.35-17.04,14.7-25.55,22.06-.62-1.61-2.36-5.49-6.51-8.52-3.65-2.66-7.3-3.31-9.02-3.51-20.04,16.21-40.08,32.42-60.13,48.63-.37,1.89-1.65,9.64,3.01,17.55,4.54,7.71,11.66,10.39,13.53,11.03-.33,4.14-.53,13.86,5.01,24.06,7.92,14.59,21.78,19.49,25.05,20.55-6.35,15.87-12.69,31.75-19.04,47.62,28.56,15.71,57.12,31.41,85.68,47.12,26.86-59.29,41.05-72,49.1-70.18,6.35,1.43,10.25,12.49,18.04,34.59,8.11,23,8.61,35.71,20.04,44.62,5.96,4.65,12.4,6.32,16.53,7.02,10.91-5.49,22.98-12.38,35.57-21.05,10.04-6.92,18.88-13.89,26.56-20.55,2.21-5.14,2.23-9.17,2-11.53-.27-2.74-1.13-5.92-8.02-17.04-4.27-6.91-6.51-10.03-6.51-10.03-10.02-13.2-20.04-26.4-30.06-39.6,10.28-9.77,18.57-17.66,25.05-23.56,2.82-2.57,5.27-4.73,6.51-8.52,1.75-5.35-.49-9.12,2-13.28,1.62-2.7,4.32-4.05,6.26-4.76,3.26,2.26,6.51,4.51,9.77,6.77,22.8-24.48,45.59-48.96,68.39-73.44-3.84-8.27-7.68-16.54-11.52-24.81,52.53-54.98,105.05-109.95,157.58-164.93-.17-2.93-.78-7.14-2.76-11.78-1.24-2.9-2.7-5.24-4.01-7.02,10.69-10.86,21.38-21.72,32.07-32.58,1.84,1.02,4.56,2.27,8.02,3.01,3.69.79,6.85.72,9.02.5,56.45-52.39,112.9-104.77,169.35-157.16.19-.94,3.46-19.26-10.02-31.33-10.02-8.97-22.27-8.21-24.55-8.02Z"/><path class="c" d="M993.04,293.77c.2-1.26,2.54-18.36-10.52-30.08-11.24-10.09-25.11-8.3-27.06-8.02"/><path class="c" d="M896.33,396.04c-.44-3.7-3.5-26.02-23.55-40.1-14.4-10.11-29.38-10.23-34.57-10.03"/><path class="c" d="M797.24,497.96c-.01-3.18-.64-34.18-25.82-51.44-13.93-9.55-28.43-10.14-34.57-10.03"/><path class="c" d="M877.29,416.59c-2.08-6.22-8.84-23.72-27.06-36.59-14.65-10.35-29.31-12.48-36.08-13.03"/><path class="c" d="M852.74,440.15c-2-6.36-9.25-26.54-30.06-40.1-13.64-8.89-27.01-10.96-34.07-11.53"/><path class="c" d="M827.19,467.22c-2.54-7.88-10.09-27.6-30.06-42.61-12.69-9.53-25.34-13.37-33.07-15.04"/><path class="c" d="M770.07,525.37c.27-3.63,1.89-32.41-20.54-52.64-16.43-14.81-35.64-15.92-41.09-16.04"/><path class="d" d="M747.52,531.89c5.85,11.36,11.69,22.73,17.54,34.09-21.38,22.89-42.76,45.79-64.13,68.68-5.51-8.35-11.02-16.71-16.53-25.06,21.04-25.9,42.09-51.8,63.13-77.7Z"/><path class="l" d="M683.87,510.81c-16.55,22.87-35.39,44.08-56.12,63.24-5.9,5.46-11.97,10.75-18.17,15.87-1.04.86-.89,2.64,0,3.54,1.03,1.03,2.49.86,3.54,0,22.05-18.21,42.28-38.6,60.28-60.81,5.1-6.3,10.03-12.74,14.78-19.3.79-1.09.19-2.79-.9-3.42-1.26-.74-2.63-.2-3.42.9h0Z"/><path class="l" d="M650.32,583.97c-1.97-1.57-4.02-3.14-6.5-3.79-2.19-.57-4.78-.39-6.71.89s-3.16,3.42-2.93,5.77,1.8,4.74,4.38,5.15c1.45.23,2.93.12,4.39.09s2.91-.05,4.36-.08c1.31-.02,2.56-1.13,2.5-2.5s-1.1-2.52-2.5-2.5c-2.11.04-4.22.07-6.32.11-.46,0-.92.01-1.39,0s.37.12-.08-.01c.03,0-.36-.11-.36-.11.03-.05.55.3.25.09-.03-.02-.17-.12-.21-.13.05.01.45.43.22.15-.08-.09-.17-.2-.25-.27.43.37.27.39.17.2-.03-.05-.06-.11-.09-.16-.27-.44.14.51,0,0-.04-.15-.08-.29-.11-.44-.1-.41.02.61.02.08,0-.15,0-.31,0-.46,0-.26.15-.13-.04.27.03-.07.04-.18.06-.26.03-.12.22-.6.04-.2s.05-.07.11-.17c.03-.06.08-.11.11-.16.14-.26-.36.39-.12.17.06-.05.11-.12.16-.17.05-.05.43-.35.09-.11s.15-.1.25-.15c.09-.05.64-.3.25-.15s.21-.06.29-.09c.2-.06.41-.1.61-.14.44-.09-.58.04.04,0,.19-.01.37-.02.56-.01.16,0,.32.02.48.03.43.03-.14,0-.19-.03.09.04.21.04.31.06.23.05.45.11.67.18.12.04.24.08.36.12.07.03.58.18.23.08-.29-.08-.02,0,.05.03.14.07.28.14.42.21.22.12.44.24.66.38.44.26.86.55,1.27.85.08.06.16.11.23.17,0,0,.49.38.21.15-.25-.19,0,0,.05.04.15.12.3.24.45.36.54.43,1.05.73,1.77.73.61,0,1.35-.27,1.77-.73.83-.91,1.09-2.66,0-3.54h0Z"/><path class="l" d="M521.47,608.15c-4.67-4.18-9.61-8.07-14.77-11.63-1.08-.75-2.82-.24-3.42.9-.67,1.27-.25,2.63.9,3.42,4.94,3.41,9.23,6.79,13.76,10.85.97.87,2.59,1.03,3.54,0,.87-.95,1.04-2.6,0-3.54h0Z"/><path class="l" d="M529.55,568.18c-5.7,3.81-11.39,7.63-17.09,11.44-2.8,1.87-5.6,3.75-8.4,5.62-2.64,1.77-5.26,3.6-7.53,5.84s1.25,5.81,3.54,3.54c2.08-2.06,4.46-3.69,6.89-5.31,2.81-1.88,5.63-3.77,8.44-5.65l16.68-11.17c2.66-1.78.16-6.11-2.52-4.32h0Z"/><path class="l" d="M498.22,596.25c2.97,1.62,5.82,3.46,8.52,5.49.48.36,1.37.4,1.93.25s1.21-.61,1.49-1.15c.31-.58.46-1.28.25-1.93s-.6-1.08-1.15-1.49c-2.7-2.04-5.55-3.87-8.52-5.49-1.15-.63-2.78-.32-3.42.9s-.33,2.75.9,3.42h0Z"/><path class="l" d="M516.62,607.66c-8.95,10.06-20.93,16.69-30.31,26.29-2.67,2.73-5.09,5.71-7.14,8.94-1.73,2.72,2.59,5.23,4.32,2.52,7.05-11.09,18.68-18.04,28.51-26.36,2.88-2.44,5.64-5.02,8.16-7.85,2.13-2.4-1.39-5.95-3.54-3.54h0Z"/><path class="l" d="M482.15,642.41c-3.01-5.54-8.02-9.54-13.38-12.68-2.65-1.55-5.4-2.93-8.16-4.28-3.35-1.64-6.9-3.19-10.71-2.88-1.35.11-2.5,1.07-2.5,2.5,0,1.27,1.15,2.61,2.5,2.5,3.23-.26,6.11,1.17,8.94,2.56,2.5,1.24,5,2.5,7.41,3.91,4.65,2.73,8.97,6.08,11.58,10.88,1.54,2.83,5.86.31,4.32-2.52h0Z"/><path class="l" d="M496.68,590.57c-5.68-1.31-11.43-2.26-17.23-2.9-1.3-.14-2.56,1.25-2.5,2.5.07,1.48,1.1,2.35,2.5,2.5,5.31.58,10.64,1.5,15.9,2.72,1.27.29,2.77-.39,3.08-1.75.29-1.27-.38-2.76-1.75-3.08h0Z"/><path class="l" d="M483.73,581.27c-1.06,1.32-2.26,2.51-3.6,3.55l.51-.39c-.93.72-1.92,1.36-2.95,1.91-1.15.62-1.61,2.31-.9,3.42.76,1.17,2.19,1.56,3.42.9,2.7-1.45,5.15-3.46,7.06-5.85.43-.54.73-1.05.73-1.77,0-.61-.27-1.35-.73-1.77s-1.1-.76-1.77-.73c-.62.03-1.36.23-1.77.73h0Z"/><path class="l" d="M452.81,608.01c-2.49,2.76-5.07,5.46-7.47,8.3-1.32,1.57-2.39,3.48-1.82,5.6.26.98.84,1.86,1.64,2.48,1.02.79,2.1.94,3.35.76s2.13-1.9,1.75-3.08c-.46-1.42-1.68-1.95-3.08-1.75.24-.04.46-.09.7-.02l.31.14c-.18-.11-.18-.11,0,.02.14.12.17.13.07.04-.09-.1-.08-.08.04.06.2.31,0-.04-.03-.1-.14-.25.16.55.05.04.03.16,0,.48.04.16-.03.2-.1.41,0,.1.04-.13.08-.26.12-.38-.12.32-.07.19.06-.04.07-.12.16-.23.22-.34.17-.31-.25.28-.01,0,.09-.1.18-.21.27-.32.47-.55.97-1.08,1.45-1.62l5.88-6.52c.88-.97,1.03-2.59,0-3.54-.96-.88-2.6-1.04-3.54,0h0Z"/><path class="l" d="M473.66,594.23c-.35-.26.27.24.28.24.12.11.24.23.35.35.39.42.21.2.51.67.49.79.63,1.11.86,2.16,0,.02.15.83.08.33.02.17.04.34.05.51.03.42.03.85,0,1.28,0,.01-.08.85-.01.36-.02.17-.05.34-.09.51-.1.5-.24,1-.41,1.48-.27.76.21-.38-.14.35-.07.15-.15.31-.23.45-.2.37-.43.74-.68,1.07-.35.46-1.3,1.36-1.76,1.68-1.65,1.17-3.23,1.76-5.24,2.12-1.58.29-3.71.28-5.24-.09-.97-.23-1.39-.38-2.18-.9-.46-.31-.92-.78-1.08-1.6-.35-1.77.48-3.67,1.24-5.01.89-1.57,1.9-2.74,3.44-3.93-.09.07-.27.2.14-.1.26-.18.52-.36.78-.53.42-.26.85-.51,1.29-.74.91-.47,1.54-.71,2.66-1,1.81-.48,3.82-.54,5.57-.15,1.32.3,2.71-.4,3.08-1.75.35-1.26-.42-2.78-1.75-3.08-4.87-1.09-10.1,0-14.15,2.91s-7.83,8.07-7.32,13.37c.6,6.22,7.24,8.17,12.6,7.7s10.7-2.94,13.11-7.82c2.56-5.18,1.57-11.69-3.22-15.18-1.09-.8-2.79-.19-3.42.9-.74,1.26-.2,2.62.9,3.42h0Z"/><path class="l" d="M442.46,620.19c-3.2,3.78-5.52,8.28-6.47,13.16-.35,1.78-.14,4.56-1.64,5.76-.62.5-1.65.94-2.44,1.35-1.03.53-1.99,1.16-2.84,1.95-2.36,2.2,1.18,5.73,3.54,3.54,1.42-1.33,3.61-1.9,5.16-3.2,2.14-1.79,2.47-4.33,2.84-6.92.64-4.43,2.49-8.68,5.39-12.09.87-1.03,1.01-2.53,0-3.54-.89-.89-2.66-1.04-3.54,0h0Z"/><path class="l" d="M477.64,643.81c-2.15,3.81-3.83,7.9-4.91,12.14s-1.76,8.53-1.32,12.76,1.87,8.1,5.09,10.77c2.95,2.44,6.84,3.7,10.6,2.54,3.06-.95,1.76-5.78-1.33-4.82-2.47.76-4.92-.31-6.66-2.1-2.16-2.23-2.79-5.51-2.82-8.51-.07-7.03,2.25-14.18,5.67-20.25,1.58-2.81-2.74-5.33-4.32-2.52h0Z"/><path class="l" d="M487.11,681.59c.72-.27,1.4-.62,1.91-1.21s.88-1.2,1.11-1.97c.11-.37.15-.78.18-1.16s-.04-.77-.1-1.15c-.02-.17-.06-.34-.13-.5-.13-.35-.28-.74-.51-1.05-.16-.29-.37-.53-.64-.7-.24-.22-.52-.37-.85-.45-.33-.1-.66-.12-1-.04-.33.02-.64.11-.93.3-.53.34-1,.86-1.15,1.49l-.09.66c0,.45.12.87.34,1.26.1.13.18.27.24.42l-.25-.6c.07.17.12.35.14.54l-.09-.66c.02.2.02.4,0,.6l.09-.66c-.03.22-.09.42-.17.62l.25-.6c-.08.19-.18.36-.3.52l.39-.51c-.12.15-.24.28-.39.39l.51-.39c-.13.1-.27.18-.42.24l.6-.25s-.05.02-.08.03c-.33.08-.61.23-.85.45-.27.18-.49.41-.64.7-.18.29-.28.6-.3.93-.07.33-.06.66.04,1,.2.6.57,1.19,1.15,1.49s1.3.49,1.93.25h0Z"/><path class="l" d="M527.26,656.44c-13.18,5.67-26.2,11.72-39.04,18.14-2.88,1.44-.35,5.75,2.52,4.32,12.84-6.42,25.86-12.47,39.04-18.14,1.24-.53,1.52-2.36.9-3.42-.75-1.28-2.18-1.43-3.42-.9h0Z"/><path class="l" d="M473.88,678.21c-2.19,2.03-4.46,3.98-6.8,5.83-.28.22-.55.44-.83.65.2-.16-.06.05-.12.09-.14.11-.28.21-.42.32-.6.45-1.2.9-1.8,1.34-1.24.9-2.51,1.78-3.79,2.64-1.09.73-1.66,2.24-.9,3.42.7,1.08,2.26,1.67,3.42.9,5.22-3.49,10.17-7.38,14.77-11.65.96-.89.97-2.65,0-3.54-1.03-.94-2.51-.95-3.54,0h0Z"/><path class="l" d="M564.55,593.78c.96,2.15,1.88,4.71,2.59,7.16s1.29,5.16,1.67,7.8c.19,1.3,1.9,2.13,3.08,1.75,1.42-.46,1.95-1.68,1.75-3.08-.82-5.6-2.46-10.99-4.76-16.16-.53-1.2-2.37-1.57-3.42-.9-1.24.8-1.47,2.14-.9,3.42h0Z"/><path class="l" d="M565.96,590.03c5.45,2.46,10.91,4.93,16.36,7.39,1.23.56,2.69.35,3.42-.9.63-1.07.34-2.86-.9-3.42-5.45-2.46-10.91-4.93-16.36-7.39-1.23-.56-2.69-.35-3.42.9-.63,1.07-.34,2.86.9,3.42h0Z"/><path class="l" d="M675.83,624.94c-.32-.05-.34-.04-.07.03-.29-.14-.3-.14-.05,0,.23.15.23.14-.01-.04.1.09.2.18.3.28.1.1.19.21.28.31-.17-.22-.18-.22,0,.01.15.25.31.49.45.75.64,1.19.95,2.09,1.45,3.4,1.07,2.79,1.97,5.64,2.7,8.53.32,1.27,1.81,2.16,3.08,1.75s2.09-1.72,1.75-3.08c-.85-3.35-1.93-6.65-3.23-9.85-.59-1.45-1.13-3.01-2.06-4.29-1.17-1.61-2.57-2.56-4.57-2.8-1.3-.15-2.56,1.26-2.5,2.5.07,1.48,1.1,2.34,2.5,2.5h0Z"/><path class="l" d="M633.01,600.91l-13.55-2.32-6.77-1.16c-2.09-.36-4.4-1.06-6.52-.96-2.38.11-3.79,1.82-5.3,3.43-1.59,1.7-3.18,3.39-4.76,5.09-3.18,3.39-6.35,6.79-9.53,10.18-3.57,3.82-7.15,7.64-10.72,11.46-2.2,2.35,1.33,5.89,3.54,3.54,5.95-6.37,11.91-12.73,17.86-19.1,1.47-1.58,2.95-3.15,4.42-4.73s2.81-3.36,4.42-4.71c.13-.11.48-.21.27-.18.34-.05.78.08,1.11.14,1.13.19,2.26.39,3.39.58l6.29,1.08,14.51,2.49c1.33.23,2.69-.35,3.08-1.75.33-1.2-.41-2.85-1.75-3.08h0Z"/><path class="l" d="M690.42,501.66c.15.01.29.03.44.05-.27-.04-.31-.04-.12-.01.25.05.5.09.75.14.43.09.85.2,1.27.33s.83.28,1.24.43c.27.11.27.11,0,0,.1.04.2.09.3.14.2.09.4.19.59.29.82.42,1.58.91,2.34,1.43.23.17.24.17.02,0,.09.07.17.14.26.21.17.14.34.28.5.43.36.31.71.64,1.04.98.31.31.6.64.89.98.14.17.28.34.42.51-.32-.42.14.2.2.29.52.75.99,1.54,1.39,2.36.1.2.19.4.28.6-.23-.5.08.21.12.31.17.44.31.9.44,1.35.12.42.22.85.3,1.28.04.22.08.43.11.65-.09-.61.02.32.03.43.1,1.3,1.08,2.56,2.5,2.5,1.27-.06,2.61-1.1,2.5-2.5-.74-9.43-8.42-17.21-17.81-18.16-1.31-.13-2.56,1.24-2.5,2.5.07,1.47,1.1,2.36,2.5,2.5h0Z"/><path class="l" d="M742.35,527.06c-9.49-4.35-19.21-8.18-29.12-11.46-3.06-1.01-4.38,3.82-1.33,4.82,9.5,3.14,18.83,6.78,27.93,10.95,1.23.56,2.69.35,3.42-.9.63-1.08.34-2.86-.9-3.42h0Z"/><path class="l" d="M709.87,516.43c-19.1,11-36.1,25.37-51.18,41.38-4.24,4.5-8.33,9.13-12.3,13.87-.87,1.03-1.01,2.52,0,3.54.89.89,2.66,1.04,3.54,0,13.86-16.54,29.31-31.94,46.92-44.48,5.02-3.58,10.21-6.91,15.55-9.99,2.79-1.61.27-5.93-2.52-4.32h0Z"/><path class="l" d="M676.17,578.8c-7.42-4.26-15.4-7.55-23.67-9.76-3.11-.83-4.44,3.99-1.33,4.82,7.88,2.1,15.4,5.2,22.47,9.25,2.8,1.6,5.32-2.71,2.52-4.32h0Z"/><path class="l" d="M709.95,518.05c1.01-2.92.51-6.5-1.35-8.98-.4-.54-.82-.96-1.49-1.15-.6-.16-1.4-.09-1.93.25s-1,.86-1.15,1.49-.14,1.4.25,1.93c.36.48.65.99.89,1.53l-.25-.6c.27.65.46,1.33.56,2.03l-.09-.66c.08.66.09,1.33,0,1.99l.09-.66c-.07.52-.19,1.02-.36,1.51-.2.59-.06,1.4.25,1.93s.9,1.01,1.49,1.15c1.39.32,2.62-.42,3.08-1.75h0Z"/><path class="l" d="M533.35,555.54c12.15,5.61,21.95,15.39,27.57,27.54.57,1.23,2.33,1.53,3.42.9,1.26-.74,1.47-2.19.9-3.42-5.94-12.81-16.54-23.41-29.37-29.33-1.23-.57-2.69-.35-3.42.9-.63,1.08-.33,2.85.9,3.42h0Z"/><path class="l" d="M577.38,572.67c-1.35,2.59-3.06,5.97-6.02,7.01-1.76.62-3.68.13-5.45-.23-2.1-.43-4.19-.91-6.27-1.45-8.17-2.11-16.13-5.05-23.69-8.8-4.38-2.17-8.62-4.6-12.71-7.26-2.71-1.76-5.22,2.57-2.52,4.32,7.82,5.08,16.18,9.27,24.91,12.54,4.29,1.61,8.67,2.99,13.12,4.12,2.22.57,4.46,1.08,6.71,1.51s4.75.81,7.07.11c4.44-1.35,7.14-5.46,9.17-9.36,1.48-2.85-2.83-5.38-4.32-2.52h0Z"/><path class="d" d="M675.37,720.88c1.81,1.15,15.41,10.11,16.53,26.07.48,6.85-1.52,12.37-3.01,15.54-18.71,13.2-37.41,26.4-56.12,39.6-3.11.05-10.25-.3-17.04-5.01-13.04-9.06-12.58-25.76-12.53-27.07,24.05-16.38,48.1-32.75,72.15-49.13Z"/><path class="e" d="M457.92,698.82c7.61-.97,18.51-3.14,30.56-8.52,7.52-3.36,12.38-6.57,20.54-12.03,20.62-13.79,41.06-31.2,42.09-32.08,7.4-6.33,12.71-11.24,22.05-14.54,7.89-2.78,14.09-2.8,17.54-3.01,11.71-.7,16.51-5.03,56.12-28.57,53.36-31.71,44.66-23.85,46.6-25.57,2.73-2.42,9.41-8.63,16.03-7.02,4.48,1.09,8.19,5.59,9.02,10.03,1.52,8.11-6.52,16.23-18.04,25.57-12.07,9.78-30.67,23.11-57.12,36.09,3.48.91,9.06,2.35,16.03,4.01,9.08,2.16,11.05,2.45,12.53,4.51,3.45,4.82-2.55,9.96.28,18.45,1.8,5.41,4.99,5.58,7.23,11.13,2.44,6.03,1.27,12.23-.18,16.67,5.25,5.67,7.32,10.91,8.19,14.91,1.85,8.5,0,19.55,0,19.55-.39-.84-2.83-5.9-8.52-7.52-3.06-.87-5.7-.36-7.01,0-5.71-5.28-11.1-7.77-14.53-9.02-9.89-3.61-18.45-2.24-35.57.5-6.86,1.1-8.76,1.87-10.52,3.01-6.34,4.09-5.94,9.74-12.53,13.03-4.49,2.25-6.83.7-8.52,3.01-2.74,3.75,2.55,9.05,2,15.54-.75,8.85-11.91,14.65-16.53,17.04-15.49,8.04-21.91,1.27-46.6,8.02-9.53,2.61-11.56,4.43-20.04,5.51-10.99,1.4-20.32-.03-26.56-1.5"/><path class="l" d="M638.05,636.34c-7.55.05-15.06-.73-22.43-2.37-3.13-.7-4.47,4.12-1.33,4.82,7.8,1.73,15.78,2.6,23.76,2.55,3.22-.02,3.22-5.02,0-5h0Z"/><path class="l" d="M673.09,665.26c-7.1-5.55-15.59-8.74-24.43-10.24-4.96-.84-9.98-1.25-15.01-1.42-4.45-.16-8.9-.04-13.35-.27-4.18-.22-8.76-.87-12.16-3.54-1.06-.83-2.5-1.03-3.54,0-.87.87-1.07,2.7,0,3.54,6.94,5.46,15.85,5.04,24.22,5.16,9.38.14,18.86.68,27.83,3.64,4.59,1.51,9.06,3.69,12.88,6.67,1.06.83,2.5,1.04,3.54,0,.86-.86,1.07-2.7,0-3.54h0Z"/><path class="l" d="M678.46,692.93c-2.67-3.95-6.56-6.69-10.76-8.84-4.55-2.33-9.39-4.12-14.38-5.27s-10.14-1.7-15.25-1.59c-5.38.11-10.68,1.11-15.99,1.85-5.66.78-11.46,1.17-16.97-.67-3.06-1.02-4.37,3.8-1.33,4.82,9.96,3.33,20.21.13,30.27-.77,9.61-.87,19.49.66,28.31,4.6,4.34,1.94,9.04,4.35,11.78,8.4,1.79,2.65,6.13.15,4.32-2.52h0Z"/><path class="l" d="M565.3,744.82c-11.76,9.15-24.82,16.73-38.59,22.42-1.25.51-2.14,1.66-1.75,3.08.32,1.18,1.82,2.26,3.08,1.75,14.63-6.04,28.3-13.98,40.8-23.7,1.07-.83.87-2.66,0-3.54-1.05-1.05-2.47-.83-3.54,0h0Z"/><path class="l" d="M711.93,574.49c-1.51,1.42-3.07,2.77-4.69,4.05-.93.73-2.34,2.23-3.6,2.01-.9-.16-1.77-.72-2.58-1.11s-1.65-.8-2.47-1.21-1.68-.77-2.46-1.25c-.33-.2-.45-.28-.65-.51.09.15.06.09-.1-.17.1.16.1.1,0-.2-.24-1.33-1.86-2.08-3.08-1.75-1.4.38-1.99,1.74-1.75,3.08.43,2.39,2.61,3.71,4.61,4.69,1.12.55,2.23,1.09,3.35,1.64,1.21.59,2.45,1.3,3.77,1.62,2.77.68,4.91-.57,7.04-2.19s4.17-3.33,6.12-5.15c2.35-2.21-1.19-5.74-3.54-3.54h0Z"/><path class="i" d="M420.85,856.6c16.28-14.16,32.57-28.32,48.85-42.49,4.46-2.58,10.63-6.83,16.53-13.53,7.23-8.21,10.9-16.49,12.78-21.81-2.4-.06-5.84-.35-9.77-1.5-5.66-1.65-7.4-3.63-9.02-3.01-2.28.88-3.6,6.64,0,27.07-12.41-73.4-3.58-98.16,8.27-106.02,3.09-2.05,16.25-9.49,15.03-12.78-.56-1.53-4.04-1.65-7.52-1.5-17.32.74-23.8,10.3-38.33,11.28-9.58.65-10-3.34-15.81-2.19-22.65,4.48-33.01,68.32-29.03,119.49,1.61,20.77,5.42,37.27,8.02,47Z"/><path class="l" d="M355.51,654.59c.03.18.05.36.08.55.04.29.05.36.03.21-.02-.15-.01-.08.03.22.02.14.03.27.05.41.07.59.13,1.19.18,1.78.1,1.15.17,2.29.21,3.44.07,2.35,0,4.69-.19,7.03-.11,1.31,1.23,2.56,2.5,2.5,1.45-.06,2.38-1.1,2.5-2.5.42-5.01.18-10.01-.57-14.98-.2-1.3-1.9-2.13-3.08-1.75-1.41.46-1.96,1.68-1.75,3.08h0Z"/><path class="l" d="M300.64,769.44c-17.74,5.06-35.47,10.11-53.21,15.17-17.82,5.08-35.63,10.16-53.45,15.24l-29.96,8.54c-3.09.88-1.78,5.71,1.33,4.82,17.74-5.06,35.47-10.11,53.21-15.17,17.82-5.08,35.63-10.16,53.45-15.24l29.96-8.54c3.09-.88,1.78-5.71-1.33-4.82h0Z"/><path class="l" d="M354.74,826.2c-21.65,2.43-43.38,4.14-65.15,5.11-6.1.27-12.2.48-18.31.64-3.21.08-3.22,5.08,0,5,21.78-.56,43.54-1.84,65.23-3.87,6.08-.57,12.16-1.2,18.22-1.88,1.34-.15,2.5-1.04,2.5-2.5,0-1.23-1.15-2.65-2.5-2.5h0Z"/><path class="l" d="M178.7,725.98c-13.51,16.68-27.81,32.71-42.86,48.01-4.24,4.32-8.55,8.57-12.91,12.77-2.32,2.24,1.22,5.77,3.54,3.54,15.46-14.89,30.2-30.51,44.15-46.82,3.94-4.6,7.81-9.25,11.62-13.96.85-1.05,1.02-2.51,0-3.54-.88-.88-2.68-1.05-3.54,0h0Z"/><path class="l" d="M118.73,734.19c-21.14,14.82-42.28,29.65-63.43,44.47-6,4.21-12,8.42-18.01,12.62-1.1.77-1.62,2.19-.9,3.42.64,1.09,2.31,1.68,3.42.9,21.14-14.82,42.28-29.65,63.43-44.47,6-4.21,12-8.42,18.01-12.62,1.1-.77,1.62-2.19.9-3.42-.64-1.09-2.31-1.68-3.42-.9h0Z"/><path class="l" d="M142.77,670.66c-14.62-.86-29.18,1.7-43.37,5.04-6.7,1.58-13.38,3.27-20.02,5.06-6.07,1.64-12.08,3.49-17.88,5.95-6.47,2.74-12.54,6.3-17.77,11.02-2.39,2.16,1.15,5.69,3.54,3.54,8.9-8.05,20.47-12.1,31.84-15.25,13.14-3.64,26.49-7.11,39.98-9.14,7.83-1.18,15.77-1.68,23.67-1.22,3.21.19,3.2-4.81,0-5h0Z"/><path class="l" d="M190.41,673.72c-5.32,2.5-11.01,4.24-16.81,5.26-1.33.23-2.08,1.86-1.75,3.08.39,1.41,1.74,1.98,3.08,1.75,6.25-1.09,12.27-3.06,18.01-5.76,1.22-.58,1.54-2.33.9-3.42-.73-1.25-2.19-1.47-3.42-.9h0Z"/><path class="l" d="M196.24,620.1c-14.3,2.88-28.61,5.77-42.91,8.65-1.32.27-2.09,1.84-1.75,3.08.38,1.38,1.75,2.01,3.08,1.75,14.3-2.88,28.61-5.77,42.91-8.65,1.32-.27,2.09-1.84,1.75-3.08-.38-1.38-1.75-2.01-3.08-1.75h0Z"/><path class="l" d="M125.62,599.8c-15.63,5.36-31.82,9.08-48.24,10.97-1.34.15-2.5,1.04-2.5,2.5,0,1.23,1.15,2.66,2.5,2.5,16.88-1.94,33.5-5.64,49.57-11.15,1.28-.44,2.12-1.72,1.75-3.08-.34-1.24-1.79-2.19-3.08-1.75h0Z"/><path class="l" d="M195.25,576.4c-18-10.62-38.1-17.35-58.84-19.89-5.87-.72-11.79-1.08-17.7-1.09-3.22,0-3.22,4.99,0,5,20.11.05,40.24,4.25,58.64,12.39,5.28,2.33,10.41,4.98,15.38,7.91,2.78,1.64,5.3-2.68,2.52-4.32h0Z"/><path class="l" d="M150.57,452.26c14.34,9.02,27.09,20.39,37.74,33.55.85,1.05,2.65.88,3.54,0,1.04-1.04.85-2.48,0-3.54-10.91-13.49-24.06-25.1-38.75-34.34-2.73-1.72-5.24,2.61-2.52,4.32h0Z"/><path class="l" d="M844.6,983.32c-14.39-3.23-28.2-8.61-40.96-16.01-2.79-1.62-5.31,2.7-2.52,4.32,13.11,7.59,27.37,13.19,42.16,16.51,3.13.7,4.47-4.12,1.33-4.82h0Z"/><path class="l" d="M890.61,955.03c-15.44,2.33-31.02,3.69-46.63,4.13-3.21.09-3.22,5.09,0,5,16.06-.45,32.08-1.91,47.96-4.31,1.34-.2,2.07-1.88,1.75-3.08-.39-1.43-1.74-1.95-3.08-1.75h0Z"/><path class="l" d="M859.7,935.72c-9.99-4.13-19.4-9.66-27.97-16.25-1.07-.82-2.8-.16-3.42.9-.75,1.29-.18,2.6.9,3.42,8.95,6.87,18.75,12.44,29.17,16.75,1.25.52,2.75-.56,3.08-1.75.39-1.44-.49-2.56-1.75-3.08h0Z"/><path class="l" d="M517.81,1079c-7.83,16.28-16.42,32.18-25.76,47.63s-19.34,30.34-30.06,44.77c-6.02,8.1-12.27,16.04-18.72,23.8-.86,1.04-1.02,2.52,0,3.54.89.89,2.67,1.04,3.54,0,11.63-13.99,22.6-28.53,32.85-43.57,10.21-14.98,19.7-30.46,28.43-46.35,4.93-8.97,9.6-18.07,14.04-27.3.58-1.22.33-2.7-.9-3.42-1.09-.64-2.83-.33-3.42.9h0Z"/><path class="l" d="M443.76,1066.47c-13.39,17.67-27.17,35.05-41.32,52.13s-28.73,33.93-43.63,50.42c-8.38,9.27-16.87,18.44-25.48,27.51-2.21,2.33,1.32,5.88,3.54,3.54,15.35-16.19,30.36-32.7,45-49.53s29.02-34.1,42.96-51.62c7.87-9.88,15.62-19.86,23.25-29.93.82-1.08.17-2.8-.9-3.42-1.28-.75-2.6-.18-3.42.9h0Z"/><path class="l" d="M757.58,1094.56c2.57,22,5.14,44.01,7.71,66.01,2.57,22,5.14,44.01,7.71,66.01,1.45,12.41,2.9,24.82,4.35,37.22.16,1.34,1.04,2.5,2.5,2.5,1.23,0,2.66-1.15,2.5-2.5-2.57-22-5.14-44.01-7.71-66.01-2.57-22-5.14-44.01-7.71-66.01-1.45-12.41-2.9-24.82-4.35-37.22-.16-1.34-1.04-2.5-2.5-2.5-1.23,0-2.66,1.15-2.5,2.5h0Z"/><path class="l" d="M788.11,1208.09c4.3,12.18,7.35,24.77,9.09,37.57.18,1.34,1.9,2.07,3.08,1.75,1.44-.4,1.93-1.73,1.75-3.08-1.75-12.8-4.79-25.39-9.09-37.57-.45-1.27-1.71-2.12-3.08-1.75-1.23.34-2.2,1.8-1.75,3.08h0Z"/><path class="l" d="M281.38,1147.54c-13.16,22.16-29.43,42.22-44,63.43-4.11,5.98-8.07,12.05-11.8,18.28-1.66,2.77,2.66,5.29,4.32,2.52,13.23-22.12,29.51-42.16,44.04-63.4,4.09-5.98,8.04-12.07,11.75-18.3,1.65-2.77-2.67-5.29-4.32-2.52h0Z"/><path class="l" d="M590.88,884.51c-3.63-4.31-10.09-4.68-14.86-2.22s-8.68,7.97-9.45,13.29c-.81,5.64,2.76,10.42,8.1,12.03,5.04,1.52,10.32-.5,13.8-4.27,4.52-4.91,6.47-12.3,4.5-18.73-.94-3.07-5.77-1.76-4.82,1.33,1.28,4.19.36,8.76-2.03,12.36-.99,1.49-2.31,2.79-3.84,3.69s-3.02,1.25-4.73,1.13c-2.67-.18-5.72-2.17-6.1-5.02-.29-2.15.66-4.32,1.72-6.12.96-1.63,2.17-3.18,3.7-4.32,3.28-2.47,7.81-2.76,10.48.4.87,1.03,2.64.9,3.54,0,1.02-1.02.87-2.5,0-3.54h0Z"/><path class="l" d="M626.74,805.81c6.98,14.37,13.96,28.74,20.94,43.1,3.49,7.18,6.98,14.37,10.47,21.55s6.8,13.64,9.79,20.64c2.78,6.52,5.16,13.43,5.86,20.52s-.51,14.55-2.8,21.54c-4.28,13.07-11.03,25.2-16.76,37.66-6.41,13.94-11.92,28.58-12.12,44.12-.04,3.22,4.96,3.22,5,0,.36-27.98,18.11-51.56,27.48-76.93,2.64-7.14,4.54-14.67,4.44-22.33s-1.91-14.55-4.47-21.39-5.98-13.77-9.26-20.51l-10.47-21.55c-7.92-16.31-15.85-32.63-23.77-48.94-.59-1.21-2.32-1.54-3.42-.9-1.24.73-1.49,2.2-.9,3.42h0Z"/><path class="l" d="M637.98,948.72c-.01.23-.03.45-.05.68-.03.39.05-.14.03-.16.01.01-.05.35-.05.33-.08.44-.18.88-.3,1.31-.12.41-.26.8-.41,1.2-.12.32.2-.44.05-.13-.05.1-.09.21-.14.31-.11.23-.23.45-.35.68-.2.37-.43.73-.66,1.08-.1.15-.27.32-.34.48.16-.38.22-.28.08-.1-.11.13-.22.26-.33.39-.26.3-.53.58-.82.86-.16.16-.33.31-.5.46-.09.07-.17.15-.26.22-.07.06-.47.33-.14.12.3-.19-.01,0-.09.06-.09.07-.18.13-.28.19-.16.11-.33.22-.5.32-.41.25-.83.47-1.26.68-.57.26.32-.11-.1.05-.21.08-.42.16-.64.23s-.43.13-.65.19c-.06.02-.3.05-.33.08.09-.1.51.02.15-.03.77.1,1.48.75,1.48,1.57,0,.55-.08.4,0,.2-.03.08-.27.49-.05.13.28-.44.58-.84.89-1.26-.33.45.18-.23.25-.31.17-.22.35-.43.53-.64.36-.43.72-.84,1.09-1.25.84-.92,1.72-1.81,2.64-2.65.44-.4.88-.79,1.33-1.16.24-.2.48-.4.72-.59.11-.09.22-.17.33-.26-.34.27,0,0,.15-.11.54-.41.96-.82,1.15-1.49.16-.6.09-1.4-.25-1.93-.66-1.03-2.3-1.74-3.42-.9-2.23,1.68-4.32,3.5-6.19,5.56-.98,1.08-1.9,2.22-2.78,3.39-.96,1.27-1.73,2.74-1.22,4.38.33,1.08,1.26,1.93,2.35,2.22.88.24,1.81.09,2.67-.15,1.18-.32,2.33-.82,3.39-1.42,2.14-1.23,3.93-2.99,5.3-5.03,1.54-2.29,2.39-5,2.52-7.75.06-1.31-1.19-2.56-2.5-2.5-1.41.06-2.43,1.1-2.5,2.5h0Z"/><path class="l" d="M618.51,836.67c.75.75,1.45,1.55,2.12,2.38-.25-.31.08.11.16.22.16.21.31.43.46.65.3.44.59.88.87,1.34.53.87,1.01,1.78,1.44,2.71.06.14.12.28.19.41.01.02.16.37.05.12-.08-.19.15.37.18.47.05.14.09.29.13.44.02.08.03.15.05.23.12.5-.08-.03,0-.11-.04.04.03.4.03.48,0,.12-.09.69.01.29.1-.44-.05.16-.07.24-.07.36.28-.45,0-.04-.17.25.37-.42.16-.21-.18.18.3-.22.27-.2-.34.22.53-.19.13-.07.3-.09.37-.05.61-.04.08,0,.3.2.09.03-.08-.07-.2-.12-.29-.18.27.18.05.03-.09-.09-.33-.29-.65-.61-.95-.93-.14-.15-.27-.31-.4-.47-.3-.36-.04-.05.01.02-.08-.11-.16-.22-.24-.33-.25-.37-.48-.75-.7-1.14-.11-.21-.22-.42-.33-.64-.04-.09-.08-.19-.13-.28-.16-.34.2.55-.02-.07-.17-.48-.33-.97-.46-1.47-.07-.27-.12-.53-.17-.8-.02-.1-.03-.2-.05-.3.04.2.04.35,0,.05-.05-.55-.08-1.09-.07-1.64,0-.24.02-.48.04-.72,0-.08.05-.52.01-.18-.04.37.05-.27.05-.28.23-1.28-.34-2.76-1.75-3.08-1.22-.28-2.83.37-3.08,1.75-.9,5.13.77,10.73,4.82,14.16,1.32,1.12,2.87,1.89,4.63,1.36,1.39-.42,2.37-1.67,2.72-3.04.65-2.59-.45-5.05-1.61-7.31-1.37-2.68-3.21-5.15-5.34-7.28-.93-.93-2.62-.99-3.54,0s-.99,2.55,0,3.54h0Z"/><path class="l" d="M729.64,1113.26c-28.77-11.94-59.32-19.38-90.35-22.15-8.66-.77-17.36-1.17-26.05-1.2-3.22-.01-3.22,4.99,0,5,30.71.1,61.31,4.91,90.58,14.21,8.29,2.63,16.46,5.63,24.49,8.96,1.25.52,2.75-.56,3.08-1.75.4-1.44-.49-2.56-1.75-3.08h0Z"/><path class="l" d="M620.87,1025.92c1.43,7.95,2.31,15.99,2.65,24.06.17,4.15.2,8.3.09,12.44-.05,1.89.03,3.9-.27,5.78-.19,1.18-.61,1.59-1.62,1.79-1.3.26-2.94.09-4.36.23-.88.09-1.76.21-2.6.51-.47.17-.93.38-1.38.62-.11.06-.42.18-.49.27-.34.13-.21.22.39.25.59.29.72.26.37-.09l.64,1.1-.02.11-.34,1.26.12-.26c.57-1.22.35-2.69-.9-3.42-1.08-.63-2.85-.33-3.42.9-1.14,2.45.54,5.33,3.39,5.17,1.21-.07,2.04-.71,3.11-1.15.57-.24,1.2-.29,1.81-.33,1.81-.1,3.7.05,5.46-.47,2.03-.6,3.58-2.02,4.33-4,.79-2.1.66-4.6.74-6.81.09-2.52.13-5.04.11-7.56-.03-4.88-.26-9.76-.68-14.62-.5-5.73-1.27-11.44-2.29-17.11-.24-1.33-1.86-2.08-3.08-1.75-1.4.38-1.99,1.74-1.75,3.08h0Z"/><path class="l" d="M622.26,1020.72c-3.25-.31-6.5-.61-9.76-.92-1.31-.12-2.56,1.24-2.5,2.5.07,1.46,1.1,2.37,2.5,2.5,3.25.31,6.5.61,9.76.92,1.31.12,2.56-1.24,2.5-2.5-.07-1.46-1.1-2.37-2.5-2.5h0Z"/><path class="l" d="M595.07,1224.68c.51,25.48-3.78,50.94-12.56,74.87-2.46,6.7-5.28,13.25-8.43,19.65-.6,1.21-.33,2.71.9,3.42,1.1.65,2.82.32,3.42-.9,11.57-23.46,18.68-48.97,20.94-75.03.64-7.32.87-14.67.73-22.02-.06-3.21-5.06-3.22-5,0h0Z"/><path class="l" d="M708.53,1223.8c-12.96,10.18-26.98,19.03-41.71,26.41-4.22,2.11-8.5,4.1-12.83,5.97-1.24.54-1.52,2.36-.9,3.42.75,1.28,2.18,1.43,3.42.9,15.4-6.65,30.12-14.85,43.87-24.47,3.98-2.78,7.87-5.69,11.69-8.69,1.06-.84.87-2.66,0-3.54-1.05-1.05-2.47-.84-3.54,0h0Z"/><path class="l" d="M668.38,1155.1c-6.25,10.25-13.47,19.86-21.61,28.69-2.18,2.36,1.35,5.91,3.54,3.54,8.41-9.14,15.92-19.1,22.39-29.7,1.68-2.76-2.64-5.27-4.32-2.52h0Z"/><path class="l" d="M491.87,498.11c11.06,18.38,21.41,37.19,31.02,56.38,2.72,5.44,5.38,10.91,7.99,16.41.58,1.22,2.33,1.54,3.42.9,1.25-.73,1.48-2.2.9-3.42-9.18-19.39-19.1-38.43-29.76-57.05-3.02-5.28-6.1-10.53-9.24-15.74-1.66-2.75-5.98-.24-4.32,2.52h0Z"/><path class="l" d="M533.81,520.93c-6.92,3.83-14.03,7.3-21.31,10.39-1.24.53-1.52,2.36-.9,3.42.75,1.29,2.17,1.43,3.42.9,7.28-3.1,14.39-6.56,21.31-10.39,2.82-1.56.3-5.88-2.52-4.32h0Z"/><path class="l" d="M517.38,509.44c-2.66,1.84-5.32,3.67-7.98,5.51-.54.37-.97.84-1.15,1.49-.16.6-.09,1.4.25,1.93.69,1.07,2.27,1.69,3.42.9,2.66-1.84,5.32-3.67,7.98-5.51.54-.37.97-.84,1.15-1.49.16-.6.09-1.4-.25-1.93-.69-1.07-2.27-1.69-3.42-.9h0Z"/><path class="l" d="M518.17,524.86c3.22,0,3.22-5,0-5s-3.22,5,0,5h0Z"/><path class="l" d="M202.14,514.15c8.81,18.62,15.67,38.14,20.53,58.16s7.7,40.5,8.45,61.08c.42,11.61.17,23.23-.73,34.81-.11,1.35,1.22,2.5,2.5,2.5,1.44,0,2.39-1.15,2.5-2.5,1.63-20.83,1.11-41.81-1.53-62.53-2.65-20.8-7.32-41.32-14.07-61.18-3.81-11.2-8.27-22.17-13.33-32.86-.58-1.22-2.33-1.54-3.42-.9-1.25.73-1.48,2.2-.9,3.42h0Z"/><path class="l" d="M241.79,676.81c-6.69,2.66-13.38,5.31-20.06,7.97-1.25.5-2.13,1.67-1.75,3.08.33,1.19,1.81,2.25,3.08,1.75,6.69-2.66,13.38-5.31,20.06-7.97,1.25-.5,2.13-1.67,1.75-3.08-.33-1.19-1.81-2.25-3.08-1.75h0Z"/></svg>