<?xml version="1.0" encoding="UTF-8"?>
<svg id="Layer_1" data-name="Layer 1" xmlns="http://www.w3.org/2000/svg" viewBox="0 0 1661.74 1296.91">
  <defs>
    <style>
      .cls-1 {
        fill: #e04b4b;
      }

      .cls-1, .cls-2, .cls-3, .cls-4, .cls-5, .cls-6, .cls-7, .cls-8, .cls-9, .cls-10 {
        stroke-width: 5px;
      }

      .cls-1, .cls-2, .cls-3, .cls-4, .cls-5, .cls-6, .cls-7, .cls-8, .cls-9, .cls-10, .cls-11 {
        stroke: #000;
        stroke-miterlimit: 10;
      }

      .cls-2 {
        fill: #444447;
      }

      .cls-3, .cls-12 {
        fill: #000;
      }

      .cls-4 {
        fill: #f4f4f4;
      }

      .cls-13, .cls-14, .cls-12, .cls-15, .cls-16, .cls-17, .cls-18 {
        stroke-width: 0px;
      }

      .cls-13, .cls-11 {
        fill: #b6c6ae;
      }

      .cls-5 {
        fill: #ffbb83;
      }

      .cls-14 {
        fill: #b74141;
      }

      .cls-15 {
        fill: #ddd;
      }

      .cls-16 {
        fill: #818e79;
      }

      .cls-6 {
        fill: #4b4e66;
      }

      .cls-7 {
        fill: #232328;
      }

      .cls-17, .cls-8 {
        fill: #ff3e3e;
      }

      .cls-9 {
        fill: #7aefff;
      }

      .cls-18 {
        fill: #303ba0;
      }

      .cls-10 {
        fill: #fff;
      }

      .cls-11 {
        stroke-width: 3px;
      }
    </style>
  </defs>
  <g>
    <path class="cls-5" d="M702.2,545.61c-3.84,9.9-22.25,60.28,2.12,115.76,22.95,52.26,67.98,72.87,80.47,78.35,10.61,4.65,75.82,31.87,136.23-3.53,34.25-20.07,50.16-50.43,55.76-62.82,5.74-12.69,18.54-41.02,11.29-73.41-3.28-14.66-10.55-29.66-62.82-79.76-17.6-16.88-41.59-38.95-71.35-63.74"/>
    <g>
      <path class="cls-9" d="M706.43,609.84c5.45.47,5.68,16.82,21.18,29.65,10.36,8.58,21.41,10.5,35.29,12.71,55.87,8.88,83.99,13.16,93.18,5.65,8.32-6.81,10.54-20.28,15.53-46.59,4.05-21.37,2.55-32.56,11.29-50.82,4.82-10.08,6.97-10.2,8.47-16.94,5.06-22.69-14.48-42.53-11.29-45.18,2.62-2.17,15.86,11.14,25.41,18.35,32.8,24.77,75.78,18.14,93.18,16.94,78.52-5.4,198.24,61.31,262.59,120,42.87,39.1,66.23,86.3,112.94,180.71,19.28,38.95,30.94,70.94,38.68,98.48,23.72,84.39,35.39,121.48,53.09,181.04,47.17,158.74,86.44,163.12,78.13,207.6-34.25,183.35-711.04,159.09-761.43,91.69-8.27-11.06-14.19-23.28-14.19-23.28-13.89-33.83-.66-74.01-45.11-274.6-34.2-154.34-70.9-246.93-53.65-385.41,8.5-68.23,26.76-120.86,36.71-120Z"/>
      <path class="cls-5" d="M870.67,261.61c-5.95,3.42-14.52,8.31-24.94,14.12-24.67,13.75-28.15,15.05-31.06,16-11.32,3.72-15.09,2.6-30.59,8-8.59,2.99-12.95,4.55-16.47,7.53-9.31,7.88-12.52,21.6-11.76,31.06,2,25.09,32.21,24.4,54.59,57.88,19.6,29.32,16.15,59.37,31.53,61.65,6.71,1,18-3.15,23.53-5.18,4.47-1.64,8.13-3.43,11.76-6.12.63-.46,4.65-3.46,7.06-6.59,5.42-7.05,2.63-14.75,1.88-36.71-.34-10.09-.51-15.14.47-20.71,1.92-10.89,6.22-18.54,9.88-24.94,4.2-7.33,11.47-18.06,23.53-28.71"/>
      <path class="cls-5" d="M482.43,509.61c16.24-6.76,28.46-14.4,36.71-20.24,8.92-6.32,22.59-15.99,35.76-32.47,9.63-12.04,12.92-20.12,25.88-30.59,12.26-9.9,18.35-9.96,20.24-9.88,10.1.42,17.49,9.75,25.41,21.65,21.65,32.5,19.64,42.6,38.12,76.24,10.72,19.51,20.85,33.32,16.47,49.41-.89,3.27-2.25,8.28-6.59,10.82-7.89,4.63-16.99-3.96-45.18-13.65-13.81-4.74-20.58-5.76-27.29-5.65-8.34.14-14.73,1.98-20.24,3.76-20.16,6.53-39.3,15.72-53.18,23.06"/>
      <path class="cls-9" d="M469.26,468.57c14.72-1.61,19.15,25.56,50.82,55.06,26.75,24.92,45.95,26.36,46.59,40.94.43,9.76-11,19.35-33.88,38.12-27.29,22.39-40.93,33.58-53.65,35.29-15.4,2.08-34.48-8.47-72-29.65-43.69-24.66-45.35-31.5-45.18-35.29.53-11.56,18.89-11.67,48-38.12,15.02-13.65,28.4-30.21,32.47-35.29,18.61-23.2,19.44-30.25,26.82-31.06Z"/>
      <path class="cls-9" d="M849.02,247.02c10.15-8.36,24.22-18.29,42.35-26.82,15.32-7.21,29.45-11.49,40.94-14.12l29.65,110.12c-3.62,6.1-9.81,14.76-19.76,22.59-16.1,12.65-32.87,15.92-40.94,16.94-10.82-14.23-23.12-33.02-33.88-56.47-8.84-19.26-14.56-37.12-18.35-52.24Z"/>
      <path class="cls-7" d="M349.26,532.2c16.18-4.23,32.76,16.89,49.41,32.47,21.03,19.67,56.15,43.49,116.38,56.19-87.1,67.17-105.32,95-99.44,106.16,10.58,20.09,107.29,1.41,107.29,1.41,2.34-8.43,6.74-20.71,15.54-33.31,14.47-20.69,31.42-28.78,50.81-40.1,65.93-38.52,76.38-65.68,98.82-59.29,13.51,3.85,21.5,17.05,29.65,35.29,24.53,54.92,36.72,82.42,31.06,152.47-4.86,60.18,21.71,204.78,159.56,575.07,165.46-68.83,269.1-68.29,334.59-52.94,14.08,3.3,74.33,9.26,194.82,21.18,38.63,3.82,67.5,6.36,76.24-8.47,11.69-19.85-18.37-61.18-57.91-115.54-21.98-30.22-27.24-33.86-40.94-55.06-18.78-29.05-21.64-46.79-38.12-93.18,0,0-14.16-39.86-42.35-103.06-18.87-42.3-34.54-68.93-83.29-149.65-84.83-140.43-72.11-154.46-107.29-176.47-30.53-19.1-76.12-33.41-127.06-49.41-6.58-2.07-37.7-11.76-74.82-31.06-9.52-4.95-33.89-18.04-55.06-43.76-9.45-11.48-16.9-23.82-14.12-26.82,3.3-3.56,16.54,10.85,28.24,7.06,14.43-4.68,8.51-31.21,24-57.88,19.07-32.84,57.91-44.03,62.12-45.18,33.35-9.12,51.65,5.28,76.24-11.29,6.78-4.57,11.58-10.58,21.18-22.59,3.11-3.89,35.13-43.97,26.82-53.65-1.72-2.01-12.47.04-33.88,4.24-21.45,4.2-25.99,5.77-31.06,8.47-7.55,4.03-9.05,6.71-16.94,9.88-9.57,3.85-17.2,3.85-22.59,4.24-30.76,2.21-40.44,20.74-55.06,15.53-9.38-3.35-13.24-13.78-18.35-28.24-13.16-37.19-2.3-51.59-9.88-94.59-5.8-32.93-15.98-46.1-8.47-53.65,8.49-8.54,26.2,3.62,52.24,7.06,18.85,2.49,33.84-.68,107.29-32.47,80.97-35.05,96.54-45.83,121.41-39.53,25.83,6.54,41.3,26.34,49.41,36.71,47.31,60.51,31.07,150.48,9.88,259.76-8.34,43.03-17.72,77.44-24,98.82,26.66,20.86,49.06,37.67,64.94,49.41,61.17,45.22,114.38,80.88,153.88,107.29,45.79,30.61,43.09,27.84,46.59,31.06,50.24,46.26,47.44,103.92,64.94,194.82,26.59,138.1,58.9,139.28,73.41,268.23,5.18,46.05,8.99,82.22,1.41,129.88,0,0-16.87,106.16-86.12,189.18-187.54,224.83-735.62,5.75-813.17-83.29-36.22-41.58-48-87.53-48-87.53-9.47-36.94-5.28-66.96-4.24-76.24,5.15-45.87-6.11-126.32-76.24-278.12-33.97-1.73-73.01-5.8-115.76-14.12-162.98-31.69-236.12-97.1-256.94-117.18-47.77-46.05-44.94-70.14-42.35-79.06,3.01-10.37,9.26-12.45,32.47-36.71,12.97-13.56,7.98-9.73,46.59-55.06,43.68-51.29,43.69-48.7,50.82-60.71,13.31-22.41,14.75-33.92,25.41-36.71Z"/>
      <path class="cls-6" d="M739.11,657.01c2.42-2.93,12.31,5.37,26.62,9.31,28.41,7.81,40.78-11.42,63.53-1.41,3.36,1.48,9.87,4.88,16.94,2.82,5.84-1.7,5.25-5.14,12.71-9.41,6.46-3.7,9.2-2.43,23.06-7.06,3.53-1.18,7.73-.72,8.94-3.29.98-2.08-.4-4.6-.94-5.65,0,0-4.01-7.9-5.65-23.53-.5-4.76,1.08-10.39,4.24-21.65,3.63-12.94,5.3-12.63,6.59-21.18.21-1.39,1.08-6.26,2.82-16,.77-4.33,1.18-6.5,1.88-6.59,1.51-.2,3.57,6.59,8,22.59,8.56,30.89,8.76,33.91,13.18,39.53,3.47,4.42,6.16,6.12,6.59,10.35.68,6.67-4.67,15.22-11.76,19.29-3.69,2.12-6.55,2.28-8.94,5.65-2.27,3.2-2.34,6.78-2.35,8.47-.02,3.66.95,8.29,10.35,21.18,6.18,8.48,9.27,12.71,13.65,16,7.85,5.9,15.62,7.41,17.88,8,22.26,5.8,37.94,59.16,40.94,69.18,24.98,83.36,45.31,77.65,57.88,146.82,4.56,25.1,4.98,42.87,5.65,71.29,1.76,75.03,3.94,167.89-48.71,244.23-6.52,9.46-39.72,57.6-64.24,50.82-9.79-2.71-13.76-12.95-48.71-77.92-4.85-9.01-8.81-16.33-11.29-20.9,16.15-41.28,25.48-74.75,31.06-98.12,9.48-39.7,10.06-58.17,26.82-79.06,5.52-6.88,13.2-14.53,16.94-28.24,4.38-16.07.89-31.49-1.41-41.65-2.73-12.05-4.72-12.43-10.59-33.18-3.32-11.73-3.36-14.02-6.35-25.41-4.74-18.06-9.69-31.57-13.41-41.65-10.8-29.27-15.12-32.8-16.94-48.71-1.21-10.56.87-7.42,0-26.12-1.2-25.57-5.64-43.21-7.76-50.82-1.59-5.69-3.14-10.32-4.24-13.41-7.13-5.13-24.73-16.64-45.88-18.35-4.03-.33-11.12-.84-19.76,1.41-9.61,2.5-11.58,5.93-19.06,9.18-22.13,9.61-51.4,6.31-55.76-4.24-.3-.73-.05-.45-.71-2.82-2.13-7.73-4.93-11.15-8.12-18-3.22-6.92-4.83-10.37-3.68-11.78Z"/>
    </g>
    <g>
      <path class="cls-5" d="M713.03,598.49c-31.95-1.55-54.91-11.14-67.47-17.54-55.07-28.06-73.9-81.3-78.87-97.14-10.6-33.79-8.16-63.64-4.98-81.77-5.32-2.16-14.75-6.86-22.28-16.58-16.28-21-9.54-47.09-8.78-49.85,9.25-33.53,49.88-52.14,82.69-50.01,14.12.92,25.31,5.58,32.4,9.3,3.01-3.46,8.67-9.05,17.42-13.16,7.84-3.68,14.93-4.64,19.34-4.9-.88-8.75-1.19-24.57,6.88-40.52,18.15-35.92,72.1-59.35,103.24-37.1,24.48,17.49,23.09,54.81,22.83,59.89,11.03,7.08,78.74,51.92,87.66,124.51,3.82,31.1-3.76,62.34-4.92,66.98-6.81,27.21-18.15,47.68-26.64,60.56"/>
      <g>
        <path class="cls-1" d="M628.23,508.32c6.69-13.52,29.26-11.25,50.8-18.42,30.55-10.17,22.16-27.05,59.18-46.95,26.72-14.36,38.01-9.29,65.73-28.46,13.05-9.02,19.58-13.54,25.62-21.44,9.07-11.86,11.87-23.21,25.27-31.3,4.21-2.54,7.81-4.65,11.71-3.65,10.3,2.63,13.61,24.62,13.57,36.75-.1,27.11-17.06,47.01-34.29,66.66-12.42,14.17-40.36,45.3-88.83,65.14-25.79,10.56-43.63,12.28-78.8,15.68-4.9.47-27.91,2.45-42.63-8.23-2.59-1.88-7.77-5.74-9.3-12.35,0,0-1.49-6.43,1.97-13.42Z"/>
        <path class="cls-3" d="M866.16,378.5c1.23.57.64,4.47-.01,7.57,0,0-.74,18.45-8.76,36.99-3.24,7.5-9.98,17.45-20.85,28.3-13.81,13.78-34.3,29.01-62.75,42.43-19.95,9.42-40.19,16.23-58.34,20.9-35.93,9.26-63.66,10.16-64.75,6.3-.92-3.23,12.41-10.38,21.23-13.87,6.64-2.62,10.23-2.98,15.38-4.46,7.69-2.21,14.68-5.74,30.13-17.25,30.58-22.79,30.52-29.33,46.93-36.42,13.29-5.75,12.39-1.05,28.75-6.98,29.65-10.75,48.09-31.78,51.86-36.22,11.82-13.9,18.65-28.47,21.18-27.31Z"/>
        <path class="cls-14" d="M836.54,451.36c-13.81,13.78-34.3,29.01-62.75,42.43-19.95,9.42-40.19,16.23-58.34,20.9-.07-.09-.13-.19-.19-.29-6.48-11.05,29.17-49.16,45.58-43.51,7.04,2.43,10.02,12.71,14.23,11.6,3.84-1.01,1.61-9.62,6.38-18.64,7.59-14.34,27.29-19.34,40.93-18.08,4.45.41,12.5,1.15,14.16,5.58Z"/>
      </g>
      <g>
        <g>
          <path class="cls-10" d="M559.83,393.4c-11.49-25.85,7.14-51.21,9.74-54.63,19.46-25.61,55.41-29.32,78.75-20.38,5.37,2.06,13.05,5.11,18.94,12.72,13.37,17.25,7.09,44.37-3.09,60.67-12.4,19.85-37.48,34.69-63.6,30.31-4.77-.8-30.54-5.76-40.74-28.7Z"/>
          <path class="cls-12" d="M638.83,353.98c5.77,10.3.11,25.86-10.23,31.84-4.14,2.39-8.05,2.69-10.08,2.81-7.3.46-19.19-1.94-23.98-11.6-4.67-9.41.54-19.36,2.1-22.35,1.48-2.82,4.25-8.12,10.34-10.93,7.47-3.44,14.84-.82,18.22.39,3.56,1.27,10.13,3.61,13.62,9.84Z"/>
        </g>
        <g>
          <path class="cls-10" d="M700.87,313.91c-9.59-26.61,10.82-50.56,13.67-53.79,21.26-24.14,57.39-25.24,80.01-14.63,5.21,2.44,12.64,6.04,17.97,14.05,12.09,18.17,3.86,44.77-7.47,60.29-13.8,18.9-39.89,31.89-65.62,25.64-4.7-1.14-30.04-7.95-38.56-31.57Z"/>
          <path class="cls-12" d="M784.39,292.52c-.73,11.78-13.92,21.8-25.85,21.22-4.78-.23-8.22-2.11-9.99-3.09-6.39-3.57-15.08-12.03-13.87-22.75,1.18-10.44,10.94-15.98,13.88-17.65,2.77-1.57,7.97-4.52,14.61-3.58,8.14,1.15,12.92,7.35,15.1,10.2,2.3,2.99,6.56,8.52,6.12,15.65Z"/>
        </g>
      </g>
      <g>
        <path class="cls-12" d="M740.08,369.76c17.18-3.5,35.71,11.39,36.33,28.83,0,0-.46.2-.46.2-.86-1.8-1.81-3.55-2.86-5.23-5.15-8.47-12.83-15.38-21.82-19.57-3.61-1.65-7.4-2.91-11.29-3.75l.09-.49h0Z"/>
        <path class="cls-12" d="M641.24,293.68c4.22.33,8.17,1.95,11.73,4.15,3.6,2.18,6.27,5.55,8.8,8.83,4.99,6.48,8.32,14.3,9.5,22.35,0,0-.49.12-.49.12-3.24-9.17-8.66-17.71-16.36-23.66-2.63-2.03-6.24-5.18-8.82-7.35-1.5-1.26-3.03-2.53-4.57-3.98l.2-.46h0Z"/>
        <path class="cls-12" d="M550.76,329.87c-4.38,9.13-7.16,19.18-7.28,29.31.23,17.05,5.91,32.38,21.16,41.38,0,0,.96.57.96.57,3.35,19.91,17.9,36.85,38.98,37.23,9.79.35,19.44-2.29,28.5-6.04,30.11-12.19,48.94-44.2,50.24-76.02.16-2.02.2-3.94.6-6.03.1-.56.45-1.74,1.2-2.4.69-.68,1.82-.95,2.72-.72.69.2,1.09.45,1.54.87,2.05,2.18,2.58,5.23,3.25,7.97,2.65,12.52,4.03,25.22,5.39,37.88-3.69-13.94-6.52-28.17-11.81-41.55-.15-.28-.22-.49-.36-.7-.01-.02,0,0,.04.04.75.72,2.36.48,2.9-.44-.53,3.56-.6,8.96-1.21,13.13-3.54,30.85-23.36,60.78-52.62,72.59-17.96,7.75-40.43,10.33-56.61-3.11-9.4-7.6-15.09-18.96-17.44-30.64,0,0,1.18,1.67,1.18,1.67-12.69-7.27-20.94-20.79-22.78-35.19-1.16-14.27,3.58-28.15,11.44-39.8h0Z"/>
        <path class="cls-12" d="M607.5,457.18c9.55,1.13,19.52.56,28.4-3.28,6.06-2.46,10.93-6.6,16.49-10.16,8.59-5.3,18.98-7.82,29.04-7.09,0,0,.06.5.06.5-3.15,1.11-6.23,2.14-9.25,3.26-5.99,2.22-11.72,4.81-17.42,7.64-5.83,2.85-11.41,6.91-17.74,8.96-9.53,3.23-20.06,2.97-29.66.66l.09-.49h0Z"/>
        <path class="cls-12" d="M684.85,295.39c-1.87-4.07-2.95-8.73-2.77-13.3.3-5.1,1.84-10.17,4.2-14.66,2.06-4.49,4.93-9.4,7.8-13.42,10.62-13.53,24.96-24.51,41.15-30.45,16.4-4.77,34.03-6.43,50.63-1.39,17.34,5.26,29.32,20.04,32.28,37.67,0,0-.9-1.5-.9-1.5,5.14,4.1,9.68,9.26,12.52,15.44,12.37,27.93-14.64,59.31-37.79,72.3-14.05,7.78-31.05,10.19-46.71,7.09,12.47.74,25-1.65,36.13-7.15,10.97-5.45,21.36-12.25,29.59-21.42,11.62-12.67,21.93-31.68,14.24-48.74-2.55-5.58-6.86-10.37-11.83-14.2,0,0-.17-.92-.17-.92-2.68-15.95-13.31-29.1-28.89-33.82-14.85-4.78-33.27-2.81-47.15,1.23-15.42,5.63-29.09,16.01-39.1,28.97-4.22,4.86-8.17,10.56-11.22,16.21-1.41,2.8-2.45,5.85-3.02,8.95-.63,3.93-.34,8.95,1,13.11h0Z"/>
      </g>
    </g>
    <path class="cls-12" d="M920.62,537.9c1.11,11.07,2.23,22.14,3.34,33.21,1.1,10.95,2.45,21.92,2.74,32.93.16,6.08-.03,12.2-.92,18.23-.2,1.33.33,2.69,1.75,3.08,1.18.32,2.88-.4,3.08-1.75,1.63-11.02,1.24-22.12.27-33.18-.99-11.2-2.21-22.39-3.34-33.58l-1.91-18.94c-.14-1.34-1.05-2.5-2.5-2.5-1.25,0-2.64,1.15-2.5,2.5h0Z"/>
    <path class="cls-12" d="M752.43,714.32c.97-7.31,2.59-14.54,4.73-21.59.94-3.09-3.89-4.41-4.82-1.33-2.27,7.5-3.88,15.16-4.91,22.92-.18,1.34,1.28,2.5,2.5,2.5,1.5,0,2.32-1.16,2.5-2.5h0Z"/>
    <path class="cls-12" d="M738.81,653.13l-6.71-4.24c-1.11-.7-2.8-.27-3.42.9-.65,1.23-.29,2.67.9,3.42l6.71,4.24c1.11.7,2.8.27,3.42-.9.65-1.23.29-2.67-.9-3.42h0Z"/>
    <path class="cls-12" d="M846.94,680.43c-.02-.47-.02-.93,0-1.39.01-.26.05-.52.07-.78.03-.35-.08.49-.02.15.02-.11.04-.23.06-.34.17-.95.44-1.86.77-2.77.11-.3.02-.02-.05.11.06-.1.09-.22.14-.32.1-.21.2-.42.31-.63.21-.41.45-.82.7-1.21.13-.2.26-.39.39-.58.05-.06.35-.47.12-.17-.21.28.03-.03.08-.09.31-.38.65-.74,1-1.09.93-.92.99-2.63,0-3.54s-2.54-.98-3.54,0c-3.32,3.28-5.21,7.97-5.03,12.64.05,1.31,1.11,2.56,2.5,2.5,1.31-.06,2.55-1.1,2.5-2.5h0Z"/>
    <path class="cls-12" d="M893.44,649.15c.92.03,1.85.07,2.77.15.23.02.46.04.69.06.19.02.52,0,.69.08-.38-.05-.43-.06-.15-.02.11.02.23.03.34.05.2.03.4.07.59.11.87.17,1.7.42,2.53.71.25.1.21.08-.13-.06.1.05.2.09.3.14.2.1.4.2.6.31s.39.23.58.35c.12.08.74.55.18.11.55.43,1.04.73,1.77.73.61,0,1.35-.27,1.77-.73.82-.9,1.1-2.68,0-3.54-1.81-1.41-3.84-2.35-6.09-2.81-2.11-.43-4.28-.56-6.43-.64-1.31-.05-2.56,1.18-2.5,2.5.06,1.4,1.1,2.45,2.5,2.5h0Z"/>
    <path class="cls-12" d="M893.97,702.62c5.11-7.19,13.3-14.7,22.88-12.23,3.12.8,4.45-4.02,1.33-4.82-5.63-1.45-11.6-.21-16.56,2.71s-8.7,7.22-11.96,11.82c-.78,1.1-.19,2.78.9,3.42,1.25.73,2.64.21,3.42-.9h0Z"/>
    <path class="cls-12" d="M1008.24,603.49c.12,16.66.24,33.33.35,49.99.12,16.75.24,33.49.36,50.24.07,9.41.13,18.83.2,28.24.02,3.22,5.02,3.22,5,0-.12-16.66-.24-33.33-.35-49.99-.12-16.75-.24-33.49-.36-50.24-.07-9.41-.13-18.83-.2-28.24-.02-3.22-5.02-3.22-5,0h0Z"/>
    <path class="cls-12" d="M1051.3,726.35c-5.79,27.26-10.37,54.77-13.75,82.43-.95,7.79-1.81,15.6-2.56,23.41-.13,1.35,1.24,2.5,2.5,2.5,1.46,0,2.37-1.15,2.5-2.5,2.66-27.37,6.52-54.62,11.57-81.66,1.43-7.64,2.95-15.26,4.57-22.86.67-3.14-4.15-4.48-4.82-1.33h0Z"/>
    <path class="cls-12" d="M845.91,701.27c13.42,9.56,25.34,21.3,35.08,34.59.8,1.09,2.17,1.63,3.42.9,1.07-.63,1.7-2.33.9-3.42-10.28-14.03-22.71-26.3-36.88-36.39-1.1-.78-2.78-.19-3.42.9-.73,1.25-.21,2.63.9,3.42h0Z"/>
    <path class="cls-12" d="M969.13,620.35c-3.82,9.47-6.99,19.19-9.5,29.08-.79,3.12,4.03,4.45,4.82,1.33,2.51-9.9,5.68-19.61,9.5-29.08.5-1.25-.55-2.75-1.75-3.08-1.43-.39-2.57.49-3.08,1.75h0Z"/>
    <path class="cls-12" d="M783.52,923.01c6.74,18.32,10.99,37.87,21.09,54.78,2.83,4.74,6.14,9.2,9.93,13.22,2.21,2.34,5.74-1.2,3.54-3.54-13.11-13.89-18.79-32.63-24.52-50.39-1.66-5.16-3.35-10.32-5.22-15.4-.47-1.27-1.7-2.13-3.08-1.75-1.22.34-2.21,1.8-1.75,3.08h0Z"/>
    <path class="cls-12" d="M1292.19,948.57c5.48,15.79,10.52,31.73,15.08,47.81,4.56,16.08,8.65,32.29,12.27,48.61,2.05,9.26,3.95,18.55,5.69,27.87.25,1.33,1.85,2.08,3.08,1.75,1.39-.38,2-1.74,1.75-3.08-3.08-16.43-6.63-32.77-10.65-48.99-4.03-16.22-8.52-32.32-13.49-48.28-2.82-9.05-5.78-18.06-8.89-27.02-.44-1.27-1.71-2.12-3.08-1.75-1.24.34-2.19,1.79-1.75,3.08h0Z"/>
    <path class="cls-12" d="M1273.04,1045.43c3.12,19.44,6.76,38.8,10.92,58.04,4.17,19.24,8.87,38.37,14.08,57.36,2.95,10.74,6.07,21.43,9.34,32.07.94,3.07,5.77,1.76,4.82-1.33-5.8-18.82-11.08-37.79-15.85-56.9-4.76-19.11-9-38.34-12.71-57.68-2.1-10.94-4.03-21.91-5.79-32.9-.21-1.33-1.88-2.08-3.08-1.75-1.42.39-1.96,1.74-1.75,3.08h0Z"/>
    <path class="cls-12" d="M1054.21,1050.46c10.52,16.45,21.05,32.89,31.72,49.25,10.63,16.3,21.39,32.51,32.39,48.57s22.29,32.04,33.88,47.74c11.57,15.66,23.47,31.08,35.78,46.16,12.28,15.03,24.97,29.72,38.16,43.96,1.66,1.8,3.33,3.58,5.01,5.37,2.21,2.35,5.74-1.19,3.54-3.54-13.31-14.13-26.13-28.72-38.51-43.66s-24.26-30.15-35.83-45.65c-11.58-15.51-22.81-31.28-33.8-47.21-11.05-16.02-21.85-32.2-32.52-48.47s-21.1-32.51-31.54-48.83c-1.32-2.06-2.64-4.13-3.96-6.19-1.73-2.7-6.06-.2-4.32,2.52h0Z"/>
    <path class="cls-12" d="M1059.09,967.34c8.7,17.04,17.77,33.88,27.21,50.53,9.4,16.58,19.15,32.95,29.25,49.11s20.55,32.09,31.34,47.8,22.01,31.3,33.51,46.58,23.32,30.3,35.46,45.07c1.49,1.82,2.99,3.63,4.5,5.44.86,1.04,2.64.89,3.54,0,1.03-1.03.87-2.49,0-3.54-12.14-14.61-23.97-29.47-35.47-44.59-11.48-15.11-22.64-30.47-33.47-46.05-10.87-15.65-21.4-31.54-31.58-47.64-10.14-16.04-19.94-32.3-29.38-48.76-9.48-16.53-18.61-33.26-27.36-50.18-1.08-2.09-2.16-4.18-3.23-6.28-1.46-2.87-5.78-.34-4.32,2.52h0Z"/>
    <path class="cls-12" d="M1081.05,1056.47c.08-.09.55-.56.19-.23-.28.26-.11.09,0,.03.26-.14-.55.16-.26.1.1-.02.2-.06.29-.09.2-.07.34.05-.3.03.14,0,.52-.1.64,0,.01.01-.69-.14-.28-.04.08.02.17.04.25.06s.17.05.25.08c.37.1-.2-.07-.24-.11.1.1.32.18.45.25.4.23-.36-.33-.12-.09.09.09.19.17.27.26.07.07.13.15.2.22.35.37-.25-.38-.07-.09.1.17.22.34.32.51.11.19.18.43.31.61-.03-.04-.22-.57-.07-.17.05.14.11.29.16.43.13.38.25.77.35,1.16s.14.83.26,1.22c-.17-.57-.05-.45-.03-.25,0,.12.02.23.03.35.01.19.02.37.02.56,0,.02-.01.61-.03.61-.03,0,.13-.68.03-.27-.03.13-.05.26-.09.38-.02.08-.05.16-.08.25-.06.23-.19.14.11-.24-.1.12-.17.3-.25.44-.19.32.12-.19.16-.2-.05.02-.19.18-.23.23-.16.24.45-.28.2-.14-.09.05-.19.11-.27.17-.38.25.49-.14.19-.08-.08.02-.16.05-.24.07-.11.03-.41.07.03.01.48-.06.06-.02-.04-.02-.08,0-.17,0-.25,0-.23,0-.24-.15.29.04-.19-.07-.42-.1-.63-.16s-.24-.2.23.11c-.07-.05-.17-.08-.24-.11-.16-.08-.3-.18-.46-.27-.33-.19.15.12.18.15-.07-.08-.17-.15-.25-.22-.14-.13-.26-.33-.41-.43.38.27.27.39.12.13-.06-.1-.13-.2-.19-.31-.05-.1-.1-.2-.15-.29-.26-.46.15.46,0,0-.17-.52-.25-1.06-.39-1.59.01.06.06.61.03.17-.01-.17-.03-.33-.04-.5-.02-.28-.03-.56-.03-.84,0-.56.01-1.11.03-1.67.05-1.31-1.19-2.56-2.5-2.5-1.4.06-2.45,1.1-2.5,2.5-.1,2.62-.03,5.55,1.57,7.76s4.54,3.71,7.23,2.76c5.71-2,4.23-10.19,1.13-13.82-2-2.34-6.29-3.06-8.42-.46-.43.53-.73,1.06-.73,1.77,0,.61.27,1.35.73,1.77.92.84,2.65,1.08,3.54,0h0Z"/>
    <path class="cls-12" d="M1139.97,1139.84c.21-.16.44-.29.68-.39l-.6.25c.24-.09.49-.16.74-.2l-.66.09c.34-.05.69-.04,1.03,0l-.66-.09c.38.06.74.16,1.1.31l-.6-.25c.36.15.69.35,1,.58l-.51-.39c.3.24.58.5.82.81l-.39-.51c.19.26.36.53.49.82l-.25-.6c.11.27.19.55.23.84l-.09-.66c.04.31.03.61,0,.91l.09-.66c-.05.31-.13.6-.25.88l.25-.6c-.14.31-.31.6-.51.87l.39-.51c-.25.32-.54.6-.86.85l.51-.39c-.33.25-.68.45-1.06.61l.6-.25c-.41.17-.83.29-1.27.35l.66-.09c-.37.04-.74.04-1.11,0l.66.09c-.31-.05-.61-.13-.9-.25l.6.25c-.32-.14-.61-.31-.88-.52l.51.39c-.29-.23-.54-.49-.77-.78l.39.51c-.24-.32-.44-.67-.59-1.04l.25.6c-.18-.43-.3-.88-.36-1.35l.09.66c-.06-.47-.06-.93,0-1.4l-.09.66c.06-.43.17-.85.34-1.25l-.25.6c.15-.34.34-.66.56-.96l-.39.51.06-.07c.43-.54.73-1.05.73-1.77,0-.61-.27-1.35-.73-1.77s-1.1-.76-1.77-.73c-.62.03-1.36.23-1.77.73-.8,1-1.41,2.11-1.6,3.39s-.17,2.62.28,3.86c.43,1.18,1.07,2.31,2.05,3.11,1.17.95,2.48,1.5,4,1.56,2.52.1,5.18-1.39,6.39-3.62,1.32-2.43.87-5.44-1.17-7.34s-5.51-2.74-7.93-.97c-.54.4-.96.82-1.15,1.49-.16.6-.09,1.4.25,1.93s.86,1,1.49,1.15,1.39.14,1.93-.25h0Z"/>
    <path class="cls-12" d="M1071.06,1162.28c19.49,14.76,38.99,29.51,58.48,44.27,5.57,4.22,11.14,8.43,16.71,12.65,1.08.82,2.8.17,3.42-.9.75-1.28.18-2.6-.9-3.42-19.49-14.76-38.99-29.51-58.48-44.27-5.57-4.22-11.14-8.43-16.71-12.65-1.08-.82-2.8-.17-3.42.9-.75,1.28-.18,2.6.9,3.42h0Z"/>
    <path class="cls-12" d="M616.41,681.48c11.93,5.29,23.12,12.19,33.13,20.57,1.03.87,2.52,1.01,3.54,0,.89-.89,1.04-2.66,0-3.54-10.34-8.66-21.81-15.88-34.14-21.35-1.23-.55-2.69-.36-3.42.9-.62,1.06-.34,2.87.9,3.42h0Z"/>
    <path class="cls-12" d="M619.89,679.27c2.33-5.7,4.73-11.45,8.23-16.55s8.63-8.96,13.54-12.86c10.31-8.2,19.49-17.69,28.19-27.56,4.88-5.54,9.62-11.21,14.36-16.87.87-1.04,1.01-2.52,0-3.54-.89-.89-2.67-1.04-3.54,0-8.59,10.28-17.21,20.58-26.66,30.1-4.71,4.74-9.63,9.28-14.83,13.49s-10.4,7.98-14.39,13.34c-4.3,5.77-7.01,12.51-9.71,19.12-.51,1.25.55,2.75,1.75,3.08,1.43.39,2.56-.49,3.08-1.75h0Z"/>
    <path class="cls-12" d="M619.43,723.49c11.85-7.48,23.11-15.89,33.65-25.13,1.02-.89.91-2.62,0-3.54-1.01-1.01-2.52-.89-3.54,0-10.22,8.96-21.13,17.09-32.63,24.34-2.71,1.71-.21,6.04,2.52,4.32h0Z"/>
    <path class="cls-12" d="M616.08,726.7c3.22,0,3.22-5,0-5s-3.22,5,0,5h0Z"/>
    <path class="cls-12" d="M614.7,729.22c11.38,12.72,21.5,26.53,30.2,41.23s16.46,31.67,24.96,47.36,17.39,30,27.06,44.37,19.85,28.3,30.33,42.05,21.32,27.41,32.15,40.99c1.34,1.68,2.68,3.36,4.03,5.04.84,1.06,2.66.88,3.54,0,1.04-1.04.85-2.48,0-3.54-10.76-13.47-21.52-26.95-32.03-40.62-10.53-13.71-20.82-27.61-30.59-41.88-9.79-14.3-19.06-28.96-27.51-44.1s-16.07-31.84-24.83-47.37-18.39-29.16-29.57-42.26c-1.38-1.62-2.79-3.22-4.21-4.81-2.15-2.4-5.68,1.14-3.54,3.54h0Z"/>
    <path class="cls-12" d="M913.06,473.53c16.25-6.89,31.83-15.31,46.5-25.12l-3.76-2.16c.07,8.11.14,16.21.21,24.32.02,2.11,2.75,3.37,4.27,1.77,11.91-12.6,23.81-25.2,35.72-37.8h-3.54c19.48,20.93,39.12,41.86,61.06,60.27,11,9.23,22.57,17.72,34.73,25.36,12.3,7.72,24.9,15.02,35.96,24.51s21.54,21.54,29.57,34.46c1.69,2.73,6.02.22,4.32-2.52-7.26-11.69-16.08-22.43-26.2-31.78-10.7-9.88-22.87-17.68-35.21-25.31s-24.25-15.68-35.5-24.83-21.48-18.62-31.58-28.62c-11.52-11.39-22.59-23.22-33.62-35.08-.9-.97-2.63-.96-3.54,0-11.91,12.6-23.81,25.2-35.72,37.8l4.27,1.77c-.07-8.11-.14-16.21-.21-24.32-.02-1.8-2.15-3.24-3.76-2.16-14.67,9.81-30.25,18.22-46.5,25.12-1.24.53-1.52,2.36-.9,3.42.75,1.29,2.17,1.43,3.42.9h0Z"/>
    <path class="cls-12" d="M1152.61,574.23c14.33,18.73,30.03,36.39,47.04,52.72,8.5,8.15,17.31,15.99,26.42,23.45,4.52,3.7,9.17,7.03,14.91,8.51s12.14,1.87,18.17,2.55c25.78,2.94,51.62,5.36,77.5,7.25,25.88,1.9,51.8,3.27,77.73,4.12,24.83.81,50.24-.04,74.63,5.42,2.96.66,5.89,1.43,8.8,2.29,3.09.91,4.41-3.91,1.33-4.82-23.71-7-48.66-6.88-73.15-7.54-25.6-.69-51.18-1.88-76.73-3.59s-51.29-3.94-76.87-6.67c-6.34-.68-12.67-1.39-19-2.13-5.76-.67-11.75-1.12-16.91-4.03s-9.22-6.8-13.52-10.46c-4.4-3.76-8.74-7.6-13-11.52-17.18-15.83-33.15-32.97-47.71-51.25-1.8-2.26-3.58-4.54-5.33-6.83-.83-1.08-2.14-1.62-3.42-.9-1.06.6-1.72,2.35-.9,3.42h0Z"/>
    <path class="cls-12" d="M1061.62,374.61c18.91,16.81,40.34,30.39,61.75,43.73,23.07,14.38,46.14,28.75,69.2,43.12,13.05,8.13,26.09,16.26,39.14,24.38,2.74,1.71,5.25-2.62,2.52-4.32-23.13-14.41-46.26-28.82-69.39-43.23-11.42-7.12-22.85-14.24-34.27-21.35-10.73-6.69-21.49-13.35-31.99-20.41-11.64-7.82-22.95-16.14-33.43-25.46-2.4-2.13-5.95,1.39-3.54,3.54h0Z"/>
    <path class="cls-12" d="M1148,317.89c5.91,8.95,11.59,18.05,17.02,27.3,5.11,8.69,10.51,17.49,14.33,26.85,2.11,5.16,3.7,10.58,4.09,16.16.09,1.35,1.08,2.5,2.5,2.5,1.28,0,2.59-1.15,2.5-2.5-.73-10.4-4.93-19.99-9.79-29.07-5.13-9.57-10.66-18.94-16.37-28.18-3.24-5.24-6.56-10.43-9.95-15.58-1.77-2.67-6.1-.17-4.32,2.52h0Z"/>
    <path class="cls-12" d="M1264.4,619.73c-.18,7.07.08,14.13.8,21.17.14,1.34,1.05,2.5,2.5,2.5,1.25,0,2.64-1.15,2.5-2.5-.72-7.03-.98-14.1-.8-21.17.08-3.22-4.92-3.22-5,0h0Z"/>
    <path class="cls-12" d="M1165.85,459.38c2.8,12.58,5.39,25.2,7.78,37.87,2.37,12.56,4.68,25.16,6.49,37.82.91,6.35,1.28,12.93-1.15,18.99-.5,1.25.55,2.75,1.75,3.08,1.43.39,2.57-.49,3.08-1.75,2.26-5.65,2.31-11.87,1.64-17.84-.71-6.39-1.88-12.75-2.95-19.09-2.18-12.95-4.58-25.86-7.2-38.74-1.47-7.24-3.01-14.47-4.61-21.68-.7-3.14-5.52-1.81-4.82,1.33h0Z"/>
    <path class="cls-12" d="M1183.06,467.24c1.02,23.58,10.9,45.91,10.78,69.59-.03,6.36-.86,12.65-2.79,18.72-.98,3.07,3.85,4.39,4.82,1.33,7.34-23.08-.62-46.91-5.18-69.66-1.32-6.6-2.34-13.25-2.63-19.98-.14-3.21-5.14-3.22-5,0h0Z"/>
    <path class="cls-12" d="M1182.19,560.23c3.53.24,7.06.47,10.59.71,1.31.09,2.56-1.21,2.5-2.5-.06-1.43-1.1-2.41-2.5-2.5-3.53-.24-7.06-.47-10.59-.71-1.31-.09-2.56,1.21-2.5,2.5.06,1.43,1.1,2.41,2.5,2.5h0Z"/>
    <path class="cls-12" d="M1167.56,459.46c5.74,3.19,11.86,5.7,18.19,7.45,3.11.86,4.43-3.96,1.33-4.82-5.94-1.64-11.61-3.95-16.99-6.95-1.18-.66-2.73-.29-3.42.9s-.29,2.76.9,3.42h0Z"/>
    <path class="cls-12" d="M1147.88,264.95c15.39-17.36,30.08-35.33,44.05-53.86,3.91-5.19,7.77-10.42,11.56-15.7.79-1.1.19-2.78-.9-3.42-1.26-.74-2.63-.2-3.42.9-13.3,18.48-27.33,36.44-42.06,53.81-4.2,4.96-8.46,9.87-12.77,14.73-2.13,2.4,1.4,5.95,3.54,3.54h0Z"/>
    <path class="cls-12" d="M1161.53,213.62c13.43-16.5,27.66-32.35,42.63-47.46,4.25-4.29,8.57-8.53,12.94-12.7,2.33-2.23-1.21-5.76-3.54-3.54-15.38,14.7-30.05,30.14-43.93,46.26-3.94,4.58-7.82,9.22-11.64,13.91-.85,1.05-1.02,2.51,0,3.54.88.88,2.68,1.05,3.54,0h0Z"/>
    <path class="cls-12" d="M1112.04,221.94c16.47-22.75,34.63-44.27,54.27-64.35,5.56-5.69,11.24-11.25,17.04-16.71,2.35-2.21-1.19-5.74-3.54-3.54-20.72,19.5-39.99,40.53-57.6,62.88-4.96,6.3-9.79,12.69-14.49,19.18-.79,1.09-.19,2.79.9,3.42,1.26.74,2.63.2,3.42-.9h0Z"/>
    <path class="cls-12" d="M1021.12,217.43c15.54-9.98,30.84-20.34,45.86-31.09,1.1-.78,1.62-2.18.9-3.42-.63-1.08-2.32-1.69-3.42-.9-15.03,10.74-30.32,21.11-45.86,31.09-2.7,1.73-.2,6.06,2.52,4.32h0Z"/>
    <path class="cls-12" d="M1167.81,279.06c12.15,12.59,22.54,26.79,30.88,42.18,2.35,4.34,4.53,8.76,6.55,13.26.55,1.23,2.34,1.53,3.42.9,1.27-.74,1.45-2.18.9-3.42-7.28-16.22-16.76-31.39-28.07-45.1-3.23-3.91-6.62-7.7-10.14-11.35-2.24-2.32-5.77,1.22-3.54,3.54h0Z"/>
    <path class="cls-12" d="M796,1165.55c2.26-1.57,4.92-1.1,7.33.52,2.75,1.84,3.98,5.37,4.59,8.68.33,1.82.46,3.68.56,5.53.04.67.1,1.53.03,2.1-.05.35-.1.61-.26.87-.09.15-.2.25-.3.29-.39.16-.78.13-1.18,0-.55-.16-1.08-.53-1.56-1.13-1.05-1.31-1.57-3.07-2.06-4.65-1.47-4.71-2.02-9.57-1.73-14.49.08-1.35-1.21-2.5-2.5-2.5-1.42,0-2.42,1.15-2.5,2.5-.33,5.52.37,11.15,2.09,16.41.78,2.37,1.71,4.83,3.5,6.64s4.29,2.65,6.77,2.16c5.74-1.13,4.88-8.09,4.35-12.4-.59-4.78-1.94-9.98-5.8-13.21s-9.52-4.64-13.85-1.63c-1.11.77-1.62,2.19-.9,3.42.64,1.1,2.31,1.67,3.42.9h0Z"/>
    <path class="cls-12" d="M748.75,995.68c.88-.21,1.79-.13,2.64.23,1.15.48,2.04,1.23,2.81,2.19,1.64,2.06,2,5.04,1.96,7.67,0,.74-.05,1.48-.11,2.22-.05.67-.14,1.7-.21,2.14,0-.03-.11.56-.16.75-.02.08-.2.69-.1.44-.05.12-.12.24-.18.35-.18.31.03.01.03.01,0,0-.28.31-.11.13.02-.02.24-.14.25-.1,0,.01-.62-.53-.77-.68-.44-.46-.84-.95-1.2-1.46-.84-1.19-1.59-2.47-2.16-3.81-1.23-2.88-1.69-5.99-1.49-9.1.09-1.35-1.21-2.5-2.5-2.5-1.43,0-2.41,1.15-2.5,2.5-.26,4.01.55,7.96,2.17,11.62.8,1.8,1.84,3.44,3.06,4.99,1.36,1.73,3.08,3.42,5.43,3.44,4.71.03,5.23-5.63,5.46-9.08.27-3.98-.06-8.45-2.4-11.82-2.53-3.65-6.78-6.01-11.27-4.95-3.13.74-1.8,5.57,1.33,4.82h0Z"/>
    <path class="cls-12" d="M1372.43,680.75c15.17,19.7,28.31,40.94,39.15,63.32,10.8,22.27,19.28,45.65,25.3,69.66,6.58,26.21,9.14,53.16,14.81,79.55,5.68,26.44,15.8,51.48,27.32,75.86,5.62,11.9,11.42,23.73,17.42,35.44,5.49,10.71,11.51,21.26,19.49,30.34,2,2.27,4.12,4.42,6.35,6.46,2.38,2.16,5.92-1.36,3.54-3.54-9.01-8.2-15.7-18.4-21.5-29.04-6.11-11.21-11.62-22.78-17.19-34.27-11.66-24.08-22.47-48.74-28.83-74.82-6.46-26.5-8.81-53.79-14.91-80.36-5.53-24.04-13.55-47.48-23.78-69.93-10.22-22.43-22.71-43.83-37.26-63.74-1.83-2.51-3.7-4.99-5.6-7.45-.83-1.08-2.14-1.63-3.42-.9-1.06.6-1.72,2.35-.9,3.42h0Z"/>
    <path class="cls-12" d="M915.7,165.54c15.36,7.44,31.8,12.31,48.73,14.47,17.51,2.24,35.17,1.13,52.53-1.79,17.64-2.96,34.9-7.74,52.09-12.58s33.42-9.52,49.89-15.09,32.57-11.83,48.13-19.43c1.92-.94,3.83-1.9,5.73-2.88,2.86-1.47.34-5.79-2.52-4.32-15.09,7.76-30.82,14.18-46.82,19.79s-32.46,10.49-48.87,15.15c-16.87,4.8-33.77,9.65-50.99,13.06-17.02,3.37-34.42,5.19-51.76,3.83-16.44-1.29-32.78-5.33-47.9-11.93-1.92-.84-3.82-1.71-5.7-2.63-1.21-.59-2.7-.33-3.42.9-.64,1.1-.32,2.83.9,3.42h0Z"/>
    <path class="cls-12" d="M924.33,202.29c3.08-5.74,10.76-7.55,16.52-9.2,7.76-2.23,15.71-3.71,23.69-4.92,4.56-.69,9.13-1.28,13.71-1.87,1.34-.17,2.5-1.03,2.5-2.5,0-1.22-1.15-2.67-2.5-2.5-8.63,1.11-17.27,2.22-25.81,3.9-7.97,1.56-16.29,3.4-23.67,6.88-3.57,1.68-6.86,4.16-8.75,7.69-1.52,2.84,2.79,5.36,4.32,2.52h0Z"/>
    <path class="cls-12" d="M244.83,690.86c17.61-18.08,38.36-32.69,56.43-50.27,8.92-8.67,17.18-18.12,23.75-28.71s10.95-21.53,16.13-32.43c5.67-11.94,12.23-23.72,22.57-32.26,1.04-.86.89-2.64,0-3.54-1.03-1.03-2.49-.86-3.54,0-18.99,15.68-25.27,40.68-36.92,61.37-12.26,21.77-31.5,38.12-50.37,53.98-10.83,9.1-21.72,18.18-31.6,28.32-2.25,2.31,1.29,5.85,3.54,3.54h0Z"/>
    <path class="cls-12" d="M321.72,667.53c20.7,1.02,41.43,1,62.13-.06,3.2-.16,3.22-5.16,0-5-20.69,1.06-41.43,1.08-62.13.06-3.22-.16-3.21,4.84,0,5h0Z"/>
    <path class="cls-12" d="M323.86,703.3c18.33,2.05,36.67,4.1,55,6.14,1.34.15,2.5-1.26,2.5-2.5,0-1.48-1.15-2.35-2.5-2.5-18.33-2.05-36.67-4.1-55-6.14-1.34-.15-2.5,1.26-2.5,2.5,0,1.48,1.15,2.35,2.5,2.5h0Z"/>
    <path class="cls-12" d="M321.01,749.44c13.42.85,26.84,1.69,40.25,2.54,3.21.2,3.2-4.8,0-5-13.42-.85-26.84-1.69-40.25-2.54-3.21-.2-3.2,4.8,0,5h0Z"/>
    <path class="cls-12" d="M392.58,764.41c-5.27,13.38-8.64,27.41-10.18,41.7-.14,1.34,1.25,2.5,2.5,2.5,1.47,0,2.36-1.15,2.5-2.5,1.48-13.83,4.9-27.43,10-40.37.49-1.26-.54-2.74-1.75-3.08-1.42-.39-2.58.48-3.08,1.75h0Z"/>
    <path class="cls-12" d="M428.75,789.09c8.14,20.97,17.66,41.4,28.56,61.08,3.09,5.59,6.3,11.11,9.61,16.58,1.66,2.75,5.99.24,4.32-2.52-11.5-18.99-21.72-38.75-30.55-59.12-2.49-5.73-4.85-11.52-7.11-17.34-.49-1.26-1.68-2.13-3.08-1.75-1.2.33-2.24,1.81-1.75,3.08h0Z"/>
    <path class="cls-12" d="M469.47,772.72c15.98,13.36,31.96,26.73,47.94,40.09l13.56,11.34c1.04.87,2.52,1.01,3.54,0,.89-.89,1.04-2.67,0-3.54-15.98-13.36-31.96-26.73-47.94-40.09l-13.56-11.34c-1.04-.87-2.52-1.01-3.54,0-.89.89-1.04,2.67,0,3.54h0Z"/>
    <path class="cls-12" d="M540.46,735.28c11.29,24.59,22.57,49.2,32.71,74.29,10.06,24.89,19.03,50.26,25.65,76.3,3.72,14.63,6.68,29.45,8.7,44.41.18,1.34,1.9,2.07,3.08,1.75,1.45-.4,1.93-1.73,1.75-3.08-3.6-26.73-10.26-52.95-18.74-78.52s-18.96-51.06-29.94-75.96c-6.16-13.96-12.52-27.83-18.88-41.7-.56-1.23-2.34-1.53-3.42-.9-1.26.74-1.46,2.19-.9,3.42h0Z"/>
    <path class="cls-12" d="M627.16,849.79c4.13,19.58,9.3,38.94,15.5,57.96,1.77,5.43,3.62,10.82,5.55,16.19.46,1.27,1.7,2.12,3.08,1.75,1.23-.34,2.2-1.8,1.75-3.08-6.77-18.83-12.54-38.02-17.26-57.46-1.35-5.54-2.61-11.11-3.78-16.69-.66-3.15-5.49-1.81-4.82,1.33h0Z"/>
    <path class="cls-12" d="M949.03,1077.19c-6.02,25.37-12.03,50.75-18.05,76.12-1.69,7.11-3.37,14.22-5.06,21.33-.74,3.13,4.08,4.46,4.82,1.33,6.02-25.37,12.03-50.75,18.05-76.12,1.69-7.11,3.37-14.22,5.06-21.33.74-3.13-4.08-4.46-4.82-1.33h0Z"/>
    <path class="cls-12" d="M1013.07,939.48c4.42,19.79,6.8,39.99,7.11,60.26.09,5.81,0,11.61-.25,17.42-.14,3.22,4.86,3.21,5,0,.88-20.7-.39-41.46-3.73-61.91-.94-5.73-2.04-11.43-3.31-17.1-.7-3.14-5.52-1.81-4.82,1.33h0Z"/>
    <path class="cls-12" d="M964.67,965.57c1.1,8.31.6,16.69-1.58,24.79-.84,3.11,3.99,4.44,4.82,1.33,2.28-8.5,2.91-17.4,1.75-26.12-.18-1.34-1.02-2.5-2.5-2.5-1.21,0-2.68,1.15-2.5,2.5h0Z"/>
    <path class="cls-12" d="M921.09,783.51c1.44,8.09,4.85,15.83,9.87,22.34.82,1.07,2.15,1.64,3.42.9,1.05-.61,1.73-2.34.9-3.42-4.8-6.22-7.99-13.41-9.37-21.15-.24-1.33-1.86-2.08-3.08-1.75-1.4.39-1.98,1.74-1.75,3.08h0Z"/>
    <path class="cls-12" d="M893.26,540.61c1.31,4.82,2.88,9.56,4.71,14.2.48,1.21,1.69,2.19,3.08,1.75,1.18-.38,2.26-1.77,1.75-3.08-1.83-4.64-3.41-9.38-4.71-14.2-.34-1.26-1.79-2.16-3.08-1.75s-2.11,1.72-1.75,3.08h0Z"/>
    <path class="cls-12" d="M748.08,594.75c15.78-4.18,31.11-10.07,45.65-17.49,14.61-7.45,28.38-16.48,41.09-26.84,7.1-5.78,13.84-12,20.19-18.6,2.23-2.32-1.3-5.86-3.54-3.54-11.07,11.51-23.34,21.84-36.6,30.74s-27.43,16.45-42.25,22.36c-8.44,3.37-17.08,6.21-25.87,8.54-3.11.82-1.79,5.65,1.33,4.82h0Z"/>
  </g>
  <g>
    <path class="cls-2" d="M393.73,1069.73c.59-1.33,6.71-14.62,20.12-16.94,12.46-2.16,22.49,6.68,23.29,7.41,6.28,5.71,7.08,12,10.74,11.86,3.41-.13,6.68-5.75,7.26-10.8,1.48-12.87-14.35-23.65-16.94-25.41-15.84-10.79-33.7-9.16-40.24-8.47-26.9,2.83-44.21,20.33-49.76,26.47"/>
    <path class="cls-2" d="M291.02,969.14c1.19-7.19,8.88-11.32,23.29-19.06,7.18-3.85,19.08-10.09,36-11.65,9.93-.91,28.81-2.65,34.94,7.41,2.58,4.23,2.97,10.68,0,13.76-3.66,3.8-10.05.03-21.18,0-13.84-.03-28.42,5.74-28.59,10.59-.22,6.1,22.51,7.56,23.29,15.88.6,6.44-12.15,14.74-24.35,15.88-21.9,2.04-45.76-18.64-43.41-32.82Z"/>
    <path class="cls-4" d="M108.55,1103.96c-7.78-15.78-17.49-35.6-15.53-62.12,2.57-34.82,23.74-58.64,32.47-68.47,5.46-6.14,16.57-18.42,35.29-28.24,28-14.68,53.87-13.81,60.71-13.41,20.01,1.16,33.34,7.89,60,21.18,31.62,15.76,54.01,32.8,64.94,41.65,23.67,19.16,39.01,36.66,55.76,55.76,16.25,18.53,24.37,27.8,28.94,36,3.2,5.74,31.8,58.96,7.06,106.59-16.83,32.4-48.92,44.33-66.35,50.82-71.37,26.56-136.08-10.91-142.59-14.82-7.16-4.3-21.48-17.69-50.12-44.47-53.99-50.48-64.59-68.3-70.59-80.47Z"/>
    <g>
      <path class="cls-8" d="M292.37,1218.37c12.45-8.74-1.79-38,10.67-48.39,5.77-4.81,11.24-.57,16.37-6.4,5.89-6.71.42-14.33,5.69-23.48,2.44-4.24,8.07-7.16,19.21-12.81,19.43-9.86,22.59-7.82,29.17-14.23,9.1-8.86,8.71-18.24,14.23-18.5,4.6-.22,9.75,6.05,10.67,12.1.92,6.02-2.73,9.36-7.83,20.63-3.37,7.45-3.34,9.45-6.4,17.79-2.57,6.99-8.82,23.68-21.35,41.27-4.62,6.49-12.38,17.21-25.62,27.75-4.24,3.38-10.66,7.21-23.48,14.88-27.04,16.17-30.5,16.49-32.73,15-4.71-3.15-4.52-14.82.71-20.63,3.54-3.94,6.72-2.2,10.67-4.98Z"/>
      <path class="cls-18" d="M191.49,1041.14c-.88,1.05,10.26,11.69,23.65,19.06,2.61,1.44,5.56,2.89,8.82,2.12,1.85-.43,5.22-1.91,9.18-10.24,3.31-6.96,3.78-11.87,5.29-20.12,1.18-6.39,2.87-15.61,6-24.71,3.73-10.84,5.6-16.27,9.88-20.12,13.17-11.84,37.58-4.28,42.35-2.82,6.76,2.06,11.49,4.74,11.65,4.41.23-.49-9.7-7.47-22.94-11.12-8.72-2.4-21.12-5.81-33.88,0-8.78,4-13.68,10.53-15.53,13.06-6.34,8.67-7.98,17.86-9.88,28.59-2.61,14.67-1.37,22.62-7.41,26.65-2.7,1.8-5.62,1.98-7.76,2.12-11.3.71-18.66-7.78-19.41-6.88Z"/>
      <path class="cls-18" d="M178.85,1057.26c.53-1.03,11.1,7.2,19.91,18.18,1.72,2.14,3.53,4.59,3.84,7.79.45,4.76-3.59,9.06-4.96,10.62-1.21,1.39-2.38,2.38-3.2,3.02-4.34,2.7-11.24,6.85-20,11.49-13.87,7.35-16.26,7.38-19.09,11.24-7.34,9.98-3.97,26.96,3.04,37.47,5.83,8.74,14.16,12.95,13.94,13.24-.21.28-8.04-3.69-15.18-11.47-3.11-3.39-11.49-12.78-13.41-27.35-.84-6.38-1.8-13.69,2.12-20.47,3.72-6.43,11.25-9.98,26.32-17.09,9.29-4.38,16.03-6.41,17.23-12.3.59-2.88-.05-5.64-.51-7.67-2.46-10.68-10.49-15.82-10.04-16.7Z"/>
      <path class="cls-17" d="M294.79,1129.9c.08,7.2-5.07,11.86-6.59,13.24-2.07,1.87-4.54,4.1-7.88,4.24-7.01.28-14.05-8.78-14.47-17.47-.06-1.16-.3-8.65,5.45-13.7,1.18-1.04,4.49-4.05,9.02-3.77,4.42.28,7.25,3.5,9.29,5.82,1.68,1.92,5.12,5.83,5.18,11.65Z"/>
      <path class="cls-15" d="M180.55,1118.78c-6.5,10.88-7.15,21.42-7.76,31.41-.6,9.73-1.5,24.37,6.35,28.94,3.27,1.9,6.68,1.26,13.41,0,13.97-2.62,23.43-9.53,25.76-11.29,3.78-2.86,12.97-9.82,18-21.41,7.85-18.1,5.14-46.65-10.21-53.4-15.11-6.65-36.44,10.49-45.55,25.75Z"/>
      <path class="cls-15" d="M301.47,1066.5c9.35-8.89,12.59-19.24,15.66-29.05,2.99-9.56,7.49-23.93.5-30.93-2.91-2.91-6.58-3.33-13.83-4.14-15.04-1.68-26.48,2.31-29.32,3.36-4.59,1.7-15.77,5.83-23.77,15.88-12.5,15.7-16.67,45.11-2.49,56.6,13.96,11.31,40.12.74,53.24-11.73Z"/>
      <path class="cls-17" d="M180.2,1115.25c5.82,10.47,11.65,20.94,17.47,31.41,13.41,7.88,26.82,15.76,40.24,23.65-6.76-15.12-13.53-30.24-20.29-45.35-12.47-3.24-24.94-6.47-37.41-9.71Z"/>
      <path class="cls-17" d="M245,1023.29c11.91,2.42,23.83,4.84,35.74,7.26,11.63,10.45,23.26,20.9,34.89,31.34-16.72-1.92-33.44-3.85-50.15-5.77-6.83-10.94-13.65-21.89-20.48-32.83Z"/>
      <path class="cls-17" d="M357.79,1023.75c-6.34,1.05-5.11,11.05-2.07,17.86.58,1.3,6.86,14.92,18.94,18.82,1.18.38,7.09,2.18,10.45.11,7.39-4.53-1.86-25.04-16.62-33.52-1.64-.94-6.82-3.92-10.7-3.27Z"/>
    </g>
    <g>
      <ellipse class="cls-12" cx="209.24" cy="1133.83" rx="28.31" ry="15.89" transform="translate(-906.97 845.01) rotate(-65.04)"/>
      <ellipse class="cls-12" cx="275.55" cy="1042.59" rx="28.8" ry="17.29" transform="translate(-698.92 580.72) rotate(-49.84)"/>
    </g>
    <path class="cls-12" d="M239.19,1085.53c16.22,7.87,33.81,12.18,50.44,19.02,4.62,1.9,9.15,4.05,13.51,6.49,2.81,1.57,5.33-2.74,2.52-4.32-15.74-8.82-33.31-13.37-50.11-19.66-4.7-1.76-9.33-3.67-13.84-5.86-1.21-.59-2.7-.33-3.42.9-.64,1.1-.32,2.83.9,3.42h0Z"/>
    <path class="cls-12" d="M252.01,1137.21c3.78,6.67,8.17,12.98,13.05,18.89.86,1.04,2.64.89,3.54,0,1.03-1.03.86-2.49,0-3.54-4.61-5.58-8.7-11.58-12.27-17.88-.67-1.17-2.27-1.57-3.42-.9s-1.57,2.24-.9,3.42h0Z"/>
    <path class="cls-12" d="M280.56,1157.14c.23-.23.48-.44.73-.64l-.51.39c.55-.42,1.14-.76,1.78-1.03l-.6.25c.67-.28,1.37-.47,2.09-.57l-.66.09c.68-.09,1.37-.09,2.05,0l-.66-.09c.11.01.21.03.32.05.68.11,1.31.11,1.93-.25.52-.3,1.01-.9,1.15-1.49.15-.64.11-1.36-.25-1.93-.33-.52-.86-1.04-1.49-1.15-1.7-.29-3.42-.26-5.08.26s-3.11,1.38-4.33,2.57c-.94.92-.99,2.63,0,3.54s2.54.98,3.54,0h0Z"/>
    <path class="cls-12" d="M307.42,1116.16c-2.57,1.16-4.94,2.98-6.63,5.23-.82,1.09-1.3,2.39-1.42,3.74-.15,1.67.67,3.17,2.04,4.08,1.09.72,2.81.25,3.42-.9.66-1.25.27-2.65-.9-3.42-.36-.24.46.41.18.13s.36.58.13.16c-.11-.21.2.7.1.24-.02-.11-.05-.22-.07-.34l.09.66c-.02-.25-.02-.48.01-.73l-.09.66c.05-.32.15-.61.24-.92.09-.28-.27.58-.09.22.03-.07.07-.14.1-.21.08-.15.17-.31.26-.45.13-.21.52-.58-.03,0,.13-.13.24-.28.36-.41.3-.33.6-.64.93-.94.3-.28.62-.55.94-.81.24-.2-.42.31-.16.12.1-.07.2-.15.3-.22.16-.11.32-.22.48-.33.73-.49,1.51-.91,2.31-1.27.54-.24,1-.95,1.15-1.49.16-.6.09-1.4-.25-1.93s-.86-1-1.49-1.15c-.69-.16-1.28-.04-1.93.25h0Z"/>
  </g>
  <g>
    <path class="cls-11" d="M1359.81,121.98c-33.57-2.03-72.58-2.25-115.8,1.49-44.48,3.85-83.9,11.08-117.32,19.16-3.67-16.74-6.98-35.06-9.49-54.81-2.14-16.78-3.47-32.68-4.21-47.54,35.36-7.72,74.96-14.56,118.33-19.24,43.07-4.65,82.97-6.4,118.96-6.42,2.85,17.15,5.28,35.72,6.98,55.53,1.56,18.29,2.33,35.61,2.54,51.82h0Z"/>
    <ellipse class="cls-16" cx="1225.77" cy="72.08" rx="29.92" ry="32.72" transform="translate(-1.58 108.39) rotate(-5.06)"/>
    <path class="cls-16" d="M1129.83,129.58c-.25-1.33.58-2.62,1.89-2.93,30.91-7.49,66.91-14.18,107.28-18.09,40.67-3.94,77.55-4.25,109.49-2.8,1.28.05,2.3,1.07,2.41,2.34l.25,3.17c.12,1.52-1.1,2.8-2.62,2.73-32-1.28-68.61-.82-108.82,3.03-39.74,3.8-75.39,10.19-106.28,17.39-1.41.33-2.8-.58-3.06-2l-.53-2.81v-.03Z"/>
    <path class="cls-16" d="M1118.7,48.32c-.27-1.36.58-2.67,1.92-2.98,32.58-7.38,69.38-13.93,109.9-18.29,40.87-4.4,78.53-5.81,112.16-5.53,1.3,0,2.39,1.01,2.5,2.32l.29,3.14c.14,1.51-1.06,2.78-2.56,2.76-33.1-.59-70.48.56-111.22,4.88-40.57,4.31-77.21,10.97-109.35,18.44-1.4.33-2.77-.56-3.06-1.97-.19-.93-.37-1.85-.56-2.78h-.01Z"/>
    <ellipse class="cls-16" cx="1303.29" cy="66.43" rx="9.97" ry="10.9" transform="translate(-.78 115.21) rotate(-5.06)"/>
    <ellipse class="cls-16" cx="1151.6" cy="83.56" rx="9.97" ry="10.9" transform="translate(-2.88 101.9) rotate(-5.06)"/>
    <g id="Layer_2" data-name="Layer 2">
      <g id="Layer_1-2" data-name="Layer 1-2">
        <path class="cls-13" d="M1214.84,73.08c-.12,2.13,1.45,3.94,3.48,4.07h.22c2.05,0,3.7-1.73,3.69-3.87,0-2.14-1.65-3.87-3.7-3.85-1.96,0-3.58,1.61-3.69,3.65Z"/>
        <path class="cls-13" d="M1201.06,72.09c-.66-.05-1.23.49-1.26,1.18s.47,1.28,1.13,1.31c.66.05,1.21-.49,1.26-1.18.04-.69-.47-1.27-1.13-1.31h0Z"/>
        <path class="cls-13" d="M1214.6,50.67c.59-.31.82-1.07.53-1.68s-1.02-.86-1.61-.55-.82,1.06-.53,1.67c.29.63,1.01.89,1.61.57-.01,0,0,0,0,0Z"/>
        <path class="cls-13" d="M1218.35,57.5c.91-.47,1.27-1.64.82-2.58s-1.56-1.33-2.47-.86-1.27,1.64-.82,2.58c.45.95,1.56,1.33,2.47.86Z"/>
        <path class="cls-13" d="M1205.74,62.2c.7.47,1.64.28,2.11-.46.45-.73.26-1.71-.44-2.2-.7-.47-1.64-.28-2.11.46h0c-.47.73-.26,1.73.44,2.2Z"/>
        <path class="cls-13" d="M1207.98,71.4c-1.02-.06-1.89.75-1.95,1.82s.72,1.97,1.74,2.03c1.02.06,1.89-.75,1.95-1.82h0c.06-1.06-.72-1.97-1.74-2.03Z"/>
        <path class="cls-13" d="M1205.94,84.35c-.75.4-1.05,1.35-.67,2.14.38.78,1.29,1.1,2.05.7.75-.4,1.05-1.35.67-2.14h0c-.38-.78-1.3-1.1-2.05-.7h0Z"/>
        <path class="cls-13" d="M1213.11,67.41c1.01.69,2.35.4,3-.66.66-1.06.38-2.46-.63-3.13-1.01-.69-2.35-.4-3,.66-.66,1.04-.38,2.45.63,3.13h0Z"/>
        <path class="cls-13" d="M1235.85,57.35c.85.58,2,.34,2.56-.55s.32-2.09-.53-2.68c-.85-.58-2-.34-2.56.55h0c-.57.9-.34,2.09.53,2.68h0Z"/>
        <path class="cls-13" d="M1239.63,50.55c.56.38,1.29.21,1.65-.37s.2-1.35-.35-1.73-1.29-.21-1.65.35c-.35.58-.19,1.36.35,1.74h0Z"/>
        <path class="cls-13" d="M1236.13,69.4c-2.03-.12-3.79,1.51-3.89,3.64-.12,2.13,1.45,3.96,3.48,4.07h.2c2.03,0,3.69-1.73,3.69-3.87.01-2.03-1.52-3.73-3.48-3.84h0Z"/>
        <path class="cls-13" d="M1219.56,67.14c.63,1.3,1.9,2.13,3.31,2.13,2.03,0,3.69-1.73,3.69-3.87,0-.6-.13-1.19-.39-1.74-.92-1.91-3.14-2.68-4.96-1.71-1.83.98-2.56,3.3-1.64,5.2h0Z"/>
        <path class="cls-13" d="M1248.5,62.2c.75-.4,1.04-1.36.66-2.14s-1.3-1.09-2.05-.69-1.04,1.35-.67,2.13c.39.78,1.3,1.1,2.06.7h0Z"/>
        <path class="cls-13" d="M1239.14,63.42c-1.07.57-1.51,1.93-.97,3.04.54,1.12,1.84,1.57,2.91,1.01s1.51-1.93.97-3.04-1.84-1.56-2.91-1.01Z"/>
        <path class="cls-13" d="M1227.08,49.96c.83.05,1.55-.63,1.61-1.5s-.6-1.62-1.43-1.68c-.83-.05-1.55.61-1.61,1.48-.04.89.6,1.64,1.43,1.7h0Z"/>
        <path class="cls-13" d="M1227.06,59.95c1.2.08,2.22-.89,2.28-2.14.07-1.25-.85-2.32-2.05-2.39-1.2-.08-2.22.89-2.28,2.14-.06,1.25.85,2.32,2.05,2.39h0Z"/>
        <path class="cls-13" d="M1215.3,83.13c1.07-.57,1.51-1.93.97-3.04-.54-1.12-1.84-1.57-2.91-1.01s-1.51,1.93-.97,3.04c.54,1.12,1.84,1.57,2.91,1.01Z"/>
        <path class="cls-13" d="M1228.47,63.27c-1.11,1.79-.64,4.17,1.07,5.34s3.99.67,5.1-1.12.64-4.17-1.07-5.34c-.6-.41-1.3-.63-2.02-.63-1.24,0-2.4.66-3.09,1.74Z"/>
        <path class="cls-13" d="M1234.89,79.41c-.92-1.91-3.14-2.68-4.96-1.71-1.83.96-2.56,3.29-1.64,5.18.92,1.91,3.14,2.68,4.96,1.71h0c1.81-.95,2.56-3.24,1.65-5.15t-.01-.03Z"/>
        <path class="cls-13" d="M1241.34,79.14c-1.01-.69-2.35-.4-3,.66-.66,1.06-.38,2.46.63,3.13,1.01.69,2.35.4,3-.66.66-1.04.38-2.45-.63-3.13h0Z"/>
        <path class="cls-13" d="M1248.42,73.34c.06-1.07-.72-1.97-1.74-2.03-1.02-.06-1.89.75-1.95,1.82s.72,1.97,1.74,2.03h0c1.01.06,1.89-.76,1.95-1.82Z"/>
        <path class="cls-13" d="M1253.52,71.97c-.66-.05-1.23.49-1.26,1.18s.47,1.28,1.13,1.31c.66.05,1.21-.49,1.26-1.18.03-.69-.47-1.27-1.13-1.31Z"/>
        <path class="cls-13" d="M1248.71,84.35c-.7-.47-1.64-.28-2.11.46-.45.73-.26,1.71.44,2.2.7.47,1.64.28,2.11-.46.47-.73.26-1.73-.44-2.2h0Z"/>
        <path class="cls-13" d="M1214.81,96c-.56-.38-1.29-.21-1.65.35-.37.58-.2,1.35.34,1.73.56.38,1.29.21,1.65-.35h0c.38-.57.22-1.35-.34-1.73Z"/>
        <path class="cls-13" d="M1239.85,95.88c-.59.31-.82,1.07-.53,1.68s1.02.86,1.61.55.82-1.06.53-1.67c-.29-.63-1.01-.89-1.61-.57.01,0,0,0,0,0Z"/>
        <path class="cls-13" d="M1225.98,83.28c1.11-1.79.64-4.17-1.07-5.35-1.71-1.16-3.99-.67-5.12,1.12s-.64,4.17,1.07,5.35c.6.41,1.3.63,2.02.63,1.26.02,2.41-.64,3.1-1.74Z"/>
        <path class="cls-13" d="M1218.6,89.2c-.85-.58-2-.34-2.56.55-.56.89-.32,2.09.53,2.68s2,.34,2.56-.55h0c.57-.89.34-2.09-.53-2.68Z"/>
        <path class="cls-13" d="M1227.21,96.58c-.83-.05-1.55.63-1.61,1.5s.6,1.62,1.43,1.68c.83.05,1.55-.61,1.61-1.48.04-.89-.6-1.64-1.43-1.7h0Z"/>
        <path class="cls-13" d="M1227.22,86.6c-1.2-.08-2.22.89-2.28,2.14-.07,1.25.85,2.32,2.05,2.39s2.22-.89,2.28-2.14c.07-1.24-.85-2.32-2.05-2.39h0Z"/>
        <path class="cls-13" d="M1236.1,89.05c-.91.49-1.27,1.65-.8,2.6s1.58,1.33,2.49.84c.91-.47,1.27-1.64.82-2.58-.47-.95-1.58-1.35-2.5-.86h0Z"/>
      </g>
    </g>
  </g>
  <g>
    <path class="cls-11" d="M719.83,1178.1c-33.57-2.03-72.58-2.25-115.8,1.49-44.48,3.85-83.9,11.08-117.32,19.16-3.67-16.74-6.98-35.06-9.49-54.81-2.14-16.78-3.47-32.68-4.21-47.54,35.36-7.72,74.96-14.56,118.33-19.24,43.07-4.65,82.97-6.4,118.96-6.42,2.85,17.15,5.28,35.72,6.98,55.53,1.56,18.29,2.33,35.61,2.54,51.82h0Z"/>
    <ellipse class="cls-16" cx="585.79" cy="1128.2" rx="29.92" ry="32.72" transform="translate(-97.22 56.06) rotate(-5.06)"/>
    <path class="cls-16" d="M489.85,1185.7c-.25-1.33.58-2.62,1.89-2.93,30.91-7.49,66.91-14.18,107.28-18.09,40.67-3.94,77.55-4.25,109.49-2.8,1.28.05,2.3,1.07,2.41,2.34l.25,3.17c.12,1.52-1.1,2.8-2.62,2.73-32-1.28-68.61-.82-108.82,3.03-39.74,3.8-75.39,10.19-106.28,17.39-1.41.33-2.8-.58-3.06-2l-.53-2.81v-.03Z"/>
    <path class="cls-16" d="M478.72,1104.44c-.27-1.36.58-2.67,1.92-2.98,32.58-7.38,69.38-13.93,109.9-18.29,40.87-4.4,78.53-5.81,112.16-5.53,1.3,0,2.39,1.01,2.5,2.32l.29,3.14c.14,1.51-1.06,2.78-2.56,2.76-33.1-.59-70.48.56-111.22,4.88-40.57,4.31-77.21,10.97-109.35,18.44-1.4.33-2.77-.56-3.06-1.97-.19-.93-.37-1.85-.56-2.78h-.01Z"/>
    <ellipse class="cls-16" cx="663.31" cy="1122.55" rx="9.97" ry="10.9" transform="translate(-96.42 62.88) rotate(-5.06)"/>
    <ellipse class="cls-16" cx="511.62" cy="1139.67" rx="9.97" ry="10.9" transform="translate(-98.52 49.57) rotate(-5.06)"/>
    <g id="Layer_2-2" data-name="Layer 2">
      <g id="Layer_1-2-2" data-name="Layer 1-2">
        <path class="cls-13" d="M574.86,1129.2c-.12,2.13,1.45,3.94,3.48,4.07h.22c2.05,0,3.7-1.73,3.69-3.87,0-2.14-1.65-3.87-3.7-3.85-1.96,0-3.58,1.61-3.69,3.65Z"/>
        <path class="cls-13" d="M561.08,1128.21c-.66-.05-1.23.49-1.26,1.18s.47,1.28,1.13,1.31c.66.05,1.21-.49,1.26-1.18.04-.69-.47-1.27-1.13-1.31h0Z"/>
        <path class="cls-13" d="M574.62,1106.79c.59-.31.82-1.07.53-1.68s-1.02-.86-1.61-.55-.82,1.06-.53,1.67c.29.63,1.01.89,1.61.57-.01,0,0,0,0,0Z"/>
        <path class="cls-13" d="M578.37,1113.62c.91-.47,1.27-1.64.82-2.58s-1.56-1.33-2.47-.86-1.27,1.64-.82,2.58c.45.95,1.56,1.33,2.47.86Z"/>
        <path class="cls-13" d="M565.76,1118.31c.7.47,1.64.28,2.11-.46.45-.73.26-1.71-.44-2.2-.7-.47-1.64-.28-2.11.46h0c-.47.73-.26,1.73.44,2.2Z"/>
        <path class="cls-13" d="M568,1127.52c-1.02-.06-1.89.75-1.95,1.82s.72,1.97,1.74,2.03c1.02.06,1.89-.75,1.95-1.82h0c.06-1.06-.72-1.97-1.74-2.03Z"/>
        <path class="cls-13" d="M565.97,1140.47c-.75.4-1.05,1.35-.67,2.14.38.78,1.29,1.1,2.05.7.75-.4,1.05-1.35.67-2.14h0c-.38-.78-1.3-1.1-2.05-.7h0Z"/>
        <path class="cls-13" d="M573.13,1123.53c1.01.69,2.35.4,3-.66.66-1.06.38-2.46-.63-3.13-1.01-.69-2.35-.4-3,.66-.66,1.04-.38,2.45.63,3.13h0Z"/>
        <path class="cls-13" d="M595.87,1113.47c.85.58,2,.34,2.56-.55s.32-2.09-.53-2.68c-.85-.58-2-.34-2.56.55h0c-.57.9-.34,2.09.53,2.68h0Z"/>
        <path class="cls-13" d="M599.65,1106.66c.56.38,1.29.21,1.65-.37s.2-1.35-.35-1.73-1.29-.21-1.65.35c-.35.58-.19,1.36.35,1.74h0Z"/>
        <path class="cls-13" d="M596.15,1125.52c-2.03-.12-3.79,1.51-3.89,3.64-.12,2.13,1.45,3.96,3.48,4.07h.2c2.03,0,3.69-1.73,3.69-3.87.01-2.03-1.52-3.73-3.48-3.84h0Z"/>
        <path class="cls-13" d="M579.58,1123.25c.63,1.3,1.9,2.13,3.31,2.13,2.03,0,3.69-1.73,3.69-3.87,0-.6-.13-1.19-.39-1.74-.92-1.91-3.14-2.68-4.96-1.71-1.83.98-2.56,3.3-1.64,5.2h0Z"/>
        <path class="cls-13" d="M608.52,1118.31c.75-.4,1.04-1.36.66-2.14s-1.3-1.09-2.05-.69-1.04,1.35-.67,2.13c.39.78,1.3,1.1,2.06.7h0Z"/>
        <path class="cls-13" d="M599.16,1119.54c-1.07.57-1.51,1.93-.97,3.04.54,1.12,1.84,1.57,2.91,1.01s1.51-1.93.97-3.04-1.84-1.56-2.91-1.01Z"/>
        <path class="cls-13" d="M587.1,1106.08c.83.05,1.55-.63,1.61-1.5s-.6-1.62-1.43-1.68c-.83-.05-1.55.61-1.61,1.48-.04.89.6,1.64,1.43,1.7h0Z"/>
        <path class="cls-13" d="M587.08,1116.07c1.2.08,2.22-.89,2.28-2.14.07-1.25-.85-2.32-2.05-2.39-1.2-.08-2.22.89-2.28,2.14-.06,1.25.85,2.32,2.05,2.39h0Z"/>
        <path class="cls-13" d="M575.33,1139.25c1.07-.57,1.51-1.93.97-3.04-.54-1.12-1.84-1.57-2.91-1.01s-1.51,1.93-.97,3.04c.54,1.12,1.84,1.57,2.91,1.01Z"/>
        <path class="cls-13" d="M588.49,1119.39c-1.11,1.79-.64,4.17,1.07,5.34s3.99.67,5.1-1.12.64-4.17-1.07-5.34c-.6-.41-1.3-.63-2.02-.63-1.24,0-2.4.66-3.09,1.74Z"/>
        <path class="cls-13" d="M594.91,1135.53c-.92-1.91-3.14-2.68-4.96-1.71-1.83.96-2.56,3.29-1.64,5.18.92,1.91,3.14,2.68,4.96,1.71h0c1.81-.95,2.56-3.24,1.65-5.15t-.01-.03Z"/>
        <path class="cls-13" d="M601.36,1135.26c-1.01-.69-2.35-.4-3,.66-.66,1.06-.38,2.46.63,3.13,1.01.69,2.35.4,3-.66.66-1.04.38-2.45-.63-3.13h0Z"/>
        <path class="cls-13" d="M608.44,1129.46c.06-1.07-.72-1.97-1.74-2.03-1.02-.06-1.89.75-1.95,1.82s.72,1.97,1.74,2.03h0c1.01.06,1.89-.76,1.95-1.82Z"/>
        <path class="cls-13" d="M613.54,1128.09c-.66-.05-1.23.49-1.26,1.18s.47,1.28,1.13,1.31c.66.05,1.21-.49,1.26-1.18.03-.69-.47-1.27-1.13-1.31Z"/>
        <path class="cls-13" d="M608.73,1140.47c-.7-.47-1.64-.28-2.11.46-.45.73-.26,1.71.44,2.2.7.47,1.64.28,2.11-.46.47-.73.26-1.73-.44-2.2h0Z"/>
        <path class="cls-13" d="M574.83,1152.12c-.56-.38-1.29-.21-1.65.35-.37.58-.2,1.35.34,1.73.56.38,1.29.21,1.65-.35h0c.38-.57.22-1.35-.34-1.73Z"/>
        <path class="cls-13" d="M599.87,1152c-.59.31-.82,1.07-.53,1.68s1.02.86,1.61.55.82-1.06.53-1.67c-.29-.63-1.01-.89-1.61-.57.01,0,0,0,0,0Z"/>
        <path class="cls-13" d="M586,1139.4c1.11-1.79.64-4.17-1.07-5.35-1.71-1.16-3.99-.67-5.12,1.12s-.64,4.17,1.07,5.35c.6.41,1.3.63,2.02.63,1.26.02,2.41-.64,3.1-1.74Z"/>
        <path class="cls-13" d="M578.62,1145.32c-.85-.58-2-.34-2.56.55-.56.89-.32,2.09.53,2.68s2,.34,2.56-.55h0c.57-.89.34-2.09-.53-2.68Z"/>
        <path class="cls-13" d="M587.23,1152.7c-.83-.05-1.55.63-1.61,1.5s.6,1.62,1.43,1.68c.83.05,1.55-.61,1.61-1.48.04-.89-.6-1.64-1.43-1.7h0Z"/>
        <path class="cls-13" d="M587.25,1142.72c-1.2-.08-2.22.89-2.28,2.14-.07,1.25.85,2.32,2.05,2.39s2.22-.89,2.28-2.14c.07-1.24-.85-2.32-2.05-2.39h0Z"/>
        <path class="cls-13" d="M596.12,1145.16c-.91.49-1.27,1.65-.8,2.6s1.58,1.33,2.49.84c.91-.47,1.27-1.64.82-2.58-.47-.95-1.58-1.35-2.5-.86h0Z"/>
      </g>
    </g>
  </g>
  <g>
    <path class="cls-11" d="M627.48,1242.94c-33.06,6.15-70.97,15.37-112,29.45-42.23,14.49-78.73,31.04-109.21,46.95-7.61-15.36-15.25-32.33-22.46-50.89-6.13-15.77-11.27-30.87-15.58-45.11,32.45-16.04,69.22-32.26,110.17-47.28,40.67-14.92,78.96-26.27,113.88-34.99,6.92,15.95,13.76,33.38,20.2,52.2,5.94,17.37,10.87,33.99,14.99,49.67h0Z"/>
    <ellipse class="cls-16" cx="485.36" cy="1226.93" rx="29.92" ry="32.72" transform="translate(-373.92 225.65) rotate(-19.05)"/>
    <path class="cls-16" d="M406.17,1305.92c-.56-1.23-.07-2.68,1.13-3.3,28.18-14.74,61.5-29.94,99.73-43.49,38.51-13.65,74.23-22.88,105.56-29.19,1.25-.26,2.49.48,2.91,1.69l1.01,3.01c.49,1.45-.39,2.98-1.88,3.28-31.36,6.5-66.78,15.79-104.86,29.25-37.64,13.29-70.69,28.11-98.92,42.57-1.29.66-2.85.12-3.45-1.2l-1.2-2.6-.02-.02Z"/>
    <path class="cls-16" d="M375.72,1229.77c-.59-1.25-.09-2.73,1.14-3.35,29.83-15.04,63.95-30.29,102.22-44.32,38.6-14.15,74.79-24.63,107.5-32.48,1.26-.31,2.56.41,2.98,1.65l1.04,2.98c.5,1.43-.35,2.96-1.82,3.29-32.26,7.43-68.25,17.59-106.74,31.63-38.33,13.99-72.27,29.31-101.65,44.34-1.28.66-2.82.12-3.44-1.18-.41-.86-.81-1.71-1.22-2.56v.02Z"/>
    <ellipse class="cls-16" cx="559.22" cy="1202.71" rx="9.97" ry="10.9" transform="translate(-361.97 248.43) rotate(-19.05)"/>
    <ellipse class="cls-16" cx="416.17" cy="1256" rx="9.97" ry="10.9" transform="translate(-387.2 204.65) rotate(-19.05)"/>
    <g id="Layer_2-3" data-name="Layer 2">
      <g id="Layer_1-2-3" data-name="Layer 1-2">
        <path class="cls-13" d="M474.99,1230.55c.4,2.09,2.36,3.48,4.36,3.1l.21-.05c1.99-.5,3.17-2.57,2.64-4.64-.52-2.08-2.54-3.35-4.52-2.84-1.9.47-3.09,2.42-2.69,4.44Z"/>
        <path class="cls-13" d="M461.38,1232.92c-.65.11-1.07.77-.94,1.45s.76,1.13,1.41,1c.65-.11,1.06-.77.94-1.45-.12-.68-.76-1.12-1.41-1h0Z"/>
        <path class="cls-13" d="M469.35,1208.86c.49-.44.54-1.24.1-1.76s-1.2-.58-1.69-.15-.54,1.22-.11,1.74c.44.54,1.19.62,1.7.16-.01,0,0,0,0,0Z"/>
        <path class="cls-13" d="M474.63,1214.58c.77-.68.84-1.9.17-2.71s-1.84-.91-2.61-.23-.84,1.9-.17,2.71c.67.81,1.84.91,2.61.23Z"/>
        <path class="cls-13" d="M463.53,1222.19c.8.29,1.66-.13,1.93-.95.26-.82-.16-1.73-.96-2.03-.8-.29-1.66.13-1.93.95h0c-.28.83.16,1.74.96,2.03Z"/>
        <path class="cls-13" d="M467.93,1230.58c-1.01.19-1.65,1.18-1.45,2.24s1.17,1.74,2.18,1.55c1.01-.19,1.65-1.18,1.45-2.24h0c-.2-1.04-1.17-1.74-2.18-1.55Z"/>
        <path class="cls-13" d="M469.09,1243.63c-.63.57-.7,1.56-.14,2.24.56.66,1.52.76,2.16.19.63-.57.7-1.56.14-2.24h0c-.56-.66-1.53-.75-2.16-.19h0Z"/>
        <path class="cls-13" d="M471.95,1225.46c1.15.42,2.38-.18,2.75-1.36.38-1.18-.23-2.48-1.37-2.89-1.15-.42-2.38.18-2.75,1.36-.39,1.17.22,2.47,1.37,2.89h0Z"/>
        <path class="cls-13" d="M491.58,1210.2c.96.36,2.03-.16,2.35-1.15s-.19-2.11-1.16-2.47c-.96-.36-2.03.16-2.35,1.15h0c-.34,1.01.18,2.11,1.16,2.47h0Z"/>
        <path class="cls-13" d="M493.6,1202.69c.63.24,1.3-.1,1.51-.76s-.13-1.36-.76-1.59-1.3.1-1.52.74c-.2.65.14,1.37.76,1.61h0Z"/>
        <path class="cls-13" d="M494.76,1221.82c-2,.37-3.31,2.38-2.89,4.47.4,2.09,2.36,3.49,4.36,3.1l.2-.05c1.97-.49,3.16-2.57,2.64-4.64-.48-1.98-2.38-3.25-4.31-2.88h0Z"/>
        <path class="cls-13" d="M478.14,1223.64c.92,1.11,2.36,1.6,3.72,1.26,1.97-.49,3.16-2.57,2.64-4.64-.14-.58-.42-1.13-.8-1.6-1.36-1.63-3.7-1.84-5.22-.46-1.54,1.39-1.68,3.82-.33,5.44h0Z"/>
        <path class="cls-13" d="M505.03,1211.85c.63-.57.68-1.57.12-2.24s-1.53-.74-2.15-.17-.68,1.56-.14,2.22c.57.66,1.53.75,2.17.18h0Z"/>
        <path class="cls-13" d="M496.24,1215.3c-.9.81-1,2.23-.2,3.19.79.95,2.17,1.08,3.07.28s1-2.23.2-3.19-2.17-1.07-3.07-.28Z"/>
        <path class="cls-13" d="M481.28,1205.16c.82-.16,1.35-.98,1.2-1.84s-.97-1.43-1.8-1.29c-.82.16-1.36.97-1.2,1.83.17.87.98,1.44,1.8,1.3h0Z"/>
        <path class="cls-13" d="M483.68,1214.85c1.18-.22,1.94-1.4,1.7-2.63-.23-1.23-1.39-2.05-2.56-1.82-1.18.22-1.94,1.4-1.7,2.63.25,1.23,1.39,2.05,2.56,1.82h0Z"/>
        <path class="cls-13" d="M477.88,1240.18c.9-.81,1-2.23.2-3.19-.79-.95-2.17-1.08-3.07-.28s-1,2.23-.2,3.19c.79.95,2.17,1.08,3.07.28Z"/>
        <path class="cls-13" d="M485.85,1217.73c-.65,2,.38,4.21,2.33,4.92s4.04-.31,4.68-2.32-.38-4.21-2.33-4.92c-.68-.26-1.41-.29-2.11-.12-1.21.3-2.17,1.22-2.57,2.44Z"/>
        <path class="cls-13" d="M495.98,1231.84c-1.36-1.63-3.7-1.84-5.22-.46-1.54,1.38-1.69,3.81-.34,5.43,1.36,1.63,3.7,1.84,5.22.46h0c1.53-1.36,1.7-3.76.36-5.4t-.02-.03Z"/>
        <path class="cls-13" d="M502.17,1230.02c-1.15-.42-2.38.18-2.75,1.36-.38,1.18.23,2.48,1.37,2.89,1.15.42,2.38-.18,2.75-1.36.39-1.17-.22-2.47-1.37-2.89h0Z"/>
        <path class="cls-13" d="M507.64,1222.68c-.2-1.05-1.17-1.74-2.18-1.55-1.01.19-1.65,1.18-1.45,2.24s1.17,1.74,2.18,1.55h0c.99-.18,1.65-1.2,1.45-2.24Z"/>
        <path class="cls-13" d="M512.26,1220.11c-.65.11-1.07.77-.94,1.45s.76,1.13,1.41,1c.65-.11,1.06-.77.94-1.45-.14-.67-.76-1.12-1.41-1Z"/>
        <path class="cls-13" d="M510.58,1233.29c-.8-.29-1.66.13-1.93.95-.26.82.16,1.73.96,2.03.8.29,1.66-.13,1.93-.95.28-.83-.16-1.74-.96-2.03h0Z"/>
        <path class="cls-13" d="M480.51,1252.8c-.63-.24-1.3.1-1.52.74-.21.65.13,1.36.74,1.6.63.24,1.3-.1,1.52-.74h0c.23-.64-.11-1.36-.74-1.6Z"/>
        <path class="cls-13" d="M504.77,1246.62c-.49.44-.54,1.24-.1,1.76s1.2.58,1.69.15.54-1.22.11-1.74c-.44-.54-1.19-.62-1.7-.16.01,0,0,0,0,0Z"/>
        <path class="cls-13" d="M488.27,1237.75c.65-2-.38-4.21-2.33-4.93-1.94-.71-4.04.31-4.7,2.32s.38,4.21,2.33,4.93c.68.26,1.41.29,2.11.12,1.22-.29,2.19-1.21,2.59-2.44Z"/>
        <path class="cls-13" d="M482.54,1245.28c-.96-.36-2.03.16-2.35,1.15-.32.99.19,2.11,1.16,2.47s2.03-.16,2.35-1.15h0c.34-1-.18-2.11-1.16-2.47Z"/>
        <path class="cls-13" d="M492.68,1250.36c-.82.16-1.35.98-1.2,1.84s.97,1.43,1.8,1.29c.82-.16,1.36-.97,1.2-1.83-.17-.87-.98-1.44-1.8-1.3h0Z"/>
        <path class="cls-13" d="M490.28,1240.67c-1.18.22-1.94,1.4-1.7,2.63.23,1.23,1.39,2.05,2.56,1.82s1.94-1.4,1.7-2.63c-.23-1.22-1.39-2.05-2.56-1.82h0Z"/>
        <path class="cls-13" d="M499.49,1240.9c-.76.69-.84,1.91-.15,2.72s1.85.91,2.62.21c.77-.68.84-1.9.17-2.71-.68-.81-1.86-.92-2.63-.23h0Z"/>
      </g>
    </g>
  </g>
  <g>
    <path class="cls-11" d="M633.76,1046.32c-33.61.94-72.49,4.17-115.21,11.71-43.97,7.76-82.6,18.44-115.17,29.44-5.14-16.35-10.05-34.31-14.29-53.75-3.61-16.53-6.34-32.24-8.39-46.98,34.54-10.81,73.38-21.12,116.17-29.61,42.49-8.43,82.08-13.7,117.93-16.89,4.35,16.83,8.41,35.11,11.85,54.7,3.17,18.08,5.46,35.26,7.1,51.39h0Z"/>
    <ellipse class="cls-16" cx="495.85" cy="1008.44" rx="29.92" ry="32.72" transform="translate(-169.54 102.86) rotate(-10.12)"/>
    <path class="cls-16" d="M405.35,1074.18c-.36-1.3.34-2.66,1.63-3.09,30.13-10.19,65.4-20.03,105.27-27.48,40.16-7.51,76.88-11.08,108.81-12.45,1.28-.06,2.39.86,2.61,2.12l.53,3.13c.26,1.51-.85,2.88-2.37,2.95-31.99,1.55-68.42,5.24-108.12,12.62-39.25,7.29-74.19,16.8-104.33,26.7-1.38.45-2.84-.33-3.22-1.72l-.78-2.75-.02-.03Z"/>
    <path class="cls-16" d="M387.09,994.23c-.39-1.33.34-2.71,1.65-3.13,31.8-10.22,67.88-20,107.86-27.92,40.33-7.99,77.71-12.72,111.24-15.4,1.3-.11,2.47.8,2.69,2.09l.56,3.1c.27,1.49-.81,2.87-2.31,2.97-33.02,2.33-70.15,6.78-110.35,14.68-40.03,7.87-75.94,17.74-107.3,28.02-1.36.45-2.81-.32-3.22-1.7-.27-.91-.53-1.81-.81-2.72h-.01Z"/>
    <ellipse class="cls-16" cx="572.57" cy="995.97" rx="9.97" ry="10.9" transform="translate(-166.15 116.15) rotate(-10.12)"/>
    <ellipse class="cls-16" cx="422.98" cy="1026.42" rx="9.97" ry="10.9" transform="translate(-173.83 90.33) rotate(-10.12)"/>
    <g id="Layer_2-4" data-name="Layer 2">
      <g id="Layer_1-2-4" data-name="Layer 1-2">
        <path class="cls-13" d="M485.04,1010.41c.07,2.13,1.79,3.8,3.83,3.74l.22-.02c2.04-.18,3.53-2.05,3.33-4.18-.19-2.13-1.99-3.71-4.03-3.51-1.95.17-3.43,1.92-3.35,3.97Z"/>
        <path class="cls-13" d="M471.23,1010.63c-.66.01-1.18.6-1.15,1.28s.58,1.24,1.24,1.21c.66-.01,1.17-.59,1.15-1.28-.02-.69-.58-1.22-1.24-1.21h0Z"/>
        <path class="cls-13" d="M482.83,988.1c.56-.36.72-1.14.38-1.72s-1.1-.76-1.65-.41-.72,1.12-.38,1.71c.35.6,1.08.79,1.65.42-.01,0,0,0,0,0Z"/>
        <path class="cls-13" d="M487.16,994.58c.86-.55,1.12-1.74.59-2.65s-1.68-1.19-2.54-.63-1.12,1.74-.59,2.65c.54.9,1.68,1.19,2.54.63Z"/>
        <path class="cls-13" d="M475.02,1000.36c.74.41,1.66.13,2.06-.64.39-.77.11-1.73-.63-2.15-.74-.41-1.66-.13-2.06.64h0c-.4.77-.11,1.74.63,2.15Z"/>
        <path class="cls-13" d="M478.06,1009.34c-1.03.03-1.81.91-1.78,1.98s.89,1.9,1.91,1.87c1.03-.03,1.81-.91,1.78-1.98h0c-.03-1.06-.89-1.9-1.91-1.87Z"/>
        <path class="cls-13" d="M477.18,1022.42c-.71.46-.93,1.43-.48,2.19.45.74,1.38.98,2.1.52.71-.46.93-1.43.48-2.19h0c-.45-.74-1.39-.98-2.1-.52h0Z"/>
        <path class="cls-13" d="M482.82,1004.91c1.07.6,2.38.19,2.93-.92.56-1.11.16-2.49-.9-3.07-1.07-.6-2.38-.19-2.93.92-.56,1.09-.16,2.47.9,3.07h0Z"/>
        <path class="cls-13" d="M504.59,992.88c.9.5,2.03.16,2.5-.77s.14-2.11-.76-2.62c-.9-.5-2.03-.16-2.5.77h0c-.49.95-.15,2.12.76,2.62h0Z"/>
        <path class="cls-13" d="M507.75,985.77c.59.33,1.3.1,1.61-.51s.09-1.36-.5-1.69-1.3-.1-1.62.5c-.3.61-.07,1.37.5,1.71h0Z"/>
        <path class="cls-13" d="M505.93,1004.86c-2.04.06-3.64,1.84-3.55,3.97.07,2.13,1.79,3.82,3.83,3.74l.2-.02c2.02-.18,3.52-2.05,3.33-4.18-.16-2.03-1.84-3.58-3.81-3.52h0Z"/>
        <path class="cls-13" d="M489.22,1004.06c.74,1.24,2.08,1.95,3.48,1.83,2.02-.18,3.52-2.05,3.33-4.18-.05-.59-.24-1.18-.55-1.7-1.09-1.82-3.37-2.39-5.09-1.27-1.73,1.14-2.26,3.52-1.17,5.32h0Z"/>
        <path class="cls-13" d="M517.62,996.59c.71-.46.91-1.45.47-2.19s-1.39-.97-2.1-.5-.92,1.43-.48,2.18c.46.74,1.39.98,2.12.52h0Z"/>
        <path class="cls-13" d="M508.4,998.63c-1.01.66-1.33,2.05-.69,3.12.64,1.06,1.97,1.41,2.99.75s1.33-2.05.69-3.12-1.97-1.39-2.99-.75Z"/>
        <path class="cls-13" d="M495.19,986.3c.83-.03,1.49-.76,1.47-1.63s-.74-1.56-1.58-1.55c-.83.03-1.49.75-1.47,1.62.03.89.74,1.58,1.58,1.56h0Z"/>
        <path class="cls-13" d="M496.06,996.24c1.2-.03,2.14-1.08,2.08-2.33-.04-1.26-1.05-2.24-2.25-2.2-1.2.03-2.14,1.08-2.08,2.33.05,1.25,1.05,2.24,2.25,2.2h0Z"/>
        <path class="cls-13" d="M486.39,1020.37c1.01-.66,1.33-2.05.69-3.12-.64-1.06-1.97-1.41-2.99-.75s-1.33,2.05-.69,3.12c.64,1.06,1.97,1.41,2.99.75Z"/>
        <path class="cls-13" d="M497.75,999.42c-.95,1.88-.27,4.21,1.53,5.22s4.04.32,4.99-1.56.27-4.21-1.53-5.22c-.63-.36-1.35-.51-2.07-.45-1.24.11-2.33.87-2.92,2.01Z"/>
        <path class="cls-13" d="M505.57,1014.94c-1.09-1.82-3.37-2.39-5.09-1.27-1.74,1.12-2.26,3.5-1.17,5.31,1.09,1.82,3.37,2.39,5.09,1.27h0c1.72-1.1,2.26-3.45,1.19-5.28t-.02-.03Z"/>
        <path class="cls-13" d="M511.97,1014.1c-1.07-.6-2.38-.19-2.93.92-.56,1.11-.16,2.49.9,3.07,1.07.6,2.38.19,2.93-.92.56-1.09.16-2.47-.9-3.07h0Z"/>
        <path class="cls-13" d="M518.51,1007.7c-.04-1.07-.89-1.9-1.91-1.87-1.03.03-1.81.91-1.78,1.98s.89,1.9,1.91,1.87h0c1.01-.03,1.81-.93,1.78-1.98Z"/>
        <path class="cls-13" d="M523.48,1005.88c-.66.01-1.18.6-1.15,1.28s.58,1.24,1.24,1.21c.66-.01,1.17-.59,1.15-1.28-.03-.69-.58-1.22-1.24-1.21Z"/>
        <path class="cls-13" d="M519.78,1018.64c-.74-.41-1.66-.13-2.06.64-.39.77-.11,1.73.63,2.15.74.41,1.66.13,2.06-.64.4-.77.11-1.74-.63-2.15h0Z"/>
        <path class="cls-13" d="M487.03,1033.24c-.59-.33-1.3-.1-1.62.5-.31.61-.09,1.36.49,1.69.59.33,1.3.1,1.62-.5h0c.33-.6.1-1.36-.49-1.69Z"/>
        <path class="cls-13" d="M511.96,1030.91c-.56.36-.72,1.14-.38,1.72s1.1.76,1.65.41.72-1.12.38-1.71c-.35-.6-1.08-.79-1.65-.42.01,0,0,0,0,0Z"/>
        <path class="cls-13" d="M497.04,1019.58c.95-1.88.27-4.21-1.54-5.24-1.81-1.01-4.04-.32-5,1.56s-.27,4.21,1.54,5.24c.63.36,1.35.51,2.07.45,1.25-.1,2.35-.85,2.93-2.01Z"/>
        <path class="cls-13" d="M490.21,1026.13c-.9-.5-2.03-.16-2.5.77-.48.93-.14,2.11.76,2.62s2.03.16,2.5-.77h0c.49-.93.15-2.12-.76-2.62Z"/>
        <path class="cls-13" d="M499.44,1032.72c-.83.03-1.49.76-1.47,1.63s.74,1.56,1.58,1.55c.83-.03,1.49-.75,1.47-1.62-.03-.89-.74-1.58-1.58-1.56h0Z"/>
        <path class="cls-13" d="M498.57,1022.78c-1.2.03-2.14,1.08-2.08,2.33.04,1.26,1.05,2.24,2.25,2.2s2.14-1.08,2.08-2.33c-.04-1.24-1.05-2.24-2.25-2.2h0Z"/>
        <path class="cls-13" d="M507.63,1024.43c-.86.57-1.12,1.76-.57,2.66s1.69,1.19,2.55.62c.86-.55,1.12-1.74.59-2.65-.55-.9-1.69-1.2-2.57-.63h0Z"/>
      </g>
    </g>
  </g>
  <g>
    <path class="cls-11" d="M647.25,1058.47c-33.61.94-72.49,4.17-115.21,11.71-43.97,7.76-82.6,18.44-115.17,29.44-5.14-16.35-10.05-34.31-14.29-53.75-3.61-16.53-6.34-32.24-8.39-46.98,34.54-10.81,73.38-21.12,116.17-29.61,42.49-8.43,82.08-13.7,117.93-16.89,4.35,16.83,8.41,35.11,11.85,54.7,3.17,18.08,5.46,35.26,7.1,51.39h0Z"/>
    <ellipse class="cls-16" cx="509.33" cy="1020.6" rx="29.92" ry="32.72" transform="translate(-171.46 105.42) rotate(-10.12)"/>
    <path class="cls-16" d="M418.84,1086.34c-.36-1.3.34-2.66,1.63-3.09,30.13-10.19,65.4-20.03,105.27-27.48,40.16-7.51,76.88-11.08,108.81-12.45,1.28-.06,2.39.86,2.61,2.12l.53,3.13c.26,1.51-.85,2.88-2.37,2.95-31.99,1.55-68.42,5.24-108.12,12.62-39.25,7.29-74.19,16.8-104.33,26.7-1.38.45-2.84-.33-3.22-1.72l-.78-2.75-.02-.03Z"/>
    <path class="cls-16" d="M400.58,1006.38c-.39-1.33.34-2.71,1.65-3.13,31.8-10.22,67.88-20,107.86-27.92,40.33-7.99,77.71-12.72,111.24-15.4,1.3-.11,2.47.8,2.69,2.09l.56,3.1c.27,1.49-.81,2.87-2.31,2.97-33.02,2.33-70.15,6.78-110.35,14.68-40.03,7.87-75.94,17.74-107.3,28.02-1.36.45-2.81-.32-3.22-1.7-.27-.91-.53-1.81-.81-2.72h-.01Z"/>
    <ellipse class="cls-16" cx="586.05" cy="1008.13" rx="9.97" ry="10.9" transform="translate(-168.08 118.71) rotate(-10.12)"/>
    <ellipse class="cls-16" cx="436.47" cy="1038.57" rx="9.97" ry="10.9" transform="translate(-175.76 92.89) rotate(-10.12)"/>
    <g id="Layer_2-5" data-name="Layer 2">
      <g id="Layer_1-2-5" data-name="Layer 1-2">
        <path class="cls-13" d="M498.53,1022.56c.07,2.13,1.79,3.8,3.83,3.74l.22-.02c2.04-.18,3.53-2.05,3.33-4.18-.19-2.13-1.99-3.71-4.03-3.51-1.95.17-3.43,1.92-3.35,3.97Z"/>
        <path class="cls-13" d="M484.72,1022.79c-.66.01-1.18.6-1.15,1.28s.58,1.24,1.24,1.21c.66-.01,1.17-.59,1.15-1.28-.02-.69-.58-1.22-1.24-1.21h0Z"/>
        <path class="cls-13" d="M496.32,1000.25c.56-.36.72-1.14.38-1.72s-1.1-.76-1.65-.41-.72,1.12-.38,1.71c.35.6,1.08.79,1.65.42-.01,0,0,0,0,0Z"/>
        <path class="cls-13" d="M500.65,1006.73c.86-.55,1.12-1.74.59-2.65s-1.68-1.19-2.54-.63-1.12,1.74-.59,2.65c.54.9,1.68,1.19,2.54.63Z"/>
        <path class="cls-13" d="M488.51,1012.52c.74.41,1.66.13,2.06-.64.39-.77.11-1.73-.63-2.15-.74-.41-1.66-.13-2.06.64h0c-.4.77-.11,1.74.63,2.15Z"/>
        <path class="cls-13" d="M491.55,1021.49c-1.03.03-1.81.91-1.78,1.98s.89,1.9,1.91,1.87c1.03-.03,1.81-.91,1.78-1.98h0c-.03-1.06-.89-1.9-1.91-1.87Z"/>
        <path class="cls-13" d="M490.67,1034.57c-.71.46-.93,1.43-.48,2.19.45.74,1.38.98,2.1.52.71-.46.93-1.43.48-2.19h0c-.45-.74-1.39-.98-2.1-.52h0Z"/>
        <path class="cls-13" d="M496.31,1017.06c1.07.6,2.38.19,2.93-.92.56-1.11.16-2.49-.9-3.07-1.07-.6-2.38-.19-2.93.92-.56,1.09-.16,2.47.9,3.07h0Z"/>
        <path class="cls-13" d="M518.08,1005.03c.9.5,2.03.16,2.5-.77s.14-2.11-.76-2.62c-.9-.5-2.03-.16-2.5.77h0c-.49.95-.15,2.12.76,2.62h0Z"/>
        <path class="cls-13" d="M521.23,997.92c.59.33,1.3.1,1.61-.51s.09-1.36-.5-1.69-1.3-.1-1.62.5c-.3.61-.07,1.37.5,1.71h0Z"/>
        <path class="cls-13" d="M519.42,1017.01c-2.04.06-3.64,1.84-3.55,3.97.07,2.13,1.79,3.82,3.83,3.74l.2-.02c2.02-.18,3.52-2.05,3.33-4.18-.16-2.03-1.84-3.58-3.81-3.52h0Z"/>
        <path class="cls-13" d="M502.71,1016.22c.74,1.24,2.08,1.95,3.48,1.83,2.02-.18,3.52-2.05,3.33-4.18-.05-.59-.24-1.18-.55-1.7-1.09-1.82-3.37-2.39-5.09-1.27-1.73,1.14-2.26,3.52-1.17,5.32h0Z"/>
        <path class="cls-13" d="M531.1,1008.75c.71-.46.91-1.45.47-2.19s-1.39-.97-2.1-.5-.92,1.43-.48,2.18c.46.74,1.39.98,2.12.52h0Z"/>
        <path class="cls-13" d="M521.89,1010.79c-1.01.66-1.33,2.05-.69,3.12.64,1.06,1.97,1.41,2.99.75s1.33-2.05.69-3.12-1.97-1.39-2.99-.75Z"/>
        <path class="cls-13" d="M508.68,998.45c.83-.03,1.49-.76,1.47-1.63s-.74-1.56-1.58-1.55c-.83.03-1.49.75-1.47,1.62.03.89.74,1.58,1.58,1.56h0Z"/>
        <path class="cls-13" d="M509.55,1008.4c1.2-.03,2.14-1.08,2.08-2.33-.04-1.26-1.05-2.24-2.25-2.2-1.2.03-2.14,1.08-2.08,2.33.05,1.25,1.05,2.24,2.25,2.2h0Z"/>
        <path class="cls-13" d="M499.88,1032.53c1.01-.66,1.33-2.05.69-3.12-.64-1.06-1.97-1.41-2.99-.75s-1.33,2.05-.69,3.12c.64,1.06,1.97,1.41,2.99.75Z"/>
        <path class="cls-13" d="M511.24,1011.58c-.95,1.88-.27,4.21,1.53,5.22s4.04.32,4.99-1.56.27-4.21-1.53-5.22c-.63-.36-1.35-.51-2.07-.45-1.24.11-2.33.87-2.92,2.01Z"/>
        <path class="cls-13" d="M519.06,1027.1c-1.09-1.82-3.37-2.39-5.09-1.27-1.74,1.12-2.26,3.5-1.17,5.31,1.09,1.82,3.37,2.39,5.09,1.27h0c1.72-1.1,2.26-3.45,1.19-5.28t-.02-.03Z"/>
        <path class="cls-13" d="M525.46,1026.25c-1.07-.6-2.38-.19-2.93.92-.56,1.11-.16,2.49.9,3.07,1.07.6,2.38.19,2.93-.92.56-1.09.16-2.47-.9-3.07h0Z"/>
        <path class="cls-13" d="M532,1019.86c-.04-1.07-.89-1.9-1.91-1.87-1.03.03-1.81.91-1.78,1.98s.89,1.9,1.91,1.87h0c1.01-.03,1.81-.93,1.78-1.98Z"/>
        <path class="cls-13" d="M536.96,1018.03c-.66.01-1.18.6-1.15,1.28s.58,1.24,1.24,1.21c.66-.01,1.17-.59,1.15-1.28-.03-.69-.58-1.22-1.24-1.21Z"/>
        <path class="cls-13" d="M533.26,1030.8c-.74-.41-1.66-.13-2.06.64-.39.77-.11,1.73.63,2.15.74.41,1.66.13,2.06-.64.4-.77.11-1.74-.63-2.15h0Z"/>
        <path class="cls-13" d="M500.52,1045.39c-.59-.33-1.3-.1-1.62.5-.31.61-.09,1.36.49,1.69.59.33,1.3.1,1.62-.5h0c.33-.6.1-1.36-.49-1.69Z"/>
        <path class="cls-13" d="M525.45,1043.06c-.56.36-.72,1.14-.38,1.72s1.1.76,1.65.41.72-1.12.38-1.71c-.35-.6-1.08-.79-1.65-.42.01,0,0,0,0,0Z"/>
        <path class="cls-13" d="M510.53,1031.74c.95-1.88.27-4.21-1.54-5.24-1.81-1.01-4.04-.32-5,1.56s-.27,4.21,1.54,5.24c.63.36,1.35.51,2.07.45,1.25-.1,2.35-.85,2.93-2.01Z"/>
        <path class="cls-13" d="M503.7,1038.28c-.9-.5-2.03-.16-2.5.77-.48.93-.14,2.11.76,2.62s2.03.16,2.5-.77h0c.49-.93.15-2.12-.76-2.62Z"/>
        <path class="cls-13" d="M512.93,1044.88c-.83.03-1.49.76-1.47,1.63s.74,1.56,1.58,1.55c.83-.03,1.49-.75,1.47-1.62-.03-.89-.74-1.58-1.58-1.56h0Z"/>
        <path class="cls-13" d="M512.06,1034.93c-1.2.03-2.14,1.08-2.08,2.33.04,1.26,1.05,2.24,2.25,2.2s2.14-1.08,2.08-2.33c-.04-1.24-1.05-2.24-2.25-2.2h0Z"/>
        <path class="cls-13" d="M521.12,1036.58c-.86.57-1.12,1.76-.57,2.66s1.69,1.19,2.55.62c.86-.55,1.12-1.74.59-2.65-.55-.9-1.69-1.2-2.57-.63h0Z"/>
      </g>
    </g>
  </g>
  <g>
    <path class="cls-11" d="M665.41,1069.4c-33.61.94-72.49,4.17-115.21,11.71-43.97,7.76-82.6,18.44-115.17,29.44-5.14-16.35-10.05-34.31-14.29-53.75-3.61-16.53-6.34-32.24-8.39-46.98,34.54-10.81,73.38-21.12,116.17-29.61,42.49-8.43,82.08-13.7,117.93-16.89,4.35,16.83,8.41,35.11,11.85,54.7,3.17,18.08,5.46,35.26,7.1,51.39h0Z"/>
    <ellipse class="cls-16" cx="527.5" cy="1031.53" rx="29.92" ry="32.72" transform="translate(-173.1 108.78) rotate(-10.12)"/>
    <path class="cls-16" d="M437,1097.26c-.36-1.3.34-2.66,1.63-3.09,30.13-10.19,65.4-20.03,105.27-27.48,40.16-7.51,76.88-11.08,108.81-12.45,1.28-.06,2.39.86,2.61,2.12l.53,3.13c.26,1.51-.85,2.88-2.37,2.95-31.99,1.55-68.42,5.24-108.12,12.62-39.25,7.29-74.19,16.8-104.33,26.7-1.38.45-2.84-.33-3.22-1.72l-.78-2.75-.02-.03Z"/>
    <path class="cls-16" d="M418.74,1017.31c-.39-1.33.34-2.71,1.65-3.13,31.8-10.22,67.88-20,107.86-27.92,40.33-7.99,77.71-12.72,111.24-15.4,1.3-.11,2.47.8,2.69,2.09l.56,3.1c.27,1.49-.81,2.87-2.31,2.97-33.02,2.33-70.15,6.78-110.35,14.68-40.03,7.87-75.94,17.74-107.3,28.02-1.36.45-2.81-.32-3.22-1.7-.27-.91-.53-1.81-.81-2.72h-.01Z"/>
    <ellipse class="cls-16" cx="604.22" cy="1019.06" rx="9.97" ry="10.9" transform="translate(-169.72 122.07) rotate(-10.12)"/>
    <ellipse class="cls-16" cx="454.63" cy="1049.5" rx="9.97" ry="10.9" transform="translate(-177.4 96.25) rotate(-10.12)"/>
    <g id="Layer_2-6" data-name="Layer 2">
      <g id="Layer_1-2-6" data-name="Layer 1-2">
        <path class="cls-13" d="M516.69,1033.49c.07,2.13,1.79,3.8,3.83,3.74l.22-.02c2.04-.18,3.53-2.05,3.33-4.18-.19-2.13-1.99-3.71-4.03-3.51-1.95.17-3.43,1.92-3.35,3.97Z"/>
        <path class="cls-13" d="M502.88,1033.71c-.66.01-1.18.6-1.15,1.28s.58,1.24,1.24,1.21c.66-.01,1.17-.59,1.15-1.28-.02-.69-.58-1.22-1.24-1.21h0Z"/>
        <path class="cls-13" d="M514.48,1011.18c.56-.36.72-1.14.38-1.72s-1.1-.76-1.65-.41-.72,1.12-.38,1.71c.35.6,1.08.79,1.65.42-.01,0,0,0,0,0Z"/>
        <path class="cls-13" d="M518.81,1017.66c.86-.55,1.12-1.74.59-2.65s-1.68-1.19-2.54-.63-1.12,1.74-.59,2.65c.54.9,1.68,1.19,2.54.63Z"/>
        <path class="cls-13" d="M506.67,1023.45c.74.41,1.66.13,2.06-.64.39-.77.11-1.73-.63-2.15-.74-.41-1.66-.13-2.06.64h0c-.4.77-.11,1.74.63,2.15Z"/>
        <path class="cls-13" d="M509.71,1032.42c-1.03.03-1.81.91-1.78,1.98s.89,1.9,1.91,1.87c1.03-.03,1.81-.91,1.78-1.98h0c-.03-1.06-.89-1.9-1.91-1.87Z"/>
        <path class="cls-13" d="M508.83,1045.5c-.71.46-.93,1.43-.48,2.19.45.74,1.38.98,2.1.52.71-.46.93-1.43.48-2.19h0c-.45-.74-1.39-.98-2.1-.52h0Z"/>
        <path class="cls-13" d="M514.47,1027.99c1.07.6,2.38.19,2.93-.92.56-1.11.16-2.49-.9-3.07-1.07-.6-2.38-.19-2.93.92-.56,1.09-.16,2.47.9,3.07h0Z"/>
        <path class="cls-13" d="M536.24,1015.96c.9.5,2.03.16,2.5-.77s.14-2.11-.76-2.62c-.9-.5-2.03-.16-2.5.77h0c-.49.95-.15,2.12.76,2.62h0Z"/>
        <path class="cls-13" d="M539.4,1008.85c.59.33,1.3.1,1.61-.51s.09-1.36-.5-1.69-1.3-.1-1.62.5c-.3.61-.07,1.37.5,1.71h0Z"/>
        <path class="cls-13" d="M537.58,1027.94c-2.04.06-3.64,1.84-3.55,3.97.07,2.13,1.79,3.82,3.83,3.74l.2-.02c2.02-.18,3.52-2.05,3.33-4.18-.16-2.03-1.84-3.58-3.81-3.52h0Z"/>
        <path class="cls-13" d="M520.87,1027.15c.74,1.24,2.08,1.95,3.48,1.83,2.02-.18,3.52-2.05,3.33-4.18-.05-.59-.24-1.18-.55-1.7-1.09-1.82-3.37-2.39-5.09-1.27-1.73,1.14-2.26,3.52-1.17,5.32h0Z"/>
        <path class="cls-13" d="M549.27,1019.67c.71-.46.91-1.45.47-2.19s-1.39-.97-2.1-.5-.92,1.43-.48,2.18c.46.74,1.39.98,2.12.52h0Z"/>
        <path class="cls-13" d="M540.05,1021.72c-1.01.66-1.33,2.05-.69,3.12.64,1.06,1.97,1.41,2.99.75s1.33-2.05.69-3.12-1.97-1.39-2.99-.75Z"/>
        <path class="cls-13" d="M526.85,1009.38c.83-.03,1.49-.76,1.47-1.63s-.74-1.56-1.58-1.55c-.83.03-1.49.75-1.47,1.62.03.89.74,1.58,1.58,1.56h0Z"/>
        <path class="cls-13" d="M527.71,1019.33c1.2-.03,2.14-1.08,2.08-2.33-.04-1.26-1.05-2.24-2.25-2.2-1.2.03-2.14,1.08-2.08,2.33.05,1.25,1.05,2.24,2.25,2.2h0Z"/>
        <path class="cls-13" d="M518.05,1043.45c1.01-.66,1.33-2.05.69-3.12-.64-1.06-1.97-1.41-2.99-.75s-1.33,2.05-.69,3.12c.64,1.06,1.97,1.41,2.99.75Z"/>
        <path class="cls-13" d="M529.4,1022.51c-.95,1.88-.27,4.21,1.53,5.22s4.04.32,4.99-1.56.27-4.21-1.53-5.22c-.63-.36-1.35-.51-2.07-.45-1.24.11-2.33.87-2.92,2.01Z"/>
        <path class="cls-13" d="M537.22,1038.02c-1.09-1.82-3.37-2.39-5.09-1.27-1.74,1.12-2.26,3.5-1.17,5.31,1.09,1.82,3.37,2.39,5.09,1.27h0c1.72-1.1,2.26-3.45,1.19-5.28t-.02-.03Z"/>
        <path class="cls-13" d="M543.63,1037.18c-1.07-.6-2.38-.19-2.93.92-.56,1.11-.16,2.49.9,3.07,1.07.6,2.38.19,2.93-.92.56-1.09.16-2.47-.9-3.07h0Z"/>
        <path class="cls-13" d="M550.16,1030.78c-.04-1.07-.89-1.9-1.91-1.87-1.03.03-1.81.91-1.78,1.98s.89,1.9,1.91,1.87h0c1.01-.03,1.81-.93,1.78-1.98Z"/>
        <path class="cls-13" d="M555.13,1028.96c-.66.01-1.18.6-1.15,1.28s.58,1.24,1.24,1.21c.66-.01,1.17-.59,1.15-1.28-.03-.69-.58-1.22-1.24-1.21Z"/>
        <path class="cls-13" d="M551.43,1041.72c-.74-.41-1.66-.13-2.06.64-.39.77-.11,1.73.63,2.15.74.41,1.66.13,2.06-.64.4-.77.11-1.74-.63-2.15h0Z"/>
        <path class="cls-13" d="M518.69,1056.32c-.59-.33-1.3-.1-1.62.5-.31.61-.09,1.36.49,1.69.59.33,1.3.1,1.62-.5h0c.33-.6.1-1.36-.49-1.69Z"/>
        <path class="cls-13" d="M543.62,1053.99c-.56.36-.72,1.14-.38,1.72s1.1.76,1.65.41.72-1.12.38-1.71c-.35-.6-1.08-.79-1.65-.42.01,0,0,0,0,0Z"/>
        <path class="cls-13" d="M528.69,1042.66c.95-1.88.27-4.21-1.54-5.24-1.81-1.01-4.04-.32-5,1.56s-.27,4.21,1.54,5.24c.63.36,1.35.51,2.07.45,1.25-.1,2.35-.85,2.93-2.01Z"/>
        <path class="cls-13" d="M521.86,1049.21c-.9-.5-2.03-.16-2.5.77-.48.93-.14,2.11.76,2.62s2.03.16,2.5-.77h0c.49-.93.15-2.12-.76-2.62Z"/>
        <path class="cls-13" d="M531.09,1055.81c-.83.03-1.49.76-1.47,1.63s.74,1.56,1.58,1.55c.83-.03,1.49-.75,1.47-1.62-.03-.89-.74-1.58-1.58-1.56h0Z"/>
        <path class="cls-13" d="M530.23,1045.86c-1.2.03-2.14,1.08-2.08,2.33.04,1.26,1.05,2.24,2.25,2.2s2.14-1.08,2.08-2.33c-.04-1.24-1.05-2.24-2.25-2.2h0Z"/>
        <path class="cls-13" d="M539.28,1047.51c-.86.57-1.12,1.76-.57,2.66s1.69,1.19,2.55.62c.86-.55,1.12-1.74.59-2.65-.55-.9-1.69-1.2-2.57-.63h0Z"/>
      </g>
    </g>
  </g>
  <g>
    <path class="cls-11" d="M21.2,571.15c33.61-.94,72.49-4.17,115.21-11.71,43.97-7.76,82.6-18.44,115.17-29.44,5.14,16.35,10.05,34.31,14.29,53.75,3.61,16.53,6.34,32.24,8.39,46.98-34.54,10.81-73.38,21.12-116.17,29.61-42.49,8.43-82.08,13.7-117.93,16.89-4.35-16.83-8.41-35.11-11.85-54.7-3.17-18.08-5.46-35.26-7.1-51.39h0Z"/>
    <ellipse class="cls-16" cx="159.12" cy="609.02" rx="29.92" ry="32.72" transform="translate(-104.57 37.45) rotate(-10.12)"/>
    <path class="cls-16" d="M249.61,543.28c.36,1.3-.34,2.66-1.63,3.09-30.13,10.19-65.4,20.03-105.27,27.48-40.16,7.51-76.88,11.08-108.81,12.45-1.28.06-2.39-.86-2.61-2.12l-.53-3.13c-.26-1.51.85-2.88,2.37-2.95,31.99-1.55,68.42-5.24,108.12-12.62,39.25-7.29,74.19-16.8,104.33-26.7,1.38-.45,2.84.33,3.22,1.72l.78,2.75.02.03Z"/>
    <path class="cls-16" d="M267.87,623.24c.39,1.33-.34,2.71-1.65,3.13-31.8,10.22-67.88,20-107.86,27.92-40.33,7.99-77.71,12.72-111.24,15.4-1.3.11-2.47-.8-2.69-2.09l-.56-3.1c-.27-1.49.81-2.87,2.31-2.97,33.02-2.33,70.15-6.78,110.35-14.68,40.03-7.87,75.94-17.74,107.3-28.02,1.36-.45,2.81.32,3.22,1.7.27.91.53,1.81.81,2.72h.01Z"/>
    <ellipse class="cls-16" cx="82.4" cy="621.49" rx="9.97" ry="10.9" transform="translate(-107.96 24.16) rotate(-10.12)"/>
    <ellipse class="cls-16" cx="231.98" cy="591.05" rx="9.97" ry="10.9" transform="translate(-100.28 49.98) rotate(-10.12)"/>
    <g id="Layer_2-7" data-name="Layer 2">
      <g id="Layer_1-2-7" data-name="Layer 1-2">
        <path class="cls-13" d="M169.92,607.06c-.07-2.13-1.79-3.8-3.83-3.74l-.22.02c-2.04.18-3.53,2.05-3.33,4.18.19,2.13,1.99,3.71,4.03,3.51,1.95-.17,3.43-1.92,3.35-3.97Z"/>
        <path class="cls-13" d="M183.73,606.83c.66-.01,1.18-.6,1.15-1.28s-.58-1.24-1.24-1.21c-.66.01-1.17.59-1.15,1.28.02.69.58,1.22,1.24,1.21h0Z"/>
        <path class="cls-13" d="M172.13,629.37c-.56.36-.72,1.14-.38,1.72s1.1.76,1.65.41.72-1.12.38-1.71c-.35-.6-1.08-.79-1.65-.42.01,0,0,0,0,0Z"/>
        <path class="cls-13" d="M167.8,622.89c-.86.55-1.12,1.74-.59,2.65s1.68,1.19,2.54.63,1.12-1.74.59-2.65c-.54-.9-1.68-1.19-2.54-.63Z"/>
        <path class="cls-13" d="M179.94,617.1c-.74-.41-1.66-.13-2.06.64-.39.77-.11,1.73.63,2.15.74.41,1.66.13,2.06-.64h0c.4-.77.11-1.74-.63-2.15Z"/>
        <path class="cls-13" d="M176.9,608.13c1.03-.03,1.81-.91,1.78-1.98s-.89-1.9-1.91-1.87c-1.03.03-1.81.91-1.78,1.98h0c.03,1.06.89,1.9,1.91,1.87Z"/>
        <path class="cls-13" d="M177.78,595.05c.71-.46.93-1.43.48-2.19-.45-.74-1.38-.98-2.1-.52-.71.46-.93,1.43-.48,2.19h0c.45.74,1.39.98,2.1.52h0Z"/>
        <path class="cls-13" d="M172.14,612.56c-1.07-.6-2.38-.19-2.93.92-.56,1.11-.16,2.49.9,3.07,1.07.6,2.38.19,2.93-.92.56-1.09.16-2.47-.9-3.07h0Z"/>
        <path class="cls-13" d="M150.37,624.59c-.9-.5-2.03-.16-2.5.77s-.14,2.11.76,2.62c.9.5,2.03.16,2.5-.77h0c.49-.95.15-2.12-.76-2.62h0Z"/>
        <path class="cls-13" d="M147.22,631.7c-.59-.33-1.3-.1-1.61.51s-.09,1.36.5,1.69,1.3.1,1.62-.5c.3-.61.07-1.37-.5-1.71h0Z"/>
        <path class="cls-13" d="M149.03,612.61c2.04-.06,3.64-1.84,3.55-3.97-.07-2.13-1.79-3.82-3.83-3.74l-.2.02c-2.02.18-3.52,2.05-3.33,4.18.16,2.03,1.84,3.58,3.81,3.52h0Z"/>
        <path class="cls-13" d="M165.74,613.4c-.74-1.24-2.08-1.95-3.48-1.83-2.02.18-3.52,2.05-3.33,4.18.05.59.24,1.18.55,1.7,1.09,1.82,3.37,2.39,5.09,1.27,1.73-1.14,2.26-3.52,1.17-5.32h0Z"/>
        <path class="cls-13" d="M137.35,620.88c-.71.46-.91,1.45-.47,2.19s1.39.97,2.1.5.92-1.43.48-2.18c-.46-.74-1.39-.98-2.12-.52h0Z"/>
        <path class="cls-13" d="M146.56,618.83c1.01-.66,1.33-2.05.69-3.12-.64-1.06-1.97-1.41-2.99-.75s-1.33,2.05-.69,3.12,1.97,1.39,2.99.75Z"/>
        <path class="cls-13" d="M159.77,631.17c-.83.03-1.49.76-1.47,1.63s.74,1.56,1.58,1.55c.83-.03,1.49-.75,1.47-1.62-.03-.89-.74-1.58-1.58-1.56h0Z"/>
        <path class="cls-13" d="M158.9,621.22c-1.2.03-2.14,1.08-2.08,2.33.04,1.26,1.05,2.24,2.25,2.2,1.2-.03,2.14-1.08,2.08-2.33-.05-1.25-1.05-2.24-2.25-2.2h0Z"/>
        <path class="cls-13" d="M168.57,597.09c-1.01.66-1.33,2.05-.69,3.12.64,1.06,1.97,1.41,2.99.75s1.33-2.05.69-3.12c-.64-1.06-1.97-1.41-2.99-.75Z"/>
        <path class="cls-13" d="M157.21,618.04c.95-1.88.27-4.21-1.53-5.22s-4.04-.32-4.99,1.56-.27,4.21,1.53,5.22c.63.36,1.35.51,2.07.45,1.24-.11,2.33-.87,2.92-2.01Z"/>
        <path class="cls-13" d="M149.39,602.52c1.09,1.82,3.37,2.39,5.09,1.27,1.74-1.12,2.26-3.5,1.17-5.31-1.09-1.82-3.37-2.39-5.09-1.27h0c-1.72,1.1-2.26,3.45-1.19,5.28t.02.03Z"/>
        <path class="cls-13" d="M142.99,603.37c1.07.6,2.38.19,2.93-.92.56-1.11.16-2.49-.9-3.07-1.07-.6-2.38-.19-2.93.92-.56,1.09-.16,2.47.9,3.07h0Z"/>
        <path class="cls-13" d="M136.45,609.77c.04,1.07.89,1.9,1.91,1.87,1.03-.03,1.81-.91,1.78-1.98s-.89-1.9-1.91-1.87h0c-1.01.03-1.81.93-1.78,1.98Z"/>
        <path class="cls-13" d="M131.49,611.59c.66-.01,1.18-.6,1.15-1.28s-.58-1.24-1.24-1.21c-.66.01-1.17.59-1.15,1.28.03.69.58,1.22,1.24,1.21Z"/>
        <path class="cls-13" d="M135.19,598.82c.74.41,1.66.13,2.06-.64.39-.77.11-1.73-.63-2.15-.74-.41-1.66-.13-2.06.64-.4.77-.11,1.74.63,2.15h0Z"/>
        <path class="cls-13" d="M167.93,584.23c.59.33,1.3.1,1.62-.5.31-.61.09-1.36-.49-1.69-.59-.33-1.3-.1-1.62.5h0c-.33.6-.1,1.36.49,1.69Z"/>
        <path class="cls-13" d="M143,586.56c.56-.36.72-1.14.38-1.72s-1.1-.76-1.65-.41-.72,1.12-.38,1.71c.35.6,1.08.79,1.65.42-.01,0,0,0,0,0Z"/>
        <path class="cls-13" d="M157.92,597.88c-.95,1.88-.27,4.21,1.54,5.24,1.81,1.01,4.04.32,5-1.56s.27-4.21-1.54-5.24c-.63-.36-1.35-.51-2.07-.45-1.25.1-2.35.85-2.93,2.01Z"/>
        <path class="cls-13" d="M164.75,591.34c.9.5,2.03.16,2.5-.77.48-.93.14-2.11-.76-2.62s-2.03-.16-2.5.77h0c-.49.93-.15,2.12.76,2.62Z"/>
        <path class="cls-13" d="M155.52,584.74c.83-.03,1.49-.76,1.47-1.63s-.74-1.56-1.58-1.55c-.83.03-1.49.75-1.47,1.62.03.89.74,1.58,1.58,1.56h0Z"/>
        <path class="cls-13" d="M156.39,594.69c1.2-.03,2.14-1.08,2.08-2.33-.04-1.26-1.05-2.24-2.25-2.2s-2.14,1.08-2.08,2.33c.04,1.24,1.05,2.24,2.25,2.2h0Z"/>
        <path class="cls-13" d="M147.33,593.04c.86-.57,1.12-1.76.57-2.66s-1.69-1.19-2.55-.62c-.86.55-1.12,1.74-.59,2.65.55.9,1.69,1.2,2.57.63h0Z"/>
      </g>
    </g>
  </g>
  <g>
    <path class="cls-11" d="M1061.77,699.55c33.26-4.96,71.47-12.82,112.98-25.43,42.72-12.97,79.79-28.2,110.81-43.02,7.06,15.62,14.08,32.86,20.62,51.66,5.57,15.98,10.16,31.25,13.96,45.64-33,14.87-70.33,29.76-111.79,43.31-41.17,13.46-79.85,23.43-115.06,30.9-6.34-16.19-12.56-33.85-18.32-52.89-5.31-17.57-9.65-34.36-13.2-50.17h0Z"/>
    <ellipse class="cls-16" cx="1203.22" cy="720.63" rx="29.92" ry="32.72" transform="translate(-158.14 383.35) rotate(-17)"/>
    <path class="cls-16" d="M1285.19,644.53c.52,1.25-.02,2.68-1.24,3.26-28.69,13.72-62.53,27.72-101.22,39.9-38.97,12.27-75,20.21-106.54,25.39-1.26.21-2.48-.57-2.85-1.79l-.9-3.05c-.44-1.46.49-2.96,2-3.21,31.57-5.38,67.3-13.39,105.83-25.48,38.09-11.94,71.65-25.57,100.38-39,1.31-.61,2.86-.02,3.41,1.33l1.1,2.64.02.02Z"/>
    <path class="cls-16" d="M1312.9,721.72c.55,1.27-.01,2.74-1.26,3.31-30.35,13.96-65,27.99-103.74,40.64-39.08,12.76-75.62,21.94-108.59,28.62-1.27.27-2.54-.5-2.92-1.75l-.93-3.01c-.45-1.45.46-2.94,1.94-3.23,32.51-6.27,68.84-15.14,107.8-27.79,38.8-12.61,73.27-26.71,103.17-40.67,1.3-.61,2.83-.02,3.4,1.3.38.87.75,1.73,1.13,2.61v-.02Z"/>
    <ellipse class="cls-16" cx="1128.55" cy="742.2" rx="9.97" ry="10.9" transform="translate(-167.71 362.46) rotate(-17)"/>
    <ellipse class="cls-16" cx="1273.41" cy="694.06" rx="9.97" ry="10.9" transform="translate(-147.3 402.72) rotate(-17)"/>
    <g id="Layer_2-8" data-name="Layer 2">
      <g id="Layer_1-2-8" data-name="Layer 1-2">
        <path class="cls-13" d="M1213.72,717.39c-.33-2.1-2.23-3.56-4.25-3.26l-.21.05c-2,.42-3.26,2.46-2.81,4.55.44,2.09,2.42,3.44,4.42,3,1.92-.41,3.17-2.31,2.85-4.34Z"/>
        <path class="cls-13" d="M1227.4,715.51c.65-.09,1.1-.73.99-1.41s-.72-1.16-1.37-1.05c-.65.09-1.09.73-.99,1.41.1.68.72,1.14,1.37,1.05h0Z"/>
        <path class="cls-13" d="M1218.58,739.27c-.51.42-.58,1.22-.17,1.75s1.18.63,1.69.21.58-1.2.17-1.74c-.42-.55-1.17-.66-1.69-.22.01,0,0,0,0,0Z"/>
        <path class="cls-13" d="M1213.51,733.36c-.79.65-.91,1.86-.27,2.7s1.81.98,2.6.33.91-1.86.27-2.7c-.64-.83-1.81-.98-2.6-.33Z"/>
        <path class="cls-13" d="M1224.87,726.16c-.78-.32-1.66.07-1.97.88-.29.81.1,1.73.88,2.06.78.32,1.66-.07,1.97-.88h0c.31-.81-.1-1.74-.88-2.06Z"/>
        <path class="cls-13" d="M1220.78,717.62c1.01-.15,1.69-1.12,1.53-2.18s-1.11-1.78-2.12-1.63c-1.01.15-1.69,1.12-1.53,2.18h0c.16,1.04,1.11,1.78,2.12,1.63Z"/>
        <path class="cls-13" d="M1220.08,704.52c.65-.54.75-1.53.22-2.23-.53-.68-1.49-.81-2.15-.26-.65.54-.75,1.53-.22,2.23h0c.53.68,1.5.81,2.15.26h0Z"/>
        <path class="cls-13" d="M1216.58,722.58c-1.13-.46-2.39.1-2.8,1.26-.43,1.17.14,2.49,1.26,2.94,1.13.46,2.39-.1,2.8-1.26.43-1.15-.13-2.47-1.26-2.94h0Z"/>
        <path class="cls-13" d="M1196.41,737.13c-.95-.39-2.03.09-2.39,1.07s.12,2.12,1.07,2.51c.95.39,2.03-.09,2.39-1.07h0c.37-1-.1-2.12-1.07-2.51h0Z"/>
        <path class="cls-13" d="M1194.13,744.57c-.62-.26-1.3.06-1.54.7s.08,1.36.7,1.62,1.3-.06,1.54-.69c.22-.64-.1-1.37-.7-1.63h0Z"/>
        <path class="cls-13" d="M1193.65,725.4c2.01-.3,3.39-2.26,3.05-4.37-.33-2.1-2.24-3.57-4.25-3.26l-.2.04c-1.99.42-3.25,2.45-2.81,4.55.41,1.99,2.26,3.34,4.2,3.03h0Z"/>
        <path class="cls-13" d="M1210.33,724.19c-.88-1.14-2.3-1.69-3.67-1.4-1.99.42-3.25,2.45-2.81,4.55.12.58.38,1.14.75,1.62,1.3,1.68,3.63,1.97,5.21.65,1.59-1.34,1.82-3.76.53-5.43h0Z"/>
        <path class="cls-13" d="M1183.03,735.01c-.65.54-.73,1.55-.2,2.23s1.5.79,2.15.25.74-1.53.22-2.22c-.55-.68-1.5-.81-2.16-.26h0Z"/>
        <path class="cls-13" d="M1191.94,731.87c.93-.77,1.08-2.2.31-3.18-.76-.98-2.13-1.16-3.06-.39s-1.08,2.2-.31,3.18,2.13,1.14,3.06.39Z"/>
        <path class="cls-13" d="M1206.52,742.54c-.83.13-1.39.93-1.26,1.8s.92,1.46,1.75,1.35c.83-.13,1.39-.92,1.27-1.78-.14-.88-.93-1.48-1.75-1.36h0Z"/>
        <path class="cls-13" d="M1204.47,732.77c-1.19.17-1.99,1.33-1.79,2.57.19,1.24,1.31,2.1,2.5,1.91,1.19-.17,1.99-1.33,1.79-2.57-.2-1.24-1.31-2.1-2.5-1.91h0Z"/>
        <path class="cls-13" d="M1211.18,707.66c-.93.77-1.08,2.2-.31,3.18.76.98,2.13,1.16,3.06.39s1.08-2.2.31-3.18c-.76-.98-2.13-1.16-3.06-.39Z"/>
        <path class="cls-13" d="M1202.41,729.81c.72-1.98-.23-4.22-2.15-5s-4.05.17-4.76,2.15.23,4.22,2.15,5c.67.28,1.4.34,2.1.2,1.22-.26,2.21-1.14,2.66-2.34Z"/>
        <path class="cls-13" d="M1192.79,715.35c1.3,1.68,3.63,1.97,5.21.65,1.59-1.32,1.82-3.75.53-5.41-1.3-1.68-3.63-1.97-5.21-.65h0c-1.58,1.3-1.83,3.7-.55,5.38t.02.03Z"/>
        <path class="cls-13" d="M1186.54,716.95c1.13.46,2.39-.1,2.8-1.26.43-1.17-.14-2.49-1.26-2.94-1.13-.46-2.39.1-2.8,1.26-.43,1.15.13,2.47,1.26,2.94h0Z"/>
        <path class="cls-13" d="M1180.81,724.08c.16,1.06,1.11,1.78,2.12,1.63,1.01-.15,1.69-1.12,1.53-2.18s-1.11-1.78-2.12-1.63h0c-1,.15-1.69,1.14-1.53,2.18Z"/>
        <path class="cls-13" d="M1176.1,726.49c.65-.09,1.1-.73.99-1.41s-.72-1.16-1.37-1.05c-.65.09-1.09.73-.99,1.41.11.68.72,1.14,1.37,1.05Z"/>
        <path class="cls-13" d="M1178.25,713.37c.78.32,1.66-.07,1.97-.88.29-.81-.1-1.73-.88-2.06-.78-.32-1.66.07-1.97.88-.31.81.1,1.74.88,2.06h0Z"/>
        <path class="cls-13" d="M1209,694.96c.62.26,1.3-.06,1.54-.69.24-.64-.08-1.36-.69-1.62-.62-.26-1.3.06-1.54.69h0c-.25.63.06,1.36.69,1.62Z"/>
        <path class="cls-13" d="M1184.53,700.26c.51-.42.58-1.22.17-1.75s-1.18-.63-1.69-.21-.58,1.2-.17,1.74c.42.55,1.17.66,1.69.22-.01,0,0,0,0,0Z"/>
        <path class="cls-13" d="M1200.7,709.72c-.72,1.98.23,4.22,2.15,5.01,1.91.78,4.05-.17,4.78-2.15s-.23-4.22-2.15-5.01c-.67-.28-1.4-.34-2.1-.2-1.23.25-2.23,1.13-2.67,2.35Z"/>
        <path class="cls-13" d="M1206.7,702.4c.95.39,2.03-.09,2.39-1.07.36-.98-.12-2.12-1.07-2.51s-2.03.09-2.39,1.07h0c-.37.99.1,2.12,1.07,2.51Z"/>
        <path class="cls-13" d="M1196.75,696.96c.83-.13,1.39-.93,1.26-1.8s-.92-1.46-1.75-1.35c-.83.13-1.39.92-1.27,1.78.14.88.93,1.48,1.75,1.36h0Z"/>
        <path class="cls-13" d="M1198.8,706.73c1.19-.17,1.99-1.33,1.79-2.57-.19-1.24-1.31-2.1-2.5-1.91s-1.99,1.33-1.79,2.57c.18,1.23,1.31,2.1,2.5,1.91h0Z"/>
        <path class="cls-13" d="M1189.61,706.17c.79-.67.9-1.88.25-2.71s-1.82-.97-2.61-.31c-.79.65-.91,1.86-.27,2.7.65.83,1.82.99,2.62.32h0Z"/>
      </g>
    </g>
  </g>
  <g>
    <path class="cls-11" d="M295.22,229.83c33.61-.94,72.49-4.17,115.21-11.71,43.97-7.76,82.6-18.44,115.17-29.44,5.14,16.35,10.05,34.31,14.29,53.75,3.61,16.53,6.34,32.24,8.39,46.98-34.54,10.81-73.38,21.12-116.17,29.61-42.49,8.43-82.08,13.7-117.93,16.89-4.35-16.83-8.41-35.11-11.85-54.7-3.17-18.08-5.46-35.26-7.1-51.39h0Z"/>
    <ellipse class="cls-16" cx="433.14" cy="267.7" rx="29.92" ry="32.72" transform="translate(-40.31 80.3) rotate(-10.12)"/>
    <path class="cls-16" d="M523.63,201.96c.36,1.3-.34,2.66-1.63,3.09-30.13,10.19-65.4,20.03-105.27,27.48-40.16,7.51-76.88,11.08-108.81,12.45-1.28.06-2.39-.86-2.61-2.12l-.53-3.13c-.26-1.51.85-2.88,2.37-2.95,31.99-1.55,68.42-5.24,108.12-12.62,39.25-7.29,74.19-16.8,104.33-26.7,1.38-.45,2.84.33,3.22,1.72l.78,2.75.02.03Z"/>
    <path class="cls-16" d="M541.89,281.92c.39,1.33-.34,2.71-1.65,3.13-31.8,10.22-67.88,20-107.86,27.92-40.33,7.99-77.71,12.72-111.24,15.4-1.3.11-2.47-.8-2.69-2.09l-.56-3.1c-.27-1.49.81-2.87,2.31-2.97,33.02-2.33,70.15-6.78,110.35-14.68,40.03-7.87,75.94-17.74,107.3-28.02,1.36-.45,2.81.32,3.22,1.7.27.91.53,1.81.81,2.72h.01Z"/>
    <ellipse class="cls-16" cx="356.42" cy="280.17" rx="9.97" ry="10.9" transform="translate(-43.7 67.01) rotate(-10.12)"/>
    <ellipse class="cls-16" cx="506" cy="249.72" rx="9.97" ry="10.9" transform="translate(-36.02 92.83) rotate(-10.12)"/>
    <g id="Layer_2-9" data-name="Layer 2">
      <g id="Layer_1-2-9" data-name="Layer 1-2">
        <path class="cls-13" d="M443.94,265.74c-.07-2.13-1.79-3.8-3.83-3.74l-.22.02c-2.04.18-3.53,2.05-3.33,4.18.19,2.13,1.99,3.71,4.03,3.51,1.95-.17,3.43-1.92,3.35-3.97Z"/>
        <path class="cls-13" d="M457.75,265.51c.66-.01,1.18-.6,1.15-1.28s-.58-1.24-1.24-1.21c-.66.01-1.17.59-1.15,1.28.02.69.58,1.22,1.24,1.21h0Z"/>
        <path class="cls-13" d="M446.15,288.05c-.56.36-.72,1.14-.38,1.72s1.1.76,1.65.41.72-1.12.38-1.71c-.35-.6-1.08-.79-1.65-.42.01,0,0,0,0,0Z"/>
        <path class="cls-13" d="M441.82,281.57c-.86.55-1.12,1.74-.59,2.65s1.68,1.19,2.54.63,1.12-1.74.59-2.65c-.54-.9-1.68-1.19-2.54-.63Z"/>
        <path class="cls-13" d="M453.96,275.78c-.74-.41-1.66-.13-2.06.64-.39.77-.11,1.73.63,2.15.74.41,1.66.13,2.06-.64h0c.4-.77.11-1.74-.63-2.15Z"/>
        <path class="cls-13" d="M450.92,266.81c1.03-.03,1.81-.91,1.78-1.98s-.89-1.9-1.91-1.87c-1.03.03-1.81.91-1.78,1.98h0c.03,1.06.89,1.9,1.91,1.87Z"/>
        <path class="cls-13" d="M451.8,253.73c.71-.46.93-1.43.48-2.19-.45-.74-1.38-.98-2.1-.52-.71.46-.93,1.43-.48,2.19h0c.45.74,1.39.98,2.1.52h0Z"/>
        <path class="cls-13" d="M446.16,271.24c-1.07-.6-2.38-.19-2.93.92-.56,1.11-.16,2.49.9,3.07,1.07.6,2.38.19,2.93-.92.56-1.09.16-2.47-.9-3.07h0Z"/>
        <path class="cls-13" d="M424.39,283.27c-.9-.5-2.03-.16-2.5.77s-.14,2.11.76,2.62c.9.5,2.03.16,2.5-.77h0c.49-.95.15-2.12-.76-2.62h0Z"/>
        <path class="cls-13" d="M421.24,290.38c-.59-.33-1.3-.1-1.61.51s-.09,1.36.5,1.69,1.3.1,1.62-.5c.3-.61.07-1.37-.5-1.71h0Z"/>
        <path class="cls-13" d="M423.05,271.29c2.04-.06,3.64-1.84,3.55-3.97-.07-2.13-1.79-3.82-3.83-3.74l-.2.02c-2.02.18-3.52,2.05-3.33,4.18.16,2.03,1.84,3.58,3.81,3.52h0Z"/>
        <path class="cls-13" d="M439.76,272.08c-.74-1.24-2.08-1.95-3.48-1.83-2.02.18-3.52,2.05-3.33,4.18.05.59.24,1.18.55,1.7,1.09,1.82,3.37,2.39,5.09,1.27,1.73-1.14,2.26-3.52,1.17-5.32h0Z"/>
        <path class="cls-13" d="M411.37,279.55c-.71.46-.91,1.45-.47,2.19s1.39.97,2.1.5.92-1.43.48-2.18c-.46-.74-1.39-.98-2.12-.52h0Z"/>
        <path class="cls-13" d="M420.58,277.51c1.01-.66,1.33-2.05.69-3.12-.64-1.06-1.97-1.41-2.99-.75s-1.33,2.05-.69,3.12,1.97,1.39,2.99.75Z"/>
        <path class="cls-13" d="M433.79,289.85c-.83.03-1.49.76-1.47,1.63s.74,1.56,1.58,1.55c.83-.03,1.49-.75,1.47-1.62-.03-.89-.74-1.58-1.58-1.56h0Z"/>
        <path class="cls-13" d="M432.92,279.9c-1.2.03-2.14,1.08-2.08,2.33.04,1.26,1.05,2.24,2.25,2.2,1.2-.03,2.14-1.08,2.08-2.33-.05-1.25-1.05-2.24-2.25-2.2h0Z"/>
        <path class="cls-13" d="M442.59,255.77c-1.01.66-1.33,2.05-.69,3.12.64,1.06,1.97,1.41,2.99.75s1.33-2.05.69-3.12c-.64-1.06-1.97-1.41-2.99-.75Z"/>
        <path class="cls-13" d="M431.23,276.72c.95-1.88.27-4.21-1.53-5.22s-4.04-.32-4.99,1.56-.27,4.21,1.53,5.22c.63.36,1.35.51,2.07.45,1.24-.11,2.33-.87,2.92-2.01Z"/>
        <path class="cls-13" d="M423.41,261.2c1.09,1.82,3.37,2.39,5.09,1.27,1.74-1.12,2.26-3.5,1.17-5.31-1.09-1.82-3.37-2.39-5.09-1.27h0c-1.72,1.1-2.26,3.45-1.19,5.28t.02.03Z"/>
        <path class="cls-13" d="M417.01,262.05c1.07.6,2.38.19,2.93-.92.56-1.11.16-2.49-.9-3.07-1.07-.6-2.38-.19-2.93.92-.56,1.09-.16,2.47.9,3.07h0Z"/>
        <path class="cls-13" d="M410.47,268.44c.04,1.07.89,1.9,1.91,1.87,1.03-.03,1.81-.91,1.78-1.98s-.89-1.9-1.91-1.87h0c-1.01.03-1.81.93-1.78,1.98Z"/>
        <path class="cls-13" d="M405.51,270.26c.66-.01,1.18-.6,1.15-1.28s-.58-1.24-1.24-1.21c-.66.01-1.17.59-1.15,1.28.03.69.58,1.22,1.24,1.21Z"/>
        <path class="cls-13" d="M409.21,257.5c.74.41,1.66.13,2.06-.64.39-.77.11-1.73-.63-2.15-.74-.41-1.66-.13-2.06.64-.4.77-.11,1.74.63,2.15h0Z"/>
        <path class="cls-13" d="M441.95,242.9c.59.33,1.3.1,1.62-.5.31-.61.09-1.36-.49-1.69-.59-.33-1.3-.1-1.62.5h0c-.33.6-.1,1.36.49,1.69Z"/>
        <path class="cls-13" d="M417.02,245.24c.56-.36.72-1.14.38-1.72s-1.1-.76-1.65-.41-.72,1.12-.38,1.71c.35.6,1.08.79,1.65.42-.01,0,0,0,0,0Z"/>
        <path class="cls-13" d="M431.94,256.56c-.95,1.88-.27,4.21,1.54,5.24,1.81,1.01,4.04.32,5-1.56s.27-4.21-1.54-5.24c-.63-.36-1.35-.51-2.07-.45-1.25.1-2.35.85-2.93,2.01Z"/>
        <path class="cls-13" d="M438.77,250.02c.9.5,2.03.16,2.5-.77.48-.93.14-2.11-.76-2.62s-2.03-.16-2.5.77h0c-.49.93-.15,2.12.76,2.62Z"/>
        <path class="cls-13" d="M429.54,243.42c.83-.03,1.49-.76,1.47-1.63s-.74-1.56-1.58-1.55c-.83.03-1.49.75-1.47,1.62.03.89.74,1.58,1.58,1.56h0Z"/>
        <path class="cls-13" d="M430.41,253.37c1.2-.03,2.14-1.08,2.08-2.33-.04-1.26-1.05-2.24-2.25-2.2s-2.14,1.08-2.08,2.33c.04,1.24,1.05,2.24,2.25,2.2h0Z"/>
        <path class="cls-13" d="M421.35,251.71c.86-.57,1.12-1.76.57-2.66s-1.69-1.19-2.55-.62c-.86.55-1.12,1.74-.59,2.65.55.9,1.69,1.2,2.57.63h0Z"/>
      </g>
    </g>
  </g>
  <g>
    <path class="cls-11" d="M197.93,292.72c31.5-11.78,67.23-27.43,105.2-48.42,39.08-21.59,72.16-44.21,99.41-65.17,10.16,13.8,20.62,29.2,30.94,46.22,8.77,14.47,16.45,28.45,23.16,41.73-29.18,21.42-62.58,43.76-100.31,65.66-37.46,21.75-73.21,39.56-106.09,54.2-9.58-14.51-19.34-30.49-28.94-47.91-8.86-16.08-16.6-31.59-23.37-46.32h0Z"/>
    <ellipse class="cls-16" cx="340.67" cy="283.85" rx="29.92" ry="32.72" transform="translate(-94.95 201) rotate(-29.03)"/>
    <path class="cls-16" d="M404.98,192.33c.77,1.12.54,2.63-.54,3.45-25.2,19.4-55.38,40.14-90.68,60.12-35.56,20.12-69.14,35.4-98.91,47.04-1.19.47-2.54-.04-3.16-1.16l-1.51-2.79c-.73-1.34-.13-3,1.28-3.56,29.76-11.84,63.03-27.13,98.2-46.98,34.77-19.62,64.74-39.94,90.05-59.07,1.16-.87,2.79-.61,3.61.59l1.63,2.35.02.02Z"/>
    <path class="cls-16" d="M448.17,262.06c.8,1.13.56,2.68-.55,3.5-26.77,19.98-57.74,40.92-92.99,61.37-35.56,20.63-69.39,37.22-100.24,50.62-1.19.53-2.59.04-3.22-1.1l-1.54-2.75c-.74-1.32-.17-2.97,1.22-3.56,30.48-12.91,64.17-29.15,99.64-49.65,35.32-20.42,66.09-41.4,92.43-61.28,1.14-.87,2.76-.61,3.6.56.55.77,1.09,1.54,1.64,2.31v-.02Z"/>
    <ellipse class="cls-16" cx="272.13" cy="320.51" rx="9.97" ry="10.9" transform="translate(-121.35 172.35) rotate(-29.03)"/>
    <ellipse class="cls-16" cx="403.78" cy="243.23" rx="9.97" ry="10.9" transform="translate(-67.3 226.53) rotate(-29.03)"/>
    <g id="Layer_2-10" data-name="Layer 2">
      <g id="Layer_1-2-10" data-name="Layer 1-2">
        <path class="cls-13" d="M350.26,278.49c-.76-1.99-2.93-3.02-4.83-2.3l-.2.09c-1.87.83-2.68,3.08-1.8,5.03.87,1.96,3.08,2.86,4.95,2.02,1.79-.8,2.62-2.92,1.88-4.84Z"/>
        <path class="cls-13" d="M363.25,273.8c.62-.23.92-.95.67-1.59s-.95-.98-1.56-.74c-.62.23-.91.94-.67,1.59.24.65.94.97,1.56.74h0Z"/>
        <path class="cls-13" d="M359.58,298.88c-.41.52-.31,1.31.2,1.75s1.28.37,1.69-.15.32-1.3-.2-1.74c-.52-.45-1.28-.4-1.7.14.01,0,0,0,0,0Z"/>
        <path class="cls-13" d="M353.38,294.16c-.64.8-.5,2.01.3,2.69s1.97.58,2.61-.22.5-2.01-.3-2.69c-.8-.68-1.97-.58-2.61.22Z"/>
        <path class="cls-13" d="M362.99,284.74c-.83-.15-1.61.41-1.74,1.27-.12.85.46,1.67,1.3,1.83.83.15,1.61-.41,1.74-1.27h0c.13-.86-.46-1.69-1.3-1.83Z"/>
        <path class="cls-13" d="M357.21,277.24c.96-.36,1.42-1.45,1.04-2.45s-1.46-1.51-2.42-1.15c-.96.36-1.42,1.45-1.04,2.45h0c.38.99,1.46,1.51,2.42,1.15Z"/>
        <path class="cls-13" d="M353.8,264.58c.52-.67.42-1.66-.26-2.23-.66-.56-1.62-.48-2.16.19-.52.67-.42,1.66.26,2.23h0c.66.56,1.64.48,2.16-.19h0Z"/>
        <path class="cls-13" d="M354.14,282.97c-1.2-.22-2.31.59-2.47,1.82-.17,1.23.65,2.4,1.85,2.61,1.2.22,2.31-.59,2.47-1.82.18-1.22-.65-2.39-1.85-2.61h0Z"/>
        <path class="cls-13" d="M337.45,301.41c-1.01-.19-1.97.51-2.11,1.54s.56,2.04,1.57,2.23c1.01.19,1.97-.51,2.11-1.54h0c.15-1.06-.54-2.05-1.57-2.23h0Z"/>
        <path class="cls-13" d="M336.76,309.16c-.66-.12-1.26.33-1.36,1.01s.36,1.31,1.02,1.44,1.26-.33,1.37-.99c.08-.67-.38-1.32-1.03-1.45h0Z"/>
        <path class="cls-13" d="M332.3,290.51c1.91-.71,2.85-2.92,2.08-4.91-.76-1.99-2.93-3.03-4.83-2.3l-.19.08c-1.86.83-2.67,3.08-1.8,5.03.81,1.86,2.91,2.79,4.74,2.09h0Z"/>
        <path class="cls-13" d="M348.36,285.85c-1.1-.93-2.6-1.17-3.88-.6-1.86.83-2.67,3.08-1.8,5.03.24.54.6,1.04,1.07,1.43,1.62,1.37,3.96,1.17,5.23-.45,1.27-1.64,1-4.06-.62-5.42h0Z"/>
        <path class="cls-13" d="M323.92,302.12c-.52.67-.4,1.67.27,2.22s1.63.46,2.15-.2.4-1.65-.25-2.22c-.68-.55-1.64-.48-2.17.2h0Z"/>
        <path class="cls-13" d="M331.97,297.2c.75-.95.59-2.37-.35-3.17-.95-.8-2.32-.69-3.07.26s-.59,2.37.35,3.17,2.32.68,3.07-.26Z"/>
        <path class="cls-13" d="M348.47,304.59c-.78.3-1.16,1.2-.86,2.02s1.21,1.24,1.99.95c.78-.3,1.17-1.19.87-2.01-.32-.83-1.21-1.25-2-.97h0Z"/>
        <path class="cls-13" d="M344.42,295.46c-1.13.42-1.67,1.71-1.21,2.88.44,1.18,1.72,1.78,2.84,1.35,1.13-.42,1.67-1.71,1.21-2.88-.46-1.17-1.72-1.78-2.84-1.35h0Z"/>
        <path class="cls-13" d="M345.75,269.5c-.75.95-.59,2.37.35,3.17.95.8,2.32.69,3.07-.26s.59-2.37-.35-3.17c-.95-.8-2.32-.69-3.07.26Z"/>
        <path class="cls-13" d="M341.79,293c.29-2.09-1.11-4.08-3.14-4.44s-3.92,1.01-4.21,3.09,1.11,4.08,3.14,4.44c.72.13,1.44.04,2.1-.25,1.14-.51,1.92-1.58,2.11-2.85Z"/>
        <path class="cls-13" d="M329.36,280.86c1.62,1.37,3.96,1.17,5.23-.45,1.28-1.62,1-4.04-.61-5.4-1.62-1.37-3.96-1.17-5.23.45h0c-1.27,1.6-1.02,4,.58,5.38t.03.02Z"/>
        <path class="cls-13" d="M323.58,283.73c1.2.22,2.31-.59,2.47-1.82.17-1.23-.65-2.4-1.85-2.61-1.2-.22-2.31.59-2.47,1.82-.18,1.22.65,2.39,1.85,2.61h0Z"/>
        <path class="cls-13" d="M319.47,291.9c.38,1,1.46,1.51,2.42,1.15.96-.36,1.42-1.45,1.04-2.45s-1.46-1.51-2.42-1.15h0c-.95.35-1.41,1.47-1.04,2.45Z"/>
        <path class="cls-13" d="M315.36,295.23c.62-.23.92-.95.67-1.59s-.95-.98-1.56-.74c-.62.23-.91.94-.67,1.59.25.64.94.97,1.56.74Z"/>
        <path class="cls-13" d="M314.73,281.96c.83.15,1.61-.41,1.74-1.27.12-.85-.46-1.67-1.3-1.83-.83-.15-1.61.41-1.74,1.27-.13.86.46,1.69,1.3,1.83h0Z"/>
        <path class="cls-13" d="M340.97,257.54c.66.12,1.26-.33,1.37-.99.1-.68-.36-1.31-1.01-1.44-.66-.12-1.26.33-1.37.99h0c-.12.67.35,1.32,1.01,1.44Z"/>
        <path class="cls-13" d="M318.14,267.82c.41-.52.31-1.31-.2-1.75s-1.28-.37-1.69.15-.32,1.3.2,1.74c.52.45,1.28.4,1.7-.14-.01,0,0,0,0,0Z"/>
        <path class="cls-13" d="M335.93,273.7c-.29,2.09,1.11,4.08,3.15,4.46,2.04.37,3.92-1.01,4.22-3.1s-1.11-4.08-3.15-4.46c-.72-.13-1.44-.04-2.1.25-1.16.5-1.94,1.57-2.12,2.85Z"/>
        <path class="cls-13" d="M340.28,265.29c1.01.19,1.97-.51,2.11-1.54.15-1.04-.56-2.04-1.57-2.23s-1.97.51-2.11,1.54h0c-.16,1.04.54,2.05,1.57,2.23Z"/>
        <path class="cls-13" d="M329.4,262.05c.78-.3,1.16-1.2.86-2.02s-1.21-1.24-1.99-.95c-.78.3-1.17,1.19-.87,2.01.32.83,1.21,1.25,2,.97h0Z"/>
        <path class="cls-13" d="M333.45,271.18c1.13-.42,1.67-1.71,1.21-2.88-.44-1.18-1.72-1.78-2.84-1.35s-1.67,1.71-1.21,2.88c.44,1.16,1.72,1.78,2.84,1.35h0Z"/>
        <path class="cls-13" d="M324.34,272.55c.63-.82.49-2.03-.32-2.7s-1.98-.57-2.61.24c-.64.8-.5,2.01.3,2.69.81.68,1.99.59,2.63-.23h0Z"/>
      </g>
    </g>
  </g>
</svg>