<?xml version="1.0" encoding="UTF-8"?><svg id="a" xmlns="http://www.w3.org/2000/svg" viewBox="0 0 1280 1280"><defs><style>.b{fill:#ffbb83;}.b,.c,.d,.e,.f,.g,.h{stroke-width:0px;}.c,.f{fill:#eda56e;}.d{fill:#020202;}.e{fill:#000;}.f{opacity:.68;}.g{fill:#fff;}.h{fill:#e04b4b;}</style></defs><path class="b" d="M239.69,414.23c-30.87,23.93-198.77,158.63-199.68,360.53-.13,28.47.31,90.88,35.13,157.15,61.55,117.13,183.49,156.8,275.48,186.74,159.97,52.05,295.19,31.19,334.64,24.04,82.78-15.02,157.49-55.62,306.91-136.82,0,0,66.57-36.18,140.51-112.78,27.9-28.9,38.45-54.23,43.55-72.58.34-1.24.61-2.31.82-3.23,18.91-80.14-46.37-152.67-59.16-166.4,14.88-8.05,36.5-21.86,57.31-44.37,12.86-13.91,42.45-45.9,49.92-90.59,12.36-73.94-44.11-132.77-51.77-140.51-1.07-41.15-21.91-73.78-49.92-81.35-5.96-1.61-17.57-3.53-33.28,1.85-5.52-16.47-33.28-93.64-112.78-131.27-79.04-37.42-177.55-20.76-249.6,42.52-15.57-18.9-45-49.05-90.59-66.56-96.35-36.99-187.51,12.19-216.32,27.73-90.97,49.08-131.83,130.62-151.61,170.1-15.07,30.07-24.11,56.77-29.58,75.8Z"/><path class="c" d="M1012.75,991.1c.29,1.44-8.94,5.65-8.94,5.65h0c-32.6,18.51-42.83,23.53-42.83,23.53-40.79,19.99-67.76,37.15-128.94,65.88-48.02,22.55-72.04,33.82-99.29,42.82-100.42,33.15-189.92,24.02-240.47,18.36-67.73-7.6-117.83-23.76-154.35-35.77-55.38-18.2-92.42-30.37-136.48-58.82-36.12-23.33-109.02-71.85-141.64-163.3-10.55-29.56-13.23-53.37-15.06-70.58-10.38-97.69,23.23-173.43,39.53-208.95,8.42-18.36,30.84-63.92,68.23-106.82,19.01-21.8,21.58-19.62,54.59-56,17.71-19.51,23.57-17.51,32-29.17,8.23-11.38,10.51-21.48,13.18-30.59,5.91-20.15,19.57-43.55,47.26-90.13,18.11-30.47,27.16-45.71,35.56-56.23,47.18-59.07,110.01-82.5,133.18-90.82,21.27-7.64,49.05-17.35,87.06-17.88,18.09-.25,65.97-.34,112.94,27.29,65.42,38.48,93.7,109.92,87.77,114.49-5.22,4.02-31.08-48.21-93.42-76.61-78.84-35.92-161.87-9.05-185.15-1.52-89.66,29.01-139.94,92.16-152.96,109.52-79.97,106.62-73.33,244.8-90.35,243.53-9.67-.72-5.66-44.9-22.59-50.12-25.23-7.77-85.91,82.99-108.7,173.64-5.31,21.12-38.84,162.68,33.17,279.53,130.64,211.97,537.35,226.99,658.59,128.47,0,0,89.9-73.06,185.65-87.53,5.78-.87,31.99-4.23,32.47-1.88Z"/><path class="c" d="M1088.98,300.51c2.58-1.68-8.34-22.57-11.29-28.24-6.78-12.97-16.88-32.01-36-54.35-13.32-15.56-24.24-28.32-43.06-40.24-19.34-12.25-36.41-16.88-52.24-21.18-29.19-7.92-52.63-8.46-61.41-8.47-29.66-.04-51.56,5.72-56.47,7.06-9.7,2.64-22.13,8.15-46.59,19.06-47.04,20.98-53.27,25.91-54.14,33-1.15,9.39,7.36,20.56,16.02,22.06,8.01,1.38,15.33-5.65,17.65-7.76,24.5-22.33,95.53-46.75,148.94-43.06,41.1,2.84,71.44,22.3,80.47,28.24,32.97,21.68,67.41,61.35,74.82,69.88,10.4,11.98,21.09,25.44,23.29,24Z"/><path class="c" d="M1168.51,370.87c7.59-6.37-4.21-31.54-10.35-42.82-4.67-8.57-11.34-20.84-25.88-27.76-10.47-4.98-20.19-4.91-24-4.71-11.22.59-19.38,4.81-23.22,7.12.24.71.47,1.42.71,2.12,5.15-.65,14.56-1.14,25.34,2.53,4.28,1.46,19.64,6.68,27.76,20.71,9.48,16.36.45,29.73,10.82,39.06,5.55,4.99,14.79,7.15,18.82,3.76Z"/><path class="f" d="M1224.51,531.34c1.14,5.78-89.08,33.35-186.82,43.29-46.19,4.7-71.93,3.22-95.53-.94-32.13-5.66-57.63-15.81-74.82-24-6.62,7.08-16.88,16.88-31.06,26.12-51.88,33.79-108.84,29.11-144.94,25.65,0,0-87.39-8.39-169.88-58.35-22.26-13.48-30.98-22.52-54.59-30.12-29.02-9.34-55.08-8.31-64.55-26.09-3.23-6.06-3.43-12.25-3.2-16.19,6,5.35,15.46,12.67,28.46,18.28,14.9,6.44,25.38,6.94,37.41,9.18,19.98,3.71,28.7,10.81,55.06,24.71,9.64,5.08,41.79,21.89,79.76,35.29,29.48,10.4,61.82,21.82,105.88,23.29,25.59.86,45.13-1.98,60.71-4.24,29.79-4.32,44.69-6.48,60-16.24,19.05-12.14,30.34-19.33,35.29-31.76.75-1.89,2.37-6.44,5.65-7.06,5.47-1.03,10.15,9.9,16.94,16.94,10.14,10.5,24.3,11.64,45.18,12.71,53.87,2.74,74.82,2.12,74.82,2.12,79.5-2.36,94.82-3.87,104.47-4.94,34.19-3.78,51.16-6.71,59.29-9.88,6.17-2.41,22.88-9.49,45.18-9.18,6.51.09,11.05.16,11.29,1.41Z"/><path class="c" d="M329.38,1037.03c58.27,20.53,136.25,42.77,224.11,52.83,77.73,8.9,126.87,4.1,149.33,1.26,24.2-3.06,44.2-7.22,58.3-10.56-14.02,5.5-33.49,12.3-57.23,18.04-76.22,18.41-137.91,11.65-168.33,8.03-91.6-10.88-162.58-44.29-206.19-69.6Z"/><path class="e" d="M567.53,1159.91c-61.99,0-137.6-8.09-219.08-34.6-91.43-29.75-216.64-70.49-279.51-190.14-36.34-69.17-36.04-135.48-35.93-160.44.21-47.31,9.54-94.64,27.73-140.69,14.9-37.71,35.84-74.88,62.25-110.46,30.81-41.51,70.03-81.74,110.6-113.48,7.55-25.76,17.44-50.91,29.41-74.81,20-39.92,61.63-122.99,154.54-173.12,14.66-7.91,45.17-24.37,84.46-34.2,48.95-12.24,95.28-10.19,137.69,6.09,33.77,12.97,63.64,34.21,88.88,63.2,35.17-29.29,76.59-48.62,120.21-56.03,45.98-7.82,91.48-1.91,131.59,17.08,71.11,33.66,102.49,97.33,114.19,129.02,10.65-2.59,21.15-2.62,30.71-.03,15.38,4.16,29.29,15.22,39.18,31.15,9.43,15.18,14.87,33.81,15.81,54.02,14.43,15.17,63.73,73.08,51.77,144.61-7.82,46.76-38.56,80-51.68,94.19-14.97,16.18-32.23,30.09-51.41,41.42,11.13,12.74,24.99,30.92,36.63,53.27,20.53,39.41,26.68,77.41,18.3,112.94-.29,1.24-.58,2.35-.89,3.49-7.54,27.11-22.34,51.82-45.26,75.57-73.84,76.5-139.45,112.57-142.21,114.07-149.89,81.45-225.12,122.33-309,137.55-28.15,5.11-69.17,10.34-118.98,10.34ZM563.23,134.07c-64.1,0-117.66,28.9-139.02,40.43-89.03,48.03-129.31,128.43-148.67,167.07-11.93,23.81-21.72,48.91-29.11,74.6l-.63,2.2-1.81,1.4c-40.24,31.2-79.21,71.03-109.74,112.17-57.5,77.47-86.85,159.18-87.23,242.86-.12,26.27-.4,87.79,34.33,153.87,26.66,50.74,67.09,91.05,123.59,123.24,49.06,27.95,101.55,45.03,147.86,60.09,79.87,25.99,154,33.92,214.73,33.93,48.79,0,88.93-5.12,116.5-10.12,81.67-14.82,156.24-55.34,304.8-136.07.67-.36,66.59-36.66,138.83-111.5,21.26-22.02,34.94-44.79,41.84-69.59.31-1.13.56-2.11.75-2.96,7.59-32.18,1.84-66.92-17.09-103.26-10.21-19.61-24.56-39.77-40.38-56.76l-6.17-6.62,7.96-4.31c20.93-11.32,39.6-25.77,55.51-42.97,12.28-13.27,41.03-44.36,48.15-87,11.44-68.44-39.51-123.99-49.84-134.44l-1.95-1.97-.07-2.77c-.97-37.16-19.37-67.91-44.75-74.78-8.84-2.39-18.93-1.8-29.18,1.71l-6.67,2.28-2.24-6.68c-9.03-26.98-37.75-93.37-109.14-127.17-37.5-17.75-80.12-23.26-123.25-15.93-43.32,7.36-84.38,27.21-118.73,57.38l-5.43,4.77-4.59-5.58c-24.63-29.9-54.14-51.59-87.7-64.48-24.5-9.41-48.65-13.07-71.46-13.07Z"/><path class="d" d="M329.96,1035.75c73.98,22.53,149.51,39.91,226.54,46.37,49.71,4.15,99.5,4.37,149.33,1.26,18.26-.96,36.5-2.74,54.99-4.19l.31,1.37c-17.93,4.13-36.02,7.59-54.23,10.3-54.56,7.94-110.39,9.29-165.27,3.85-73.27-7.46-145.32-26.93-212.25-57.68,0,0,.58-1.28.58-1.28h0Z"/><path class="c" d="M400.59,344.72c49.21-29.23,103.9-49.85,160.32-60.08,28.32-5.24,57.17-9.19,86.06-7.92,28.8,1.15,57.59,5.44,85.03,14.3,0,0-.25,1.38-.25,1.38-49.45-2.42-98.74-2.64-148.06.94-49.23,4.43-97.67,16.78-143.57,35.09-13.17,5.34-26.12,11.19-38.85,17.51l-.67-1.23Z"/><path class="c" d="M1071.14,306.67c-39.95-6.66-80.59-7.3-120.62-1.77-9.93,1.41-19.76,3.44-29.47,5.78-17.2,4.1-41.45,9.66-58.36,14.15-9.77,2.53-19.54,5.25-29.6,7.68l-.59-1.27c25.44-17.81,55.27-29.46,85.94-34.17,20.5-2.82,41.14-4.5,61.81-4.42,30.77.26,61.65,4.46,91.21,12.66l-.3,1.37Z"/><path class="c" d="M606.58,711.18c22.26-.53,71.29-3.22,99.99-19.76,5.84-3.37,12.55-7.64,12.55-7.64,14.45-10.15,28.73-20.18,42.55-31.28,6.22-4.95,12.34-10.12,18.83-15.28l1.11.85c-3.34,7.65-7.8,14.71-12.85,21.33-11.41,14.92-26.1,27.45-43.02,35.71-2.78,1.42-8.45,4.08-11.32,5.32-12.17,5.24-30.73,13.39-53.32,15.91-11.38,1.27-30.72,1.89-54.52-5.16Z"/><path class="c" d="M943.5,657.73c17.02,14.3,28.26,29.2,35.27,40.13-15.59-8.66-28.12-16.84-37.32-23.23-17.97-12.48-24.42-19-27.8-22.65-7.83-8.45-13.07-16.55-16.39-22.34,12.09,5.01,28.96,13.57,46.24,28.09Z"/><path class="c" d="M1081.81,653.39c-33.27,14.2-60.07,18.75-76.36,20.41-16.41,1.67-27.1.98-36.55-.92-12.09-2.43-23.88-6.24-34.44-12.87,0,0,.34-1.36.34-1.36,6.26-.5,12.27-.45,18.21-.35,11.79.31,23.37.7,35.01,2.39,5.78.81,11.6,1.61,17.45,1.91,6.77.34,19.78,1.49,35.26,0,10.14-.97,24.43-3.29,41.07-9.21Z"/><path class="c" d="M864.48,565.57c-3.43,13.23-11.2,34.53-29.86,53.13-2.76,2.75-44.14,42.89-86.4,30.69-5.49-1.58-9.85-3.72-12.88-5.44,5,.02,12.42-.23,21.25-1.63,45.11-7.14,74.21-35.87,83.55-45.33,6.74-6.83,15.74-17.15,24.35-31.42Z"/><path class="c" d="M313.02,871.14c-1.11,18.1,1.32,32.26,3.63,41.52,2.24,8.96,5.11,16.35,7.73,23.06,4.11,10.56,6.17,15.83,10.14,21.66,3.4,4.98,9.56,12.39,20.38,18.96-8.33,1.56-14.41.41-18.39-.91-26.26-8.71-38.76-50.6-31.86-82.43,2.13-9.81,5.8-17.31,8.37-21.85Z"/><path class="c" d="M465.05,572.06c19,4.43,47.16,12.22,80.05,26.23,12.21,5.2,19.15,8.74,25.51,11.67,23.32,10.74,59.08,22.64,112.25,26-30.17,5.67-54.53,3.43-69.62.87-28.22-4.79-50.78-14.91-61.1-20.2-4.24-2.17-8.49-4.3-12.77-6.37-26.2-12.63-36.31-12.77-52.6-22.11-5.33-3.06-13.13-8.1-21.72-16.1Z"/><path class="d" d="M403.9,337.81c49.21-29.23,103.9-49.85,160.32-60.08,28.32-5.24,57.17-9.19,86.06-7.92,28.8,1.15,57.59,5.44,85.03,14.3,0,0-.25,1.38-.25,1.38-49.45-2.42-98.74-2.64-148.06.94-49.23,4.43-97.67,16.78-143.57,35.09-13.17,5.34-26.12,11.19-38.85,17.51,0,0-.67-1.23-.67-1.23h0Z"/><path class="d" d="M1069.45,299.76c-39.95-6.66-80.59-7.3-120.62-1.77-9.93,1.41-19.76,3.44-29.47,5.78-17.2,4.1-41.45,9.66-58.36,14.15-9.77,2.53-19.54,5.25-29.6,7.68l-.59-1.27c25.44-17.81,55.27-29.46,85.94-34.17,20.5-2.82,41.14-4.5,61.81-4.42,30.77.26,61.65,4.46,91.21,12.66,0,0-.3,1.37-.3,1.37h0Z"/><path class="d" d="M606.58,711.18c32.94-.97,65.3-9.21,94.31-24.67,3.74-2.09,8.98-5.23,12.55-7.64,14.45-10.15,28.73-20.18,42.55-31.28,6.22-4.95,12.34-10.12,18.83-15.28l1.11.85c-3.34,7.65-7.8,14.71-12.85,21.33-11.41,14.92-26.1,27.45-43.02,35.71-2.78,1.42-8.45,4.08-11.32,5.32-16.85,7.75-35,13.2-53.32,15.91-16.26,2.42-32.73,2.83-48.89,1.15l.05-1.4h0Z"/><path class="d" d="M898.01,628.46c34.89,2.26,73.32,34.55,81.79,68.45,0,0-1.03.95-1.03.95-3.09-3.2-6.22-6.34-9.41-9.43-15.79-15.58-32.62-30.08-50.39-43.35-7.11-5.32-14.34-10.47-21.7-15.43,0,0,.75-1.18.75-1.18h0Z"/><path class="d" d="M1081.81,653.39c-22.8,7.86-46.91,12.34-71.05,13.5-12.14.56-24.52,1.6-36.55-.92-12.09-2.43-23.88-6.24-34.44-12.87,0,0,.34-1.36.34-1.36,6.26-.5,12.27-.45,18.21-.35,11.79.31,23.37.7,35.01,2.39,5.78.81,11.6,1.61,17.45,1.91,11.73.6,23.51.62,35.26,0,11.81-.56,23.61-1.89,35.42-3.66l.34,1.36h0Z"/><path class="d" d="M864.48,565.57c-13.96,48.47-69.28,83.59-118.94,79.91-3.4-.23-6.81-.77-10.2-1.54l-.21-1.38c6.32-1.09,12.59-2.47,18.77-4.15,30.96-8.09,59.81-23.9,83.55-45.33,9.45-8.65,18.13-18.14,25.9-28.33,0,0,1.13.82,1.13.82h0Z"/><path class="d" d="M314.37,871.5c2.53,11.96,4.47,22.85,7.59,34.25,4.31,15.71,10.05,30.14,17.87,44.72,4.65,8.83,9.8,16.84,15.06,25.87,0,0-.76,1.18-.76,1.18-4.34-2.66-8.44-5.7-12.32-9-23.39-20.02-35.7-51.88-31.86-82.43.65-5.06,1.63-10.06,3.06-14.95l1.35.36h0Z"/><path class="d" d="M465.45,570.71c29.33,1.1,58.03,9.36,84.96,20.67,8.64,3.6,16.9,8.05,25.51,11.67,34.06,14.52,70.69,20.98,106.98,31.51,0,0-.04,1.4-.04,1.4-42.76-1.06-86.92-6.3-125.4-26.24-4.24-2.17-8.49-4.3-12.77-6.37-17.13-8.27-34.7-15.64-52.6-22.11-8.93-3.3-17.94-6.36-27.03-9.19l.4-1.34h0Z"/><path class="e" d="M702.7,180.02c7.56,5.51,14.55,11.87,21.05,18.58,10.92,11.21,21.17,22.88,29.77,36.32,5.14,8.08,9.6,16.75,12.82,25.82,3.3,8.7,5.15,18.5,6.9,27.48.95,4.96,3.35,9.15,7.29,12.27,6.6,5.55,16.88,6.48,25.62,7.62,10.36,1.02,19.58,6.61,26.34,14.35,12,13.69,18.62,31.56,23.78,48.55,2.56,8.89,4.9,17.91,6.67,26.98,0,0,1.8,9.06,1.8,9.06l-1.36.31c-3.29-11.65-6.97-23.69-11.2-34.98-5.38-14.21-11.79-27.84-21.11-39.62-1.42-1.61-2.82-3.32-4.38-4.78-4.43-4.34-9.87-8.09-15.59-9.34-5.49-1.34-11.87-1.12-17.79-2.04-6.79-.87-13.82-3-19.56-7.2-4.54-3.26-8.39-7.76-10.64-12.91-3.09-7.49-4.28-15.07-7.07-22.45-3.91-11.08-8.9-21.64-14.56-31.98-8.25-15.07-19.64-31.29-29.27-45.91-3.39-5.09-6.99-10.06-10.52-15.17l1-.98h0Z"/><path class="e" d="M249.26,392.14c-.34,16.73-3.96,39.35-5.91,56.1-2.31,16.75-4.43,39.43-8.22,55.8,0,0-1.36.35-1.36.35-5.36-18.75-6.69-38.56-4.31-57.91,2.5-19.33,8.72-38.19,18.57-55.02,0,0,1.23.67,1.23.67h0Z"/><path class="g" d="M1122.16,361.93c22.68,4.59,40.47,8.35,61.23,20.41,16.25,9.44,37.53,21.81,48.81,47.03,12.26,27.43,11,66.29-10.65,88.75-10.66,11.06-27.96,14.92-62.12,22.19-17.76,3.78-40.18,7.57-89.63,11.54-34.99,2.81-54.84,4.4-83.42,4.44-69.91.09-88.59-9.26-95.84-13.31-25.09-14.01-37.27-33.68-39.94-38.16-5.35-8.99-19.32-32.48-13.31-62.12,5.57-27.48,24.87-43.21,31.95-48.81,12.53-9.91,24.8-14.31,48.81-20.41,40.73-10.36,65.51-16.66,102.94-18.64,47.54-2.51,83.91,3.61,101.17,7.1Z"/><path class="e" d="M985.39,562.28c-72.56,0-90.86-10.22-97.77-14.07-24.56-13.71-37.67-32.77-42.17-40.33-5.61-9.43-20.51-34.47-14.04-66.38,4.06-20.03,15.54-37.64,34.11-52.32,13.62-10.77,26.76-15.34,51.05-21.52,41.21-10.48,66.08-16.8,104.11-18.81,34.76-1.84,70.26.65,102.68,7.21h0c22.01,4.45,41.01,8.3,63.06,21.1,16.54,9.61,39.2,22.78,51.27,49.77,6.66,14.9,9.46,32.39,7.89,49.24-1.74,18.6-8.55,34.55-19.7,46.11-12.16,12.61-30.99,16.62-65.19,23.89-19.92,4.24-42.91,7.84-90.4,11.65-35.53,2.85-55.08,4.42-83.89,4.46-.34,0-.67,0-1.01,0ZM1043.04,360.25c-7.25,0-14.5.19-21.72.57-36.84,1.95-61.29,8.16-101.78,18.46-22.58,5.74-34.67,9.89-46.57,19.3-6.07,4.8-24.54,19.41-29.79,45.3-5.55,27.37,7.63,49.52,12.59,57.86,4,6.73,15.68,23.7,37.7,35.99,5.57,3.11,22.49,12.55,91.92,12.55.33,0,.66,0,1,0,28.34-.04,47.72-1.59,82.92-4.42,46.88-3.76,69.43-7.29,88.89-11.43,34.29-7.29,49.83-10.92,59.05-20.48,20.5-21.27,20.19-58.19,9.49-82.13-10.49-23.46-30.37-35.01-46.35-44.3-20.33-11.81-38.44-15.48-59.41-19.72h0c-24.71-5-51.3-7.56-77.94-7.56Z"/><path class="e" d="M1159.3,471.82c-3.86,24.62-22.51,37.72-27.29,40.83-4.44,2.89-22.21,13.67-43.77,9.4-31.55-6.25-52.04-40.96-50.22-71.06.28-4.58,1.56-26,18.95-40.56,20.86-17.47,47.84-10.8,52.11-9.66,18.88,5.03,30.4,16.5,34.32,21.05,3.5,4.05,20.09,23.26,15.9,50Z"/><path class="g" d="M818.66,369.03c-26.82-14.14-50.19-14.94-95.84-15.97-32.44-.73-68-1.31-114.48,8.87-44.61,9.77-75.69,24.29-101.17,36.39-26.51,12.58-110.58,52.48-104.72,75.43,2.34,9.18,18.09,11.84,32.84,15.09,91.08,20.05,88.97,50.41,192.58,78.1,46.74,12.49,74.84,20,114.48,15.97,31.62-3.21,91.57-9.29,121.58-57.68,19.39-31.27,23.61-75.9,4.44-110.93-14.67-26.8-38.24-39.22-49.7-45.26Z"/><path class="e" d="M721.33,590c-30.37,0-56.47-6.97-95.03-17.27-52.35-13.99-78.8-29.05-102.13-42.33-23.33-13.28-45.36-25.83-90.19-35.7-1.15-.25-2.31-.5-3.47-.75-15.15-3.27-30.82-6.65-33.89-18.71-4.96-19.45,27.33-44.07,107.96-82.34,23.75-11.27,56.27-26.71,102.46-36.83,48.13-10.55,85.71-9.7,115.9-9.01,45.07,1.02,69.89,1.58,98.51,16.67h0c11.89,6.27,36.63,19.31,52.16,47.69,19.05,34.8,17.2,81.81-4.6,116.97-31.56,50.91-93.05,57.14-126.08,60.49-7.55.77-14.69,1.13-21.61,1.13ZM698.21,358.69c-24.81,0-53.97,1.51-88.6,9.09-44.85,9.83-76.66,24.92-99.88,35.95-13.18,6.26-40.61,19.27-63.94,33.52-38.26,23.38-37.98,33.26-37.54,35,1.24,4.86,14.86,7.8,24.8,9.95,1.17.25,2.35.51,3.51.76,46.6,10.26,69.41,23.25,93.55,36.99,23.81,13.56,48.43,27.58,99.29,41.17,46.01,12.29,73.78,19.71,112.33,15.8,30.98-3.14,88.63-8.99,117.09-54.88,19.6-31.61,21.32-73.76,4.27-104.89-13.8-25.21-36.38-37.11-47.23-42.83l2.8-5.31-2.8,5.31c-25.06-13.21-46.68-14.23-93.18-15.28-7.65-.17-15.79-.36-24.46-.36Z"/><path class="e" d="M801.83,472.19c.37,25.4-16.11,41.78-20.37,45.74-3.96,3.67-19.96,17.57-42.36,17-32.78-.84-59.36-32.18-62.73-62.73-.51-4.65-2.92-26.39,12.04-44.03,17.94-21.16,46.2-19.11,50.69-18.7,19.84,1.8,33.39,11.34,38.12,15.23,4.21,3.46,24.2,19.9,24.61,47.5Z"/><path class="h" d="M1137.25,925.46c-4.41,9.82-26.5,51.99-157.07,59.17-82.91,4.56-119.12-9.96-197.91-19.24-198.92-23.43-290.51,31.14-354.98-34.61-6.4-6.53-34.91-35.61-29.29-67.45,6-33.92,47.41-52.1,64.78-59.46,60.45-25.6,110.85-13.82,252.92,12.42,98.65,18.23,198.8,35.54,266.24,26.62,60.26-7.97,85.2-15.97,85.2-15.97,64.33-19.86,113.26-22.37,121.58-5.32,9.64,19.73-37.21,61.41-46.15,69.22.77,9.13.44,21.78-5.32,34.61Z"/><path class="e" d="M950.08,991.49c-40.76,0-70.65-5-104.25-10.61-19.46-3.25-39.59-6.62-64.25-9.52-82.01-9.66-145.69-5.98-196.85-3.02-73.51,4.25-122.08,7.06-161.71-33.35-24.26-24.74-34.94-49.88-30.91-72.69,6.69-37.82,51.49-56.8,68.35-63.94,58.4-24.73,108.98-15.33,231.21,7.39,8.05,1.5,16.43,3.05,25.14,4.66,102.29,18.9,199.49,35.15,264.36,26.58,58.81-7.78,83.91-15.66,84.15-15.74,26.53-8.19,114.03-32.5,128.8-2.24,5.28,10.81-.25,25.71-16.9,45.57-9.76,11.64-21.28,22.44-28.45,28.83.64,12.57-1.38,24.17-6.04,34.53h0c-9.25,20.59-42.63,56.13-162.22,62.71-10.85.6-20.94.87-30.43.87ZM674.15,953.1c32.28,0,68.31,1.56,108.82,6.33,24.95,2.94,45.22,6.33,64.83,9.61,40.73,6.81,75.91,12.69,132.04,9.6,117.46-6.46,145.38-41.07,151.93-55.64h0c4.18-9.31,5.81-19.96,4.82-31.65l-.26-3.02,2.28-2c31.44-27.5,49.41-52.44,44.71-62.07-5.53-11.33-47.51-12.23-114.42,8.43-.97.31-26.08,8.24-86.18,16.19-13.06,1.73-27.2,2.51-42.26,2.51-61.85,0-139.63-13.26-225.85-29.19-8.72-1.61-17.1-3.17-25.16-4.67-123.18-22.89-169.26-31.46-224.34-8.13-15.22,6.45-55.66,23.57-61.22,54.98-3.33,18.84,6.23,40.35,27.66,62.2,35.81,36.52,79.71,33.98,152.45,29.77,26.45-1.53,56.22-3.25,90.13-3.25Z"/><path class="e" d="M472.12,890.8c38.25-14.85,79.96-21.82,121.12-21.52,41.03.64,81.65,7.97,122.06,14.31,93.06,15.42,186.93,35.83,281.67,27.06,13.47-1.1,26.9-2.55,40.26-4.58,26.76-4.04,53.28-9.75,79.33-17.15,0,0,.47,1.53.47,1.53-12.9,4.29-25.94,8.16-39.11,11.6-39.61,10.27-80.22,16.28-121.08,18.71-54.62,2.81-109.18-3.66-163.14-10.86-47.33-6.33-114.7-14.77-161.22-22.11-26.41-4.09-53.03-5.89-79.77-5.1-26.75.79-53.52,4.2-80.14,9.65l-.45-1.53h0Z"/></svg>