<?xml version="1.0" encoding="UTF-8"?>
<svg id="Calque_1" data-name="Calque 1" xmlns="http://www.w3.org/2000/svg" width="3840" height="615.2" version="1.1" viewBox="0 0 3840 615.2">
  <defs>
    <style>
      .cls-1 {
        fill: #000;
        stroke-width: 0px;
      }
    </style>
  </defs>
  <path class="cls-1" d="M0,475.2h25.8c4.1-8.8,8.1-17.5,12.4-26.7h20.2v-194h14.1v-10.3c7.1,0,13.8,0,20.4,0,6.5,0,13.1,0,20.1,0v-19.1h42.5v15h30.3v202.7c4,.9,50.8,1.2,62.8.5.4-4,.1-8.1.2-12.2,0-4.2,0-8.3,0-12.5v-37c0-4.1,0-8.2,0-12.7h62.8v-11.9c3.1-.2,5.8-.3,8.9-.5v-9.1c4-.9,48.7-1.1,55-.3v9.4c3.5.2,6.5.3,10,.5v40.5h82v15.3h42.2c.4,4.5.2,8.8.2,13,0,4.4,0,8.8,0,13.2v13.2c1.4-.4,2.5-.6,3.4-1,5.1-2.1,10.2-4.3,15.4-6.3,2.8-1,3.6-2.5,3.5-4.9-.2-3.7,0-7.5,0-11.2,3.7-.9,45.6-1.2,51.7-.3.7,2.4,1.4,4.8,2.2,7.5h12v-4.7c0-20.6,0-41.3,0-61.9,0-2.9.9-4.9,4.1-6.3,2.7-1.2,4.9-2.9,7.5-4.1,2.7-1.3,3.7-2.8,3.6-5.4-.2-5.1,0-10.1,0-15.2,0-1.3.1-2.5.2-4.2h35.3c0-4.9,0-9.4,0-13.8,0-4.5,0-9.1,0-13.6v-13.8h35.6c.1,9.4,0,18.8.1,28.7h34.2v12.3h11.2c2.6,3.9,5,7.6,8,12.1,3.9-8.8,7.5-16.9,11.2-25.3h51.3c.2-1.4.4-2.5.4-3.6,0-5.7-.1-11.4,0-17.1,0-1.9.7-3.8,1.6-5.5,1.4-2.8,3-5.5,4.9-8,2.1-2.9,3-5.9,3.2-9.2.5-7.6,1.3-15.3,2-22.9,0-.5.3-.9,1.1-1.4.4,4,.9,8,1.3,12,.3,3,.9,6,.8,8.9-.3,5.9,1.9,11.2,5.8,16.1,3.5,4.5,4.8,9.4,4.4,14.8-.4,4.9,0,9.8,0,15h25.5c4,10.2,7.9,20.5,12.2,31.5,4-4.1,7.5-7.5,10.7-11.2.8-.9.4-2.5.4-3.8,0-21.5,0-43.1,0-64.6v-5.1c2,0,3.7-.2,5.4-.2,19.4,0,38.7,0,58.1,0,3.4,0,5.7-.8,7.6-3,1.3-1.6,3.1-3,4.4-4.6,1.9-2.4,4.4-3.2,8-3.2,18.7.2,37.4,0,56.2,0h5.8c1.2-9,2.4-17.6,3.6-26.3.3,0,.5,0,.8,0,3.9,19.1,7.8,38.3,11.7,57.7,3.5.1,6.8.3,10.6.4.8,11.1,1.6,22,2.4,33.3h15.8c.3,10.1,0,19.9.1,29.7,0,10,0,20,0,30v30c5.9,1.3,11.7,2.5,17.9,3.8v-71.6c-1.5-.2-2.8-.4-4.9-.7,1.5-10.7,2.9-21.4,4.4-32.5,8-.3,15.9,0,24.4-.2,0-1.6,0-3,0-4.4,0-10-.1-20,0-30,0-2.5.8-5.1,1.6-7.6.7-2.3,1.8-4.4,2.9-6.6,1.7-3.3,1.9-6.7,1.9-10.3-.2-13.6,2.9-26.8,8.7-39.6,6.7-14.7,17-27.5,30.3-38.9,5.9-5.1,12.9-8.9,21.4-11.5,0-4,.3-8.2,0-12.3-.3-3.2.9-5.2,4.8-6,1.2-.3,2.3-.9,3.7-1.5,0-1.4,0-2.8,0-4.2,0-15.4,0-30.9,0-46.3,0-2.6.6-4.9,2.8-6.7,4.2-3.5,5.4-7.6,5-12.4-.4-4.4,0-8.8-.1-13.2,0-2,.4-3.6,2.3-4.8,4.7-3,5.8-7,5.4-11.7-.4-6-.2-11.9,0-17.9.1-3.7-.3-7.2-2.5-10.5-1.1-1.8-1.7-3.5-.1-5.5,1.8-2.2,3.5-4.4,6.7-5.3.8-.2,2.1-.1,2.7.2,2,1.2,4,2.5,5.6,4.1,1.7,1.8,1.6,4.1-.5,5.7-2.1,1.5-2.2,3.3-2.2,5.2,0,8.8.1,17.7,0,26.5,0,2.5.6,4.6,2.8,6.3,4,3,5.6,6.7,4.9,11.2-1.2,7.2,1,13.8,6.1,19.8,2.5,3,3.3,6.3,3.2,9.9-.2,14.9,0,29.8-.1,44.8,0,2.6.7,4.6,3.6,5.8,6.5,2.6,8.6,6.7,8,12.6-.6,6.7-1.1,5.4,6.2,7.8,9,2.8,16.5,7.2,23.3,12.7,17.2,14,26.9,31.1,31.3,50.3,1.5,6.4,2.5,12.8,4.1,19.2,1.5,6,3.3,11.9,5.2,17.7,1.2,3.5,1.9,7,1.8,10.7-.1,10,0,20,0,30v4.6h24.3c2.2,11.3,4.3,22.2,6.4,33.4-2.4.2-4.3.4-6.4.6v25.2c1.7-2.2,2.7-3.7,2.6-5.7-.2-12,5.7-21.9,16.4-30,3.1-2.3,6.9-4.1,11.1-6.5,0-1.1.2-3.1.4-5.3,3.6-.9,3.8-3.3,3.7-6-.2-4.7-.1-9.3,0-14,0-1.2.3-2.8,1.2-3.6,2.1-1.8,2.4-3.8,2.3-6.1,0-2.7-.7-5.5,2.7-7.4.4-.2.8-.9.7-1.4-.3-4.2,1.2-8.6-1-12.7-1.1-2,.4-2.9,2.1-3.8,1.7-.9,3.1-.1,4.2.9.5.4.9,1.4.6,1.7-2.6,3-1.1,6.3-1.4,9.4-.2,2.7-.3,5.4,2.7,7.5.8.6.9,2.2.8,3.3-.2,2.6.7,4.7,2.4,6.9,1.1,1.4,1.7,3.3,1.8,5.1.2,5.1,0,10.1,0,15.2,0,1.4-.2,3,1.9,3.7,3.3,1.1,3.8,3.2,3.5,5.7,0,.4.2.8.3,1.3.7.3,1.3.6,2.1.8,12.2,3.5,19.8,10.6,24,20.3,1.3,3,2,6.3,3,9.4.9,3,1.9,6,2.8,9,.4,1.5.7,3,.8,4.6.1,3,0,6,0,9,0,1.4.5,2.4,1.8,3.4,6.9,5.1,9.8,11.7,10.4,19.1.5,6.3.7,12.7,1,19,3.3.8,21.1,1,27.7.2v-22.8h113.4v16h94.1v-15h60.7v65c2.2,0,3.9,0,5.6,0,16.3-.6,32.6-1.2,48.9-2,2.9-.1,5.8-1.2,8.6-2,1.5-.4,2.8-1.3,4-2.1,10.1-7.2,22.1-8,34.7-7.3,3.3.2,6.6.3,10.5.5v-12.4c9.7,0,18.9,0,28.7,0,0,3.5,0,6.7,0,9.9,0,1.6.6,2.6,2.4,3.4,17.7,7.8,35.4,15.6,53.1,23.4.4.2.9.2,1.8.4.2-1.1.4-2,.4-2.9,0-7.7.1-15.3,0-23,0-2.2.7-4,2.5-5.6,2.6-2.4,5.2-5,7.5-7.6,1.5-1.7,3.2-2.2,5.7-2.2,7.7.1,15.3,0,23.6,0v-13.4c3.9-1,96.7-1.3,104.6-.4v8.8c2.8,0,4.9,0,7.1,0s5.8.3,8.6,0c6.5-.8,10.8,1.2,14.3,5.6,2.5,3.3,5.9,6.1,9.4,9.5,2-2.2,3.5-4.2,5.5-6,4.4-3.9,5.5-8.3,5.4-13.5-.3-15.8.1-31.7-.2-47.5-.2-9.7,1.1-19.1,3.4-28.6,1.2-4.9,2.3-9.9,4.1-14.9,1.3,4.1,2.6,8.2,3.9,12.3,1.3,4,2.4,8.1,3.7,12.1,1.6,4.8,2.3,9.6,2.2,14.6-.2,16.5,0,33-.1,49.4,0,2.4.8,4.2,2.8,5.9,3.6,2.9,7,6.1,10.5,9.1.9.8,2.3,1.6,3.5,1.7,7.3.2,14.7,0,22.3,0,.1-1.4.3-2.6.3-3.7,0-37.6,0-75.3,0-112.9,0-2.3-.8-4.1-2.7-5.5-2.3-1.8-2.8-3.9-2.8-6.3.1-6.4,0-12.7,0-19.1,0-1.3.1-2.5.2-4h140.2v151.7c3.8.9,23.3,1.1,29.1.3.2-1.8.4-3.7.6-6.1h12.8v-5.1c0-37.8,0-75.5,0-113.3,0-2.6.7-4.7,2.8-6.7,2.4-2.2,4.6-4.7,6.8-7.1,1-1.2,2.3-1.6,4-1.6,3.8,0,7.6,0,12.1,0,.2-2.6.3-5,.5-7.5h49.6v11.7c1.7.2,2.9.4,4.1.4,5,0,9.9,0,14.9,0,2.1,0,3.5.5,4.8,1.9,7.1,7.5,7.1,7.4,7.1,16.9,0,44.8,0,89.5,0,134.3v5.5c15,.4,29.7,0,44.5.3,1.7,2.8,3.5,5.4,5,8.1,1.1,2,2.6,3,5.5,2.8,3.3-.2,6.7,0,10.1,0,2.5-.1,4.2.6,5.8,2,2.9,2.6,5.6,5.8,9.3,7.1,3.5,1.2,8.2.4,12.3.4.6,0,1.3,0,2.3.1,1,1.6,2.1,3.3,3.1,5,1.1,1.7,2.1,3.4,3.4,5.5,1.1-.9,2-1.6,2.8-2.3,6.7-6.3,13.4-12.5,20.1-18.8.8-.8,1.8-1.5,2.6-2.3,3.6-3.6,5.6-7.4,5.6-12.3-.3-49.2-.2-98.4-.2-147.6s0-3.1,0-4.9h53c1.1-6.6,0-12.9.8-19.5h69.7c.4-9.4.1-18.4.2-27.5,0-9.1,0-18.2,0-27.3V94.2c10.5-.3,20.7,0,31.3-.2V30h78v93.5c9.1.4,17.9,0,27.1.3.4,13.1.1,26,.2,38.9,0,13,0,26,0,38.9v272.9c4.6-1.4,8-3.4,11.5-5.4.7-.4.9-1.6,1.1-2.4,1-4.6,1.9-9.2,2.8-13.8.1-.6.4-1.1,1.4-1.7,1.2,4.7,2.6,9.4,3.4,14.2.8,4.7.9,9.5,1.4,14.6,2.1-.1,4.2,0,6.1-.4,3.5-.8,5.7.2,7.6,2.5,1.6,1.9,3.5,3.7,5.4,5.5.5.4,1.1.8,2.3,1.7v-85.6c9.8-1.4,19.2-2.7,29.3-4.1v-4.6c0-16.4,0-32.7,0-49.1,0-26.9.2-53.7.4-80.6,0-1.6.3-3.4,1.1-4.9,7.8-14.4,16.4-28.5,27.9-41.2,3.2-3.5,6.8-6.9,10.7-9.9,7.4-5.6,14-6.2,22.7-2,4.5,2.1,8.7,4.8,12.6,7.7,9.5,7.2,17.2,15.7,24.4,24.5,3.5,4.3,6.8,8.8,10.1,13.2,2.8,3.7,4,7.8,3.9,12.2-.2,17.9,0,35.8-.2,53.7,0,2.5,1.1,3.8,3.7,4.7,3.9,1.4,7.7,3.2,11.7,4.6,2.9,1,4,2.4,3.9,5-.2,10.5,0,21,0,31.5,0,9.7,0,19.5,0,29.2s0,2.8,0,4.6h115.3c0-1.5.2-3.2.2-4.8,0-53.9,0-107.7-.2-161.6,0-3.5,1-6.2,4.4-8.4,3-1.9,5.6-4.2,8.3-6.5,1.6-1.3,3.3-1.8,5.5-1.8,5.2,0,10.5,0,16.1,0,.2-2.6.4-4.9.6-7.4h66.7v12c2.8,0,4.9,0,7.1,0,6.1,0,12.2.1,18.2,0,2.7,0,4.6.6,6.3,2.2,2,1.9,4.1,3.7,6.4,5.3,2.5,1.8,3.3,3.8,3.3,6.5-.1,27.9,0,55.8,0,83.7,0,18.7,0,37.4,0,56.1v5h18.1v28.1c17,2.9,33.5,5.8,50.5,8.7v41.8h44v-96c3.6-.1,6.7-.3,10.3-.4,0-1.4.2-2.8.2-4.2,0-9.5.2-19,0-28.4-.1-4.1,3.5-6.2,6.3-8.7.5-.4,1.8-.4,2.7-.4,11.8,0,23.7,0,35.5,0,1.9,0,3.3.5,4.6,1.6,3.3,2.9,5.2,5.9,4.8,10.1-.5,5.4-.1,10.8-.1,16.5h18.5v-8.1c6.5-.6,12.5-.2,18.5-.3,6.2,0,12.5,0,18.7,0h18.5c0-1.8,0-3.1,0-4.4,0-7,0-14,0-21,0-1.5.4-3.2,1.3-4.4,8.1-10.6,17.1-20.7,28.3-29.4,3.2-2.5,6.8-4.7,10.5-6.7,6.2-3.4,13.2-4.2,20.1-1.9,5.4,1.8,10.8,3.9,15.7,6.6,13.2,7.3,24.1,16.6,34.1,26.6,2.4,2.4,3.3,5.1,3.3,8.3-.2,12.5,0,24.9,0,37.4,0,.8.1,1.5.2,2.6,6.4,1.9,12.8,3.7,19.6,5.7v28.2c1.6.1,2.9.3,4.1.3,42.4,0,84.8,0,127.2,0,1.1,0,2.2-.1,3.3-.2v338.7H0v-249.9Z"/>
</svg>