<?xml version="1.0" encoding="utf-8"?>
<!-- Generator: Adobe Illustrator 28.4.1, SVG Export Plug-In . SVG Version: 6.00 Build 0)  -->
<svg version="1.1" id="Calque_1" xmlns="http://www.w3.org/2000/svg" xmlns:xlink="http://www.w3.org/1999/xlink" x="0px" y="0px"
	 viewBox="0 0 30 30" style="enable-background:new 0 0 30 30;" xml:space="preserve">
<style type="text/css">
	.st0{fill:#FFFFFF;filter:url(#Adobe_OpacityMaskFilter);}
	.st1{mask:url(#mask0_941_751_00000098899779925365865330000001274153141684826782_);}
	.st2{fill:#FFFFFF;}
	.st3{fill:#FFFFFF;stroke:#88C1FF;stroke-width:1.5943;}
	.st4{fill:#FFFFFF;stroke:#007DFF;stroke-width:1.5943;stroke-linejoin:round;}
</style>
<defs>
	<filter id="Adobe_OpacityMaskFilter" filterUnits="userSpaceOnUse" x="6.2" y="2.9" width="25.6" height="30">
		<feColorMatrix  type="matrix" values="1 0 0 0 0  0 1 0 0 0  0 0 1 0 0  0 0 0 1 0"/>
	</filter>
</defs>
<mask maskUnits="userSpaceOnUse" x="6.2" y="2.9" width="25.6" height="30" id="mask0_941_751_00000098899779925365865330000001274153141684826782_">
	<path class="st0" d="M28.8,11.7c0-7.6-6.2-13.8-13.8-13.8S1.2,4.1,1.2,11.7S7.4,25.5,15,25.5S28.8,19.4,28.8,11.7z"/>
</mask>
<g class="st1">
	<path class="st2" d="M20.3,15c-0.6,1.5-2,2.3-2.6,2.5l0.7,0.7c1.6-0.7,2.7-0.2,3,0.1c0.4-1.5,1.6-1.3,2.2-1
		c-1.2-1.3,0.7-1.5,1.8-1.4C23.3,14.3,21.1,14.6,20.3,15z"/>
	<path class="st2" d="M21.3,18.5c-1.5,0.8-3.2,0.5-3.8,0.2l0,0.9c1.7,0.5,2.1,1.5,2.1,2c1.4-0.9,2.2,0.1,2.4,0.6
		c0-1.7,1.5-0.6,2.3,0.1C24.1,19.9,22.2,18.8,21.3,18.5z"/>
	<path class="st2" d="M7.2,14l1.9,4.1l3.8-2l-4.3-3L7.2,14z"/>
	<path class="st3" d="M29.9,24.3c-1.8,6.8-6.9,3.5-8.8,4.5"/>
	<path class="st4" d="M30.4,22.3L29,23.6l2,0.5L30.4,22.3z"/>
	<path class="st2" d="M10.8,15.3l-0.1-1.1l7.7,2.8L18,18.2L10.8,15.3z"/>
	<path class="st2" d="M13.8,4.8C13.8,4.8,13.8,4.8,13.8,4.8l-2.5-1.9l-4.6,6l3.6,2.8h0l0,0l2.4,1.8l0.2,0.2l0.4,0.3l0.2-0.2l0.2-0.3
		L18.1,8L13.8,4.8z M15.7,9.3c-0.9-0.1-1.6-1-1.7-1l0.4-0.4l0.4-0.4c0.1,0.2,0.6,0.6,1,0.7c0.4,0.1,0.6,0,0.6,0l0.6,1
		c-0.1,0.1-0.3,0.2-0.8,0.2C16.1,9.3,15.9,9.3,15.7,9.3z"/>
	<path class="st2" d="M17.7,5.2c-1.9,0.5-3.1,0-3.8-0.4c0,0,0,0,0,0c-0.1,0-0.1-0.1-0.2-0.1C12.4,3.8,11.4,3,11.4,3l-0.9,8.6l0,0
		l0,0.3c0,0.1,0,0.1,0,0.2l-0.2,1.4l0.3,0.2l1.3,0.9l2.4,1.7l0.7,0.5l0.2,0.2l0.7,0.5l0.8,0.6l0.3-0.4l0.8-1l2.1-2.7l3.7-4.6
		L17.7,5.2z M14,8.2l0.4-0.4l0.4-0.4c0.1,0.2,0.6,0.6,1,0.7c0.4,0.1,0.6,0,0.6,0l0.6,1c-0.1,0.1-0.3,0.2-0.8,0.2
		c-0.2,0-0.4,0-0.6-0.1C14.9,9.1,14.1,8.3,14,8.2z"/>
	<path class="st2" d="M7.9,20.4c2.1-3.4,2.3-5.8,2.2-6.6l10.6-0.9c-4.5,7.5-2.5,13.8,2.8,15.2c3.9,1.1,5.7-2.4,6.1-3.2l0,0
		c0,3-3.8,6.2-7.2,6.6L8.3,30.9c-0.3-0.5-0.6-1.1-0.9-1.7c-0.2-0.5-0.2-1.5-0.3-1.7c0,0-0.2,0-0.2,0c0-0.2-0.1-0.3-0.1-0.5
		C6.4,24.9,6.6,22.5,7.9,20.4z"/>
	<path class="st2" d="M15.1,32.9c-2.5-6.3-0.3-17.6,0.8-19.5c0,0-1.6,0.7-3.4,0.1s-2.1-1.9-2.1-1.9c-0.3,2.7-1.1,4.3-3.3,8.7
		c-1.8,3.5-0.8,7.4,1.4,9.3c2.1,1.9,3.6,2.4,4.6,2.8C14.1,32.9,15.1,32.9,15.1,32.9z"/>
	<path class="st2" d="M11.9,20.2l4.6-0.7l-1.3-4l-4,3.3L11.9,20.2z"/>
</g>
</svg>
