<?xml version="1.0" encoding="UTF-8"?><svg id="a" xmlns="http://www.w3.org/2000/svg" viewBox="0 0 1063.49 1192.66"><defs><style>.b{fill:#3b3e44;}.b,.c{stroke-width:5px;}.b,.c,.d,.e,.f,.g,.h,.i,.j{stroke:#000;stroke-miterlimit:10;}.c,.k{fill:#000;}.d{fill:#fff;}.d,.g,.h,.j{stroke-width:8px;}.l{fill:#b74141;}.l,.k{stroke-width:0px;}.e{fill:#4d4f54;stroke-width:3px;}.f{fill:#e04b4b;}.f,.i{stroke-width:7px;}.g{fill:#ffbb83;}.h{fill:#37383f;}.i,.j{fill:#454a60;}</style></defs><path class="g" d="M844.45,572.44c-.11,38.29-5.56,97.18-35.34,159.53-50.54,105.81-169.1,217.25-250.22,187.76-49.55-18.01-86.96-92.32-70.69-135.53,11.07-29.37,45.66-40.96,49.48-81.88.46-4.9.2-7.26-2.82-36.71-3.21-31.34-5.7-55.7-7.07-69.18"/><path class="d" d="M895.33,506.09c5.64,8.03,15.56,23.21,24.03,43.76,89.03,215.88-171.22,562.67-430.23,644.53-20.57,6.5-87.81,27.1-107.35,1.47-20.48-26.86,30.33-79.69,85.29-230.88,15.43-42.45,24.22-66.62,33.82-102.94,24.16-91.36,25.23-152.69,45.17-155.36,16.97-2.27,21.92,41.14,53.8,48.59,25.81,6.03,40.06-17.49,103.2-57.88,60.64-38.79,77.55-36.32,108.15-68.47,22.12-23.24,34.97-47.3,42.41-64.24,5.96-3.35,12.68-7.82,18.79-13.71,8.44-8.14,12.34-16.57,15.13-22.29,2.66-5.46,5.74-13.06,7.78-22.58Z"/><path class="h" d="M895.73,511.16c3.65-4.23,17.29,2.07,19.15,2.94,27.39,12.89,39.1,44.82,42.71,54.41,35.44,94.33,57.3,87.94,76.7,169.45,13.48,56.62,12.93,104.34,12.73,115.41-3.71,197.94,37.99,334.3-13.61,410.86-74.73,110.88-344.75,95.76-647.18-20.72,51.79-59.82,90.19-111.12,114.87-145.59,131.14-183.19,154.21-281.28,251.81-377.94,33.3-32.97,59.44-73.27,95.72-102.94,26.71-21.84,59.54-44.02,58.9-75-.27-13.11-6.45-23.78-11.8-30.88Z"/><path class="g" d="M298.76,664.91c-25.53-14.74-36.93-31.1-41.71-45.88-8.17-25.29,5.61-38.01-4.25-63.53-5.14-13.3-9.05-10.31-40.29-46.59-18.96-22.02-14.15-19.22-36.76-45.88-19.44-22.93-23.76-25.91-28.28-37.41-4.6-11.71-4.24-19.12-12.02-26.82-6.25-6.19-17.9-12.7-27.57-9.18-12.7,4.63-16.87,24.75-15.55,38.82,1.77,18.78,13.29,26.2,29.69,52.94,10.24,16.7,16.65,31.56,20.5,41.65-3.67.53-9.32,1.2-16.26,1.41-10.86.33-13.81-.79-21.91,0-6.2.6-12.57,1.22-19.79,4.94-4.05,2.08-13.08,7.56-18.37,18.35-1.52,3.09-2.35,5.84-2.82,7.76-1.75-.27-6.51-.75-10.6,2.12-4.06,2.84-5.13,7.35-6.13,11.53-.41,1.71-1.11,5.27-.47,14.12.3,4.15.93,9.89,2.35,16.71-3.47.99-8.66,3.08-12.73,7.76-9.39,10.83-6.48,28.28,0,38.82,2.01,3.27,5.19,7.22,21.21,16.94,8.54,5.19,20.91,12.11,36.76,19.06,2.75,5.82,6.87,13.73,12.73,22.59,6.88,10.41,11.73,17.74,19.09,24,14.22,12.1,23.92,8.37,45.94,19.06,7.68,3.73,17.64,9.59,28.28,19.06"/><path class="k" d="M105.62,589.8c6.33,7.39,12.7,15.12,15.71,24.53,2.76,8.6,2.39,18.49-3.28,25.85-5.18,6.7-13.7,10.01-21.91,7.23-8.81-2.98-15.29-10.64-21.68-17.01-8.59-8.55-17.17-17.11-25.76-25.66-2.28-2.28,1.25-5.81,3.54-3.54,7.06,7.03,14.12,14.06,21.17,21.09,3.48,3.47,6.95,6.95,10.44,10.4,2.79,2.76,5.68,5.49,9.01,7.6,3.12,1.97,6.6,3.33,10.34,3.13,3.22-.17,6.33-1.73,8.68-3.89,5.85-5.34,7.14-13.47,5.43-20.95-2.25-9.82-8.83-17.77-15.23-25.25-.88-1.03-1.01-2.53,0-3.54.9-.9,2.65-1.03,3.54,0h0Z"/><path class="k" d="M201.77,569.79c-6.43-14.29-20.91-22.85-35.71-26.32-9.64-2.26-19.65-2.53-29.51-2.22-5.1.16-10.18.49-15.27.82-4.79.32-9.59.75-14.4.65-5.23-.1-10.45-.94-15.14-3.33-2.95-1.51-8.41-5.94-11.7-2.77-2.31,2.24-5.86-1.29-3.54-3.54,3.56-3.44,8.69-2.75,12.8-.75,2.12,1.04,4.07,2.43,6.25,3.34,2.07.87,4.32,1.41,6.54,1.71,4.83.66,9.76.29,14.6-.02,5.25-.34,10.49-.71,15.75-.96,18.94-.89,38.78.22,55.27,10.58,7.84,4.92,14.57,11.78,18.39,20.27.55,1.23.35,2.69-.9,3.42-1.07.63-2.86.34-3.42-.9h0v.02Z"/><path class="k" d="M116.47,541.43c-.45.5-.89,1.02-1.3,1.55.16-.21,0,.01-.07.1-.13.17-.25.34-.37.51-.2.28-.39.55-.57.84-.77,1.16-1.46,2.38-2.06,3.64-.15.3-.29.61-.42.92-.05.11-.15.35-.05.1-.06.16-.13.31-.19.47-.25.63-.47,1.27-.68,1.91-.43,1.37-.76,2.77-1,4.19-.22,1.29-1.88,2.13-3.08,1.75-1.4-.45-1.98-1.69-1.75-3.08,1.03-6.12,3.9-11.82,8.02-16.45.87-.98,2.66-.96,3.54,0,.96,1.04.93,2.49,0,3.54h-.01Z"/><path class="k" d="M99.56,542.52c-1.57,5.87-7.01,9.18-12.34,11.24-6.1,2.36-13.08,3.54-19.15.5-2.88-1.45-.35-5.76,2.52-4.32,4.68,2.35,10.33.86,14.96-.87,3.76-1.41,8.06-3.72,9.17-7.87.83-3.1,5.67-1.79,4.83,1.33h0Z"/><path class="k" d="M115.18,630.17c-2.36-3.57-5.16-6.8-8.34-9.66-.61-.55-1.24-1.19-1.99-1.55s-1.64-.3-2.48-.22c-1.77.18-3.61.52-5.31,1.1-1.45.49-2.79,1.37-3.39,2.84-.66,1.63-.67,3.53-.64,5.26.09,4.16,1.33,8.17,3.48,11.72,1.67,2.76-2.65,5.27-4.33,2.52-2.13-3.52-3.44-7.4-3.96-11.47-.48-3.78-.5-8.52,1.81-11.75,2.16-3.02,5.73-4.2,9.24-4.79,2.08-.35,4.29-.77,6.37-.23,1.92.51,3.44,1.87,4.88,3.17,3.42,3.11,6.42,6.68,8.96,10.53,1.78,2.69-2.55,5.2-4.33,2.52h.02Z"/><path class="k" d="M98.51,645.32c3.36,2.97,6.82,5.86,10.07,8.94,3.04,2.87,5.83,6.33,6.76,10.5.93,4.17-.12,7.95-2.72,11.14-2.25,2.77-5.5,4.7-8.74,6.11-4.56,1.99-9.61,3.49-14.56,2.02-3.08-.92-1.77-5.74,1.33-4.82,3.45,1.03,6.99-.03,10.22-1.33,2.62-1.05,5.26-2.46,7.26-4.48s3-4.67,2.32-7.51c-.8-3.35-3.13-5.94-5.58-8.24-3.22-3.02-6.61-5.87-9.91-8.79-1.01-.89-.91-2.62,0-3.54,1.01-1.01,2.52-.9,3.54,0h0Z"/><path class="k" d="M106.85,672.32c-3.05-2.89-6.12-5.78-9.17-8.67-1.38-1.3-2.72-2.66-4.18-3.88-1.01-.85-2.35-1.82-3.75-1.75-2.73.14-4.96,3.52-6.07,5.69-1.35,2.65-1.89,5.84-1.41,8.78.22,1.33-.35,2.69-1.75,3.08-1.2.33-2.85-.41-3.08-1.75-.7-4.24-.13-8.42,1.74-12.29,1.67-3.47,4.83-7.3,8.73-8.27,4.6-1.13,8.22,2.06,11.31,4.98,3.72,3.51,7.44,7.03,11.16,10.54,2.34,2.22-1.2,5.75-3.54,3.54h.02Z"/><path class="k" d="M157.41,615.47c-16.84-1.95-33.26-9.69-42.46-24.42-2.38-3.81-4.18-8.02-5.23-12.39-.76-3.13,4.08-4.46,4.83-1.33,3.55,14.69,15.7,25.42,29.68,30.17,4.27,1.45,8.7,2.44,13.18,2.96,1.34.16,2.5,1.04,2.5,2.5,0,1.23-1.15,2.66-2.5,2.5h0Z"/><path class="k" d="M113.71,587.8c-8.95,1.96-18.28,1.07-26.71-2.52-7.72-3.3-14.26-8.96-18.86-15.96-2.54-3.87-4.44-8.19-5.62-12.66-.81-3.12,4.02-4.44,4.83-1.33,3.89,14.82,16.46,26.09,31.69,28.19,4.43.61,8.96.42,13.32-.54,3.14-.69,4.49,4.13,1.33,4.82h0Z"/><path class="k" d="M134.13,602.7c-3.3,16.38-5,33.65-.71,50.02,1.89,7.21,5.07,13.95,10.22,19.4,4.53,4.78,10.05,8.42,15.9,11.39,6.86,3.48,14.14,6.02,21.44,8.38,3.05.99,1.74,5.82-1.33,4.82-13.5-4.36-27.58-9.48-38-19.49-12.25-11.75-15.81-29.37-15.8-45.75,0-10.12,1.43-20.2,3.43-30.11.27-1.32,1.84-2.09,3.08-1.75,1.38.38,2.01,1.75,1.75,3.08h.01Z"/><path class="k" d="M110.72,588.92c4.62,3.92,8.67,8.38,12.23,13.28l-4.33,2.52c-3.65-5.6-8.59-10.24-14.37-13.61l3.03-3.93c.46.59.74.68,1.27.34.78-.5,1.31-1.14,2.23-1.43.85-.28,1.81-.26,2.67-.04,1.57.4,2.96,1.43,4.25,2.37,1.41,1.03,2.76,2.14,4.03,3.34,2.01,1.91-.71,5.65-3.03,3.93-.73-.54-1.45-1.07-2.18-1.61l3.67-2.82c.28,1.3.77,2.37,1.54,3.45,1.23,1.7-.84,4.45-2.82,3.67-.61-.24-1.22-.48-1.83-.72l3.08-3.08,2.35,7.9c.45,1.5-.8,3.25-2.41,3.16-.95-.05-1.84-.25-2.62-.82l3.03-3.93c2.77,3.58,5.12,7.39,6.89,11.56,1.27,2.98-2.35,5.09-4.33,2.52l-2.8-3.65,4.58-1.93c.31,1.66.61,3.33.92,4.99.2,1.1-.13,2.23-1.15,2.82-.92.54-2.29.43-3.03-.39-1.95-2.17-3.36-4.68-4.13-7.51-.59-2.19,1.77-3.8,3.67-2.82,1.44.74,2.57,1.85,3.43,3.21,1.48,2.35-2.11,5.27-3.94,3.03-2.26-2.79-4.35-5.72-6.18-8.81-.57-.95-.39-2.25.39-3.03.71-.71,2.17-1.06,3.03-.39l2.63,2.02-3.67,2.82c-.47-2.13-1.11-4.21-1.92-6.23-1.05-2.6,3.45-4.52,4.58-1.93s2.71,4.85,4.84,6.75l-4.19,1.1c.1-.49.08-.89-.03-1.37-.4-1.74,1.18-3.73,3.08-3.08.93.32,1.86.64,2.79.97l-3.08,3.08c-.12-.82.1-.13-.03-.2l3.67-2.82c.25.91,1.01,1.54,1.6,2.24.79.93,1.48,1.9,1.78,3.1.64,2.6-.33,4.98-2.84,6-.86.35-1.79-.11-2.43-.64-5.38-4.42-10.51-9.11-15.39-14.08-1.73-1.76,0-4.87,2.43-4.18,5.31,1.51,8.27,6.34,10.61,10.97,1.45,2.86-2.86,5.4-4.33,2.52-1.69-3.34-3.72-7.56-7.62-8.67l2.43-4.18c4.88,4.97,10.01,9.67,15.39,14.08l-2.43-.64c.29-.12-.81.58-.62.55,0,0,.01-.19,0-.26-.05-.46-.27-.74-.64-1.18-1.14-1.35-2.29-2.55-2.77-4.31-.58-2.15,1.77-3.85,3.67-2.82,1.2.65,2.13,1.82,2.33,3.18.25,1.71-1.07,3.77-3.08,3.08-.93-.32-1.86-.64-2.79-.97l3.08-3.08c.31,1.38.31,2.65.03,4.03-.4,1.95-2.87,2.28-4.19,1.1-2.4-2.15-4.35-4.81-5.63-7.77l4.58-1.93c.81,2.03,1.45,4.1,1.92,6.23.41,1.88-1.8,4.26-3.67,2.82l-2.63-2.02,3.42-3.42c1.61,2.72,3.4,5.34,5.4,7.8l-3.94,3.03c-.42-.67-.93-1.06-1.63-1.42l3.67-2.82c.53,1.98,1.46,3.77,2.83,5.3l-4.19,2.43c-.31-1.66-.61-3.33-.92-4.99-.53-2.89,2.85-4.17,4.58-1.93l2.8,3.65-4.33,2.52c-1.59-3.74-3.61-7.33-6.11-10.55-.76-.99-1.04-2.23-.2-3.28.71-.89,2.2-1.38,3.23-.64.37.23.4.28.09.14l-2.41,3.16c-.78-2.63-1.57-5.27-2.35-7.9-.5-1.69,1.27-3.78,3.08-3.08.61.24,1.22.48,1.83.72l-2.82,3.67c-1-1.38-1.69-2.97-2.05-4.64-.41-1.91,1.78-4.22,3.67-2.82.73.54,1.45,1.07,2.18,1.61l-3.03,3.93c-1.12-1.06-2.28-2.06-3.54-2.95-.7-.49-1.49-.88-2.17-1.38-.05-.04-.42-.1-.17-.14s-.23.23-.35.33c-2.38,2-6.14,2.17-8.21-.45-.77-.98-1.03-2.23-.2-3.28.77-.96,2.13-1.29,3.23-.64,6.53,3.8,12.04,9.09,16.16,15.4.74,1.13.23,2.76-.9,3.42-1.26.74-2.63.2-3.42-.9-3.29-4.54-7.17-8.63-11.45-12.27-1.03-.88-.9-2.63,0-3.54,1.02-1.02,2.5-.88,3.54,0h0l.03.08Z"/><path class="k" d="M100.91,591.66c-1.38-.84-2.76-1.67-4.15-2.51-.54-.33-.98-.88-1.15-1.49s-.09-1.4.25-1.93.86-1,1.49-1.15,1.34-.1,1.93.25c1.38.84,2.76,1.67,4.15,2.51.54.33.98.88,1.15,1.49s.09,1.4-.25,1.93-.86,1-1.49,1.15-1.34.1-1.93-.25h0Z"/><path class="k" d="M129.62,611.01c-1.07,8.17-1.48,16.41-1.23,24.65.08,2.47-3.47,3.42-4.67,1.26-3.32-6.04-4.97-12.89-4.66-19.78.15-3.2,5.16-3.22,5.01,0-.28,6.03,1.06,11.96,3.98,17.26l-4.67,1.26c-.25-8.24.16-16.48,1.23-24.65.18-1.34,1.02-2.5,2.5-2.5,1.21,0,2.68,1.15,2.5,2.5h0Z"/><path class="k" d="M124.75,622.34c-.83,7.82-1.66,15.64-2.48,23.47-.14,1.34-1.05,2.5-2.5,2.5-1.24,0-2.64-1.15-2.5-2.5.83-7.82,1.66-15.64,2.48-23.47.14-1.34,1.05-2.5,2.5-2.5,1.24,0,2.64,1.15,2.5,2.5h0Z"/><path class="k" d="M124.45,631c1.1,7.6,2.02,15.22,2.74,22.87.13,1.35-1.24,2.5-2.5,2.5-1.46,0-2.37-1.15-2.5-2.5-.68-7.2-1.53-14.38-2.56-21.54-.19-1.33.33-2.69,1.75-3.08,1.17-.32,2.88.4,3.08,1.75h-.01Z"/><path class="k" d="M140.08,674.11c-3.24,7.95-2.54,16.61-1.83,24.97.24,2.78-4.42,3.44-4.92.66-2.28-12.68-6.89-24.79-13.64-35.76h4.33c-1.39,2.44-3.13,4.67-5.16,6.61l-2.43-4.18c1.97-.79,4.05-.85,6.11-.42l-2.43,4.18c-.62-.72-1.53-.98-2.39-1.36-1.08-.48-2.06-1.11-2.82-2.03-1.62-1.93-2.25-4.48-3.58-6.61-2.58-4.15-6.45-7.36-10.14-10.5-1.39-1.18-.68-3.83,1.1-4.18,5.91-1.14,11.46-3.32,16.54-6.53,2.4-1.51,5.1,1.97,3.03,3.93-3.24,3.09-6.95,5.66-11.01,7.55l-1.93-4.57c4.74-.79,11.38-2.33,13.44-7.31.77-1.86,3.42-2.65,4.58-.6,2.9,5.18,1.85,11.35,3.7,16.86,1.82,5.47,5.38,10.23,8.75,14.83,1.46,2-1.43,4.83-3.42,3.42-.88-.63-1.77-1.25-2.65-1.88l3.77-2.16c-.14,2.59-.28,5.18-.41,7.77s-3.3,3.4-4.67,1.26c-2.76-4.34-5.51-8.69-8.23-13.05-1.34-2.15-2.67-4.3-4.01-6.45-.75-1.22-1.89-2.49-1.54-4.01.25-1.08.51-1.77.21-2.88-.74-2.69,3.2-4.46,4.58-1.93,2.39,4.41,4.33,9.06,5.74,13.87l-4.92.66c.16.31.13.27-.11-.13-.17-.27-.31-.56-.41-.87-.18-.51-.27-.99-.24-1.54.08-1.4,1.07-2.6,2.47-2.81,2.67-.41,4.61,2.85,2.6,4.85-1.09,1.09-3.18.93-3.94-.51-1.5-2.89-3.01-5.77-4.52-8.66l2.82,1.15c1.18-.49.97-1.48.98-.34,0,.39.03.76,0,1.15-.09,1.15-.67,2.12-1.55,2.84-1.81,1.47-4.6,1.08-5.27-1.39l4.92-.66c.04.85.07,1.7.11,2.55.1,2.35-3.67,3.59-4.67,1.26s-2.13-4.29-3.57-6.22c-1.01-1.36.11-3.23,1.49-3.67.5-.16,1.13-.83,1.06-1.35l3.08,1.75c-2.53.78-5.11,1.27-7.73,1.58l1.77-4.27c2.4,2.83,5.06,5.41,7.94,7.75,1.05.85.88,2.65,0,3.54-1.04,1.04-2.48.85-3.54,0-2.88-2.34-5.54-4.92-7.94-7.75-1.49-1.75-.41-4.01,1.77-4.27s4.32-.75,6.4-1.4c1.16-.36,2.9.43,3.08,1.75.46,3.37-1.22,6.45-4.56,7.51l1.49-3.67c1.44,1.93,2.63,4,3.57,6.22l-4.67,1.26c-.04-.85-.07-1.7-.11-2.55-.12-2.84,4.19-3.36,4.92-.66l-.08-.23-.9-.9.15.08-1.26-.34s-.48.12-.56.19c-.26.22-.17,1.19-.33.53-.13-.55-.01-1.29.06-1.83.22-1.63,1.13-2.64,2.61-3.25.97-.4,2.36.26,2.82,1.15,1.5,2.89,3.01,5.77,4.52,8.66l-3.94-.51.12-.12-.73,1.77v-.15c.11.42.23.84.34,1.26l.15.23,1.1.64h.29c.42-.1.84-.22,1.26-.33l-.17.1.9-.9-.14.25.34-1.26c.03-.33.29.43.35.56.31.63.47,1.27.4,1.98-.27,2.69-4.08,3.53-4.92.66-1.3-4.41-3.03-8.63-5.23-12.67l4.58-1.93c.5,1.83.48,3.76-.21,5.54l-.25-1.93c4.46,7.23,8.96,14.42,13.52,21.58l-4.67,1.26c.14-2.59.28-5.18.41-7.77.09-1.73,2.11-3.33,3.77-2.16.88.63,1.77,1.25,2.65,1.88l-3.42,3.42c-3.49-4.77-6.92-9.63-8.97-15.22-1.02-2.78-1.47-5.64-1.73-8.58-.24-2.69-.39-5.48-1.73-7.89l4.58-.6c-2.85,6.9-10.03,9.66-16.93,10.81-1.23.2-2.45-.22-2.95-1.45-.43-1.06-.12-2.59,1.02-3.12,3.7-1.72,7.05-3.96,10-6.77l3.03,3.93c-5.41,3.41-11.46,5.82-17.73,7.03l1.1-4.18c3.85,3.26,7.66,6.61,10.48,10.83.67,1.01,1.27,2.06,1.78,3.17.48,1.04.84,2.21,1.51,3.15.51.72,1.31,1.01,2.1,1.35,1.14.49,2.22,1.03,3.05,1.99,1.65,1.91.07,4.7-2.43,4.18-1.21-.25-2.31-.03-3.44.42-2.39.95-4.14-2.55-2.43-4.18s3.18-3.51,4.38-5.6c.95-1.66,3.35-1.58,4.33,0,6.96,11.31,11.79,23.9,14.14,36.96l-4.92.66c-.75-8.77-1.39-17.96,2.01-26.3.51-1.25,1.66-2.13,3.08-1.75,1.18.33,2.26,1.82,1.75,3.08h0v.02Z"/><path class="k" d="M122.51,670.33c-.2,0-.39.01-.59.03-.19.01-.52.06-.16,0-.39.06-.77.14-1.15.25s-.75.23-1.12.37c.33-.12-.02,0-.16.08-.18.08-.35.17-.53.27-.35.19-.68.39-1.01.62-.13.09-.26.18-.38.28.33-.26-.08.08-.14.13-.3.26-.58.53-.85.82-.13.15-.26.29-.39.45.27-.32-.12.18-.17.25-.72,1.03-1.92,1.53-3.12,1.02-1.1-.46-1.83-1.75-1.45-2.95.58-1.83,1.38-3.61,2.42-5.22.56-.86,1.18-1.68,1.84-2.45.28-.32.56-.64.86-.94.14-.15.29-.28.43-.43l.24-.24c.12-.13.1-.11-.05.06l-.08.19c.03.54,0,.66-.07.37-.08-.09-.03-.12-.13-.35-.2-.47-.41-.93-.61-1.39-.46-1.06-1.05-2.13-1.4-3.23-.49-1.57.24-3.39,1.93-3.82.74-.19,1.5-.06,2.17.29.89.47,1.22,1.41,1.32,2.35.15,1.3-1.26,2.56-2.5,2.5-1.48-.07-2.34-1.1-2.5-2.5v-.11c.23.59.48,1.18.72,1.77l-.07-.08,1.1.64h.97c.37-.21.74-.43,1.1-.64l-.09.09.64-1.1-.06.24v-1.33c.08.48.51,1.33.8,1.99.34.78.69,1.56,1.03,2.35.47,1.1.77,2.2.43,3.4-.26.9-.86,1.61-1.51,2.25-.48.48-.94.99-1.38,1.51-.25.3-.02.02-.16.2-.1.14-.2.28-.3.42-.2.28-.38.56-.56.85-.38.62-.73,1.25-1.04,1.91-.07.15-.14.31-.21.47.13-.31-.04.12-.09.23-.14.36-.26.72-.38,1.09l-4.58-1.93c2.53-3.64,6.53-5.88,10.98-6.02,1.31-.04,2.56,1.18,2.5,2.5-.06,1.39-1.1,2.46-2.5,2.5h.01Z"/><path class="k" d="M123.46,658.1l7.72,8.43-3.94,3.03c-1.11-2.25-2.23-4.49-3.34-6.74-.3-.61-.44-1.26-.25-1.93.16-.58.61-1.21,1.15-1.49,1.24-.65,2.67-.28,3.42.9.98,1.53,1.95,3.07,2.93,4.6.7,1.11.27,2.81-.9,3.42-1.24.65-2.67.28-3.42-.9-.98-1.53-1.95-3.07-2.93-4.6l4.33-2.52c1.11,2.25,2.23,4.49,3.34,6.74.56,1.13.38,2.43-.64,3.23-.94.73-2.44.73-3.28-.2l-7.72-8.43c-.88-.96-1.03-2.59,0-3.54.96-.88,2.59-1.03,3.54,0h0Z"/><path class="k" d="M120.55,655.94c-1.31-3.22-2.36-6.54-3.13-9.92-.29-1.27.39-2.77,1.75-3.08,1.27-.29,2.77.38,3.08,1.75.77,3.39,1.82,6.71,3.13,9.92.23.56.04,1.43-.25,1.93s-.9,1.01-1.49,1.15c-.64.15-1.36.11-1.93-.25s-.89-.86-1.15-1.49h-.01Z"/><path class="k" d="M146.38,612.44c-12.86-4.47-24.01-12.78-32.02-23.77-.8-1.09-.19-2.79.9-3.42,1.26-.74,2.62-.2,3.42.9,7.2,9.87,17.49,17.46,29.03,21.47,1.27.44,2.12,1.71,1.75,3.08-.34,1.24-1.79,2.19-3.08,1.75h0Z"/><path class="k" d="M154.09,613.09c-7.14-.54-14.01-2.26-20.58-5.09-1.24-.53-1.52-2.36-.9-3.42.75-1.28,2.18-1.43,3.42-.9,5.7,2.45,11.87,3.94,18.05,4.41,1.35.1,2.5,1.08,2.5,2.5,0,1.27-1.15,2.6-2.5,2.5h0Z"/><path class="h" d="M403.79,1222.96c21.2-57.81,41.74-118.91,61.07-183.22,34.89-116.07,60.93-226.25,80.39-328.57.27-21.31-.6-61.42-12.31-64.03-13.33-2.96-42.77,42.25-53.87,56.18-.13.16-.75.94-1.54,1.95,0,.01-.01.02-.01.02-8.47,10.76-14.79,19.87-19.15,26.47.54-1.8,1.51-5.91-.57-8.25-3.05-3.44-10.63-.77-14.84.71-3.74,1.31-9.59,4.01-15.55,9.88-4.87-5.61-12.97-13.84-24.74-21.18-14.47-9.01-21.66-8.66-35.34-17.65-15.47-10.16-9.79-12.91-26.16-24.71-18.18-13.1-31.52-14.26-41.71-30.35-2.64-4.17-2.39-5.12-4.25-6.35-13.42-8.96-54.7,21.83-79.17,55.76-27.11,37.61-45.94,96.29-24.74,118.59,7.34,7.72,15.04,6.41,32.51,21.88,8.84,7.83,10.15,11.07,24.03,26.12,10.03,10.88,18.4,19.96,29.69,29.65,20.19,17.34,26.47,16.69,42.41,33.18,8.78,9.08,6.97,9.37,16.26,19.06,8.38,8.75,18.67,16.3,38.87,31.06,25.2,18.4,39.56,27.42,46.65,31.76,4.34,2.66,8,4.83,10.6,6.35-15.96,35.31-25,61.64-30.39,79.76-1.15,3.87-3.25,11.11-6.38,20.91-5.66,17.7-10.42,30.35-11.29,32.74-4.81,13.15-11.15,39.64-17.61,98.48"/><path class="k" d="M879.89,930.41c-13.44-1.15-26.79.98-39.9,3.82-11.96,2.6-23.91,5.37-35.72,8.56-22.08,5.96-44.19,14.09-61.89,28.98-16.64,13.99-28.57,32.48-38.2,51.77-4.92,9.86-9.28,19.98-13.46,30.17-4.69,11.45-9.34,22.92-13.67,34.51-8.91,23.85-16.47,48.71-17.12,74.35-.08,3.18-.04,6.34.09,9.52.14,3.47-5.25,3.46-5.39,0-1.09-26.27,5.43-52.11,14.11-76.72,4.31-12.24,9.18-24.29,14.03-36.32,4.24-10.5,8.56-20.97,13.37-31.23,9.38-20,20.83-39.51,36.91-54.9,17.15-16.43,38.86-26.21,61.38-32.94,11.5-3.44,23.19-6.15,34.87-8.85,13.35-3.09,26.88-6.12,40.64-6.42,3.32-.08,6.63.03,9.94.31,1.46.13,2.7,1.15,2.7,2.69,0,1.36-1.24,2.82-2.7,2.69h0Z"/><path class="k" d="M868.76,1054c-17.31,18.46-36.31,35.31-56.68,50.36-5.68,4.2-11.47,8.25-17.35,12.15-2.69,1.79-5.2-2.54-2.52-4.32,20.75-13.76,40.21-29.38,58.14-46.65,5.09-4.9,10.04-9.93,14.87-15.08,2.2-2.35,5.74,1.19,3.54,3.54h0Z"/><path class="i" d="M953.29,638.79c-43.82,48.47-87.65,96.94-131.47,145.41-15.55,19.29-31.1,38.59-46.65,57.88-15.93,4.54-29.23,8.48-39.43,11.56-9.06,2.74-16.37,4.99-25.59,8.2-6.56,2.28-11.94,4.28-15.55,5.65,6.13,16.47,12.26,32.94,18.37,49.41-67.85,80.94-135.71,161.88-203.57,242.82-15.78,9.5-33.35,19.08-52.72,28.22-11.63,5.49-22.94,10.37-33.82,14.71,72.33-98.56,126.35-180.89,161.47-236.34,64.43-101.73,85.12-143.18,134.65-209.32,36.66-48.95,95.29-117.93,184.83-190.21,3.44-8.77,6.19-20.4,2.82-32.47-4.33-15.55-16.46-23.46-14.14-26.82,2.28-3.3,16.65.42,28.28,8.47,19.18,13.28,25.33,34.82,29.69,50.82,7.5,27.51,6.25,52.76,2.82,72.01Z"/><path class="j" d="M504.68,786.08c-25.72,121.45-53.35,239.28-82.46,353.41-13.67,53.25-15.37,64.69-14.29,65.01,3.34.98,41.33-101.75,72.73-218.89,16.22-60.49,20.9-87.24,40.05-141.65,17.32-49.21,35.57-87.98,48.31-113.09-1.11-16.75-5.61-43.48-23.56-68.79-4.05-5.7-8.29-10.66-12.5-14.95-4.46,22.91-9.06,45.97-13.78,69.17-4.77,23.45-9.61,46.71-14.5,69.78Z"/><path class="k" d="M453.6,735.36c-9.03,18.91-15.01,39.35-17.7,60.12-2.7,20.86-2.29,42.18,1.44,62.89,2.11,11.7,5.26,23.21,9.4,34.35.47,1.27-.53,2.74-1.75,3.08-1.4.38-2.6-.48-3.08-1.75-7.53-20.22-11.71-41.64-12.59-63.19-.88-21.55,1.57-43.26,7.27-64.05,3.2-11.68,7.46-23.05,12.68-33.98.58-1.22,2.32-1.54,3.42-.9,1.25.73,1.48,2.2.9,3.42h.01Z"/><path class="k" d="M505.14,707.69c-12.02,27.41-18.66,57.17-19.56,87.07-.25,8.39-.06,16.79.58,25.16.1,1.35-1.22,2.5-2.5,2.5-1.44,0-2.4-1.15-2.5-2.5-2.32-30.49,1.3-61.45,10.53-90.6,2.6-8.21,5.67-16.26,9.12-24.15.54-1.24,2.35-1.52,3.42-.9,1.28.75,1.44,2.18.9,3.42h0Z"/><path class="k" d="M466.73,833.14c.83-13.39-3.18-26.66-11.25-37.38-.81-1.08-.17-2.79.9-3.42,1.28-.75,2.61-.19,3.42.9,8.53,11.34,12.82,25.75,11.93,39.91-.2,3.2-5.21,3.22-5.01,0h0Z"/><path class="k" d="M453.65,900.19c-5.15-17.31-7.79-35.34-7.87-53.4-.01-3.22,5-3.22,5.01,0,.07,17.64,2.66,35.16,7.69,52.07.92,3.09-3.92,4.41-4.83,1.33h0Z"/><path class="k" d="M431.51,734.17c-11.61,11.94-25.51,21.81-35.53,35.25-9.81,13.17-14.77,28.99-17.77,44.95-1.71,9.12-2.82,18.34-3.89,27.55-.15,1.34-1.04,2.5-2.5,2.5-1.23,0-2.66-1.15-2.5-2.5,1.93-16.75,3.92-33.73,9.41-49.76,2.7-7.91,6.26-15.58,10.96-22.51,4.71-6.93,10.76-13.33,17.01-19.19,7.06-6.63,14.5-12.87,21.26-19.83,2.25-2.31,5.79,1.22,3.54,3.54h0Z"/><path class="k" d="M415.35,740.02c-14.38,4.67-27.76,11.83-40.6,19.72-6.48,3.99-12.85,8.16-19.19,12.37-5.24,3.48-10.42,7.09-14.99,11.42-4.96,4.7-9.05,10.25-10.77,16.94-.8,3.11-5.64,1.79-4.83-1.33,3.39-13.17,14.48-22.11,25.22-29.44,12.65-8.63,25.61-17.04,39.22-24.08,7.91-4.09,16.11-7.67,24.59-10.42,3.07-1,4.39,3.83,1.33,4.82h0Z"/><path class="k" d="M334.61,721.46c-11.77,7.71-22.08,17.67-30.12,29.2-2.32,3.32-4.46,6.77-6.41,10.32-1.55,2.82-5.88.3-4.33-2.52,7.08-12.87,16.64-24.42,28.02-33.74,3.3-2.7,6.74-5.24,10.31-7.58,2.7-1.77,5.22,2.56,2.52,4.32h0Z"/><path class="k" d="M325.21,927.42c-10.2-21.04-24.52-39.95-42.03-55.47-4.87-4.32-9.96-8.35-15.29-12.1-1.1-.78-1.62-2.18-.9-3.42.64-1.09,2.31-1.68,3.42-.9,19.66,13.83,36.49,31.48,49.34,51.78,3.58,5.67,6.85,11.55,9.78,17.59.59,1.21.33,2.7-.9,3.42-1.1.64-2.83.32-3.42-.9h0Z"/><path class="g" d="M744.07,647.97c18.39-2.76,116.75-19.35,178.07-108.34,62.03-90.01,40.85-188.39,34.87-216.6-12.85-60.71-41.71-104.11-61.77-128.98,6.08-7.91,16.08-23.27,19.05-44.63,6.4-46.16-25.67-80.07-29.14-83.61-42.09-43.08-118.12-36.15-165.01-4.39-20.18,13.67-32.83,30.49-40.21,42.33-7.39-2.66-20.52-6.27-36.97-4.92-14.74,1.21-26.09,5.9-32.84,9.34-6.1-14.11-19.03-38.49-44.47-55.8-57.33-38.99-157.19-27.83-184.58,33.15-21.53,47.93,12.1,103.61,16.78,111.14-10.38,20.38-72.93,147.56-24.76,265.96,20.64,50.73,58.3,91.76,63.96,97.83,16.21,17.41,29.59,28.29,33.25,31.19,31.9,25.34,63.2,38.62,84.36,45.75"/><path class="f" d="M886.44,413.85c-21.37-14.8-52.93,8.27-90.96,16.05-53.94,11.04-55.77-21.98-127.53-20.16-51.79,1.32-64.27,18.86-121.61,13.73-27-2.42-40.49-3.62-56.15-10.42-23.48-10.2-37.24-25.07-63.98-25.76-8.39-.22-15.52-.3-20.47,4.6-13.07,12.96.63,49.36,10.95,67.81,23.07,41.25,65.08,56.84,107.26,71.82,30.42,10.81,98.2,34,186.91,22.12,47.2-6.32,75.13-19.19,130.19-44.57,7.67-3.54,43.48-20.52,56.31-49.58,2.25-5.12,6.67-15.5,3.35-26.92,0,0-3.22-11.1-14.27-18.75v.03Z"/><path class="c" d="M423.57,422.67c-1.34,1.93,2.82,7.37,6.42,11.53,0,0,16.7,27.48,44.28,48.78,11.15,8.62,29.56,17.93,54.87,25.02,32.15,9.01,75.42,14.42,129.01,10.16,37.57-2.98,73.37-10.19,104.25-18.82,61.15-17.1,103.06-39.82,101.42-46.65-1.37-5.73-27.2-5.04-43.24-2.69-12.07,1.77-17.7,4.35-26.59,6.57-13.29,3.31-26.64,4-59.3-.12-64.66-8.17-70.1-18.19-100.44-14.75-24.58,2.79-19.27,9.16-48.57,14.34-53.09,9.38-98.25-6.67-107.59-10.15-29.29-10.93-51.76-27.2-54.53-23.22Z"/><path class="l" d="M529.15,508.02c32.15,9.01,75.42,14.42,129.01,10.16,37.57-2.98,73.37-10.19,104.25-18.82.03-.2.03-.41.04-.6.27-22.48-84.87-49.6-104.44-26.72-8.39,9.81-4.13,28.07-11.31,30.04-6.56,1.8-10.52-13.27-25.22-22.87-23.39-15.26-56.86-5.77-76.03,8.01-6.25,4.49-17.57,12.62-16.29,20.81h0Z"/><path class="k" d="M603.32,299.88c-27.39,11.55-41.31,48.42-29.5,75.44l.7-.07c-.51-6.93-.3-13.91.65-20.79,2.39-17.15,9.78-33.65,21.32-46.62,2.28-2.62,4.72-5.1,7.3-7.44l-.46-.53h-.01Z"/><path class="k" d="M685.65,98.01c-8.4,6.87-14.42,16.64-17.02,27.14-2.39,10.51-3.5,21.36-2.35,32.09.81,7.07,2.3,14.03,4.72,20.63l.67-.19c-.66-3.42-1.16-6.86-1.5-10.3-1.16-13.54.14-27.51,5.1-40.21,2.43-6.33,4.61-12.62,7.14-18.95,1.24-3.21,2.59-6.4,3.82-9.8l-.57-.41h.01Z"/><path class="k" d="M850.47,74.5c14.58,10.04,27.44,22.95,36.27,38.28,4.46,7.56,7.19,15.68,9.89,23.94,5.8,19.22,3.52,40.56-6.34,58.07l-.74,1.33.47,1.45c5.47,17.01,6.79,35.74,1.44,52.93-11.61,37.38-49.84,51.04-85.76,53.51-31.05,1.82-62.17-9.19-87.31-27.1-17.64-12.48-31.94-28.97-43.42-47.22-1.2-1.84-2.37-3.69-3.72-5.61-1.19-1.6-2.88-4.18-5.38-4.61-1.58-.36-3.68.58-4.49,2.08-3.33,5.91,3.6,22.62,5.59,29.21,2.87,8.36,5.99,16.59,9.18,24.79,3.17,8.21,6.53,16.34,9.87,24.47-5.92-21.12-12.26-42.11-16.77-63.5-.68-3.73-1.6-7.99-1.66-11.64,0-.05,0-.1,0-.05,0,.03,0,0-.07.17-.58,1.24-2.39,1.8-3.53,1.16,1.38,1.51,3.54,5,5.09,7.34,21,34.36,54.28,61.69,93.51,72.42,17.23,5.1,35.82,6.7,53.61,4.05,31.08-3.6,64.5-17.63,78.12-47.75,4.49-9.27,6.83-19.62,7.41-29.88.62-12.49-1.23-25.06-5.07-36.94l-.27,2.78c12.52-22.01,13.33-48.84,4.11-72.22-9.88-22.68-28.52-40.12-50.06-51.48h0l.02.02Z"/><path class="k" d="M874,317.94c-17.37,13.71-38.6,22.58-61.03,20.57-5.49-.34-11.15-1.06-16.91-1.26-17.2-.48-34.64,4.44-49.13,13.64l.28.64c21.88-5.45,43.16-8.16,65.58-7.43,23.3.87,45.18-9.83,61.67-25.63l-.45-.53h0Z"/><path class="k" d="M622.32,138.45c-2.44-24.29-17.18-36.23-36.93-47.99-5.11-2.85-10.38-5.84-15.85-7.91-23.48-8.96-49-12.84-74.05-10.24-2.86.28-5.9.74-8.73,1.29-20.83,4.98-42.28,14.1-59.92,27.23-17.98,13.15-32.08,32.56-35.78,54.84-2.56,14.82-.65,30.08,4.1,44.06l.05-2.39c-6.2,15.64-8.07,34.12-1.76,50.19,14.41,36.57,58.84,55.3,95.6,59.37,33.03,4.44,67.49-6,92.49-27.89-24.93,17.12-50.02,22.63-79.81,21.76-19.86-.59-39.7-5.1-57.69-13.54-22.96-10.63-45.53-30.33-47.33-57.03-.8-10.62,1.46-21.47,5.52-31.51-9.9-27.01-5.95-56.65,13.55-78.25,18.13-20.68,47-33.72,71.94-39.9,5.58-1.09,11.29-1.65,16.96-1.89,19.76-.79,39.71,2.24,58.3,9.02,7.85,3.17,15.89,6.08,23.41,10.02,18.57,9.37,31.39,19.58,35.95,40.76h0Z"/><path class="b" d="M917.64,129.26c-28.67-9.7-52.63-13.78-69.12-15.72-44.75-5.25-85.2-.4-181.16,8.17-6.83.61-24.53,2.21-48.27,1.62-18.68-.47-32.35-2.09-38.69-2.79-42.5-4.76-86.88-5.93-105.13-5.89-25.52.06-61.97,2.63-106.6,14.41-1.34,8.36-2.07,18.75-.82,30.55.58,5.48,1.51,10.52,2.61,15.07,1.71,1.38,3.46,2.78,5.28,4.18,1.46,1.14,2.92,2.24,4.37,3.32,1.85,10.23,5.15,24.45,11.4,40.79,8.87,23.19,14.35,37.5,26.51,49.53,34.18,33.82,100.29,25.38,132.4,12.96,11-4.26,17.45-8.78,20.23-10.87,20.49-15.37,27.16-37.12,30.33-47.98,5.59-19.17,4.88-35.32,14.48-52.95,2.18-4.01,6.13-10.35,12.38-11.01,4.38-.46,8.17,2.06,10.37,3.73,14.96,11.32,22.79,33.16,23.4,34.85,0,0,7.19,19.94,30.25,48.95,37.12,46.68,119.03,44.16,128.78,43.74,21.22-.91,50.04-2.14,68.19-21.01,12.79-13.29,17.25-32.16,19.77-42.79,3.74-15.81.97-32.84,12.95-50.94,1.4-2.12,2.67-3.77,3.5-4.81.95-4.86,1.71-11.62.86-19.57-1.24-11.6-5.34-20.39-8.26-25.54Z"/><path class="e" d="M892.25,142.64c11.68,13.33,9.3,31.3,5.2,62.45-3.61,27.43-5.68,43.36-19.34,56-18.32,16.96-44.85,16.65-74.33,16.31-26.94-.31-57.96-.57-84.63-20.57-17.79-13.34-25.02-28.98-34.8-50.13-10.65-23.06-21.61-46.75-10.38-61.12,4.52-5.78,11.46-8.57,48.15-12.68,36.83-4.13,55.24-6.19,80.51-5.67,51.7,1.07,77.55,1.61,89.63,15.4h-.01Z"/><path class="e" d="M590.27,144.21c8.43,10.12,6.46,22.43,2.68,46.11-3.83,23.97-9.44,59.09-40.86,78.26-18.55,11.31-37.92,12.08-53.7,12.7-16.99.67-40.79,1.61-61.16-12.07-16.2-10.88-21.86-25.2-30.01-45.96-6.87-17.51-25.82-65.79-4.42-83.42,5.25-4.32,17.26-5.43,41.09-7.47,26.72-2.29,46.97-1.99,49.68-1.94,57.66,1.02,86.49,1.54,96.69,13.79h0Z"/></svg>