<?xml version="1.0" encoding="UTF-8"?>
<svg id="Calque_1" data-name="Calque 1" xmlns="http://www.w3.org/2000/svg" width="2782.9" height="791.3" version="1.1" viewBox="0 0 2782.9 791.3">
  <defs>
    <style>
      .cls-1 {
        fill: #000;
        stroke-width: 0px;
      }
    </style>
  </defs>
  <path class="cls-1" d="M294.2,678.3c7.3-4.4,14.6-8.7,22-13.1v4c3.9,1.5,8,4.7,11.7,4.3,54.4-6.1,108.8-12.7,163.2-19.2,4.1-.5,8.8-.6,12.1-2.6,11-6.4,20.7-4.3,33.3,4.2-6.3,6.8-11.4,14-18.1,19.3-26.2,21.1-52.8,41.6-81.1,63.7,21,0,40.2-.5,59.4,0,40.5,1.4,79.9-3.8,119.7-11.6,50.4-9.8,102.1-8.5,153.3-.4,24.7,3.9,35.3,3.5,37.9-28,3.9-46,3.5-92.3,4.9-138.5.4-11.6,1.1-23.3.8-34.9-.2-5.4-2.7-10.7-4.2-16.1-1.5.2-2.9.4-4.4.6-2.8,9.1-5.6,18.1-9.8,31.6-7.6-15.2-13.9-27.9-19-38.1-14.7,11.9-1.2,39.7-20.4,54.6-1.9-.3-3.7-.6-5.6-.9,1-21.1,2-42.3,3.1-66.1-16.3,10.7-30.7,20.2-45,29.7-1.2-1.3-2.5-2.6-3.7-3.9,13.4-11.2,26.8-22.5,40.2-33.7-.8-.9-1.6-1.7-2.4-2.6-15.8,6.9-31.5,13.8-49.6,21.8,2.8-11.7,9.7-18.7,18.1-24,9.1-5.7,20.9-7.1,26-19,1.7-4,9.1-5.7,14.7-9-12.9-10.5-26.2-19.3-43.5-22-5.4-.8-10.2-5.6-14.6-10.1,22-3.7,42.7-1,61.5,9.4,9.7,5.3,11.8,3.5,12.1-6.2.3-11.7-.2-23.8,2.8-35,1.4-5.3,10.1-8.9,15.6-13.1,2-1.5,4.3-2.6,8-4.8,1.3,10.7,2.5,21.2,4.2,34.6,11.1-11.4,20.8-21.5,30.5-31.5,1.2.1,2.4.3,3.6.4-1.9,6.9-2.7,14.3-5.8,20.5-3.7,7.2-9.4,13.4-16.5,23,20.8-10.1,37.8-18.3,54.7-26.5,1.3,1.8,2.5,3.7,3.8,5.5-16.7,17.1-39.9,26.9-57.3,42.7,41.2-4.1,81.5-16.9,126.7-10.8-2-5.6-3.7-10.3-5.4-15.1,7.1-2.2,12-5.2,2.7-13.3-5.8-5.1-9.3-12.8-15.3-17.6-6.4-5.1-14.6-8.1-22.1-12.1,13-17.2,48.1,10.7,66.4,39.3,15.5-28.1,42.9-46.3,71.8-39.6-9.1,3.8-16.8,6.9-25.3,10.4,3,3.5,5.3,6.1,7.9,9.1-7.5,3.5-14.8,7-22.1,10.5.3.8.6,1.5,1,2.3,6.9-1.1,13.8-2.2,24.3-3.8-13.4,10.3-23.7,18.2-34,26.2v3.7c35.8-12.1,67.4-.9,98.6,12.3-27.6-1.6-55.2-3.2-82.8-4.7-.2.6-.3,1.3-.5,1.9,1.8.5,3.6,1,7,2-6.1,4.1-11.3,7.6-13.7,9.2,29.2,21.4,59.1,43.2,89.6,65.5,0,.3,1.2-1.8,1.8-4,.7-2.5.9-5.2,1.5-9.1,19.1,0,38.1-1.3,56.7.4,14.6,1.3,29,6.2,45.9,10.1,0,20.6.3,43.4-.2,66.2-.2,9.1,2.9,12.6,14.2,9.6v-13.7c-.4-36.4-.3-72.8-1.5-109.2-.4-12,5.1-15.9,16-15.9h59.6v-106.5h44.1c1.2-5,2.2-9.1,3.3-13.7h25.8c.8,3.7,1.5,7.4,2.3,11.2,4.8-.6,9.3-1.3,13.8-1.7,11.3-.9,17.8,2.7,16.4,15.3-.9,7.5-.2,15.1-.2,24,8.1.6,15.2,1.1,22.5,1.7v249h33v-192.3c33.9-8.3,64.7-4,71.4,7.3,10.6.7,19.8,1.4,29.9,2v192.6h19.7v-322.7c7.2-.4,12.2-.8,17.5-1.1,1.9-11.8,3.8-23.4,5.6-33.9,10.4,2.2,17.1,4.6,23.9,4.9,14.8.6,29.7-.3,44.5.6,4.9.3,9.4,4.4,14.4,6.1,3.7,1.3,7.7,2.2,11.7,2.3,8.7.3,17.4.1,25.2.1,0,36.9-.2,72,0,107.2.2,34,1,68,1.1,102,0,24.6-.8,49.2-.4,73.8,0,3.4,4.9,9.3,8.1,9.6,10.4,1.2,21,.5,33.1.5v-17.1c.6-56.1,1.3-112.3,1.6-168.4,0-11.5,5.1-14.5,16.1-13.6,10.1.9,20.3.2,31.7.2.6,7.3,1.2,13.3,1.7,19.2h59.3v241.9h22.4v-213c11.7-4.7,21.1-8.5,30.6-12.4.3-5.3.5-10.1.7-14.9.6,0,1.2,0,1.8-.1.7,4.9,1.3,9.9,2,14.4,12,6.8,28.5-5.9,36.2,8.2,6.9-1.2,14.4-4.9,18.3-2.6,12.1,7,28.1,10.1,27.6,30.2-1.2,51.2-.4,102.4-.4,153.7v14h25.1v-159.6c15-7.3,30.6-3.5,46.6-1.2.6-8.2,1.1-14.2,1.6-21.7,22.2-3,43.9-6,66.8-9.2,1,9,1.6,14.7,2.4,21.8h30.8c.7,8,1.3,14.5,2,22.1h36.9v169.8h28.3v-161.5c6.8-.8,11.7-1.3,17.7-2-2.2-17.3,8.7-18.9,22.3-17.4,5.5.6,11.1.3,16.7,0,7.8-.4,10.5,2.8,12.9,10.4,10,31.5,2.5,63.6,4.7,95.3.5,6.7,0,13.4,0,21.1h16.8v-74.3c0-24.7,0-49.4.2-74.1,0-14.3,15.6-23.5,28.8-17.2,1.6.7,3.5.7,5.3.9,19.3,1.8,38.6,3.5,57.4,5.3,9.4,14.5-8.2,35.3,13.7,46.7,2.5,32.7,5.7,66.5,7.4,100.4,1.1,20.6-.2,41.3-.4,62v14.8h25.9c.4-5.7.8-10.9,1.2-16.2,1.3.4,2.7.8,4,1.2,2.3-5.2,5.7-10.2,6.7-15.6,1.2-6.5,0-13.4.4-20.2.3-5.6-2.9-12.9,7.5-14.4,1.5-.2,2.8-7.6,2.8-11.7.4-51.2.5-102.4.7-153.7v-14.7c15.8,2.7,27.3-.5,28.8-18.2,3.4,7.4,6.1,13,8.7,18.7,1.2-.2,2.4-.4,3.6-.5v-25.1c1.4,0,2.7-.2,4.1-.3.6,8.1,1.1,16.2,1.7,25.3,7.8.4,15.4.9,24.3,1.4,0,29.6-.3,58.7.2,87.8.1,8.2-5.5,19.5,9.4,22.7,1.3.3,1.6,6.5,1.7,9.9.1,20.1,0,40.2,0,61.7h30.9v67.5c7.1.5,12.9.8,19.2,1.3.7,6.2,1.3,11.8,2.1,19.2,22.1-7.1,43.1-7.8,63.1,7,1.7-45.1,3.2-86.8,4.7-128.5-1.3-.2-2.6-.3-3.9-.5-8.3,15.7-16.6,31.3-25.6,48.3-8.2-9.9-1.9-17.6.7-25.5,2.6-8,4.7-16.2,8.1-28-10,7.5-17,12.8-24.8,18.6v-8.1c-8.5,5.3-16.4,10.3-24.3,15.3-.8-.9-1.5-1.8-2.3-2.6,14.3-17.1,31.5-31.1,53.7-40.3-12.6-15.4-30.7-5.4-45.3-13,15.2-1.9,30.5-3.8,45.3-5.6-3.4-2.9-8.4-7.2-14.6-12.5,3.9-.2,6.4-.4,9.3-.5-5.5-5.9-10.9-11.8-17-18.4,18.6-.5,30.4,8.7,39.7,23.2,11.6-9.7,18.9-26.8,38-24.1-8.6,8.7-16.9,17.1-25.3,25.5.9,1.1,1.7,2.1,2.6,3.2,5.5-.5,10.9-1,16.4-1.5l.9,2.3c-4.6,3.2-9.1,6.4-16.4,11.5,19.9,2.8,38.2,3.6,49.5,16.8h-52.9c22.2,23.6,27.2,47,15.8,62.2-3-14.3-6.1-29.1-9.3-43.9-1,0-2.1.2-3.1.2-1,2.6-2,5.1-3.4,9-2.1-3.2-3.4-5.1-4.8-7.3-.6,1.1-1.4,1.8-1.4,2.5-.2,35.4-.8,70.9-.2,106.3.3,16.8,9.9,23.4,24.2,14.8,22.6-13.6,41.8,0,62.5,3.2v606.7H0v-560.9h251.8c-5.5-10.6-9.9-19.3-15.5-30,16.3-9.5,32.5-18.8,48.6-28.2-.5,2.7-1,5.5-1.6,8.6,23.3-2.5,28-5.3,30.4-17.8-6.8,2.3-13.2,4.5-19.5,6.7h0ZM855.4,490c-1.6.8-3.2,1.6-4.8,2.3-1.6,15.8-3.2,31.5-4.8,48-4.6-5.6-9.8-11.8-17.3-20.8-.7,13.9-1.3,24.6-1.7,35.3-2,52-3.9,103.9-5.8,155.9-.3,9.3,2.8,12,13.4,10.5,30.2-4.1,60.6-7.1,91-9.4,18.8-1.4,27.4-7.3,28.5-25.7,1.3-20.1,2-40.4,1.7-60.5-.5-35-2.3-69.9-3.1-104.9-.2-9.5,1.2-19.1,1.9-28.6-.9-.2-1.8-.4-2.7-.6-2.5,5.9-4.9,11.7-9.1,21.7-1.8-10.4-2.9-17.1-4.5-26.3-13.3,29-24.1,55.8-17.2,87.6-14.8-10.5-15.9-23.5-15.3-37.6.6-13.6,0-27.3,0-41h-2.9c-1.5,2.1-3,4.2-5.3,7.4v-20.9c-1-.6-2-1.2-3.1-1.8-6.2,12.6-12.4,25.2-18.1,36.8-6.7-8.8-13.8-18.1-20.9-27.4h0ZM1075.9,702.3c0-2.4,0-7.3,0-12.1,1.3-53.3,2.9-106.7,3.6-160.1,0-4.5-4.5-10.5-8.6-13.5-10.4-7.6-21.8-13.9-34.3-21.6,2.3,6.6,4.3,12.4,7.1,20.4-15.7-12.3-29.7-23.2-43.6-34.1,2.4,17.9,6.8,33.3,12.2,48.4,4.8,13.3,13,26.1.6,42.5-14.9-28.7-29.3-56.4-45-86.6-1.7,4.9-3.7,8.1-3.7,11.4-.4,23.8-1.1,47.6-.5,71.3.9,36.7,2.5,73.4,4.6,110,.6,11,3.5,22,6.7,32.5.9,2.8,7.5,6,11,5.5,29.1-4.1,58.1-9,89.9-14.1h0ZM825.9,454.7c25.2,16.5,53,15.7,71.6,0h-71.6Z"/>
  <path class="cls-1" d="M593.1,231.4c7.6,2.7,15.3,5.4,23.3,8.2-2.6,1.4-5.9,3.1-9.3,4.9,7.3,22.4,13.1,25.4,48.4,9.9-5,3.5-9.5,9-15.1,10.3-34.2,7.5-68.6,14.1-104.1,18.7,2.5-1.6,5-3.3,9.8-6.4-6-6.7-11.8-13.1-17.2-19.1-.6-3-.3-8.8-2.1-9.5-7.7-2.9-16.5-7.1-23.9-5.8-21.8,3.8-43.2,10-64.7,15.3-4.7,1.1-9.4,2-14.7,1.1,7.1-5.2,14.2-10.3,23.2-16.9-5.1-1.3-7.7-2-11.8-3,9.1-3.9,16.9-7.2,24.7-10.5-15.1-29.4-15.1-28.6-47.9-26.2-20.2,1.4-34.2,7.6-38.4,28.4-1.1,5.4-4.5,10.4-6.9,15.5-1.7-.4-3.5-.8-5.2-1.2,2.3-10.5,4.6-21,7-32.2-7.9-4.9-16.7-10.1-17.2-20.5,7.3.9,13,1.5,21.5,2.6-13.7-18.2-11.9-34.2,3.2-42.2,1.4,6.9,3.4,13.4,3.7,19.9.7,13.1,9,16.5,19.8,13.8,16.1-3.9,31.9-9.4,47.6-14.6,2.7-.9,5.1-3.6,7-6,9.9-12.9,18.7-26.7,29.7-38.6,5.1-5.4,14.1-8.7,21.9-10.1,16.2-2.9,23.6-12.5,25.1-27,.4-3.5-3.3-9.8-6.5-10.8-55.9-17.9-112-35.2-168.1-52.5-17.4-5.4-34.8-10.4-51.5-18,139.8,42.3,280.7,80.3,424.9,106.1-.2,1.3-.4,2.7-.6,4-5.5-.3-11.2,0-16.6-1.1-54-10.5-108.1-20.9-162-32.2-9.7-2-15.5,1-16,8.7-.3,5.8,3.5,15.2,8.1,17.3,18.3,8.3,38.3,13.1,56.5,21.7,10.2,4.8,18.7,13.8,26.7,22,5.2,5.4,9.7,12.4,11.6,19.4,1.6,5.7-.2,12.7-1.9,18.7-1.7,5.7-5.4,10.8-7.5,14.8-14.3,3.5-28.4,6.9-43,10.5,3.3,5.1,5.9,9.2,8.6,13.3-16.2-10.6-56.2-5.1-68,10.8,5.2,3.6,11.1,11,15.7,10.3,18.9-2.9,37.5-8.2,56.9-12.8-2.4-4.1-3.8-6.5-5.1-8.8l.4-.2ZM535.6,260.2c9,7.4,15.5,16.9,20.9,16.4,18.5-1.8,36.6-7.2,59.3-12.2-8.3-7.4-14.9-17.8-20.3-17.3-18.6,1.9-36.7,7.7-59.8,13.1h-.1ZM447.3,250.2c15.1-3.7,30.2-7.5,45.3-11.2-18.3-7.7-34.2-6.7-45.3,11.2Z"/>
</svg>