<?xml version="1.0" encoding="utf-8"?>
<!-- Generator: Adobe Illustrator 28.4.1, SVG Export Plug-In . SVG Version: 6.00 Build 0)  -->
<svg version="1.1" id="Calque_1" xmlns="http://www.w3.org/2000/svg" xmlns:xlink="http://www.w3.org/1999/xlink" x="0px" y="0px"
	 viewBox="0 0 30 30" style="enable-background:new 0 0 30 30;" xml:space="preserve">
<style type="text/css">
	.st0{fill:#FFFFFF;}
</style>
<g id="Group">
	<path class="st0" d="M24.7,5.2l-7.4,3.5c-0.1,0.1-0.2,0.3,0,0.4c0.9,0.4,3.5,1.4,4.9,3.6c-0.2-0.2-3.3-3-7.2-3s-7,2.9-7.2,3
		c1.4-2.2,4-3.2,4.9-3.6c0.1-0.1,0.1-0.3,0-0.4L5.3,5.2C5.2,5.1,5,5.2,5,5.4v10.3c0,3,1.5,5.8,4.1,7.5c0,0,0,0,0.1,0
		c2.4,1.5,4.7,1.6,5.8,1.6c1.2,0,3.4-0.2,5.8-1.6c0,0,0,0,0.1,0c2.6-1.6,4.1-4.4,4.1-7.5V5.4C25,5.2,24.8,5.1,24.7,5.2z M10.5,18.6
		c-1.8,0-2.9-1.4-3-1.6c-0.2-0.2-0.1-0.5,0.1-0.7c0.2-0.2,0.5-0.1,0.7,0.1c0.1,0.2,0.9,1.2,2.2,1.2h0c1.2,0,2-1,2.1-1.2
		c0.2-0.2,0.5-0.3,0.7-0.1c0.2,0.2,0.3,0.5,0.1,0.7C13.3,17.2,12.3,18.5,10.5,18.6z M16.5,19.1L15.2,20c-0.1,0.1-0.2,0.1-0.3,0
		l-1.3-0.9c-0.2-0.1,0-0.3,0.1-0.3h2.6C16.6,18.8,16.7,19,16.5,19.1z M22.5,17c-0.1,0.2-1.1,1.5-2.9,1.6c-1.8,0-2.9-1.4-3-1.6
		c-0.2-0.2-0.1-0.5,0.1-0.7c0.2-0.2,0.5-0.1,0.7,0.1c0.1,0.2,0.9,1.2,2.2,1.2c0.6,0,1.1-0.3,1.5-0.5c0.3-0.3,0.6-0.6,0.6-0.6
		c0.2-0.2,0.5-0.3,0.7-0.1C22.6,16.4,22.6,16.8,22.5,17z"/>
</g>
</svg>
