<?xml version="1.0" encoding="utf-8"?>
<!-- Generator: Adobe Illustrator 28.4.1, SVG Export Plug-In . SVG Version: 6.00 Build 0)  -->
<svg version="1.1" id="a" xmlns="http://www.w3.org/2000/svg" xmlns:xlink="http://www.w3.org/1999/xlink" x="0px" y="0px"
	 viewBox="0 0 183.1 96.7" style="enable-background:new 0 0 183.1 96.7;" xml:space="preserve">
<style type="text/css">
	.st0{fill:#B6C6AE;stroke:#000000;stroke-width:3;stroke-miterlimit:10;}
	.st1{fill:#818E79;}
	.st2{fill:#B6C6AE;}
</style>
<path class="st0" d="M181.6,79.8c-24.5-1.5-52.9-1.6-84.4,1.1c-32.4,2.8-61.2,8.1-85.6,14c-2.7-12.2-5.1-25.6-6.9-40
	C3.1,42.6,2.1,31,1.6,20.2c25.8-5.6,54.7-10.6,86.3-14c31.4-3.4,60.5-4.7,86.8-4.7c2.1,12.5,3.9,26,5.1,40.5
	C180.9,55.3,181.4,68,181.6,79.8L181.6,79.8z"/>
<ellipse transform="matrix(0.9961 -8.819891e-02 8.819891e-02 0.9961 -3.5011 7.5611)" class="st1" cx="83.8" cy="43.4" rx="21.8" ry="23.9"/>
<path class="st1" d="M13.8,85.3c-0.2-1,0.4-1.9,1.4-2.1C37.8,77.7,64,72.9,93.5,70c29.7-2.9,56.6-3.1,79.8-2c0.9,0,1.7,0.8,1.8,1.7
	l0.2,2.3c0.1,1.1-0.8,2-1.9,2c-23.3-0.9-50-0.6-79.4,2.2c-29,2.8-55,7.4-77.5,12.7c-1,0.2-2-0.4-2.2-1.5L13.8,85.3L13.8,85.3z"/>
<path class="st1" d="M5.7,26.1c-0.2-1,0.4-2,1.4-2.2c23.8-5.4,50.6-10.2,80.2-13.3c29.8-3.2,57.3-4.2,81.8-4c0.9,0,1.7,0.7,1.8,1.7
	l0.2,2.3c0.1,1.1-0.8,2-1.9,2c-24.1-0.4-51.4,0.4-81.1,3.6c-29.6,3.1-56.3,8-79.8,13.4c-1,0.2-2-0.4-2.2-1.4
	C6,27.4,5.9,26.7,5.7,26.1L5.7,26.1z"/>
<ellipse transform="matrix(0.9961 -8.819891e-02 8.819891e-02 0.9961 -2.9174 12.5315)" class="st1" cx="140.3" cy="39.3" rx="7.3" ry="8"/>
<ellipse transform="matrix(0.9961 -8.819854e-02 8.819854e-02 0.9961 -4.45 2.8229)" class="st1" cx="29.7" cy="51.8" rx="7.3" ry="8"/>
<g id="Layer_2_1_">
	<g id="Layer_1-2">
		<path class="st2" d="M75.8,44.1c-0.1,1.6,1.1,2.9,2.5,3c0.1,0,0.1,0,0.2,0c1.5,0,2.7-1.3,2.7-2.8c0-1.6-1.2-2.8-2.7-2.8
			C77.1,41.5,75.9,42.6,75.8,44.1z"/>
		<path class="st2" d="M65.8,43.4c-0.5,0-0.9,0.4-0.9,0.9s0.3,0.9,0.8,1c0.5,0,0.9-0.4,0.9-0.9S66.3,43.4,65.8,43.4L65.8,43.4z"/>
		<path class="st2" d="M75.7,27.8c0.4-0.2,0.6-0.8,0.4-1.2s-0.7-0.6-1.2-0.4c-0.4,0.2-0.6,0.8-0.4,1.2C74.7,27.8,75.2,28,75.7,27.8
			C75.7,27.8,75.7,27.8,75.7,27.8z"/>
		<path class="st2" d="M78.4,32.8c0.7-0.3,0.9-1.2,0.6-1.9c-0.3-0.7-1.1-1-1.8-0.6c-0.7,0.3-0.9,1.2-0.6,1.9
			C76.9,32.8,77.7,33.1,78.4,32.8z"/>
		<path class="st2" d="M69.2,36.2c0.5,0.3,1.2,0.2,1.5-0.3c0.3-0.5,0.2-1.2-0.3-1.6c-0.5-0.3-1.2-0.2-1.5,0.3l0,0
			C68.5,35.1,68.7,35.8,69.2,36.2z"/>
		<path class="st2" d="M70.8,42.9c-0.7,0-1.4,0.5-1.4,1.3s0.5,1.4,1.3,1.5c0.7,0,1.4-0.5,1.4-1.3l0,0C72.1,43.6,71.6,42.9,70.8,42.9
			z"/>
		<path class="st2" d="M69.3,52.3c-0.5,0.3-0.8,1-0.5,1.6c0.3,0.6,0.9,0.8,1.5,0.5c0.5-0.3,0.8-1,0.5-1.6l0,0
			C70.6,52.3,69.9,52.1,69.3,52.3L69.3,52.3z"/>
		<path class="st2" d="M74.6,40c0.7,0.5,1.7,0.3,2.2-0.5c0.5-0.8,0.3-1.8-0.5-2.3c-0.7-0.5-1.7-0.3-2.2,0.5
			C73.6,38.5,73.8,39.5,74.6,40L74.6,40z"/>
		<path class="st2" d="M91.2,32.7c0.6,0.4,1.5,0.2,1.9-0.4c0.4-0.6,0.2-1.5-0.4-2c-0.6-0.4-1.5-0.2-1.9,0.4l0,0
			C90.4,31.4,90.5,32.2,91.2,32.7L91.2,32.7z"/>
		<path class="st2" d="M93.9,27.7c0.4,0.3,0.9,0.2,1.2-0.3s0.1-1-0.3-1.3s-0.9-0.2-1.2,0.3C93.4,26.8,93.5,27.4,93.9,27.7L93.9,27.7
			z"/>
		<path class="st2" d="M91.4,41.4c-1.5-0.1-2.8,1.1-2.8,2.7c-0.1,1.6,1.1,2.9,2.5,3c0.1,0,0.1,0,0.1,0c1.5,0,2.7-1.3,2.7-2.8
			C93.9,42.8,92.8,41.5,91.4,41.4L91.4,41.4z"/>
		<path class="st2" d="M79.3,39.8c0.5,0.9,1.4,1.6,2.4,1.6c1.5,0,2.7-1.3,2.7-2.8c0-0.4-0.1-0.9-0.3-1.3c-0.7-1.4-2.3-2-3.6-1.2
			C79.1,36.7,78.6,38.4,79.3,39.8L79.3,39.8z"/>
		<path class="st2" d="M100.4,36.2c0.5-0.3,0.8-1,0.5-1.6s-0.9-0.8-1.5-0.5s-0.8,1-0.5,1.6C99.2,36.2,99.8,36.5,100.4,36.2
			L100.4,36.2z"/>
		<path class="st2" d="M93.6,37.1c-0.8,0.4-1.1,1.4-0.7,2.2c0.4,0.8,1.3,1.1,2.1,0.7c0.8-0.4,1.1-1.4,0.7-2.2
			C95.3,37,94.3,36.7,93.6,37.1z"/>
		<path class="st2" d="M84.8,27.3c0.6,0,1.1-0.5,1.2-1.1c0-0.6-0.4-1.2-1-1.2c-0.6,0-1.1,0.4-1.2,1.1C83.7,26.7,84.2,27.2,84.8,27.3
			L84.8,27.3z"/>
		<path class="st2" d="M84.8,34.6c0.9,0.1,1.6-0.6,1.7-1.6c0.1-0.9-0.6-1.7-1.5-1.7c-0.9-0.1-1.6,0.6-1.7,1.6
			C83.2,33.7,83.9,34.5,84.8,34.6L84.8,34.6z"/>
		<path class="st2" d="M76.2,51.5c0.8-0.4,1.1-1.4,0.7-2.2c-0.4-0.8-1.3-1.1-2.1-0.7c-0.8,0.4-1.1,1.4-0.7,2.2
			C74.4,51.5,75.4,51.9,76.2,51.5z"/>
		<path class="st2" d="M85.8,37c-0.8,1.3-0.5,3,0.8,3.9c1.2,0.8,2.9,0.5,3.7-0.8s0.5-3-0.8-3.9c-0.4-0.3-0.9-0.5-1.5-0.5
			C87.1,35.7,86.3,36.2,85.8,37z"/>
		<path class="st2" d="M90.5,48.7c-0.7-1.4-2.3-2-3.6-1.2c-1.3,0.7-1.9,2.4-1.2,3.8c0.7,1.4,2.3,2,3.6,1.2l0,0
			C90.6,51.8,91.1,50.2,90.5,48.7C90.5,48.8,90.5,48.8,90.5,48.7z"/>
		<path class="st2" d="M95.2,48.5C94.4,48,93.4,48.3,93,49c-0.5,0.8-0.3,1.8,0.5,2.3c0.7,0.5,1.7,0.3,2.2-0.5
			C96.1,50.1,95.9,49,95.2,48.5L95.2,48.5z"/>
		<path class="st2" d="M100.3,44.3c0-0.8-0.5-1.4-1.3-1.5c-0.7,0-1.4,0.5-1.4,1.3s0.5,1.4,1.3,1.5l0,0
			C99.6,45.7,100.3,45.1,100.3,44.3z"/>
		<path class="st2" d="M104,43.3c-0.5,0-0.9,0.4-0.9,0.9s0.3,0.9,0.8,1c0.5,0,0.9-0.4,0.9-0.9C104.9,43.8,104.5,43.3,104,43.3z"/>
		<path class="st2" d="M100.5,52.3c-0.5-0.3-1.2-0.2-1.5,0.3c-0.3,0.5-0.2,1.2,0.3,1.6c0.5,0.3,1.2,0.2,1.5-0.3
			C101.2,53.4,101,52.7,100.5,52.3L100.5,52.3z"/>
		<path class="st2" d="M75.8,60.8c-0.4-0.3-0.9-0.2-1.2,0.3c-0.3,0.4-0.1,1,0.2,1.3c0.4,0.3,0.9,0.2,1.2-0.3l0,0
			C76.3,61.7,76.2,61.1,75.8,60.8z"/>
		<path class="st2" d="M94.1,60.8c-0.4,0.2-0.6,0.8-0.4,1.2c0.2,0.4,0.7,0.6,1.2,0.4c0.4-0.2,0.6-0.8,0.4-1.2
			C95,60.7,94.5,60.5,94.1,60.8C94.1,60.8,94.1,60.8,94.1,60.8z"/>
		<path class="st2" d="M84,51.6c0.8-1.3,0.5-3-0.8-3.9c-1.2-0.8-2.9-0.5-3.7,0.8s-0.5,3,0.8,3.9c0.4,0.3,0.9,0.5,1.5,0.5
			C82.6,52.8,83.5,52.4,84,51.6z"/>
		<path class="st2" d="M78.6,55.9c-0.6-0.4-1.5-0.2-1.9,0.4c-0.4,0.6-0.2,1.5,0.4,2c0.6,0.4,1.5,0.2,1.9-0.4l0,0
			C79.4,57.2,79.2,56.3,78.6,55.9z"/>
		<path class="st2" d="M84.9,61.3c-0.6,0-1.1,0.5-1.2,1.1s0.4,1.2,1,1.2c0.6,0,1.1-0.4,1.2-1.1C85.9,61.9,85.5,61.3,84.9,61.3
			L84.9,61.3z"/>
		<path class="st2" d="M84.9,54c-0.9-0.1-1.6,0.6-1.7,1.6c-0.1,0.9,0.6,1.7,1.5,1.7c0.9,0,1.6-0.6,1.7-1.6
			C86.4,54.8,85.7,54,84.9,54L84.9,54z"/>
		<path class="st2" d="M91.3,55.8c-0.7,0.4-0.9,1.2-0.6,1.9c0.3,0.7,1.2,1,1.8,0.6c0.7-0.3,0.9-1.2,0.6-1.9
			C92.8,55.7,92,55.4,91.3,55.8L91.3,55.8z"/>
	</g>
</g>
</svg>
